<?xml version="1.0" encoding="UTF-8" ?>
<!DOCTYPE svg PUBLIC "-//W3C//DTD SVG 1.1//EN" "http://www.w3.org/Graphics/SVG/1.1/DTD/svg11.dtd">
<svg width="100pt" height="100pt" viewBox="0 0 100 100" version="1.1" xmlns="http://www.w3.org/2000/svg">
<path fill="#ffffff" stroke="#ffffff" stroke-width="0.09375" opacity="1.00" d=" M 39.6 13.6 C 44.2 3.4 60.6 3.8 64.7 14.3 C 68.9 22.8 62.5 32.1 54.0 34.3 C 54.0 38.8 54.0 43.2 54.0 47.7 C 59.2 49.4 63.4 53.0 65.8 57.8 C 56.6 58.1 47.4 58.1 38.2 57.8 C 40.6 53.0 44.8 49.4 50.0 47.7 C 50.0 43.2 50.0 38.8 50.0 34.3 C 41.2 32.1 34.8 22.1 39.6 13.6 Z" />
<path fill="#ffffff" stroke="#ffffff" stroke-width="0.09375" opacity="1.00" d=" M 15.2 57.8 C 16.1 49.5 30.0 49.5 30.8 57.8 C 25.6 58.1 20.4 58.1 15.2 57.8 Z" />
<path fill="#ffffff" stroke="#ffffff" stroke-width="0.09375" opacity="1.00" d=" M 9.4 62.5 C 35.5 61.3 61.9 62.2 88.1 62.1 C 96.5 62.1 96.5 71.9 96.1 78.0 C 96.5 84.1 96.5 93.9 88.1 93.9 C 62.4 94.0 36.7 94.2 11.0 93.8 C 3.6 93.2 3.6 84.5 3.9 79.0 C 4.2 73.4 2.4 64.8 9.4 62.5 Z" />
</svg>
