<?xml version="1.0" encoding="UTF-8" ?>
<!DOCTYPE svg PUBLIC "-//W3C//DTD SVG 1.1//EN" "http://www.w3.org/Graphics/SVG/1.1/DTD/svg11.dtd">
<svg width="96pt" height="96pt" viewBox="0 0 96 96" version="1.1" xmlns="http://www.w3.org/2000/svg">
<path fill="#ffffff" stroke="#ffffff" stroke-width="0.09375" opacity="1.00" d=" M 29.4 20.3 C 34.0 19.3 39.2 21.2 41.8 25.2 C 44.9 29.5 44.6 36.0 40.9 40.0 C 37.4 44.0 31.1 45.1 26.4 42.6 C 22.0 40.3 19.4 35.1 20.2 30.2 C 20.8 25.4 24.7 21.3 29.4 20.3 Z" />
<path fill="#ffffff" stroke="#ffffff" stroke-width="0.09375" opacity="1.00" d=" M 61.4 20.3 C 66.0 19.3 71.2 21.2 73.8 25.2 C 76.9 29.5 76.6 36.0 72.9 40.0 C 69.4 44.0 63.1 45.1 58.4 42.6 C 53.7 40.2 51.1 34.5 52.3 29.4 C 53.2 24.9 56.9 21.3 61.4 20.3 Z" />
<path fill="#ffffff" stroke="#ffffff" stroke-width="0.09375" opacity="1.00" d=" M 6.6 60.6 C 18.4 51.5 35.0 49.4 48.6 55.5 C 52.5 57.3 56.6 59.2 59.3 62.7 C 60.7 66.9 59.9 71.6 60.0 76.0 C 41.3 76.0 22.7 76.0 4.0 76.0 C 4.0 72.1 3.7 68.1 4.2 64.2 C 4.4 62.6 5.5 61.5 6.6 60.6 Z" />
<path fill="#ffffff" stroke="#ffffff" stroke-width="0.09375" opacity="1.00" d=" M 59.9 52.0 C 67.1 51.9 74.6 52.5 81.3 55.8 C 84.9 57.5 88.8 59.3 91.3 62.7 C 92.7 66.9 91.9 71.6 92.0 76.0 C 84.0 76.0 76.0 76.0 68.0 76.0 C 67.9 70.8 68.6 65.5 67.6 60.3 C 66.1 56.8 62.5 54.7 59.9 52.0 Z" />
</svg>
