<?xml version="1.0" encoding="UTF-8" ?>
<!DOCTYPE svg PUBLIC "-//W3C//DTD SVG 1.1//EN" "http://www.w3.org/Graphics/SVG/1.1/DTD/svg11.dtd">
<svg width="100pt" height="100pt" viewBox="0 0 100 100" version="1.1" xmlns="http://www.w3.org/2000/svg">
<path fill="#ffffff" stroke="#ffffff" stroke-width="0.09375" opacity="1.00" d=" M 21.9 0.0 L 29.8 0.0 C 31.0 2.5 31.9 5.1 32.8 7.7 C 44.3 8.3 55.8 8.2 67.4 7.7 C 68.2 5.1 69.0 2.6 69.9 0.0 L 77.7 0.0 C 79.0 2.4 79.8 5.0 80.8 7.5 C 85.6 7.9 90.5 8.2 95.4 8.7 C 96.0 14.4 96.2 20.2 96.0 25.9 C 79.7 26.2 63.3 25.9 47.0 26.0 C 32.7 25.9 18.3 26.2 4.0 25.9 C 3.8 20.2 3.9 14.4 4.6 8.7 C 9.5 8.2 14.4 7.9 19.4 7.5 C 20.2 5.0 21.0 2.5 21.9 0.0 M 24.0 4.0 C 24.0 8.0 24.0 12.0 24.0 16.0 C 25.3 16.0 26.7 16.0 28.0 16.0 C 28.0 12.0 28.0 8.0 28.0 4.0 C 26.7 4.0 25.3 4.0 24.0 4.0 M 72.0 4.0 C 72.0 8.0 72.0 12.0 72.0 16.0 C 73.3 16.0 74.7 16.0 76.0 16.0 C 76.0 12.0 76.0 8.0 76.0 4.0 C 74.7 4.0 73.3 4.0 72.0 4.0 Z" />
<path fill="#ffffff" stroke="#ffffff" stroke-width="0.09375" opacity="1.00" d=" M 4.1 30.1 C 34.7 30.0 65.3 30.0 95.9 30.1 C 96.2 48.7 95.8 67.4 96.1 86.1 C 96.0 89.0 96.3 92.2 94.9 94.9 C 92.8 96.0 90.4 96.0 88.1 96.1 C 62.7 96.0 37.3 96.0 11.9 96.1 C 9.6 96.0 7.2 96.0 5.1 94.9 C 3.7 92.2 4.0 89.0 3.9 86.1 C 4.2 67.4 3.9 48.7 4.1 30.1 M 24.0 42.0 C 24.0 45.3 24.0 48.7 24.0 52.0 C 27.3 52.0 30.7 52.0 34.0 52.0 C 34.0 48.7 34.0 45.3 34.0 42.0 C 30.7 42.0 27.3 42.0 24.0 42.0 M 38.0 42.0 C 38.0 45.3 38.0 48.7 38.0 52.0 C 41.3 52.0 44.7 52.0 48.0 52.0 C 48.0 48.7 48.0 45.3 48.0 42.0 C 44.7 42.0 41.3 42.0 38.0 42.0 M 52.0 42.0 C 52.0 45.3 52.0 48.7 52.0 52.0 C 55.3 52.0 58.7 52.0 62.0 52.0 C 62.0 48.7 62.0 45.3 62.0 42.0 C 58.7 42.0 55.3 42.0 52.0 42.0 M 66.0 42.0 C 66.0 45.3 66.0 48.7 66.0 52.0 C 69.3 52.0 72.7 52.0 76.0 52.0 C 76.0 48.7 76.0 45.3 76.0 42.0 C 72.7 42.0 69.3 42.0 66.0 42.0 M 24.0 56.0 C 24.0 59.3 24.0 62.7 24.0 66.0 C 27.3 66.0 30.7 66.0 34.0 66.0 C 34.0 62.7 34.0 59.3 34.0 56.0 C 30.7 56.0 27.3 56.0 24.0 56.0 M 38.0 56.0 C 38.0 59.3 38.0 62.7 38.0 66.0 C 41.3 66.0 44.7 66.0 48.0 66.0 C 48.0 62.7 48.0 59.3 48.0 56.0 C 44.7 56.0 41.3 56.0 38.0 56.0 M 66.0 56.0 C 66.0 59.3 66.0 62.7 66.0 66.0 C 69.3 66.0 72.7 66.0 76.0 66.0 C 76.0 62.7 76.0 59.3 76.0 56.0 C 72.7 56.0 69.3 56.0 66.0 56.0 M 24.0 70.0 C 24.0 73.3 24.0 76.7 24.0 80.0 C 27.3 80.0 30.7 80.0 34.0 80.0 C 34.0 76.7 34.0 73.3 34.0 70.0 C 30.7 70.0 27.3 70.0 24.0 70.0 M 38.0 70.0 C 38.0 73.3 38.0 76.7 38.0 80.0 C 41.3 80.0 44.7 80.0 48.0 80.0 C 48.0 76.7 48.0 73.3 48.0 70.0 C 44.7 70.0 41.3 70.0 38.0 70.0 M 52.0 70.0 C 52.0 73.3 52.0 76.7 52.0 80.0 C 55.3 80.0 58.7 80.0 62.0 80.0 C 62.0 76.7 62.0 73.3 62.0 70.0 C 58.7 70.0 55.3 70.0 52.0 70.0 M 66.0 70.0 C 66.0 73.3 66.0 76.7 66.0 80.0 C 69.3 80.0 72.7 80.0 76.0 80.0 C 76.0 76.7 76.0 73.3 76.0 70.0 C 72.7 70.0 69.3 70.0 66.0 70.0 Z" />
</svg>
