<?xml version="1.0" encoding="UTF-8" ?>
<!DOCTYPE svg PUBLIC "-//W3C//DTD SVG 1.1//EN" "http://www.w3.org/Graphics/SVG/1.1/DTD/svg11.dtd">
<svg width="100pt" height="100pt" viewBox="0 0 100 100" version="1.1" xmlns="http://www.w3.org/2000/svg">
<path fill="#ffffff" stroke="#ffffff" stroke-width="0.09375" opacity="1.00" d=" M 32.3 9.3 C 39.4 6.0 47.3 6.0 55.0 6.2 C 60.3 6.4 65.6 6.1 70.9 6.0 C 71.4 9.1 72.0 12.2 72.6 15.3 C 76.1 14.5 79.5 13.0 82.4 11.0 C 84.5 13.1 87.5 14.8 88.3 17.8 C 87.2 21.0 85.6 24.1 84.6 27.3 C 87.7 27.9 90.8 28.5 94.0 29.1 C 94.0 32.3 94.0 35.6 93.9 38.9 C 90.8 39.4 87.7 40.0 84.6 40.6 C 85.5 44.0 86.9 47.2 88.8 50.2 C 86.3 53.3 83.9 56.5 82.0 60.0 C 79.0 65.5 75.2 70.8 74.4 77.2 C 73.7 82.8 74.0 88.4 74.0 94.0 C 60.7 94.0 47.4 94.0 34.1 94.0 C 34.0 91.4 34.0 88.8 34.0 86.2 C 28.7 85.9 21.8 86.6 18.7 81.3 C 15.6 75.6 16.0 68.8 14.8 62.5 C 11.7 60.6 7.4 59.4 6.1 55.8 C 6.3 50.9 9.9 47.2 12.0 43.0 C 15.3 37.8 15.6 31.4 17.7 25.7 C 20.1 18.6 25.4 12.4 32.3 9.3 M 64.4 10.2 C 64.0 12.5 63.5 14.8 63.1 17.1 C 60.7 18.0 58.4 19.0 56.0 19.9 C 54.1 18.6 52.1 17.4 50.0 16.1 C 49.5 16.7 48.9 17.3 48.3 17.9 C 49.4 19.9 50.8 21.9 51.4 24.1 C 51.1 26.5 50.0 28.8 49.2 31.1 C 46.9 31.5 44.5 31.9 42.2 32.3 C 42.2 33.4 42.2 34.5 42.2 35.6 C 44.5 36.0 46.8 36.5 49.0 36.9 C 50.0 39.3 51.0 41.6 51.9 44.0 C 50.6 45.9 49.4 47.9 48.1 49.9 C 48.7 50.5 49.3 51.1 49.9 51.7 C 51.9 50.6 53.9 49.2 56.1 48.6 C 58.6 48.9 60.8 50.0 63.1 50.8 C 63.5 53.1 63.9 55.5 64.4 57.8 C 65.4 57.8 66.5 57.8 67.6 57.8 C 68.0 55.4 68.4 53.1 68.9 50.7 C 71.2 49.9 73.4 48.8 75.9 48.6 C 78.1 49.2 80.1 50.6 82.1 51.7 C 82.7 51.1 83.3 50.5 83.9 49.9 C 82.6 47.9 81.3 46.0 80.1 44.0 C 81.0 41.6 81.9 39.2 82.8 36.8 C 85.1 36.4 87.5 36.0 89.8 35.5 C 89.8 34.6 89.8 33.6 89.7 32.7 C 87.6 32.1 85.3 31.7 83.4 30.6 C 81.5 28.9 80.9 26.3 79.9 24.1 C 81.2 22.1 82.6 20.1 83.9 18.1 C 83.2 17.4 82.6 16.7 81.9 16.1 C 79.9 17.4 77.9 18.7 76.0 20.0 C 73.6 19.0 71.3 18.0 68.9 17.1 C 68.4 14.8 68.0 12.5 67.6 10.2 C 66.5 10.2 65.5 10.2 64.4 10.2 Z" />
<path fill="#ffffff" stroke="#ffffff" stroke-width="0.09375" opacity="1.00" d=" M 63.4 24.4 C 67.7 23.2 72.7 25.2 74.8 29.2 C 77.3 33.8 75.6 40.4 70.8 42.8 C 65.9 45.5 59.0 43.3 56.9 38.1 C 54.4 32.8 57.6 25.6 63.4 24.4 M 64.4 28.3 C 60.7 29.1 58.9 33.8 60.8 37.0 C 62.5 40.1 67.0 40.9 69.7 38.7 C 72.2 36.8 72.7 32.8 70.7 30.3 C 69.3 28.4 66.7 27.6 64.4 28.3 Z" />
</svg>
