<?xml version="1.0" encoding="UTF-8" ?>
<!DOCTYPE svg PUBLIC "-//W3C//DTD SVG 1.1//EN" "http://www.w3.org/Graphics/SVG/1.1/DTD/svg11.dtd">
<svg width="480pt" height="480pt" viewBox="0 0 480 480" version="1.1" xmlns="http://www.w3.org/2000/svg">
<path fill="#ffffff" stroke="#ffffff" stroke-width="0.09375" opacity="1.00" d=" M 123.7 225.1 C 134.0 222.9 145.4 223.4 154.5 229.2 C 160.9 233.2 166.5 240.0 166.0 248.0 C 165.7 255.8 166.7 264.6 161.0 270.9 C 152.4 282.6 136.1 283.8 123.1 280.8 C 113.0 277.9 102.3 269.5 103.3 258.0 C 103.3 250.8 101.3 242.5 106.4 236.5 C 110.1 230.3 116.9 226.9 123.7 225.1 M 128.5 232.5 C 124.4 239.5 121.2 246.9 117.4 254.0 C 118.6 258.4 123.6 258.4 127.2 259.4 C 132.9 261.1 140.4 263.1 145.2 258.3 C 149.0 254.8 147.3 248.8 143.6 245.9 C 147.6 242.4 147.9 235.2 142.7 232.6 C 138.4 231.0 132.0 228.2 128.5 232.5 Z" />
<path fill="#ffffff" stroke="#ffffff" stroke-width="0.09375" opacity="1.00" d=" M 129.3 242.2 C 130.3 239.6 131.5 237.0 132.9 234.6 C 136.2 235.3 142.4 236.0 141.1 240.8 C 138.6 245.3 133.1 243.3 129.3 242.2 Z" />
<path fill="#ffffff" stroke="#ffffff" stroke-width="0.09375" opacity="1.00" d=" M 123.9 253.8 C 124.8 251.3 125.9 249.0 127.1 246.7 C 131.5 247.4 136.0 248.2 140.1 249.9 C 143.4 252.4 140.7 257.1 137.0 256.8 C 132.6 256.4 128.2 255.0 123.9 253.8 Z" />
</svg>
