<?xml version="1.0" encoding="UTF-8" ?>
<!DOCTYPE svg PUBLIC "-//W3C//DTD SVG 1.1//EN" "http://www.w3.org/Graphics/SVG/1.1/DTD/svg11.dtd">
<svg width="480pt" height="480pt" viewBox="0 0 480 480" version="1.1" xmlns="http://www.w3.org/2000/svg">
<path fill="#ffffff" stroke="#ffffff" stroke-width="0.09375" opacity="1.00" d=" M 228.1 59.8 C 231.5 33.9 255.7 12.4 282.0 13.3 C 310.6 12.6 336.1 38.5 335.7 67.0 C 337.2 91.4 320.0 115.0 296.7 121.8 C 293.6 137.2 290.5 152.7 288.2 168.3 C 294.6 172.9 300.7 179.6 300.7 187.9 C 301.4 195.3 297.2 202.2 291.4 206.4 C 277.9 216.3 257.3 214.4 245.8 202.2 C 240.6 196.9 237.8 188.6 240.8 181.5 C 243.3 174.8 249.4 170.2 255.5 167.0 C 257.0 150.6 255.9 134.2 256.4 117.8 C 236.2 106.6 224.0 82.7 228.1 59.8 M 272.4 18.6 C 258.8 21.5 246.2 29.9 239.2 42.1 C 226.4 62.8 231.0 92.5 250.2 107.8 C 253.5 111.1 259.2 112.5 260.9 117.2 C 261.3 134.4 261.1 151.7 259.7 168.8 C 257.9 171.7 254.2 172.5 251.7 174.7 C 245.8 178.6 242.0 186.8 245.3 193.5 C 254.2 212.2 286.6 213.7 295.4 194.2 C 298.8 184.5 291.9 175.9 284.3 170.8 C 283.7 155.5 289.3 140.4 291.1 125.1 C 291.3 120.9 293.9 117.0 298.2 116.4 C 324.3 107.8 338.0 75.9 328.1 50.7 C 320.8 28.1 295.6 13.9 272.4 18.6 Z" />
<path fill="#000000" stroke="#000000" stroke-width="0.09375" opacity="1.00" d=" M 272.4 18.6 C 295.6 13.9 320.8 28.1 328.1 50.7 C 338.0 75.9 324.3 107.8 298.2 116.4 C 293.9 117.0 291.3 120.9 291.1 125.1 C 289.3 140.4 283.7 155.5 284.3 170.8 C 291.9 175.9 298.8 184.5 295.4 194.2 C 286.6 213.7 254.2 212.2 245.3 193.5 C 242.0 186.8 245.8 178.6 251.7 174.7 C 254.2 172.5 257.9 171.7 259.7 168.8 C 261.1 151.7 261.3 134.4 260.9 117.2 C 259.2 112.5 253.5 111.1 250.2 107.8 C 231.0 92.5 226.4 62.8 239.2 42.1 C 246.2 29.9 258.8 21.5 272.4 18.6 Z" />
<path fill="#ffffff" stroke="#ffffff" stroke-width="0.09375" opacity="1.00" d=" M 146.2 162.2 C 155.3 152.4 169.5 147.6 182.7 149.9 C 194.6 152.2 206.4 154.1 218.3 156.6 C 211.1 160.5 205.1 167.0 202.6 175.0 C 194.8 198.3 186.9 221.6 179.1 245.0 C 176.0 255.0 183.2 266.2 193.4 268.0 C 233.3 276.4 273.1 285.0 313.0 293.4 C 323.9 295.2 335.1 286.8 336.4 275.8 C 339.5 249.5 342.4 223.1 345.4 196.8 C 346.1 190.8 344.7 184.7 341.7 179.4 C 355.9 184.8 367.5 197.5 369.6 212.8 C 370.5 224.2 368.2 235.6 367.5 246.9 C 365.0 274.3 362.8 301.6 360.2 329.0 C 357.1 350.7 334.7 367.4 313.0 364.1 C 251.2 351.3 189.4 338.5 127.6 325.6 C 106.4 321.0 90.0 299.8 92.2 278.0 C 90.6 265.8 100.7 256.5 101.7 245.0 C 101.1 251.4 103.2 257.6 102.9 264.0 C 112.6 287.9 152.8 289.0 163.8 265.7 C 166.6 258.5 164.9 250.5 165.1 243.0 C 158.0 223.0 131.6 219.2 114.5 228.1 C 113.1 229.1 111.7 229.9 110.3 230.8 C 118.2 216.0 125.1 200.5 132.7 185.5 C 136.9 177.6 139.8 168.7 146.2 162.2 M 143.7 173.5 C 135.9 189.3 127.9 205.1 120.5 221.1 C 127.1 218.9 134.2 220.0 141.0 219.8 C 153.2 221.0 165.8 228.7 169.1 241.1 C 169.3 249.0 169.5 257.0 168.8 264.9 C 165.0 279.7 148.4 287.8 134.0 286.3 C 119.6 287.6 103.9 280.2 98.6 266.2 C 91.8 285.1 100.4 308.3 118.5 317.3 C 126.1 321.8 135.1 322.1 143.5 324.3 C 189.1 333.6 234.7 343.3 280.3 352.6 C 284.5 353.3 288.8 355.3 293.1 354.6 C 257.3 347.1 221.6 338.6 186.2 329.0 C 183.0 328.2 180.4 323.9 183.1 321.2 C 185.9 317.2 191.0 319.8 194.9 320.1 C 232.2 325.3 269.1 332.5 306.0 339.9 C 316.5 342.2 328.1 340.3 336.7 333.6 C 342.6 328.3 346.6 321.0 348.2 313.2 C 349.2 309.0 354.2 306.3 357.8 309.4 C 359.3 279.5 363.5 249.9 365.0 220.0 C 366.3 207.8 359.5 196.2 350.1 188.9 C 348.9 215.3 344.3 241.6 341.9 268.0 C 341.1 273.3 341.3 278.7 338.9 283.6 C 343.6 298.6 326.5 313.3 311.9 311.0 C 271.0 302.7 230.1 294.4 189.1 286.1 C 174.6 282.9 163.5 262.8 173.8 250.5 C 173.9 246.6 174.9 242.9 176.1 239.3 C 183.3 217.4 191.1 195.8 198.2 174.0 C 199.7 168.3 202.9 163.1 207.4 159.4 C 199.0 157.3 190.3 156.1 181.8 154.4 C 166.8 151.7 150.4 159.7 143.7 173.5 M 191.0 281.8 C 231.2 290.0 271.4 298.1 311.6 306.3 C 323.5 308.5 335.3 298.5 335.8 286.7 C 332.3 291.6 327.8 296.3 321.7 297.8 C 316.1 299.7 310.3 297.4 304.8 296.4 C 267.2 288.7 229.6 281.0 192.0 273.2 C 183.2 271.2 177.2 262.8 176.0 254.1 C 170.9 265.3 179.1 279.6 191.0 281.8 M 337.7 338.5 C 327.7 345.8 314.4 346.4 302.6 344.0 C 264.2 336.0 225.6 328.8 186.7 323.6 C 189.5 325.4 192.9 326.0 196.1 326.9 C 231.6 336.5 267.4 344.6 303.4 352.1 C 314.8 353.7 327.3 352.9 337.2 346.4 C 348.9 339.2 354.7 324.9 354.2 311.5 C 350.4 321.3 347.0 332.3 337.7 338.5 M 331.3 354.4 C 322.4 358.3 312.6 356.9 303.2 357.1 C 322.8 365.4 347.5 354.7 354.2 334.4 C 348.9 343.3 341.2 351.0 331.3 354.4 M 294.3 355.2 C 295.5 358.6 298.2 353.1 294.3 355.2 M 298.6 356.3 C 298.6 357.8 302.3 357.8 302.4 356.3 C 301.4 355.4 299.6 355.4 298.6 356.3 Z" />
<path fill="#000000" stroke="#000000" stroke-width="0.09375" opacity="1.00" d=" M 143.7 173.5 C 150.4 159.7 166.8 151.7 181.8 154.4 C 190.3 156.1 199.0 157.3 207.4 159.4 C 202.9 163.1 199.7 168.3 198.2 174.0 C 191.1 195.8 183.3 217.4 176.1 239.3 C 174.9 242.9 173.9 246.6 173.8 250.5 C 163.5 262.8 174.6 282.9 189.1 286.1 C 230.1 294.4 271.0 302.7 311.9 311.0 C 326.5 313.3 343.6 298.6 338.9 283.6 C 341.3 278.7 341.1 273.3 341.9 268.0 C 344.3 241.6 348.9 215.3 350.1 188.9 C 359.5 196.2 366.3 207.8 365.0 220.0 C 363.5 249.9 359.3 279.5 357.8 309.4 C 354.2 306.3 349.2 309.0 348.2 313.2 C 346.6 321.0 342.6 328.3 336.7 333.6 C 328.1 340.3 316.5 342.2 306.0 339.9 C 269.1 332.5 232.2 325.3 194.9 320.1 C 191.0 319.8 185.9 317.2 183.1 321.2 C 180.4 323.9 183.0 328.2 186.2 329.0 C 221.6 338.6 257.3 347.1 293.1 354.6 C 288.8 355.3 284.5 353.3 280.3 352.6 C 234.7 343.3 189.1 333.6 143.5 324.3 C 135.1 322.1 126.1 321.8 118.5 317.3 C 100.4 308.3 91.8 285.1 98.6 266.2 C 103.9 280.2 119.6 287.6 134.0 286.3 C 148.4 287.8 165.0 279.7 168.8 264.9 C 169.5 257.0 169.3 249.0 169.1 241.1 C 165.8 228.7 153.2 221.0 141.0 219.8 C 134.2 220.0 127.1 218.9 120.5 221.1 C 127.9 205.1 135.9 189.3 143.7 173.5 Z" />
<path fill="#ffffff" stroke="#ffffff" stroke-width="0.09375" opacity="1.00" d=" M 223.8 193.0 C 225.7 201.8 230.7 209.9 238.2 215.0 C 256.1 227.8 282.0 229.0 300.6 216.8 C 306.9 212.5 312.0 206.3 314.3 198.9 C 313.4 205.9 313.4 213.0 312.7 220.0 C 313.3 230.8 307.7 241.6 298.5 247.4 C 280.6 259.0 255.9 258.4 238.1 246.8 C 228.8 240.8 221.5 230.4 222.4 219.0 C 223.0 210.3 223.7 201.7 223.8 193.0 M 227.1 210.4 C 227.5 217.1 225.7 224.4 229.3 230.6 C 236.8 245.0 254.4 251.7 270.0 251.0 C 284.2 251.2 300.5 245.1 306.3 231.2 C 308.8 226.1 307.2 220.4 308.7 215.2 C 302.9 222.8 293.2 226.2 284.3 228.5 C 264.1 232.7 240.4 227.0 227.1 210.4 Z" />
<path fill="#000000" stroke="#000000" stroke-width="0.09375" opacity="1.00" d=" M 227.1 210.4 C 240.4 227.0 264.1 232.7 284.3 228.5 C 293.2 226.2 302.9 222.8 308.7 215.2 C 307.2 220.4 308.8 226.1 306.3 231.2 C 300.5 245.1 284.2 251.2 270.0 251.0 C 254.4 251.7 236.8 245.0 229.3 230.6 C 225.7 224.4 227.5 217.1 227.1 210.4 Z" />
<path fill="#ffffff" stroke="#ffffff" stroke-width="0.09375" opacity="1.00" d=" M 127.9 232.9 C 131.3 228.2 137.2 231.3 141.6 232.5 C 146.7 235.3 147.1 242.7 142.4 246.1 C 147.3 249.2 148.2 256.6 142.6 259.5 C 134.8 262.9 126.1 259.0 118.4 256.7 C 118.0 255.8 117.5 254.9 117.1 254.0 C 120.9 247.0 124.0 239.8 127.9 232.9 M 132.2 234.5 C 131.0 236.8 129.8 239.0 128.5 241.2 C 128.9 241.7 129.9 242.6 130.3 243.1 C 134.4 244.4 139.7 244.6 141.0 239.4 C 140.3 238.2 139.6 237.1 138.9 235.9 C 136.7 235.5 134.4 234.9 132.2 234.5 M 126.3 246.8 C 124.3 248.9 124.5 252.1 122.4 254.2 C 128.8 254.0 135.6 260.1 141.3 254.9 C 141.3 253.7 141.3 252.5 141.3 251.4 C 140.4 250.6 139.5 249.7 138.6 248.9 C 134.4 248.8 130.5 246.2 126.3 246.8 Z" />
<path fill="#000000" stroke="#000000" stroke-width="0.09375" opacity="1.00" d=" M 331.3 354.4 C 341.2 351.0 348.9 343.3 354.2 334.4 C 347.5 354.7 322.8 365.4 303.2 357.1 C 312.6 356.9 322.4 358.3 331.3 354.4 Z" />
<path fill="#000000" stroke="#000000" stroke-width="0.09375" opacity="1.00" d=" M 294.3 355.2 C 298.2 353.1 295.5 358.6 294.3 355.2 Z" />
<path fill="#000000" stroke="#000000" stroke-width="0.09375" opacity="1.00" d=" M 298.6 356.3 C 299.6 355.4 301.4 355.4 302.4 356.3 C 302.3 357.8 298.6 357.8 298.6 356.3 Z" />
</svg>
