<?xml version="1.0" encoding="UTF-8" ?>
<!DOCTYPE svg PUBLIC "-//W3C//DTD SVG 1.1//EN" "http://www.w3.org/Graphics/SVG/1.1/DTD/svg11.dtd">
<svg width="480pt" height="480pt" viewBox="0 0 480 480" version="1.1" xmlns="http://www.w3.org/2000/svg">
<path fill="#ffffff" stroke="#ffffff" stroke-width="0.09375" opacity="1.00" d=" M 337.1 67.9 C 337.3 68.1 337.7 68.6 337.9 68.8 C 381.1 68.7 424.3 68.5 467.5 68.5 C 431.7 131.7 395.0 194.5 359.9 258.0 C 341.7 289.5 323.5 321.0 305.3 352.5 C 304.7 353.5 304.4 354.5 304.4 355.6 C 302.1 357.4 301.1 360.2 299.6 362.6 C 280.4 396.1 261.4 429.8 242.0 463.3 C 215.9 419.3 190.0 375.1 164.0 331.0 C 162.7 328.3 160.3 326.4 159.0 323.8 C 142.0 294.3 124.3 265.1 107.6 235.5 C 75.3 180.1 42.4 125.1 10.2 69.7 C 118.7 69.1 227.2 69.0 335.8 69.0 C 336.1 68.7 336.8 68.1 337.1 67.9 Z" />
</svg>
