<?xml version="1.0" encoding="UTF-8" ?>
<!DOCTYPE svg PUBLIC "-//W3C//DTD SVG 1.1//EN" "http://www.w3.org/Graphics/SVG/1.1/DTD/svg11.dtd">
<svg width="512pt" height="512pt" viewBox="0 0 512 512" version="1.1" xmlns="http://www.w3.org/2000/svg">
<path fill="#ffffff" stroke="#ffffff" stroke-width="0.09375" opacity="1.00" d=" M 253.3 51.4 C 259.5 49.7 264.5 54.5 268.7 58.3 C 284.9 72.4 300.4 87.3 314.4 103.6 C 331.8 124.7 341.5 152.6 338.8 180.0 C 338.3 189.2 335.7 198.0 334.0 207.0 C 326.8 241.8 319.6 276.6 312.4 311.4 C 311.4 317.2 305.9 321.8 300.0 321.5 C 270.7 321.5 241.3 321.5 212.0 321.5 C 206.1 321.7 200.6 317.0 199.8 311.1 C 191.4 271.1 183.1 231.1 174.6 191.1 C 168.6 161.4 177.0 129.6 195.8 105.8 C 209.7 88.9 225.8 73.7 242.2 59.2 C 245.7 56.4 248.8 52.7 253.3 51.4 M 254.4 144.4 C 239.4 144.9 225.4 155.9 221.5 170.3 C 217.9 182.3 221.1 196.1 229.9 205.1 C 239.0 214.9 253.9 218.9 266.7 214.7 C 283.4 209.9 294.6 191.7 291.5 174.6 C 289.1 157.1 272.1 143.2 254.4 144.4 Z" />
<path fill="#ffffff" stroke="#ffffff" stroke-width="0.09375" opacity="1.00" d=" M 254.4 168.5 C 262.0 167.2 269.2 174.5 267.8 182.1 C 267.0 189.1 259.0 194.3 252.3 191.7 C 246.7 190.0 243.0 183.8 244.3 178.1 C 245.2 173.1 249.4 169.1 254.4 168.5 Z" />
<path fill="#ffffff" stroke="#ffffff" stroke-width="0.09375" opacity="1.00" d=" M 147.6 255.0 C 147.6 244.8 151.0 234.6 157.4 226.5 C 164.5 258.1 170.3 290.0 177.7 321.5 C 171.5 321.4 165.2 321.6 159.0 321.4 C 152.7 321.2 147.4 315.3 147.6 309.0 C 147.6 291.0 147.6 273.0 147.6 255.0 Z" />
<path fill="#ffffff" stroke="#ffffff" stroke-width="0.09375" opacity="1.00" d=" M 354.6 226.5 C 360.9 234.6 364.4 244.7 364.4 255.0 C 364.4 273.0 364.4 291.0 364.4 309.0 C 364.6 315.3 359.3 321.2 353.0 321.4 C 346.8 321.6 340.6 321.4 334.4 321.5 C 341.9 290.0 347.6 258.1 354.6 226.5 Z" />
<path fill="#ffffff" stroke="#ffffff" stroke-width="0.09375" opacity="1.00" d=" M 159.4 345.5 C 166.1 345.1 172.1 351.3 171.7 357.9 C 171.6 388.3 171.7 418.7 171.6 449.0 C 171.7 455.9 164.8 461.8 158.1 460.8 C 152.0 459.9 147.3 454.1 147.6 448.0 C 147.6 418.0 147.6 388.0 147.6 358.0 C 147.3 351.6 152.8 345.4 159.4 345.5 Z" />
<path fill="#ffffff" stroke="#ffffff" stroke-width="0.09375" opacity="1.00" d=" M 229.6 345.5 C 247.2 345.5 264.8 345.4 282.4 345.5 C 281.1 360.6 271.5 373.3 263.8 385.8 C 260.7 391.9 251.3 391.9 248.2 385.8 C 240.5 373.3 230.9 360.6 229.6 345.5 Z" />
<path fill="#ffffff" stroke="#ffffff" stroke-width="0.09375" opacity="1.00" d=" M 351.4 345.5 C 358.1 345.1 364.1 351.3 363.7 357.9 C 363.6 388.3 363.7 418.7 363.6 449.0 C 363.7 455.9 356.8 461.8 350.1 460.8 C 344.4 459.9 339.8 454.8 339.7 449.0 C 339.6 418.7 339.7 388.3 339.7 358.0 C 339.3 351.6 344.8 345.4 351.4 345.5 Z" />
<path fill="#ffffff" stroke="#ffffff" stroke-width="0.09375" opacity="1.00" d=" M 207.4 377.5 C 213.7 377.1 219.6 382.6 219.6 389.0 C 219.7 409.0 219.7 429.1 219.6 449.1 C 219.7 455.9 212.8 461.8 206.1 460.8 C 200.4 459.9 195.7 454.8 195.7 449.0 C 195.6 429.3 195.7 409.7 195.7 390.0 C 195.3 383.6 200.8 377.4 207.4 377.5 Z" />
<path fill="#ffffff" stroke="#ffffff" stroke-width="0.09375" opacity="1.00" d=" M 303.4 377.5 C 309.7 377.1 315.6 382.6 315.6 389.0 C 315.7 409.0 315.7 429.1 315.6 449.1 C 315.7 455.9 308.8 461.8 302.1 460.8 C 296.4 459.9 291.8 454.8 291.7 449.0 C 291.6 429.3 291.7 409.7 291.7 390.0 C 291.3 383.6 296.8 377.4 303.4 377.5 Z" />
<path fill="#ffffff" stroke="#ffffff" stroke-width="0.09375" opacity="1.00" d=" M 255.4 417.5 C 261.8 416.9 267.8 422.5 267.9 428.9 C 268.1 435.6 268.0 442.4 268.0 449.1 C 267.9 455.4 262.3 460.9 256.0 460.9 C 249.7 460.9 244.1 455.4 244.0 449.1 C 243.9 442.7 244.0 436.3 244.0 429.9 C 243.7 423.6 249.0 417.6 255.4 417.5 Z" />
</svg>
