<?xml version="1.0" encoding="UTF-8" ?>
<!DOCTYPE svg PUBLIC "-//W3C//DTD SVG 1.1//EN" "http://www.w3.org/Graphics/SVG/1.1/DTD/svg11.dtd">
<svg width="512pt" height="512pt" viewBox="0 0 512 512" version="1.1" xmlns="http://www.w3.org/2000/svg">
<path fill="#ffffff" stroke="#ffffff" stroke-width="0.09375" opacity="1.00" d=" M 187.7 68.0 C 187.8 58.9 195.9 51.0 204.9 51.1 C 239.0 51.1 273.0 51.1 307.1 51.1 C 316.1 51.0 324.2 58.9 324.3 68.0 C 324.3 99.9 324.3 131.8 324.2 163.7 C 301.4 186.4 278.8 209.2 256.0 231.9 C 233.2 209.2 210.5 186.4 187.7 163.7 C 187.7 131.8 187.7 99.9 187.7 68.0 Z" />
<path fill="#ffffff" stroke="#ffffff" stroke-width="0.09375" opacity="1.00" d=" M 51.1 204.9 C 51.0 195.9 58.9 187.8 68.0 187.7 C 99.9 187.7 131.8 187.7 163.7 187.8 C 186.4 210.6 209.2 233.2 231.9 256.0 C 209.2 278.8 186.4 301.5 163.7 324.3 C 131.8 324.3 99.9 324.3 68.0 324.3 C 58.9 324.2 51.0 316.1 51.1 307.1 C 51.1 273.0 51.1 239.0 51.1 204.9 Z" />
<path fill="#ffffff" stroke="#ffffff" stroke-width="0.09375" opacity="1.00" d=" M 348.3 187.8 C 380.2 187.7 412.1 187.7 444.0 187.7 C 453.1 187.8 461.0 195.9 460.9 204.9 C 460.9 239.0 460.9 273.0 460.9 307.1 C 461.0 316.1 453.1 324.2 444.0 324.3 C 412.1 324.3 380.2 324.3 348.3 324.3 C 325.6 301.5 302.8 278.8 280.1 256.0 C 302.8 233.2 325.6 210.5 348.3 187.8 Z" />
<path fill="#ffffff" stroke="#ffffff" stroke-width="0.09375" opacity="1.00" d=" M 187.7 348.3 C 210.5 325.6 233.2 302.8 256.0 280.1 C 278.8 302.8 301.4 325.6 324.2 348.3 C 324.3 380.2 324.3 412.1 324.3 444.0 C 324.2 453.1 316.1 461.0 307.1 460.9 C 273.0 460.9 239.0 460.9 204.9 460.9 C 195.9 461.0 187.8 453.1 187.7 444.0 C 187.7 412.1 187.7 380.2 187.7 348.3 Z" />
</svg>
