<?xml version="1.0" encoding="UTF-8" ?>
<!DOCTYPE svg PUBLIC "-//W3C//DTD SVG 1.1//EN" "http://www.w3.org/Graphics/SVG/1.1/DTD/svg11.dtd">
<svg width="512pt" height="512pt" viewBox="0 0 512 512" version="1.1" xmlns="http://www.w3.org/2000/svg">
<path fill="#ffffff" stroke="#ffffff" stroke-width="0.09375" opacity="1.00" d=" M 195.4 99.6 C 249.1 95.0 304.4 120.4 335.3 164.6 C 339.2 170.6 336.4 179.1 330.2 182.2 C 286.3 206.7 242.3 231.2 198.3 255.6 C 198.3 255.8 198.3 256.2 198.3 256.4 C 242.2 280.8 286.1 305.4 330.0 329.9 C 336.8 333.1 339.1 342.6 334.6 348.6 C 316.3 373.8 290.1 393.3 260.7 403.7 C 231.5 414.2 199.1 415.8 169.1 407.8 C 136.5 399.6 106.8 380.4 85.8 354.1 C 52.7 313.5 42.3 255.9 59.3 206.3 C 70.3 173.5 92.4 144.4 121.4 125.4 C 143.4 110.7 169.1 102.0 195.4 99.6 M 203.2 140.3 C 191.2 143.2 182.4 155.8 184.2 168.1 C 185.4 181.1 197.9 191.8 211.0 190.6 C 225.7 190.4 237.7 175.3 234.8 160.9 C 232.9 146.6 217.1 136.3 203.2 140.3 Z" />
<path fill="#ffffff" stroke="#ffffff" stroke-width="0.09375" opacity="1.00" d=" M 430.5 225.7 C 442.3 223.3 455.1 230.5 459.1 241.9 C 463.9 253.2 458.5 267.1 448.0 273.0 C 435.0 281.1 416.2 274.3 411.2 259.9 C 405.3 245.7 415.4 228.1 430.5 225.7 Z" />
<path fill="#ffffff" stroke="#ffffff" stroke-width="0.09375" opacity="1.00" d=" M 274.3 226.3 C 284.8 223.1 297.2 227.5 303.1 237.0 C 310.0 247.2 307.9 262.4 298.3 270.3 C 287.0 280.6 267.3 277.4 259.8 264.2 C 250.9 250.7 258.6 230.4 274.3 226.3 Z" />
<path fill="#ffffff" stroke="#ffffff" stroke-width="0.09375" opacity="1.00" d=" M 350.4 226.5 C 358.1 224.1 367.1 225.3 373.6 230.3 C 382.3 236.5 386.1 248.6 382.7 258.7 C 379.4 269.9 367.6 277.6 356.1 276.4 C 344.8 275.4 334.8 266.3 333.2 255.1 C 330.9 243.0 338.7 230.2 350.4 226.5 Z" />
</svg>
