<?xml version="1.0" encoding="UTF-8" ?>
<!DOCTYPE svg PUBLIC "-//W3C//DTD SVG 1.1//EN" "http://www.w3.org/Graphics/SVG/1.1/DTD/svg11.dtd">
<svg width="512pt" height="512pt" viewBox="0 0 512 512" version="1.1" xmlns="http://www.w3.org/2000/svg">
<path fill="#ffffff" stroke="#ffffff" stroke-width="0.09375" opacity="1.00" d=" M 252.3 68.4 C 259.7 66.5 268.0 69.2 273.2 74.8 C 297.6 99.4 322.0 124.0 346.3 148.7 C 349.4 151.5 349.5 156.6 346.6 159.5 C 299.1 207.7 251.6 255.9 204.0 304.0 C 199.3 309.1 190.4 304.6 190.6 298.0 C 190.6 241.7 190.6 185.3 190.6 129.0 C 190.5 126.5 191.9 124.3 193.6 122.6 C 209.3 106.7 225.2 90.8 240.9 74.9 C 243.9 71.6 247.9 69.4 252.3 68.4 Z" />
<path fill="#ffffff" stroke="#ffffff" stroke-width="0.09375" opacity="1.00" d=" M 139.2 181.3 C 144.2 179.8 149.3 183.9 149.3 189.0 C 149.4 233.7 149.4 278.3 149.3 323.0 C 149.4 329.2 141.4 333.5 136.6 329.4 C 117.8 312.1 99.2 294.7 80.5 277.5 C 76.5 273.4 71.6 269.9 69.6 264.4 C 65.7 256.0 68.4 245.4 75.4 239.4 C 94.8 221.1 114.5 203.1 134.0 184.9 C 135.5 183.5 137.0 181.8 139.2 181.3 Z" />
<path fill="#ffffff" stroke="#ffffff" stroke-width="0.09375" opacity="1.00" d=" M 381.2 189.3 C 384.1 188.7 387.5 189.0 389.5 191.4 C 405.6 207.7 421.9 223.8 437.8 240.2 C 446.2 248.6 446.2 263.3 437.8 271.8 C 417.9 292.2 397.7 312.3 377.6 332.6 C 374.8 335.7 369.2 335.7 366.4 332.6 C 346.8 312.9 327.2 293.1 307.7 273.3 C 304.7 270.5 304.7 265.4 307.5 262.5 C 330.2 239.6 353.1 216.8 375.6 193.6 C 377.3 192.0 378.9 190.1 381.2 189.3 Z" />
<path fill="#ffffff" stroke="#ffffff" stroke-width="0.09375" opacity="1.00" d=" M 267.3 303.3 C 270.4 301.6 274.6 302.4 277.0 305.0 C 296.4 324.6 315.8 344.2 335.1 363.9 C 338.3 366.5 338.6 371.8 335.7 374.6 C 314.9 395.9 294.0 417.0 273.0 438.0 C 264.7 446.1 250.3 446.1 242.0 438.0 C 225.7 421.7 209.3 405.3 193.1 388.9 C 190.3 386.2 189.6 381.4 192.4 378.5 C 215.8 354.8 239.2 331.2 262.5 307.5 C 264.1 306.1 265.4 304.4 267.3 303.3 Z" />
</svg>
