<?xml version="1.0" encoding="UTF-8" ?>
<!DOCTYPE svg PUBLIC "-//W3C//DTD SVG 1.1//EN" "http://www.w3.org/Graphics/SVG/1.1/DTD/svg11.dtd">
<svg width="512pt" height="512pt" viewBox="0 0 512 512" version="1.1" xmlns="http://www.w3.org/2000/svg">
<path fill="#ffffff" stroke="#ffffff" stroke-width="0.09375" opacity="1.00" d=" M 81.7 81.5 C 154.7 78.1 228.1 101.3 287.4 143.6 C 339.7 180.9 381.2 233.2 405.3 292.7 C 423.0 336.3 432.0 383.7 430.1 430.7 C 409.6 430.9 389.2 430.8 368.7 430.8 C 370.0 421.1 369.2 411.3 368.6 401.6 C 366.1 366.8 357.1 332.5 341.9 301.0 C 315.7 246.0 271.0 200.1 216.6 172.4 C 175.1 151.4 128.2 140.5 81.7 142.7 C 81.7 122.3 81.7 101.9 81.7 81.5 Z" />
<path fill="#ffffff" stroke="#ffffff" stroke-width="0.09375" opacity="1.00" d=" M 81.7 204.6 C 127.6 201.7 174.0 215.5 212.0 241.1 C 273.7 282.3 312.1 356.7 307.6 431.0 C 287.1 431.0 266.7 431.0 246.2 431.0 C 249.0 392.9 236.3 354.2 212.6 324.5 C 181.8 285.5 131.4 262.1 81.7 266.3 C 81.7 245.8 81.8 225.2 81.7 204.6 Z" />
<path fill="#ffffff" stroke="#ffffff" stroke-width="0.09375" opacity="1.00" d=" M 125.4 327.5 C 141.3 325.4 158.1 331.2 169.2 342.8 C 182.0 355.7 187.1 375.6 182.0 393.0 C 176.4 414.5 155.5 431.3 133.0 431.0 C 113.1 431.8 93.8 419.5 85.3 401.7 C 77.3 385.2 78.8 364.4 89.5 349.5 C 97.7 337.6 111.0 329.4 125.4 327.5 Z" />
</svg>
