<?xml version="1.0" encoding="UTF-8" ?>
<!DOCTYPE svg PUBLIC "-//W3C//DTD SVG 1.1//EN" "http://www.w3.org/Graphics/SVG/1.1/DTD/svg11.dtd">
<svg width="512pt" height="512pt" viewBox="0 0 512 512" version="1.1" xmlns="http://www.w3.org/2000/svg">
<path fill="#ffffff" stroke="#ffffff" stroke-width="0.09375" opacity="1.00" d=" M 391.3 70.4 C 411.4 67.9 432.7 80.7 438.7 100.3 C 444.6 116.9 439.1 136.4 426.7 148.7 C 392.5 182.8 358.3 217.0 324.2 251.2 C 321.4 253.6 321.4 258.4 324.2 260.8 C 358.2 294.8 392.2 328.8 426.2 362.8 C 436.7 372.4 443.1 386.8 441.7 401.1 C 439.9 414.8 432.2 428.1 420.0 435.0 C 402.3 445.7 378.2 441.6 363.9 427.2 C 329.4 392.9 295.2 358.5 260.8 324.2 C 258.4 321.5 253.6 321.5 251.2 324.2 C 216.5 358.8 181.9 393.5 147.2 428.2 C 135.3 440.3 116.1 445.6 100.1 439.0 C 81.6 432.9 69.2 413.2 71.0 394.0 C 72.2 382.8 76.8 371.8 84.9 363.9 C 119.1 329.5 153.5 295.2 187.8 260.8 C 190.6 258.4 190.6 253.6 187.8 251.2 C 155.0 218.3 122.2 185.5 89.3 152.7 C 75.7 141.3 66.3 122.5 71.6 104.7 C 75.1 90.0 86.5 77.3 101.1 73.0 C 117.6 67.5 136.6 73.1 148.7 85.3 C 182.9 119.5 217.0 153.7 251.2 187.8 C 253.6 190.5 258.4 190.5 260.8 187.8 C 295.7 153.0 330.5 118.1 365.4 83.3 C 372.3 76.3 381.7 72.1 391.3 70.4 Z" />
</svg>
