<?xml version="1.0" encoding="UTF-8" ?>
<!DOCTYPE svg PUBLIC "-//W3C//DTD SVG 1.1//EN" "http://www.w3.org/Graphics/SVG/1.1/DTD/svg11.dtd">
<svg width="512pt" height="512pt" viewBox="0 0 512 512" version="1.1" xmlns="http://www.w3.org/2000/svg">
<path fill="#ffffff" stroke="#ffffff" stroke-width="0.09375" opacity="1.00" d=" M 234.7 51.1 C 281.1 78.5 327.7 105.6 374.1 133.0 C 327.6 160.1 281.2 187.4 234.7 214.7 C 234.7 199.7 234.7 184.7 234.7 169.7 C 203.5 176.0 175.6 196.6 160.5 224.6 C 148.9 245.8 144.6 271.1 149.0 295.0 C 154.1 326.3 174.2 354.6 201.7 370.3 C 237.4 391.6 285.4 389.5 319.0 364.9 C 340.0 350.1 355.4 327.6 361.6 302.6 C 367.5 279.0 365.0 253.5 355.1 231.3 C 378.1 220.8 401.0 210.3 424.0 199.8 C 445.7 247.2 446.1 303.9 424.5 351.4 C 405.2 395.0 368.3 430.4 323.9 447.8 C 274.7 467.7 217.1 464.5 170.3 439.7 C 142.5 425.0 118.4 403.1 101.3 376.7 C 77.0 339.6 66.8 293.5 73.5 249.6 C 80.6 201.2 108.0 156.3 147.6 127.6 C 173.0 108.9 203.3 96.9 234.7 93.3 C 234.7 79.2 234.7 65.2 234.7 51.1 Z" />
</svg>
