<?xml version="1.0" encoding="UTF-8" ?>
<!DOCTYPE svg PUBLIC "-//W3C//DTD SVG 1.1//EN" "http://www.w3.org/Graphics/SVG/1.1/DTD/svg11.dtd">
<svg width="512pt" height="512pt" viewBox="0 0 512 512" version="1.1" xmlns="http://www.w3.org/2000/svg">
<path fill="#ffffff" stroke="#ffffff" stroke-width="0.09375" opacity="1.00" d=" M 399.9 60.8 C 414.9 56.4 432.1 62.0 442.1 73.9 C 453.5 86.8 455.3 106.9 446.6 121.6 C 442.4 129.5 434.9 134.7 428.3 140.3 C 385.2 175.8 342.1 211.4 299.0 246.9 L 298.3 246.9 C 286.9 235.6 275.7 224.2 264.3 213.0 C 301.6 167.4 339.2 122.1 376.7 76.7 C 382.5 69.1 390.6 63.1 399.9 60.8 M 406.3 88.5 C 401.3 90.4 397.8 95.7 398.3 101.1 C 398.2 108.1 405.1 113.9 412.0 113.3 C 419.4 112.9 425.2 105.3 423.6 98.0 C 422.5 90.3 413.5 85.4 406.3 88.5 Z" />
<path fill="#ffffff" stroke="#ffffff" stroke-width="0.09375" opacity="1.00" d=" M 233.7 203.7 C 236.0 201.3 240.1 201.1 242.5 203.5 C 264.2 225.1 285.9 246.8 307.5 268.5 C 310.6 270.9 310.5 276.0 307.5 278.5 C 301.7 284.2 296.1 290.0 290.2 295.6 C 265.6 270.7 240.7 246.1 216.1 221.2 C 222.0 215.4 227.7 209.5 233.7 203.7 Z" />
<path fill="#ffffff" stroke="#ffffff" stroke-width="0.09375" opacity="1.00" d=" M 202.9 226.6 C 204.8 226.4 206.8 226.0 208.7 226.2 C 234.5 252.3 260.6 278.2 286.5 304.2 C 278.3 360.0 250.8 412.1 212.0 452.7 C 161.7 402.1 111.1 351.8 60.7 301.3 C 60.5 301.0 60.3 300.5 60.1 300.2 C 99.3 262.6 149.4 236.2 202.9 226.6 Z" />
</svg>
