<?xml version="1.0" encoding="UTF-8" ?>
<!DOCTYPE svg PUBLIC "-//W3C//DTD SVG 1.1//EN" "http://www.w3.org/Graphics/SVG/1.1/DTD/svg11.dtd">
<svg width="512pt" height="512pt" viewBox="0 0 512 512" version="1.1" xmlns="http://www.w3.org/2000/svg">
<path fill="#ffffff" stroke="#ffffff" stroke-width="0.09375" opacity="1.00" d=" M 251.3 51.4 C 264.7 49.5 280.2 55.6 285.1 69.0 C 287.2 74.7 287.0 81.0 287.1 87.0 C 287.1 145.3 287.2 203.7 287.1 262.0 C 287.3 275.8 276.3 287.5 263.9 291.9 C 255.5 294.8 246.6 291.2 239.9 286.2 C 232.5 280.7 225.9 272.6 225.8 263.0 C 225.8 204.4 225.8 145.7 225.8 87.0 C 225.7 80.0 226.2 72.7 229.4 66.4 C 233.2 57.7 242.2 52.5 251.3 51.4 Z" />
<path fill="#ffffff" stroke="#ffffff" stroke-width="0.09375" opacity="1.00" d=" M 345.4 118.6 C 360.1 116.3 375.2 122.0 386.0 132.0 C 430.0 168.0 456.0 225.1 452.7 282.0 C 451.0 318.3 437.5 353.7 415.3 382.3 C 386.5 419.6 344.0 445.8 298.0 455.9 C 259.0 464.8 217.3 461.6 180.1 446.9 C 147.1 434.0 117.6 412.0 96.2 383.7 C 69.1 348.3 55.6 302.5 59.8 258.0 C 63.8 207.7 91.4 160.8 131.1 130.1 C 142.0 120.7 158.9 115.9 172.3 122.7 C 179.9 128.2 183.0 138.0 183.3 147.0 C 182.4 164.0 169.2 176.5 158.3 188.3 C 141.5 205.4 129.6 227.4 125.3 251.1 C 118.7 285.9 127.7 323.4 149.9 351.1 C 162.8 367.6 179.9 380.6 199.1 388.9 C 233.5 404.0 274.3 403.9 308.7 388.7 C 336.5 376.5 359.8 354.2 372.5 326.6 C 391.4 285.7 386.8 235.0 360.8 198.2 C 350.8 183.7 335.3 173.1 328.6 156.4 C 322.0 142.3 330.2 122.6 345.4 118.6 Z" />
</svg>
