<?xml version="1.0" encoding="UTF-8" ?>
<!DOCTYPE svg PUBLIC "-//W3C//DTD SVG 1.1//EN" "http://www.w3.org/Graphics/SVG/1.1/DTD/svg11.dtd">
<svg width="512pt" height="512pt" viewBox="0 0 512 512" version="1.1" xmlns="http://www.w3.org/2000/svg">
<path fill="#ffffff" stroke="#ffffff" stroke-width="0.09375" opacity="1.00" d=" M 361.4 105.7 C 368.0 104.3 375.3 106.1 380.0 110.9 C 403.7 134.5 421.6 163.9 431.3 195.8 C 444.6 238.5 443.2 285.6 427.5 327.4 C 417.3 355.0 400.9 380.3 380.0 401.1 C 374.2 407.0 364.6 408.4 357.1 404.9 C 349.4 401.2 344.4 392.6 345.5 384.0 C 345.9 378.3 349.5 373.4 353.5 369.5 C 380.1 342.2 396.6 305.1 398.9 267.0 C 402.3 221.3 385.2 174.6 353.1 142.0 C 348.7 137.8 345.2 132.2 345.4 126.0 C 345.0 116.5 352.2 107.6 361.4 105.7 Z" />
<path fill="#ffffff" stroke="#ffffff" stroke-width="0.09375" opacity="1.00" d=" M 221.4 118.4 C 229.3 110.2 244.0 111.0 251.1 119.9 C 254.8 124.0 256.2 129.6 256.0 135.0 C 256.0 216.0 256.0 297.0 256.0 378.0 C 256.4 387.3 249.8 396.5 240.7 398.6 C 233.7 400.5 225.9 398.4 220.9 393.1 C 195.6 367.9 170.4 342.8 145.2 317.5 C 127.2 317.4 109.1 317.6 91.0 317.4 C 80.5 317.0 71.5 307.5 71.6 297.0 C 71.6 269.7 71.6 242.3 71.6 215.0 C 71.5 204.5 80.5 194.9 91.0 194.6 C 109.1 194.4 127.2 194.6 145.2 194.5 C 170.6 169.1 196.0 143.7 221.4 118.4 Z" />
<path fill="#ffffff" stroke="#ffffff" stroke-width="0.09375" opacity="1.00" d=" M 303.4 163.6 C 310.0 162.1 317.3 164.1 322.1 168.9 C 342.8 189.2 355.8 217.1 357.9 246.0 C 361.2 282.0 347.3 319.2 321.1 344.1 C 312.9 351.3 299.1 350.1 292.3 341.6 C 285.5 334.0 286.0 321.4 293.2 314.2 C 308.3 299.2 317.3 278.3 317.5 257.0 C 317.8 235.5 309.2 214.1 294.2 198.8 C 288.7 193.7 286.0 185.4 288.2 178.1 C 290.1 171.0 296.2 165.2 303.4 163.6 Z" />
</svg>
