<?xml version="1.0" encoding="UTF-8" ?>
<!DOCTYPE svg PUBLIC "-//W3C//DTD SVG 1.1//EN" "http://www.w3.org/Graphics/SVG/1.1/DTD/svg11.dtd">
<svg width="512pt" height="512pt" viewBox="0 0 512 512" version="1.1" xmlns="http://www.w3.org/2000/svg">
<path fill="#ffffff" stroke="#ffffff" stroke-width="0.09375" opacity="1.00" d=" M 239.0 51.8 C 289.7 47.5 341.5 63.6 381.8 94.4 C 379.3 89.0 378.7 81.9 383.5 77.5 C 389.3 71.6 400.4 74.3 403.0 82.1 C 408.9 99.6 414.8 117.1 420.4 134.6 C 422.7 143.0 413.6 151.7 405.3 148.7 C 388.3 143.1 371.3 137.4 354.3 131.7 C 347.8 129.8 343.8 121.9 346.7 115.7 C 348.8 110.4 354.6 107.6 360.1 108.3 C 332.0 89.3 299.0 77.3 265.1 75.4 C 230.5 73.7 195.5 82.1 165.6 99.5 C 138.3 115.3 115.3 138.3 99.5 165.6 C 82.6 194.6 74.1 228.4 75.3 262.0 C 76.2 282.7 81.0 303.2 88.7 322.3 C 90.7 326.9 90.3 332.9 86.5 336.5 C 81.2 342.1 70.7 340.6 67.4 333.6 C 53.6 300.5 47.6 263.6 53.2 228.0 C 61.3 164.7 101.9 107.2 157.6 76.6 C 182.5 62.6 210.5 54.3 239.0 51.8 Z" />
<path fill="#ffffff" stroke="#ffffff" stroke-width="0.09375" opacity="1.00" d=" M 220.1 134.9 C 220.5 128.9 225.9 124.0 231.9 124.0 C 248.0 124.0 264.0 124.0 280.1 124.0 C 286.1 124.0 291.5 128.9 291.9 134.9 C 292.2 141.5 291.8 148.0 292.1 154.6 C 304.5 158.9 316.0 165.5 326.0 174.0 C 331.6 170.9 337.0 167.5 342.6 164.5 C 348.1 161.5 355.6 164.0 358.5 169.6 C 366.4 183.3 374.4 197.0 382.2 210.7 C 385.4 215.9 383.8 223.4 378.6 226.7 C 373.2 230.1 367.6 233.1 362.1 236.3 C 364.5 249.3 364.5 262.7 362.1 275.7 C 367.6 278.9 373.2 281.9 378.6 285.3 C 383.8 288.6 385.4 296.1 382.2 301.3 C 374.4 315.0 366.4 328.7 358.5 342.4 C 355.6 348.0 348.1 350.5 342.6 347.5 C 337.0 344.5 331.6 341.1 326.0 338.0 C 316.0 346.5 304.5 353.1 292.1 357.4 C 291.1 365.6 293.9 374.5 290.2 382.2 C 288.0 386.1 283.4 388.2 279.1 388.0 C 263.3 388.0 247.6 388.0 231.9 388.0 C 225.9 388.0 220.5 383.1 220.1 377.1 C 219.8 370.5 220.2 364.0 219.9 357.4 C 207.5 353.0 196.0 346.5 186.0 338.0 C 180.4 341.1 175.0 344.5 169.4 347.5 C 163.8 350.5 156.4 347.9 153.5 342.4 C 145.6 328.7 137.6 315.0 129.8 301.3 C 126.6 296.1 128.2 288.6 133.4 285.4 C 138.8 281.9 144.4 279.0 149.9 275.7 C 147.5 262.7 147.5 249.3 149.9 236.3 C 144.4 233.0 138.8 230.1 133.4 226.6 C 128.2 223.4 126.6 215.9 129.8 210.7 C 137.6 197.0 145.6 183.3 153.5 169.6 C 156.4 164.0 163.9 161.5 169.4 164.5 C 175.0 167.5 180.4 170.9 186.0 174.0 C 196.0 165.5 207.5 158.9 219.9 154.6 C 220.3 148.1 219.8 141.5 220.1 134.9 M 250.4 220.5 C 234.1 222.7 220.7 237.5 220.1 253.9 C 218.8 270.3 230.4 286.5 246.4 290.6 C 260.4 294.8 276.7 289.1 285.1 277.1 C 293.7 265.5 294.2 248.7 286.3 236.6 C 278.9 224.7 264.2 218.1 250.4 220.5 Z" />
<path fill="#ffffff" stroke="#ffffff" stroke-width="0.09375" opacity="1.00" d=" M 426.0 175.0 C 431.5 169.9 441.3 171.7 444.6 178.4 C 458.2 211.2 464.3 247.7 459.0 283.0 C 454.3 319.3 439.4 354.0 416.6 382.6 C 387.8 419.1 346.4 445.8 300.9 455.8 C 242.0 469.7 177.9 454.2 130.2 417.5 C 132.7 422.9 133.3 430.1 128.5 434.4 C 122.7 440.4 111.6 437.7 109.0 429.9 C 103.2 412.7 97.5 395.4 91.8 378.1 C 88.9 369.9 97.5 360.7 105.9 363.1 C 123.2 368.7 140.4 374.5 157.7 380.3 C 164.2 382.2 168.2 390.1 165.3 396.3 C 163.3 401.6 157.3 404.3 151.9 403.7 C 179.7 422.5 212.3 434.4 245.9 436.5 C 279.3 438.4 313.3 430.8 342.6 414.6 C 391.8 388.0 427.3 337.5 434.8 282.0 C 439.8 250.9 435.1 218.7 423.3 189.7 C 421.1 184.8 421.8 178.5 426.0 175.0 Z" />
</svg>
