<?xml version="1.0" encoding="UTF-8" ?>
<!DOCTYPE svg PUBLIC "-//W3C//DTD SVG 1.1//EN" "http://www.w3.org/Graphics/SVG/1.1/DTD/svg11.dtd">
<svg width="512pt" height="512pt" viewBox="0 0 512 512" version="1.1" xmlns="http://www.w3.org/2000/svg">
<path fill="#ffffff" stroke="#ffffff" stroke-width="0.09375" opacity="1.00" d=" M 82.4 52.5 C 85.2 51.9 88.1 51.6 91.0 51.7 C 126.7 51.7 162.3 51.6 198.0 51.7 C 217.4 52.3 234.5 69.5 234.6 88.9 C 234.6 125.3 234.6 161.7 234.6 198.1 C 234.5 215.5 220.6 231.6 203.4 234.5 C 197.7 235.6 191.8 235.2 186.0 235.2 C 153.3 235.2 120.7 235.3 88.0 235.2 C 68.5 234.8 51.5 217.5 51.2 198.1 C 51.0 162.0 51.1 126.0 51.1 90.0 C 51.0 72.2 64.8 55.5 82.4 52.5 Z" />
<path fill="#ffffff" stroke="#ffffff" stroke-width="0.09375" opacity="1.00" d=" M 308.4 52.5 C 311.2 51.9 314.1 51.6 317.0 51.7 C 352.7 51.7 388.3 51.6 424.0 51.7 C 443.5 52.3 460.5 69.4 460.8 88.9 C 460.9 125.3 460.9 161.7 460.8 198.1 C 460.5 217.5 443.5 234.8 424.0 235.2 C 387.3 235.3 350.7 235.3 314.0 235.2 C 294.6 234.7 277.5 217.5 277.4 198.1 C 277.4 161.7 277.4 125.3 277.4 88.9 C 277.5 71.5 291.3 55.6 308.4 52.5 Z" />
<path fill="#ffffff" stroke="#ffffff" stroke-width="0.09375" opacity="1.00" d=" M 310.4 277.5 C 347.9 276.8 385.5 277.3 423.0 277.2 C 443.2 276.8 460.9 295.0 460.9 315.0 C 460.9 351.3 461.0 387.7 460.8 424.1 C 460.1 443.3 443.3 460.0 424.1 460.6 C 387.7 460.7 351.3 460.6 314.9 460.6 C 295.5 460.5 277.8 443.6 277.4 424.1 C 277.3 387.7 277.4 351.3 277.4 315.0 C 277.1 296.6 292.2 279.7 310.4 277.5 Z" />
<path fill="#ffffff" stroke="#ffffff" stroke-width="0.09375" opacity="1.00" d=" M 61.5 279.7 C 114.6 279.1 167.9 279.6 221.1 279.4 C 228.0 278.9 234.8 284.9 234.6 292.0 C 235.1 299.3 228.2 305.6 221.0 305.2 C 169.0 305.2 117.0 305.2 65.0 305.2 C 58.4 305.6 52.1 300.4 51.2 293.9 C 50.2 287.5 55.1 280.9 61.5 279.7 Z" />
<path fill="#ffffff" stroke="#ffffff" stroke-width="0.09375" opacity="1.00" d=" M 60.3 357.5 C 62.2 357.0 64.1 356.9 66.0 356.9 C 114.7 356.9 163.3 356.9 212.0 356.9 C 215.8 356.9 219.7 356.5 223.4 357.6 C 229.6 359.5 233.7 366.7 231.8 372.9 C 230.4 378.5 224.9 382.8 219.1 382.5 C 167.4 382.5 115.6 382.5 63.9 382.5 C 57.6 382.7 51.8 377.2 51.2 371.0 C 50.5 365.1 54.6 359.1 60.3 357.5 Z" />
<path fill="#ffffff" stroke="#ffffff" stroke-width="0.09375" opacity="1.00" d=" M 61.4 434.6 C 113.9 434.1 166.5 434.5 219.1 434.4 C 227.0 433.9 233.9 442.2 232.0 449.9 C 230.8 455.8 225.0 460.2 219.1 460.1 C 167.7 460.1 116.3 460.1 64.9 460.1 C 58.4 460.4 52.1 455.4 51.2 448.9 C 50.2 442.5 55.0 435.9 61.4 434.6 Z" />
</svg>
