<?xml version="1.0" encoding="UTF-8" ?>
<!DOCTYPE svg PUBLIC "-//W3C//DTD SVG 1.1//EN" "http://www.w3.org/Graphics/SVG/1.1/DTD/svg11.dtd">
<svg width="512pt" height="512pt" viewBox="0 0 512 512" version="1.1" xmlns="http://www.w3.org/2000/svg">
<path fill="#ffffff" stroke="#ffffff" stroke-width="0.09375" opacity="1.00" d=" M 131.2 136.2 C 168.7 96.5 226.0 76.4 280.0 84.6 C 314.4 89.2 347.1 104.8 372.7 128.2 C 360.5 142.4 348.3 156.7 336.1 170.9 C 314.8 150.6 285.5 138.8 256.0 139.1 C 227.2 138.8 198.7 150.1 177.4 169.4 C 151.2 192.9 136.8 228.6 139.2 263.7 C 148.5 263.9 157.8 263.4 167.0 263.9 C 174.2 264.9 177.8 274.5 173.1 280.0 C 153.2 303.0 133.1 325.8 113.2 348.8 C 93.3 325.7 73.1 302.9 53.2 279.8 C 48.2 274.1 52.7 264.5 60.0 263.8 C 67.7 263.5 75.4 263.8 83.1 263.7 C 80.7 217.0 98.5 169.7 131.2 136.2 Z" />
<path fill="#ffffff" stroke="#ffffff" stroke-width="0.09375" opacity="1.00" d=" M 338.9 247.9 C 358.8 225.0 378.9 202.1 398.8 179.2 C 418.7 202.3 438.9 225.1 458.8 248.2 C 463.7 253.9 459.3 263.5 452.0 264.1 C 444.3 264.4 436.6 264.2 428.9 264.2 C 427.3 299.7 414.5 334.6 392.4 362.5 C 364.8 398.1 322.8 422.3 278.0 427.6 C 232.1 434.0 183.9 420.3 147.9 391.1 C 160.0 376.9 172.2 362.8 184.2 348.5 C 205.0 364.2 230.8 373.5 257.0 372.9 C 295.5 373.1 333.0 352.2 353.9 320.0 C 364.8 303.4 371.2 284.0 372.7 264.2 C 363.8 264.2 354.9 264.4 346.0 264.2 C 338.3 263.9 333.8 253.7 338.9 247.9 Z" />
</svg>
