<?xml version="1.0" encoding="UTF-8" ?>
<!DOCTYPE svg PUBLIC "-//W3C//DTD SVG 1.1//EN" "http://www.w3.org/Graphics/SVG/1.1/DTD/svg11.dtd">
<svg width="640pt" height="279pt" viewBox="0 0 640 279" version="1.1" xmlns="http://www.w3.org/2000/svg">
<path fill="#ffffff" stroke="#ffffff" stroke-width="0.09375" opacity="1.00" d=" M 164.2 73.2 C 174.1 72.8 184.0 73.0 193.8 73.1 C 193.9 111.7 194.0 150.3 193.8 188.9 C 183.3 189.1 172.7 189.0 162.1 188.9 C 161.7 183.3 162.2 177.7 161.8 172.1 C 157.2 171.8 152.6 172.1 148.0 172.0 C 142.4 172.1 136.7 171.5 131.1 171.9 C 126.6 177.0 123.4 183.0 119.7 188.7 C 118.1 189.1 116.6 189.0 115.0 189.0 C 106.3 189.0 97.5 188.9 88.8 188.7 C 90.2 185.7 92.1 182.8 94.0 180.0 C 115.9 146.6 137.7 113.0 159.7 79.7 C 161.2 77.5 162.5 75.2 164.2 73.2 M 153.5 136.6 C 151.8 139.2 149.8 141.7 148.9 144.8 C 153.2 145.1 157.6 145.2 161.9 144.9 C 162.2 138.2 161.9 131.5 161.8 124.8 C 158.6 128.4 156.3 132.6 153.5 136.6 Z" />
<path fill="#ffffff" stroke="#ffffff" stroke-width="0.09375" opacity="1.00" d=" M 224.7 88.7 C 228.2 83.5 231.0 77.8 235.1 73.1 C 246.5 73.0 257.9 72.9 269.3 73.1 C 266.9 78.4 262.8 82.7 259.7 87.6 C 251.1 101.0 242.1 114.1 233.3 127.4 C 232.4 129.1 231.8 131.4 232.8 133.3 C 234.5 137.0 237.0 140.3 239.2 143.8 C 241.9 147.5 244.1 151.6 246.7 155.4 C 252.1 162.7 256.9 170.4 261.9 178.1 C 264.2 181.7 267.3 184.9 269.2 188.8 C 258.2 188.5 247.1 188.8 236.0 188.3 C 234.2 188.5 233.4 186.6 232.5 185.4 C 222.6 170.1 212.2 155.1 202.3 139.7 C 200.5 136.9 198.5 134.2 197.6 131.0 C 198.0 128.9 199.2 127.1 200.3 125.3 C 208.4 113.1 216.6 101.0 224.7 88.7 Z" />
<path fill="#ffffff" stroke="#ffffff" stroke-width="0.09375" opacity="1.00" d=" M 275.5 77.6 C 276.6 76.0 277.6 74.3 279.1 73.1 C 289.7 72.9 300.4 73.0 311.0 73.0 C 303.9 83.6 297.1 94.4 289.9 105.0 C 285.3 111.4 281.0 117.9 276.5 124.4 C 274.9 126.5 274.1 129.2 274.3 131.8 C 274.9 134.8 276.7 137.3 278.1 139.8 C 282.3 146.3 286.8 152.6 290.9 159.2 C 294.1 164.5 298.4 169.1 301.3 174.7 C 304.1 179.7 307.9 184.0 311.1 188.7 C 300.2 189.1 289.3 188.5 278.4 188.5 C 277.6 187.9 277.0 187.2 276.5 186.5 C 265.3 169.7 254.4 152.7 242.9 136.1 C 242.1 134.8 241.2 133.5 241.2 131.9 C 241.0 128.8 243.2 126.3 244.7 123.7 C 255.0 108.3 265.2 92.9 275.5 77.6 Z" />
<path fill="#ffffff" stroke="#ffffff" stroke-width="0.09375" opacity="1.00" d=" M 315.2 73.1 C 325.1 72.9 334.9 72.9 344.8 73.1 C 345.0 110.1 344.8 147.1 344.9 184.0 C 344.9 185.6 344.9 187.2 344.8 188.7 C 334.9 188.9 325.0 188.8 315.1 188.8 C 314.9 185.9 315.0 182.9 315.0 180.0 C 315.1 144.4 315.0 108.8 315.2 73.1 Z" />
<path fill="#ffffff" stroke="#ffffff" stroke-width="0.09375" opacity="1.00" d=" M 446.1 73.1 C 456.0 72.8 465.9 73.3 475.8 73.3 C 476.2 80.8 476.0 88.4 475.9 95.9 C 466.0 96.2 456.1 95.7 446.2 95.7 C 446.0 88.2 445.9 80.7 446.1 73.1 Z" />
<path fill="#ffffff" stroke="#ffffff" stroke-width="0.09375" opacity="1.00" d=" M 140.7 86.7 C 143.7 83.8 146.3 80.4 149.8 78.1 C 149.2 79.7 148.4 81.1 147.4 82.5 C 138.6 94.0 129.8 105.5 121.2 117.1 C 105.5 139.0 88.8 160.2 73.1 182.1 C 70.1 186.4 66.9 190.4 64.2 194.9 C 66.5 195.0 68.7 195.0 71.0 195.0 C 245.7 195.0 420.3 195.0 595.0 195.0 C 600.6 195.1 606.3 194.9 611.9 195.1 C 612.1 198.3 612.1 201.6 611.9 204.9 C 608.6 205.1 605.3 205.0 602.0 205.0 C 426.7 205.0 251.3 205.0 76.0 205.0 C 59.6 204.9 43.2 205.1 26.8 204.9 C 29.0 202.1 31.5 199.5 33.9 196.9 C 49.5 180.5 65.8 164.8 81.5 148.5 C 93.6 135.9 105.8 123.5 117.7 110.7 C 125.4 102.7 132.9 94.6 140.7 86.7 Z" />
<path fill="#ffffff" stroke="#ffffff" stroke-width="0.09375" opacity="1.00" d=" M 600.4 81.6 C 605.4 80.1 611.4 83.0 612.9 88.1 C 613.2 90.6 613.2 93.2 612.5 95.6 C 610.9 97.4 609.1 99.1 606.9 100.3 C 604.1 100.7 601.1 100.7 598.4 99.5 C 594.3 96.9 593.0 91.7 594.2 87.1 C 595.6 84.7 597.8 82.7 600.4 81.6 M 601.3 83.4 C 598.9 84.1 597.2 86.2 595.8 88.1 C 593.9 93.0 597.8 99.0 603.0 99.2 C 609.1 100.1 613.4 91.8 610.0 86.9 C 608.0 84.4 604.7 82.1 601.3 83.4 Z" />
<path fill="#ffffff" stroke="#ffffff" stroke-width="0.09375" opacity="1.00" d=" M 599.1 86.0 C 601.3 85.9 603.5 85.7 605.7 86.3 C 608.1 87.7 606.3 90.4 605.4 92.1 C 605.7 93.5 606.4 94.8 607.0 96.1 C 604.5 95.7 603.9 92.4 601.5 91.9 C 600.8 93.4 601.5 96.4 599.1 96.1 C 598.9 92.8 598.9 89.4 599.1 86.0 M 601.0 88.0 C 601.0 88.5 601.0 89.4 601.0 89.9 C 602.3 90.0 603.7 90.1 605.0 90.1 C 605.0 89.6 605.0 88.6 605.0 88.1 C 603.6 88.0 602.3 87.9 601.0 88.0 Z" />
<path fill="#ffffff" stroke="#ffffff" stroke-width="0.09375" opacity="1.00" d=" M 370.2 107.2 C 379.6 100.6 391.8 98.7 403.0 100.3 C 406.4 100.9 409.4 102.6 412.6 103.8 C 412.8 103.1 413.2 101.7 413.5 101.1 C 422.9 100.9 432.4 101.0 441.9 101.1 C 442.0 130.4 442.0 159.6 441.9 188.9 C 432.3 189.1 422.8 189.1 413.3 188.9 C 413.0 187.6 412.8 186.3 412.5 185.1 C 408.9 186.7 405.2 188.9 401.0 188.8 C 394.6 188.6 388.0 189.5 381.8 187.2 C 374.0 184.9 367.2 180.2 361.4 174.6 C 356.2 169.4 353.2 162.6 351.5 155.6 C 349.6 149.3 350.5 142.7 350.7 136.2 C 351.7 129.7 354.2 123.4 358.1 118.1 C 361.6 113.9 365.8 110.4 370.2 107.2 M 390.4 126.4 C 386.3 128.0 382.4 130.3 379.8 133.8 C 377.5 137.1 376.4 141.1 376.3 145.0 C 376.1 150.7 379.8 155.6 383.9 159.1 C 387.0 162.3 391.8 162.9 396.0 163.0 C 399.8 163.2 402.8 160.8 405.6 158.7 C 407.8 156.9 410.1 155.0 411.3 152.3 C 413.5 147.9 413.2 142.7 411.8 138.2 C 408.7 129.9 399.1 123.9 390.4 126.4 Z" />
<path fill="#ffffff" stroke="#ffffff" stroke-width="0.09375" opacity="1.00" d=" M 480.1 100.1 C 489.6 99.9 499.2 99.9 508.7 100.1 C 508.9 101.5 509.1 102.8 509.3 104.1 C 513.0 103.5 516.1 100.9 519.9 101.0 C 525.5 101.1 531.3 100.2 536.7 102.2 C 539.9 103.4 543.4 104.6 545.9 107.1 C 548.0 109.3 549.7 111.9 552.0 114.0 C 555.5 111.5 557.4 107.4 561.1 105.1 C 566.9 101.0 574.2 101.0 581.0 101.0 C 588.7 100.5 596.3 104.0 601.6 109.4 C 606.7 114.5 610.5 121.6 610.0 129.0 C 609.8 149.0 610.1 168.9 609.9 188.9 C 600.6 189.2 591.4 189.0 582.2 188.7 C 581.9 176.5 582.1 164.2 582.0 152.0 C 581.8 146.7 582.4 141.4 581.7 136.1 C 580.6 132.5 578.3 128.9 574.8 127.2 C 572.6 126.7 570.3 126.6 568.1 126.7 C 565.0 129.4 560.7 132.4 561.0 136.9 C 560.9 154.3 561.1 171.6 560.9 188.9 C 551.0 189.1 541.0 189.1 531.1 188.9 C 530.9 172.3 531.1 155.6 531.0 139.0 C 531.4 133.8 527.7 128.7 522.9 126.9 C 520.3 126.6 517.3 126.2 515.2 128.2 C 512.6 130.4 509.8 133.3 510.0 136.9 C 509.9 154.3 510.1 171.6 509.9 188.9 C 500.0 189.1 490.0 189.1 480.1 188.9 C 480.0 159.3 480.0 129.7 480.1 100.1 Z" />
<path fill="#ffffff" stroke="#ffffff" stroke-width="0.09375" opacity="1.00" d=" M 446.1 101.1 C 456.0 101.0 465.9 100.9 475.8 101.1 C 475.9 130.4 476.1 159.7 475.9 188.9 C 466.0 189.1 456.0 189.1 446.1 188.9 C 446.0 159.7 446.0 130.4 446.1 101.1 Z" />
</svg>
