<svg xmlns="http://www.w3.org/2000/svg" version="1.1" viewBox="-0.05 10.25 399.29 157.65">
<path fill="#ffffff" stroke="#ffffff" stroke-width="0.09375" opacity="1.00" d=" M 276.7 15.8 C 288.9 11.1 302.1 10.3 315.0 10.4 C 319.9 10.3 324.9 10.6 329.7 11.4 C 329.2 18.4 327.2 25.0 325.7 31.8 C 325.2 31.7 324.2 31.6 323.7 31.5 C 323.2 27.9 323.2 24.0 321.3 20.7 C 318.8 17.1 314.5 14.7 310.0 14.6 C 302.3 14.5 294.5 16.8 288.0 20.9 C 282.3 24.5 277.0 28.8 273.7 34.7 C 270.4 40.6 268.1 47.2 268.1 54.0 C 268.0 59.1 269.2 64.4 272.6 68.4 C 276.2 72.5 281.5 75.0 287.0 75.2 C 289.9 75.3 292.9 74.7 295.7 74.0 C 297.8 67.6 299.9 61.2 301.8 54.8 C 302.3 52.8 303.2 50.3 301.2 48.8 C 298.7 47.4 295.7 47.2 293.3 45.5 C 299.5 44.9 305.7 45.3 312.0 45.2 C 318.1 45.3 324.1 44.8 330.2 45.7 C 328.0 46.7 325.6 47.4 323.5 48.5 C 321.6 49.5 321.1 51.6 320.4 53.3 C 318.1 60.4 316.2 67.6 313.7 74.6 C 300.0 78.5 285.2 80.9 271.4 76.7 C 262.6 74.4 254.8 68.3 250.9 60.1 C 246.6 50.9 248.1 39.4 254.4 31.4 C 260.0 24.1 268.2 19.1 276.7 15.8 Z"/>
<path fill="#ffffff" stroke="#ffffff" stroke-width="0.09375" opacity="1.00" d=" M 12.0 69.0 C 31.7 49.6 51.4 30.2 71.1 10.8 C 71.7 10.8 72.9 10.9 73.6 10.9 C 73.6 29.3 73.6 47.7 73.6 66.0 C 73.7 68.3 73.5 71.0 75.0 72.9 C 76.9 74.6 79.3 75.6 81.4 77.0 C 69.1 77.2 56.7 77.6 44.4 76.7 C 47.2 75.7 50.3 75.2 52.9 73.7 C 54.5 73.0 55.0 71.2 55.4 69.6 C 56.2 65.2 56.2 60.8 56.1 56.3 C 48.7 56.4 41.3 56.1 33.9 56.3 C 29.9 56.0 27.6 59.7 25.0 62.0 C 22.1 65.3 17.8 68.2 17.5 72.9 C 19.9 74.5 22.5 75.5 25.1 76.8 C 16.7 77.5 8.4 77.1 0.0 77.2 L 0.0 76.3 C 4.3 74.4 8.7 72.5 12.0 69.0 M 35.2 52.2 C 42.1 52.4 48.9 52.3 55.8 52.3 C 56.1 45.4 56.3 38.5 56.3 31.6 C 49.1 38.3 42.0 45.1 35.2 52.2 Z"/>
<path fill="#ffffff" stroke="#ffffff" stroke-width="0.09375" opacity="1.00" d=" M 386.1 13.1 C 387.5 11.8 389.4 11.1 391.1 10.3 C 391.5 29.5 391.1 48.8 391.3 68.1 C 391.4 69.8 391.5 71.8 392.7 73.2 C 394.7 74.7 397.0 75.4 399.2 76.5 C 393.2 77.7 387.1 77.1 381.0 77.2 C 374.7 77.1 368.4 77.5 362.1 76.8 C 364.7 75.4 367.5 75.0 370.3 74.2 C 372.2 73.0 372.9 70.7 373.3 68.6 C 373.8 64.5 373.6 60.4 373.7 56.3 C 365.3 56.5 356.9 55.8 348.5 56.6 C 345.3 59.0 342.8 62.2 339.9 64.9 C 337.8 67.1 335.1 69.4 335.2 72.7 C 337.3 74.7 340.3 75.6 342.9 76.8 C 334.3 77.4 325.7 77.4 317.1 76.8 C 321.8 74.5 326.7 72.3 330.4 68.4 C 349.0 50.0 367.5 31.5 386.1 13.1 M 352.8 52.2 C 359.7 52.4 366.6 52.4 373.5 52.2 C 373.6 45.3 373.9 38.4 373.9 31.5 C 366.7 38.3 359.7 45.2 352.8 52.2 Z"/>
<path fill="#ffffff" stroke="#ffffff" stroke-width="0.09375" opacity="1.00" d=" M 102.1 13.4 C 105.6 11.9 109.4 12.4 113.0 12.4 C 119.5 12.4 126.0 12.4 132.5 12.4 C 135.4 27.1 137.9 41.9 140.9 56.6 C 153.3 42.1 165.2 27.1 177.4 12.4 C 186.9 12.3 196.4 12.5 205.8 12.4 C 205.9 12.7 205.9 13.4 205.9 13.7 C 202.7 14.3 199.1 14.4 196.4 16.4 C 193.6 18.6 192.5 22.1 191.4 25.4 C 187.4 38.4 183.3 51.4 179.2 64.3 C 178.6 66.5 177.9 68.7 177.7 71.0 C 177.5 72.3 178.5 73.8 179.7 74.2 C 182.4 75.0 185.0 75.7 187.5 76.6 C 182.1 77.5 176.5 77.1 171.0 77.2 C 162.4 77.0 153.7 77.6 145.1 76.8 C 148.1 75.1 151.7 75.1 155.0 73.9 C 159.1 71.7 160.3 66.8 161.7 62.6 C 165.4 49.9 169.8 37.4 173.3 24.7 C 171.3 26.6 169.6 28.7 167.8 30.9 C 155.9 45.6 143.8 60.1 131.8 74.8 C 130.8 76.3 129.0 77.0 127.4 77.6 C 123.9 59.6 120.9 41.5 117.2 23.5 C 115.7 27.1 114.5 30.7 113.4 34.4 C 110.3 44.6 107.1 54.7 103.9 64.9 C 103.2 67.6 102.1 71.3 104.6 73.4 C 107.3 74.8 110.3 75.4 112.9 76.8 C 108.3 77.4 103.6 77.2 99.0 77.2 C 94.0 77.2 89.1 77.4 84.2 76.8 C 87.1 75.4 90.4 74.8 93.4 73.4 C 97.5 70.7 98.9 65.7 100.3 61.3 C 104.8 46.6 109.8 32.0 114.1 17.2 C 110.5 14.8 106.3 14.1 102.1 13.4 Z"/>
<path fill="#ffffff" stroke="#ffffff" stroke-width="0.09375" opacity="1.00" d=" M 212.9 13.4 C 217.0 11.6 221.6 12.5 226.0 12.4 C 235.5 12.6 245.1 12.0 254.6 12.7 C 251.8 14.0 248.6 14.5 245.7 15.7 C 242.6 17.5 241.5 21.2 240.4 24.4 C 236.0 38.6 231.5 52.9 227.0 67.1 C 226.5 69.4 225.2 72.7 228.0 74.0 C 230.9 75.0 234.1 75.2 236.9 76.8 C 227.9 77.6 218.9 77.0 210.0 77.2 C 204.9 77.1 199.7 77.8 194.7 76.3 C 197.8 75.4 201.0 75.2 204.0 73.9 C 207.1 72.2 208.3 68.5 209.4 65.4 C 213.7 51.7 218.0 38.0 222.3 24.2 C 222.9 21.9 223.7 19.5 223.2 17.1 C 220.9 13.9 216.2 14.7 212.9 13.4 Z"/>
<path fill="#ffffff" stroke="#ffffff" stroke-width="0.09375" opacity="1.00" d=" M 234.9 98.7 C 236.6 94.4 241.4 92.0 245.9 92.0 C 253.3 91.9 260.6 92.1 268.0 92.0 C 271.6 92.0 275.7 91.8 278.5 94.5 C 280.5 96.4 280.8 99.3 280.8 101.9 C 280.8 104.4 281.0 107.0 280.2 109.3 C 279.3 111.1 277.5 112.1 276.1 113.4 C 278.2 114.5 281.4 115.3 281.8 118.1 C 282.4 121.3 282.4 124.7 281.8 127.9 C 280.9 131.9 276.9 134.5 273.0 134.7 C 266.3 135.1 259.7 134.7 253.0 134.9 C 248.8 134.8 244.4 135.4 240.4 133.6 C 237.7 132.3 235.1 129.9 234.5 126.8 C 234.1 124.3 234.2 121.7 234.2 119.1 C 238.2 119.1 242.2 119.1 246.3 119.1 C 247.2 121.2 247.3 124.5 250.1 124.8 C 253.7 125.5 257.4 125.2 261.0 125.2 C 263.8 125.1 266.8 125.4 269.5 124.5 C 272.3 122.9 270.5 118.1 267.6 117.7 C 263.1 117.0 258.6 117.5 254.1 117.4 C 254.1 114.7 254.1 112.0 254.2 109.3 C 258.1 109.3 262.0 109.7 265.9 109.1 C 269.1 108.8 271.2 103.6 267.8 102.1 C 263.6 101.1 259.3 101.6 255.0 101.5 C 252.7 101.7 249.9 101.2 248.1 103.0 C 247.2 104.5 246.8 106.1 246.2 107.7 C 242.2 107.7 238.2 107.7 234.2 107.7 C 234.3 104.7 234.0 101.6 234.9 98.7 Z"/>
<path fill="#ffffff" stroke="#ffffff" stroke-width="0.09375" opacity="1.00" d=" M 288.1 99.1 C 289.7 94.3 295.1 91.8 299.9 92.0 C 308.6 92.0 317.4 91.9 326.1 92.0 C 331.3 91.8 335.9 96.1 336.7 101.1 C 337.2 104.6 337.2 108.2 336.6 111.7 C 335.8 116.4 331.5 120.1 326.8 120.5 C 319.5 121.0 312.2 120.3 305.0 120.7 C 302.4 120.7 300.6 122.8 298.8 124.3 C 302.2 126.3 306.2 125.7 310.0 125.8 C 319.0 125.7 328.0 125.7 337.0 125.8 C 336.9 128.8 336.9 131.8 336.9 134.8 C 320.6 134.8 304.2 134.8 287.8 134.8 C 287.7 130.5 287.6 126.2 287.6 122.0 C 287.7 119.7 287.9 117.2 289.4 115.4 C 291.7 112.5 295.4 111.1 299.0 110.9 C 306.6 110.3 314.2 111.1 321.8 110.6 C 323.6 110.5 325.1 109.1 325.6 107.4 C 326.5 104.6 323.9 101.5 321.0 101.7 C 315.4 101.5 309.7 101.4 304.0 101.8 C 301.0 102.0 300.4 105.5 299.4 107.7 C 295.5 107.7 291.6 107.7 287.7 107.7 C 287.7 104.9 287.4 102.0 288.1 99.1 Z"/>
<path fill="#ffffff" stroke="#ffffff" stroke-width="0.09375" opacity="1.00" d=" M 82.6 112.6 C 85.0 107.1 90.8 103.2 96.9 103.3 C 108.0 103.3 119.0 103.3 130.1 103.3 C 137.5 103.0 144.4 108.9 145.7 116.1 C 146.3 120.0 146.1 123.8 146.0 127.7 C 140.9 127.7 135.8 127.7 130.8 127.7 C 130.0 124.9 129.9 121.4 127.0 120.0 C 124.2 118.8 121.0 119.2 118.0 119.1 C 112.7 119.3 107.4 118.8 102.1 119.3 C 99.2 119.5 97.0 122.2 96.9 125.0 C 96.4 131.0 96.8 137.0 96.6 143.0 C 96.7 145.9 96.4 149.2 98.5 151.5 C 100.7 153.8 104.1 153.4 107.0 153.5 C 113.0 153.4 119.0 153.7 125.0 153.4 C 127.4 153.4 129.9 152.2 130.9 150.0 C 131.7 147.9 131.8 145.6 132.3 143.4 C 137.4 143.4 142.4 143.4 147.5 143.4 C 147.6 146.9 147.7 150.3 147.3 153.8 C 146.6 160.7 140.9 166.9 133.9 167.6 C 128.6 168.1 123.3 167.7 118.0 167.8 C 110.6 167.7 103.3 168.0 95.9 167.7 C 89.4 167.5 83.6 162.5 81.8 156.3 C 81.2 153.6 81.2 150.8 81.2 148.0 C 81.3 139.7 81.3 131.3 81.2 123.0 C 81.2 119.5 81.1 115.9 82.6 112.6 Z"/>
<path fill="#ffffff" stroke="#ffffff" stroke-width="0.09375" opacity="1.00" d=" M 157.1 103.3 C 173.1 103.3 189.1 103.3 205.0 103.3 C 208.1 103.3 211.4 103.3 214.3 104.7 C 218.5 106.6 221.9 110.2 223.6 114.4 C 224.9 117.8 224.7 121.5 224.8 125.0 C 224.7 132.3 224.7 139.7 224.8 147.0 C 224.7 150.5 224.8 154.1 223.3 157.3 C 220.9 162.7 215.8 167.0 209.9 167.6 C 206.2 168.0 202.6 167.8 199.0 167.8 C 185.0 167.8 171.1 167.9 157.2 167.8 C 157.1 146.3 157.1 124.8 157.1 103.3 M 172.6 117.7 C 172.5 129.6 172.5 141.5 172.6 153.4 C 181.8 153.5 190.9 153.6 200.0 153.4 C 204.7 153.6 208.9 149.7 209.0 145.1 C 209.3 138.7 209.3 132.3 208.9 125.9 C 208.8 121.3 204.6 117.5 200.0 117.7 C 190.9 117.5 181.8 117.6 172.6 117.7 Z"/>
</svg>