<?xml version="1.0" encoding="UTF-8" ?>
<!DOCTYPE svg PUBLIC "-//W3C//DTD SVG 1.1//EN" "http://www.w3.org/Graphics/SVG/1.1/DTD/svg11.dtd">
<svg width="1634pt" height="556pt" viewBox="0 0 1634 556" version="1.1" xmlns="http://www.w3.org/2000/svg">
<path fill="#ffffff" stroke="#ffffff" stroke-width="0.09375" opacity="1.00" d=" M 601.4 137.4 C 605.2 136.7 609.1 136.6 613.0 136.6 C 631.0 136.8 649.0 136.7 667.0 136.7 C 934.7 136.7 1202.3 136.7 1470.0 136.7 C 1478.0 136.8 1486.1 136.2 1494.0 137.9 C 1505.0 140.4 1515.5 145.0 1525.0 151.1 C 1533.0 156.6 1539.3 164.1 1546.1 170.9 C 1551.3 176.2 1555.1 182.7 1558.8 189.2 C 1561.3 193.6 1563.4 198.2 1564.5 203.2 C 1566.1 210.4 1565.5 217.7 1565.6 225.0 C 1565.6 263.3 1565.5 301.7 1565.6 340.0 C 1565.5 347.8 1566.1 355.8 1564.2 363.5 C 1562.4 371.2 1558.4 378.3 1553.7 384.7 C 1542.8 400.3 1527.2 412.9 1509.0 418.8 C 1502.5 420.9 1495.7 421.2 1489.0 421.3 C 1208.3 421.3 927.7 421.3 647.0 421.3 C 640.3 421.3 633.6 421.0 626.9 422.0 C 620.9 422.8 614.6 423.1 608.7 421.6 C 603.3 420.4 598.6 417.7 593.6 415.5 C 579.7 409.4 567.8 399.5 557.2 388.8 C 548.3 379.8 540.8 369.1 537.4 356.8 C 535.0 348.4 535.6 339.6 535.6 331.0 C 535.6 292.7 535.6 254.3 535.6 216.0 C 535.6 206.7 534.9 197.0 538.2 188.1 C 542.7 175.0 552.0 164.3 562.2 155.2 C 573.8 146.6 587.0 139.7 601.4 137.4 M 602.4 140.8 C 597.9 141.3 593.5 142.7 589.3 144.3 C 581.0 147.5 572.9 151.4 566.2 157.2 C 559.7 163.0 553.3 169.1 548.3 176.4 C 543.0 184.5 539.0 194.0 539.2 203.9 C 539.3 246.6 539.2 289.3 539.2 332.0 C 539.3 339.7 538.6 347.7 540.8 355.2 C 543.7 365.5 549.7 374.5 556.4 382.6 C 560.7 388.0 566.7 391.7 571.9 396.1 C 574.7 398.5 577.9 400.5 581.3 401.9 C 586.3 403.9 591.2 406.2 596.4 407.8 C 601.8 409.5 607.4 409.5 613.0 409.5 C 899.3 409.5 1185.7 409.5 1472.0 409.5 C 1479.6 409.4 1487.4 410.1 1494.8 408.1 C 1502.0 406.1 1508.7 403.0 1515.2 399.4 C 1524.9 394.2 1533.5 386.9 1540.0 378.0 C 1545.8 370.6 1550.5 362.3 1552.8 353.2 C 1554.1 347.2 1553.4 341.1 1553.5 335.0 C 1553.5 291.0 1553.5 247.0 1553.6 203.0 C 1553.6 196.1 1551.4 189.4 1548.6 183.3 C 1545.0 175.7 1539.1 169.6 1533.5 163.5 C 1529.0 158.4 1523.1 155.1 1517.4 151.5 C 1507.2 144.9 1495.3 140.6 1483.0 140.5 C 1199.0 140.5 915.0 140.4 631.0 140.5 C 621.5 140.8 611.9 140.1 602.4 140.8 Z" />
<path fill="#ffffff" stroke="#ffffff" stroke-width="0.09375" opacity="1.00" d=" M 604.0 175.3 C 606.5 174.3 609.3 174.5 611.9 174.4 C 621.6 174.6 631.3 174.6 641.0 174.6 C 911.0 174.6 1181.0 174.6 1451.0 174.6 C 1459.3 174.6 1467.7 174.7 1476.0 174.5 C 1480.1 174.5 1484.4 174.3 1488.3 175.8 C 1492.1 177.3 1495.8 179.5 1499.3 181.7 C 1507.6 187.0 1514.0 194.9 1518.1 203.8 C 1521.2 210.8 1520.4 218.6 1520.5 226.0 C 1520.4 258.7 1520.4 291.3 1520.5 324.0 C 1520.4 331.7 1521.2 339.8 1517.8 346.9 C 1514.5 354.1 1509.2 360.2 1503.3 365.3 C 1498.4 369.6 1492.7 373.5 1486.0 374.3 C 1480.7 374.9 1475.3 374.5 1470.0 374.5 C 1196.0 374.5 922.0 374.5 648.0 374.5 C 641.5 374.5 634.9 374.3 628.4 374.8 C 621.6 375.3 614.8 375.9 608.0 375.3 C 603.3 374.7 599.1 372.2 595.2 369.7 C 590.2 366.5 586.0 362.3 582.1 357.8 C 578.1 353.1 574.5 347.8 573.2 341.6 C 572.0 335.5 572.6 329.2 572.5 323.0 C 572.5 290.7 572.5 258.3 572.5 226.0 C 572.5 218.8 571.7 211.4 574.4 204.5 C 577.8 194.9 585.2 187.2 593.6 181.6 C 596.9 179.3 600.2 176.8 604.0 175.3 M 625.4 188.1 C 621.6 188.4 617.8 188.3 614.0 188.8 C 608.4 189.5 603.6 192.8 599.3 196.3 C 593.9 200.7 590.2 206.7 586.7 212.7 C 584.8 215.8 583.4 219.3 583.5 222.9 C 583.5 263.3 583.6 303.7 583.5 344.1 C 583.4 350.5 586.2 356.8 590.5 361.5 C 593.8 365.0 597.9 367.6 602.2 369.7 C 606.1 371.7 610.7 371.6 615.0 371.5 C 624.0 371.4 633.0 371.5 642.0 371.5 C 917.7 371.5 1193.3 371.5 1469.0 371.5 C 1474.0 371.4 1479.0 371.7 1483.9 371.4 C 1489.0 371.1 1493.4 368.3 1497.5 365.5 C 1502.7 362.1 1507.1 357.6 1510.5 352.4 C 1513.4 348.1 1516.1 343.3 1516.6 337.9 C 1517.0 333.0 1516.7 328.0 1516.7 323.0 C 1516.7 291.3 1516.7 259.7 1516.7 228.0 C 1516.7 223.0 1517.0 218.0 1516.7 213.0 C 1516.4 207.6 1513.8 202.6 1510.8 198.2 C 1506.6 192.0 1499.4 188.2 1492.1 187.7 C 1486.7 187.3 1481.4 187.6 1476.0 187.6 C 1195.7 187.5 915.3 187.6 635.0 187.5 C 631.8 187.6 628.6 187.8 625.4 188.1 Z" />
<path fill="#ffffff" stroke="#ffffff" stroke-width="0.09375" opacity="1.00" d=" M 657.2 208.2 C 667.1 203.5 678.0 200.6 689.0 200.5 C 711.0 200.5 733.1 200.6 755.1 200.4 C 757.2 200.5 759.5 200.4 761.2 201.9 C 763.8 203.9 766.0 206.4 767.9 209.0 C 770.1 211.8 769.5 215.6 769.6 219.0 C 769.2 228.2 770.2 237.4 768.9 246.6 C 745.0 246.3 721.0 246.6 697.0 246.4 C 692.3 246.3 687.4 246.9 683.2 249.3 C 673.6 254.5 666.1 263.3 662.2 273.4 C 658.8 282.5 660.8 293.0 665.9 301.1 C 670.7 307.8 678.6 312.5 686.9 312.5 C 696.0 312.7 705.3 312.7 714.1 310.3 C 715.8 309.7 717.7 309.3 719.1 308.1 C 720.2 306.8 720.7 305.1 721.4 303.5 C 714.6 303.2 707.8 303.4 701.0 303.5 C 697.7 303.4 694.1 303.8 691.4 301.6 C 689.0 299.7 686.8 297.4 685.1 294.8 C 683.1 291.6 683.6 287.6 683.5 284.0 C 683.8 274.6 683.2 265.2 683.9 255.9 C 687.3 255.7 690.6 255.5 694.0 255.5 C 714.0 255.6 734.0 255.6 754.1 255.4 C 756.7 255.5 759.5 255.6 761.6 257.4 C 765.2 260.2 768.8 264.0 768.6 268.9 C 768.7 278.6 768.5 288.3 768.6 298.0 C 768.5 308.3 769.6 318.9 766.0 328.8 C 764.2 335.0 759.9 340.0 755.1 344.2 C 749.0 349.7 741.0 352.5 733.3 354.9 C 722.1 358.0 710.5 358.3 699.0 358.6 C 691.7 358.5 684.4 359.0 677.2 357.5 C 671.2 356.2 665.6 353.7 660.2 350.7 C 651.0 345.7 643.3 338.4 635.7 331.3 C 626.1 322.4 618.5 311.1 614.6 298.5 C 611.7 289.3 612.6 279.5 612.5 270.0 C 612.3 262.9 613.1 255.6 616.1 249.0 C 624.0 230.9 639.4 216.5 657.2 208.2 M 648.5 217.4 C 635.0 226.2 623.7 239.0 618.3 254.3 C 615.1 262.8 615.5 272.1 615.6 281.0 C 615.8 294.9 621.6 308.2 630.0 319.0 C 637.1 327.9 645.8 335.8 655.9 341.0 C 661.5 343.9 667.6 346.4 674.0 346.5 C 683.0 346.7 692.0 346.5 701.0 346.5 C 709.0 346.7 716.8 345.1 724.4 343.1 C 731.4 341.3 737.8 337.8 743.5 333.4 C 749.7 328.7 753.9 321.8 756.3 314.5 C 758.7 306.9 758.5 298.9 758.5 291.0 C 758.3 280.2 758.5 269.4 758.4 258.6 C 734.8 258.3 711.1 258.5 687.5 258.5 C 687.3 269.4 687.5 280.3 687.4 291.1 C 700.0 292.0 712.7 291.1 725.4 291.6 C 725.4 296.2 726.0 300.8 725.1 305.4 C 724.3 309.1 720.8 311.4 717.6 312.7 C 711.9 314.9 705.7 315.4 699.7 316.1 C 691.9 316.8 683.5 317.2 676.2 313.8 C 670.3 311.0 665.5 306.6 661.0 302.0 C 655.6 296.1 650.7 289.0 649.4 280.9 C 648.8 273.7 648.4 265.8 652.4 259.3 C 656.3 252.8 661.1 246.7 667.3 242.2 C 672.1 238.8 677.2 235.5 683.1 234.7 C 688.7 234.0 694.4 234.5 700.0 234.4 C 719.1 234.4 738.3 234.5 757.4 234.4 C 757.7 224.4 757.7 214.5 757.5 204.5 C 735.3 204.4 713.2 204.6 691.0 204.4 C 675.9 203.8 661.0 209.3 648.5 217.4 Z" />
<path fill="#ffffff" stroke="#ffffff" stroke-width="0.09375" opacity="1.00" d=" M 824.4 204.4 C 837.0 200.9 850.3 199.1 863.4 200.6 C 871.6 201.7 879.7 203.4 887.3 206.5 C 894.6 209.6 901.9 212.9 908.1 218.0 C 913.1 221.9 917.0 227.0 921.3 231.7 C 925.2 235.9 928.9 240.3 931.5 245.4 C 935.0 252.0 936.6 259.5 936.5 267.0 C 936.4 297.1 936.6 327.3 936.4 357.4 C 926.6 357.8 916.8 357.4 907.0 357.7 C 904.1 357.7 901.2 357.9 898.4 357.2 C 896.0 356.4 894.1 354.5 892.2 352.8 C 890.0 350.7 887.4 348.3 887.5 345.0 C 887.3 334.8 887.7 324.5 887.5 314.3 C 873.0 314.6 858.5 314.2 844.0 314.5 C 841.1 314.4 838.1 314.8 835.5 313.6 C 832.5 311.9 830.2 309.3 827.7 306.9 C 826.6 323.8 828.0 340.7 827.0 357.6 C 816.7 357.6 806.3 357.5 795.9 357.7 C 792.7 357.7 789.0 357.9 786.3 355.6 C 782.8 352.6 778.0 349.3 778.4 344.1 C 778.5 315.0 778.5 286.0 778.4 256.9 C 778.5 246.2 782.4 235.5 789.2 227.2 C 798.0 216.1 810.8 208.4 824.4 204.4 M 842.2 204.4 C 828.2 206.6 814.2 211.1 802.7 219.7 C 791.3 228.2 782.6 241.4 782.6 255.9 C 782.5 282.3 782.6 308.6 782.5 335.0 C 782.5 338.4 782.7 341.8 782.8 345.3 C 793.6 345.6 804.4 345.6 815.3 345.3 C 815.6 338.5 815.5 331.8 815.5 325.0 C 815.5 303.3 815.5 281.6 815.4 259.9 C 815.3 253.7 818.8 248.2 822.9 243.9 C 829.1 237.4 837.9 234.1 846.6 232.9 C 861.1 230.8 876.9 236.3 886.3 247.7 C 891.2 253.7 891.6 261.8 891.4 269.2 C 870.4 269.9 849.5 269.2 828.6 269.6 C 828.5 280.8 828.4 292.1 828.6 303.4 C 849.5 303.8 870.4 303.0 891.2 303.7 C 891.8 317.9 891.1 332.2 891.6 346.4 C 902.5 346.5 913.5 346.5 924.4 346.4 C 924.7 316.2 924.4 286.1 924.6 255.9 C 924.9 246.5 920.9 237.3 914.8 230.2 C 908.0 222.1 899.3 215.6 889.5 211.4 C 874.8 205.0 858.2 201.9 842.2 204.4 M 853.6 245.0 C 845.2 246.6 836.9 250.7 831.6 257.6 C 829.5 260.2 828.8 263.5 828.1 266.6 C 848.0 266.4 867.9 266.5 887.8 266.6 C 887.7 262.3 888.1 257.8 886.0 253.9 C 885.0 251.7 883.2 250.1 881.1 249.0 C 872.8 244.5 862.9 243.5 853.6 245.0 Z" />
<path fill="#ffffff" stroke="#ffffff" stroke-width="0.09375" opacity="1.00" d=" M 976.3 205.5 C 990.3 200.2 1005.7 198.7 1020.3 201.5 C 1027.3 202.9 1034.4 204.7 1040.5 208.6 C 1042.9 210.0 1045.1 211.9 1047.9 212.6 C 1052.4 210.9 1056.2 207.6 1060.7 205.8 C 1077.9 198.7 1097.5 198.6 1115.2 203.8 C 1121.8 205.8 1128.0 209.2 1133.2 213.8 C 1138.0 218.1 1141.6 223.3 1145.9 228.1 C 1149.8 232.3 1153.5 237.0 1155.5 242.5 C 1158.5 250.7 1160.3 259.3 1160.5 268.0 C 1160.4 294.6 1160.4 321.3 1160.5 348.0 C 1160.4 351.1 1160.3 354.1 1160.2 357.2 C 1148.8 357.6 1137.3 357.4 1125.9 357.5 C 1121.1 357.6 1117.4 353.9 1114.7 350.4 C 1112.7 348.1 1112.4 345.0 1112.4 342.1 C 1112.7 314.7 1112.4 287.3 1112.6 260.0 C 1112.5 255.9 1112.6 251.7 1110.8 248.0 C 1109.4 245.1 1105.9 244.6 1103.0 244.4 C 1098.0 244.1 1092.4 244.1 1088.0 247.0 C 1079.4 252.4 1075.4 263.1 1075.5 272.9 C 1075.6 295.0 1075.5 317.0 1075.5 339.0 C 1075.6 345.1 1075.6 351.2 1075.3 357.2 C 1065.9 357.7 1056.4 357.3 1047.0 357.5 C 1043.3 357.5 1039.3 357.8 1036.0 355.9 C 1033.4 354.4 1031.0 352.4 1029.1 350.0 C 1027.4 348.2 1027.5 345.5 1027.4 343.1 C 1027.6 318.4 1027.4 293.7 1027.5 269.0 C 1027.5 262.4 1027.0 255.6 1024.8 249.3 C 1024.2 247.4 1022.8 245.6 1020.7 245.3 C 1013.8 243.6 1006.0 244.8 1000.6 249.5 C 996.5 253.0 994.3 258.1 993.0 263.2 C 991.2 270.7 991.7 278.4 991.7 286.0 C 991.7 309.7 991.7 333.4 991.7 357.1 C 981.8 357.8 971.9 357.2 962.0 357.5 C 958.4 357.5 954.4 357.9 951.5 355.5 C 948.5 353.1 945.5 350.4 944.1 346.8 C 943.0 342.3 943.6 337.6 943.5 333.0 C 943.6 312.3 943.5 291.7 943.6 271.0 C 943.6 261.3 942.9 251.3 945.6 241.8 C 947.9 233.9 951.1 226.0 956.8 219.8 C 962.2 213.7 968.7 208.5 976.3 205.5 M 980.4 208.3 C 960.9 215.2 947.0 235.3 947.1 256.0 C 947.1 279.6 947.2 303.3 947.1 327.0 C 946.9 333.2 946.9 339.4 947.4 345.6 C 958.4 345.8 969.5 345.7 980.6 345.6 C 980.4 317.8 980.6 289.9 980.5 262.0 C 980.4 255.2 982.0 248.3 985.5 242.5 C 989.0 237.0 995.5 233.9 1001.9 233.5 C 1007.1 233.1 1012.6 233.2 1017.4 235.4 C 1021.6 237.3 1025.4 240.4 1027.2 244.7 C 1030.0 251.4 1031.2 258.7 1031.4 266.0 C 1031.4 292.5 1031.2 319.0 1031.5 345.6 C 1042.5 345.8 1053.5 345.7 1064.6 345.7 C 1064.4 319.4 1064.6 293.2 1064.5 267.0 C 1064.5 259.6 1065.3 252.1 1068.3 245.3 C 1071.2 238.7 1077.8 234.1 1085.0 233.6 C 1090.4 233.2 1096.1 233.1 1101.4 234.5 C 1108.0 236.3 1112.8 242.2 1114.5 248.7 C 1116.1 255.3 1115.4 262.2 1115.5 269.0 C 1115.5 294.5 1115.4 320.0 1115.6 345.5 C 1126.5 345.9 1137.5 345.8 1148.5 345.6 C 1148.8 317.4 1148.5 289.2 1148.7 261.0 C 1148.7 254.8 1148.8 248.6 1147.1 242.6 C 1144.2 232.6 1138.8 223.0 1130.4 216.6 C 1111.8 202.6 1085.9 199.9 1064.5 208.4 C 1058.5 210.8 1053.3 214.6 1048.0 218.1 C 1042.7 214.5 1037.5 210.8 1031.5 208.4 C 1015.3 201.9 996.7 202.1 980.4 208.3 Z" />
<path fill="#ffffff" stroke="#ffffff" stroke-width="0.09375" opacity="1.00" d=" M 1369.0 201.9 C 1376.0 201.4 1383.0 200.5 1390.0 200.5 C 1409.0 200.6 1428.0 200.5 1447.0 200.5 C 1451.6 200.6 1456.3 200.2 1460.9 200.6 C 1463.6 200.6 1465.4 203.0 1467.2 204.8 C 1469.5 207.2 1472.0 209.2 1474.1 211.7 C 1474.7 214.4 1474.6 217.2 1474.7 220.0 C 1474.5 228.7 1474.7 237.5 1474.4 246.2 C 1468.6 245.6 1462.8 245.5 1457.0 245.6 C 1438.7 245.6 1420.3 245.6 1402.0 245.6 C 1394.0 245.7 1385.9 246.0 1378.1 247.9 C 1374.5 248.7 1371.5 250.9 1368.8 253.2 C 1376.4 255.4 1384.3 254.3 1392.0 254.5 C 1399.0 254.5 1406.0 255.4 1413.0 255.6 C 1419.2 255.8 1425.2 257.4 1431.1 259.0 C 1437.0 260.7 1442.9 262.7 1448.1 266.0 C 1452.5 268.7 1455.9 272.7 1459.6 276.4 C 1463.1 279.9 1466.9 283.2 1469.2 287.7 C 1471.4 292.1 1472.9 296.8 1473.9 301.6 C 1475.7 311.1 1473.7 320.8 1470.6 329.8 C 1467.1 339.6 1459.1 347.3 1449.7 351.5 C 1439.5 356.1 1428.1 357.9 1417.0 357.6 C 1389.6 357.6 1362.3 357.5 1334.9 357.6 C 1330.5 357.9 1327.3 354.4 1324.2 351.8 C 1322.8 350.3 1320.9 348.9 1320.6 346.8 C 1320.1 342.5 1320.5 338.2 1320.5 334.0 C 1320.5 326.8 1320.4 319.7 1320.6 312.6 C 1343.0 312.3 1365.5 312.6 1388.0 312.5 C 1399.1 312.5 1410.6 313.1 1421.2 309.0 C 1423.3 308.3 1424.3 306.0 1425.4 304.2 C 1416.7 302.7 1407.8 303.6 1399.0 303.4 C 1389.7 303.6 1380.4 302.3 1371.2 301.0 C 1363.2 299.9 1355.3 297.7 1348.2 293.8 C 1342.5 290.6 1338.2 285.8 1333.3 281.7 C 1329.1 278.1 1325.2 273.9 1323.1 268.7 C 1318.6 257.9 1319.2 245.8 1321.4 234.5 C 1323.3 224.8 1329.6 216.3 1337.7 210.8 C 1346.9 204.7 1358.1 202.7 1369.0 201.9 M 1359.5 206.8 C 1350.7 208.5 1341.8 211.8 1335.1 218.1 C 1327.8 225.0 1323.8 235.0 1323.4 244.9 C 1323.1 252.5 1323.0 260.5 1326.6 267.5 C 1330.6 274.9 1337.3 280.9 1345.1 284.1 C 1352.4 287.0 1360.1 289.1 1367.9 289.6 C 1376.0 290.0 1383.9 291.5 1392.0 291.5 C 1401.1 291.6 1410.3 291.0 1419.3 293.0 C 1422.1 293.6 1425.1 294.6 1426.8 297.1 C 1429.2 300.7 1429.8 306.3 1426.5 309.5 C 1423.3 312.8 1418.7 314.0 1414.4 314.8 C 1408.6 315.7 1402.8 316.4 1397.0 316.5 C 1372.9 316.5 1348.7 316.3 1324.5 316.5 C 1324.3 326.5 1324.3 336.5 1324.6 346.4 C 1351.0 346.5 1377.5 346.4 1404.0 346.5 C 1412.3 346.6 1420.5 345.0 1428.6 343.3 C 1436.2 341.8 1443.4 338.4 1449.2 333.2 C 1456.1 327.2 1459.6 318.1 1460.6 309.1 C 1462.0 299.4 1461.4 289.0 1456.9 280.1 C 1453.6 273.8 1447.2 270.1 1441.1 266.8 C 1430.1 261.0 1417.4 260.4 1405.2 259.0 C 1394.8 257.9 1384.4 258.9 1374.0 258.3 C 1369.5 258.0 1364.9 257.4 1361.1 255.0 C 1356.7 252.2 1355.1 245.6 1358.4 241.4 C 1361.3 238.0 1365.9 236.7 1370.2 235.9 C 1376.7 235.0 1383.4 234.4 1390.0 234.4 C 1413.5 234.4 1437.0 234.5 1460.5 234.4 C 1460.8 224.4 1460.8 214.5 1460.5 204.5 C 1436.0 204.4 1411.5 204.6 1387.0 204.4 C 1377.8 204.3 1368.6 205.2 1359.5 206.8 M 1472.5 224.0 C 1472.7 231.3 1472.1 238.7 1473.1 246.0 C 1474.8 242.6 1474.4 238.7 1474.5 235.0 C 1474.1 227.3 1475.3 219.5 1473.7 211.9 C 1472.2 215.8 1472.4 219.9 1472.5 224.0 Z" />
<path fill="#ffffff" stroke="#ffffff" stroke-width="0.09375" opacity="1.00" d=" M 132.1 210.2 C 155.5 200.6 182.4 198.7 206.7 206.5 C 220.9 211.7 233.1 222.6 239.3 236.5 C 241.3 241.1 241.8 246.1 241.6 251.1 C 241.5 258.0 238.7 264.6 237.1 271.3 C 232.2 291.3 227.0 311.3 222.1 331.4 C 220.2 339.9 216.7 348.3 217.0 357.3 C 204.1 357.9 191.1 357.5 178.1 357.5 C 181.1 341.8 186.1 326.5 189.3 310.8 C 185.8 310.7 182.4 310.5 179.0 310.5 C 160.0 310.6 141.0 310.6 122.0 310.6 C 122.4 305.7 123.2 300.9 124.5 296.3 C 126.6 288.7 127.9 281.0 130.5 273.6 C 153.0 273.2 175.6 273.8 198.1 273.3 C 199.5 269.6 201.0 265.8 201.2 261.8 C 201.4 255.7 199.1 249.6 195.1 244.9 C 191.3 240.5 185.8 238.2 180.3 236.5 C 166.9 232.5 152.0 235.1 139.8 241.7 C 133.4 245.0 128.3 250.2 123.5 255.5 C 120.7 258.4 119.0 262.1 118.2 265.9 C 111.6 294.4 103.8 322.5 97.3 351.0 C 96.8 353.1 96.2 355.3 94.8 357.0 C 91.6 357.7 88.3 357.5 85.0 357.5 C 76.4 357.3 67.7 357.7 59.1 357.2 C 63.1 342.7 66.6 328.1 70.2 313.5 C 73.3 299.1 77.2 284.9 80.6 270.6 C 82.8 261.5 84.9 252.0 90.0 244.0 C 99.7 228.3 115.5 217.6 132.1 210.2 Z" />
<path fill="#ffffff" stroke="#ffffff" stroke-width="0.09375" opacity="1.00" d=" M 1230.0 203.1 C 1237.5 201.0 1245.3 201.5 1253.0 201.5 C 1264.0 201.5 1275.0 201.5 1286.0 201.5 C 1290.3 201.5 1294.7 201.2 1299.0 201.6 C 1302.2 201.9 1304.6 204.2 1306.7 206.2 C 1308.4 208.0 1310.2 209.9 1311.0 212.2 C 1311.7 214.7 1311.5 217.4 1311.6 220.0 C 1311.4 228.1 1311.6 236.3 1311.3 244.4 C 1297.9 244.9 1284.4 244.4 1271.0 244.6 C 1264.8 244.7 1258.6 244.0 1252.5 245.0 C 1245.7 246.6 1239.4 250.3 1234.7 255.4 C 1253.2 255.8 1271.6 255.4 1290.1 255.5 C 1294.9 255.3 1298.8 258.8 1301.6 262.4 C 1303.9 265.4 1303.5 269.4 1303.6 273.0 C 1303.3 283.0 1303.7 293.1 1303.3 303.2 C 1282.5 303.8 1261.7 303.1 1241.0 303.5 C 1237.4 303.4 1233.4 303.8 1230.4 301.5 C 1227.1 299.0 1223.7 295.5 1223.5 291.1 C 1223.2 284.3 1224.0 277.4 1223.0 270.6 C 1221.3 273.2 1219.5 275.8 1219.4 279.0 C 1218.9 285.9 1219.0 293.3 1222.6 299.5 C 1225.4 304.5 1230.3 308.0 1235.4 310.4 C 1239.9 312.6 1245.1 312.6 1250.0 312.6 C 1265.0 312.3 1280.1 312.6 1295.1 312.4 C 1297.8 312.5 1300.9 312.1 1303.3 313.8 C 1305.9 315.8 1308.1 318.3 1310.0 321.0 C 1311.8 323.6 1311.5 327.0 1311.6 330.0 C 1311.4 339.1 1311.7 348.2 1311.3 357.2 C 1294.2 357.7 1277.1 357.2 1260.0 357.5 C 1247.5 357.8 1234.9 355.2 1223.7 349.4 C 1215.9 345.5 1208.4 340.9 1202.2 334.8 C 1196.3 329.1 1190.2 323.5 1184.7 317.4 C 1179.7 311.6 1175.8 304.9 1173.4 297.7 C 1171.1 290.7 1171.4 283.3 1171.4 276.0 C 1171.5 268.7 1171.0 261.1 1173.1 254.0 C 1176.7 242.3 1184.2 232.3 1193.1 224.1 C 1203.2 214.0 1216.2 206.8 1230.0 203.1 M 1222.6 209.4 C 1207.9 215.4 1194.6 225.4 1185.4 238.4 C 1181.0 244.8 1177.3 251.8 1175.5 259.4 C 1174.2 264.5 1174.4 269.8 1174.4 275.0 C 1174.4 280.5 1174.2 286.1 1175.6 291.5 C 1178.7 302.9 1185.0 313.3 1193.5 321.5 C 1204.1 332.4 1217.5 340.7 1232.3 344.7 C 1237.0 346.1 1242.0 346.6 1247.0 346.5 C 1264.8 346.3 1282.6 346.6 1300.4 346.4 C 1300.6 336.4 1300.5 326.5 1300.4 316.6 C 1287.3 316.3 1274.1 316.5 1261.0 316.5 C 1253.1 316.4 1244.9 317.3 1237.3 314.8 C 1229.6 312.3 1223.5 306.7 1218.2 300.8 C 1213.7 295.7 1209.3 289.9 1208.1 283.0 C 1206.9 275.6 1207.3 267.7 1211.0 261.0 C 1216.1 251.3 1223.9 243.0 1233.3 237.3 C 1236.8 235.1 1240.8 233.5 1245.0 233.5 C 1263.1 233.3 1281.2 233.8 1299.3 233.3 C 1299.7 224.1 1299.7 214.9 1299.3 205.7 C 1287.2 205.1 1275.1 205.6 1263.0 205.4 C 1249.5 205.5 1235.4 204.3 1222.6 209.4 M 1226.2 259.7 C 1226.6 270.2 1226.4 280.6 1226.4 291.1 C 1236.2 291.9 1246.1 291.3 1256.0 291.5 C 1267.8 291.4 1279.5 291.7 1291.3 291.3 C 1291.6 280.6 1291.7 269.9 1291.3 259.2 C 1269.6 259.8 1247.9 258.9 1226.2 259.7 Z" />
<path fill="#ffffff" stroke="#ffffff" stroke-width="0.09375" opacity="1.00" d=" M 271.9 202.7 C 283.7 202.6 295.6 202.3 307.4 202.9 C 306.3 211.0 303.6 218.7 301.8 226.6 C 295.1 253.8 288.1 281.0 281.4 308.2 C 279.9 314.0 278.3 319.7 277.1 325.5 C 295.7 325.6 314.4 325.4 333.0 325.5 C 340.8 325.5 348.7 325.3 356.5 325.8 C 355.1 336.5 351.4 346.6 348.8 357.1 C 342.6 357.5 336.3 357.5 330.0 357.4 C 304.3 357.4 278.7 357.4 253.0 357.4 C 246.3 357.5 239.6 357.5 233.0 357.2 C 237.1 339.2 241.9 321.4 246.3 303.5 C 253.4 275.0 260.6 246.4 267.7 217.9 C 268.8 212.8 270.2 207.7 271.9 202.7 Z" />
<path fill="#ffffff" stroke="#ffffff" stroke-width="0.09375" opacity="1.00" d=" M 406.9 202.7 C 418.8 202.6 430.7 202.3 442.5 202.9 C 441.8 208.8 440.2 214.6 438.5 220.3 C 431.8 248.1 424.7 275.8 417.7 303.6 C 416.2 309.4 414.2 315.7 416.1 321.7 C 423.3 323.1 430.7 322.4 438.0 322.4 C 456.1 322.5 474.1 322.4 492.2 322.5 C 470.5 322.7 448.7 322.4 427.0 322.6 C 422.5 322.6 417.9 322.9 413.5 321.5 C 413.6 322.2 413.8 323.6 413.9 324.2 C 417.9 324.4 422.0 324.6 426.0 324.6 C 442.7 324.4 459.3 324.6 476.0 324.5 C 481.6 324.3 487.2 324.4 492.8 324.9 C 490.6 335.4 488.3 345.9 485.1 356.2 C 478.9 357.8 472.4 357.6 466.0 357.4 C 440.3 357.4 414.7 357.4 389.0 357.4 C 382.0 357.5 375.1 357.6 368.1 357.2 C 378.4 315.9 388.7 274.6 399.0 233.3 C 401.9 223.2 403.8 212.8 406.9 202.7 Z" />
</svg>
