<svg xmlns="http://www.w3.org/2000/svg" version="1.1" viewBox="73.26 25.55 1466.28 490.79">
<path fill="#ffffff" stroke="#ffffff" stroke-width="0.09375" opacity="1.00" d=" M 883.6 35.7 C 885.3 32.2 887.1 28.9 889.0 25.6 C 893.0 32.3 896.1 39.4 899.6 46.4 C 905.1 57.2 910.3 68.3 915.8 79.2 C 918.0 83.4 919.6 87.9 922.2 91.9 C 923.6 94.3 926.8 94.3 929.2 94.9 C 945.5 97.1 961.8 99.5 978.1 101.9 C 984.9 102.8 991.7 103.7 998.4 105.1 C 994.0 109.8 989.0 113.9 984.5 118.5 C 979.2 123.9 973.7 129.0 968.6 134.5 C 961.9 141.5 954.5 147.9 947.7 154.7 C 946.6 155.9 945.4 157.1 944.7 158.6 C 944.2 160.7 944.7 162.8 945.0 164.9 C 947.4 177.4 949.3 189.9 951.6 202.4 C 953.2 212.8 955.4 223.0 956.7 233.4 C 949.6 230.8 943.1 227.0 936.5 223.5 C 924.9 217.4 913.3 211.3 901.8 205.2 C 898.0 203.3 894.5 200.8 890.5 199.6 C 888.2 198.8 886.0 200.1 884.0 201.0 C 870.7 208.2 857.4 215.2 844.0 222.1 C 836.5 225.9 829.3 230.5 821.3 233.4 C 822.6 222.9 824.8 212.7 826.4 202.3 C 828.6 189.8 830.6 177.3 833.0 164.8 C 833.3 162.7 833.8 160.6 833.3 158.6 C 832.2 156.5 830.4 154.9 828.8 153.2 C 823.1 147.9 817.6 142.4 811.8 137.2 C 804.0 130.3 796.9 122.7 789.4 115.5 C 786.0 112.2 782.7 108.7 779.7 105.0 C 803.6 100.4 827.8 97.7 851.8 93.9 C 855.1 93.7 856.7 90.6 858.0 88.0 C 866.4 70.5 875.1 53.1 883.6 35.7 Z"/>
<path fill="#ffffff" stroke="#ffffff" stroke-width="0.09375" opacity="1.00" d=" M 1119.4 25.7 C 1122.0 29.9 1124.3 34.2 1126.3 38.7 C 1134.4 55.0 1142.6 71.1 1150.4 87.6 C 1151.7 90.1 1152.9 93.3 1156.0 94.1 C 1161.8 95.7 1167.8 96.2 1173.7 97.1 C 1191.7 99.8 1209.7 102.0 1227.6 105.2 C 1226.6 107.5 1224.4 109.0 1223.0 111.0 C 1217.4 116.4 1212.0 122.0 1206.4 127.4 C 1197.3 136.6 1188.4 146.1 1178.7 154.7 C 1177.3 156.0 1175.8 157.4 1175.1 159.2 C 1174.9 163.9 1176.3 168.4 1177.0 173.0 C 1179.1 185.2 1181.2 197.4 1183.3 209.6 C 1184.6 217.5 1186.4 225.3 1186.9 233.3 C 1182.1 231.6 1177.6 229.3 1173.3 226.8 C 1157.5 218.5 1141.8 210.3 1126.1 201.9 C 1123.9 200.8 1121.6 199.4 1119.1 199.4 C 1116.7 199.8 1114.5 201.1 1112.3 202.2 C 1099.7 209.1 1087.0 215.6 1074.3 222.3 C 1066.9 225.8 1060.0 230.5 1052.1 233.3 C 1052.4 230.0 1052.7 226.6 1053.3 223.3 C 1056.3 206.2 1059.2 189.1 1062.1 172.1 C 1062.8 167.8 1064.1 163.6 1063.9 159.2 C 1063.0 157.0 1061.1 155.3 1059.4 153.6 C 1050.7 145.3 1042.3 136.7 1033.7 128.3 C 1025.8 120.9 1017.9 113.4 1010.8 105.2 C 1021.1 103.2 1031.5 102.1 1041.9 100.5 C 1056.4 98.5 1070.8 96.1 1085.4 94.2 C 1093.3 78.7 1100.5 62.9 1108.4 47.4 C 1112.1 40.2 1115.4 32.8 1119.4 25.7 Z"/>
<path fill="#ffffff" stroke="#ffffff" stroke-width="0.09375" opacity="1.00" d=" M 1340.1 49.0 C 1344.0 41.2 1347.6 33.2 1352.0 25.6 C 1356.0 32.3 1359.1 39.4 1362.7 46.3 C 1369.4 59.9 1376.2 73.5 1382.7 87.2 C 1383.8 89.4 1384.8 91.8 1386.6 93.4 C 1388.6 94.4 1390.9 94.6 1393.1 95.0 C 1415.6 98.0 1438.1 101.5 1460.6 104.6 C 1460.6 105.2 1460.6 106.2 1460.5 106.7 C 1447.8 117.5 1436.4 129.8 1424.6 141.6 C 1420.1 145.8 1415.6 149.9 1411.4 154.4 C 1410.1 155.9 1408.7 157.3 1408.1 159.2 C 1407.7 161.8 1408.3 164.4 1408.7 167.0 C 1413.0 189.1 1416.1 211.5 1420.6 233.6 C 1414.7 232.5 1409.9 228.8 1404.8 226.2 C 1389.1 217.9 1373.2 209.9 1357.7 201.3 C 1355.9 200.4 1354.0 199.4 1352.0 199.3 C 1350.0 199.4 1348.1 200.4 1346.3 201.3 C 1332.9 208.7 1319.3 215.7 1305.8 222.8 C 1298.7 226.4 1291.9 230.7 1284.4 233.4 C 1285.4 224.2 1287.4 215.1 1288.9 205.9 C 1291.2 192.2 1293.4 178.5 1296.0 164.9 C 1296.3 162.8 1296.8 160.7 1296.3 158.6 C 1295.4 156.7 1293.8 155.2 1292.3 153.7 C 1285.8 147.5 1279.5 141.1 1272.8 135.2 C 1265.4 128.6 1258.6 121.4 1251.4 114.6 C 1248.3 111.6 1245.4 108.4 1242.7 105.0 C 1251.4 103.2 1260.2 102.3 1268.9 100.9 C 1283.2 98.9 1297.4 96.7 1311.7 94.8 C 1313.8 94.4 1316.1 94.3 1317.9 93.0 C 1319.6 91.2 1320.6 88.9 1321.7 86.7 C 1327.6 74.0 1334.0 61.6 1340.1 49.0 Z"/>
<path fill="#ffffff" stroke="#ffffff" stroke-width="0.09375" opacity="1.00" d=" M 133.4 266.1 C 137.2 265.6 141.1 265.5 145.0 265.5 C 164.0 265.6 183.0 265.6 202.0 265.6 C 623.3 265.6 1044.7 265.6 1466.0 265.6 C 1474.3 265.8 1482.5 267.6 1490.0 271.0 C 1497.4 274.2 1504.0 278.8 1510.3 283.7 C 1513.5 286.2 1516.1 289.3 1518.5 292.5 C 1522.1 297.3 1526.4 301.4 1529.7 306.4 C 1533.0 311.5 1535.2 317.3 1537.3 323.0 C 1538.6 326.5 1539.5 330.2 1539.5 333.9 C 1539.4 374.3 1539.5 414.7 1539.5 455.1 C 1539.4 461.3 1537.2 467.3 1534.8 473.0 C 1532.4 479.0 1528.6 484.4 1524.5 489.5 C 1518.5 496.7 1511.4 503.1 1503.0 507.3 C 1494.9 511.3 1486.3 515.5 1477.0 515.6 C 1042.0 515.5 607.0 515.6 172.0 515.6 C 164.3 515.3 156.6 515.7 149.0 516.3 C 135.6 516.1 122.2 511.5 111.3 503.7 C 103.7 498.5 97.5 491.5 91.0 485.0 C 82.7 476.8 77.2 466.1 74.3 454.9 C 72.9 449.1 73.4 443.0 73.4 437.0 C 73.4 403.7 73.4 370.3 73.4 337.0 C 73.5 331.2 72.9 325.3 73.9 319.6 C 75.6 310.9 79.7 302.9 84.7 295.7 C 89.4 288.8 95.4 282.8 102.6 278.6 C 106.8 276.1 111.0 273.6 115.2 271.3 C 120.8 268.3 127.1 266.9 133.4 266.1 M 134.5 268.8 C 115.2 271.9 97.5 283.3 86.3 299.3 C 81.1 306.8 77.3 315.7 77.3 324.9 C 77.4 362.3 77.4 399.6 77.4 437.0 C 77.4 444.0 76.7 451.3 78.9 458.1 C 83.8 474.2 95.4 487.7 109.5 496.5 C 118.3 502.1 128.4 506.4 139.0 506.5 C 577.3 506.5 1015.7 506.5 1454.0 506.5 C 1460.9 506.4 1467.9 507.1 1474.8 505.6 C 1483.4 503.7 1491.6 499.9 1498.8 494.8 C 1510.3 486.7 1520.1 475.7 1525.3 462.5 C 1528.8 453.7 1528.2 444.2 1528.2 435.0 C 1528.2 402.3 1528.2 369.7 1528.2 337.0 C 1528.2 329.2 1528.8 321.1 1526.4 313.5 C 1522.7 301.9 1514.9 292.1 1505.6 284.4 C 1497.6 278.1 1488.4 273.2 1478.7 270.4 C 1469.7 267.8 1460.2 268.6 1451.0 268.5 C 1025.3 268.5 599.7 268.5 174.0 268.5 C 167.2 268.4 160.4 268.4 153.6 268.9 C 147.2 269.3 140.8 268.0 134.5 268.8 Z"/>
<path fill="#ffffff" stroke="#ffffff" stroke-width="0.09375" opacity="1.00" d=" M 138.3 300.0 C 146.2 298.7 154.1 300.2 162.0 300.4 C 593.0 300.4 1024.0 300.4 1455.0 300.4 C 1460.0 300.5 1465.0 300.1 1470.0 300.7 C 1475.9 301.4 1480.9 305.0 1485.1 308.9 C 1490.2 313.7 1494.7 319.4 1497.3 325.9 C 1500.1 332.9 1499.4 340.6 1499.4 348.0 C 1499.4 374.7 1499.4 401.3 1499.4 428.0 C 1499.4 435.1 1500.1 442.6 1497.3 449.3 C 1494.0 457.6 1487.9 464.6 1480.7 469.7 C 1476.9 472.4 1472.6 474.7 1468.0 475.2 C 1462.7 475.8 1457.3 475.4 1452.0 475.4 C 1021.0 475.4 590.0 475.4 159.0 475.4 C 149.4 475.2 139.2 476.8 130.1 472.9 C 122.8 469.3 116.9 463.3 112.2 456.8 C 108.6 452.0 106.4 446.1 106.5 440.0 C 106.6 409.0 106.5 378.0 106.6 347.0 C 106.6 341.7 106.2 336.3 106.8 331.0 C 107.6 323.8 112.0 317.8 116.6 312.6 C 122.3 306.3 129.7 301.0 138.3 300.0 M 154.4 311.0 C 148.2 311.6 141.4 310.6 135.8 313.8 C 128.0 318.3 122.0 325.6 118.7 333.8 C 115.9 340.5 116.7 347.9 116.6 355.0 C 116.7 382.0 116.7 409.0 116.6 436.0 C 116.6 443.2 115.8 450.9 119.2 457.7 C 122.0 464.2 128.1 468.8 134.6 471.4 C 138.2 472.7 142.2 472.5 146.0 472.5 C 152.0 472.4 158.0 472.5 164.0 472.5 C 575.7 472.5 987.3 472.5 1399.0 472.5 C 1420.0 472.5 1441.0 472.4 1462.1 472.6 C 1465.4 472.5 1468.9 472.4 1472.0 471.0 C 1481.9 467.0 1489.7 458.8 1494.1 449.1 C 1496.6 443.4 1495.8 437.0 1495.9 431.0 C 1495.9 399.3 1495.9 367.6 1495.9 335.9 C 1496.1 329.1 1493.3 322.3 1488.7 317.4 C 1484.0 312.8 1477.5 310.6 1471.1 310.5 C 1035.0 310.5 599.0 310.5 163.0 310.5 C 160.1 310.6 157.2 310.8 154.4 311.0 Z"/>
<path fill="#ffffff" stroke="#ffffff" stroke-width="0.09375" opacity="1.00" d=" M 426.9 322.0 C 430.6 321.1 434.3 321.5 438.0 321.5 C 444.3 321.7 450.7 321.3 457.0 321.5 C 461.3 321.6 464.0 325.5 466.5 328.4 C 468.9 331.0 468.7 334.7 468.7 337.9 C 468.4 353.3 468.8 368.7 468.5 384.0 C 468.5 386.6 468.4 389.3 469.0 391.9 C 469.7 394.8 471.8 397.0 473.8 399.2 C 479.5 405.0 485.6 410.3 491.4 416.0 C 494.6 413.3 497.7 410.6 500.6 407.6 C 506.9 400.9 513.9 394.8 519.5 387.5 C 521.7 384.9 522.3 381.4 522.3 378.1 C 522.2 359.7 522.1 341.2 522.2 322.8 C 532.2 322.3 542.1 322.6 552.1 322.5 C 559.0 322.2 565.1 329.1 564.5 335.9 C 564.4 352.9 564.4 370.0 564.4 387.0 C 564.4 391.7 564.7 396.4 564.3 401.0 C 563.9 405.7 560.1 408.9 557.3 412.3 C 543.3 428.5 529.0 444.8 511.6 457.5 C 508.0 460.4 503.3 460.5 499.0 460.4 C 495.2 460.4 491.1 460.4 488.0 458.0 C 481.3 453.2 475.6 447.1 469.1 441.9 C 465.2 438.8 461.4 435.6 458.0 432.0 C 451.9 425.8 445.3 420.0 439.8 413.3 C 436.4 409.3 433.2 405.1 429.9 401.1 C 428.0 398.7 425.7 396.2 425.5 392.9 C 425.2 388.6 425.5 384.3 425.5 380.0 C 425.5 362.3 425.5 344.6 425.4 327.0 C 425.7 325.3 425.1 322.9 426.9 322.0 M 429.3 325.3 C 429.0 345.9 429.4 366.5 429.1 387.0 C 429.0 390.6 429.0 394.6 431.5 397.5 C 437.2 404.4 442.9 411.4 449.5 417.5 C 458.6 426.1 466.8 435.6 476.5 443.5 C 479.3 445.9 482.2 448.6 486.0 449.3 C 489.6 449.8 493.3 449.8 497.0 449.3 C 501.5 448.5 505.0 445.3 508.5 442.5 C 515.2 436.6 522.1 430.8 528.1 424.1 C 536.5 415.1 544.4 405.8 552.5 396.5 C 554.5 394.2 554.6 391.0 554.6 388.1 C 554.3 367.2 554.6 346.4 554.5 325.5 C 544.9 325.3 535.4 325.5 525.9 325.3 C 525.6 329.9 525.4 334.4 525.5 339.0 C 525.6 352.0 525.4 365.0 525.6 378.1 C 525.7 381.6 525.8 385.5 523.4 388.4 C 517.5 396.1 510.8 403.1 503.9 409.9 C 500.1 413.7 496.1 417.2 491.9 420.5 C 481.7 411.3 471.6 401.8 462.6 391.3 C 460.7 389.0 458.8 386.2 458.6 383.0 C 458.2 377.7 458.6 372.3 458.6 367.0 C 458.5 353.2 458.7 339.3 458.5 325.5 C 448.7 325.3 439.0 325.5 429.3 325.3 Z"/>
<path fill="#ffffff" stroke="#ffffff" stroke-width="0.09375" opacity="1.00" d=" M 627.4 321.7 C 638.0 320.5 648.8 321.2 659.0 324.1 C 665.7 326.0 671.9 329.4 677.6 333.4 C 684.5 338.1 689.6 344.7 695.2 350.8 C 703.6 359.9 709.7 371.5 711.4 383.9 C 714.9 403.9 709.1 426.0 694.4 440.4 C 683.2 452.2 667.5 460.5 651.0 460.5 C 643.1 460.6 635.0 461.0 627.3 458.8 C 621.1 457.1 615.3 454.5 609.8 451.1 C 603.8 447.4 598.7 442.3 593.2 437.8 C 584.7 430.7 577.9 421.4 574.1 410.9 C 568.4 395.7 568.7 378.5 574.4 363.4 C 578.8 351.9 586.3 341.5 596.2 334.3 C 605.4 327.6 616.2 323.1 627.4 321.7 M 626.4 325.4 C 614.1 327.2 602.6 333.0 593.4 341.4 C 579.8 354.2 572.0 373.2 573.4 391.9 C 574.4 406.5 581.5 420.1 591.2 430.9 C 595.5 435.7 601.0 439.2 606.5 442.5 C 615.1 447.6 625.0 450.3 635.0 450.5 C 647.7 450.9 660.6 448.2 671.6 441.5 C 677.5 438.0 683.1 433.9 687.3 428.4 C 694.9 418.5 701.0 406.7 701.4 394.0 C 701.7 385.6 701.9 376.9 699.3 368.7 C 695.8 358.1 689.7 348.2 681.3 340.7 C 675.8 335.9 669.5 332.0 662.7 329.2 C 651.3 324.5 638.6 323.6 626.4 325.4 Z"/>
<path fill="#ffffff" stroke="#ffffff" stroke-width="0.09375" opacity="1.00" d=" M 720.9 322.0 C 723.5 321.3 726.3 321.5 728.9 321.5 C 735.0 321.6 741.0 321.5 747.1 321.4 C 749.8 321.5 752.8 321.2 755.1 323.0 C 757.5 324.8 759.7 327.0 761.4 329.5 C 762.9 331.6 762.6 334.4 762.7 336.9 C 762.4 360.0 762.8 383.0 762.5 406.0 C 762.7 409.4 762.4 413.4 765.3 415.7 C 772.9 421.6 783.2 422.7 792.5 421.1 C 800.9 419.6 808.9 414.8 813.5 407.6 C 816.3 403.3 816.4 398.0 816.4 393.0 C 816.3 378.7 816.4 364.3 816.3 350.0 C 816.4 340.9 816.0 331.7 816.7 322.6 C 826.5 322.5 836.3 322.5 846.1 322.5 C 852.6 322.4 858.8 328.3 858.5 334.9 C 858.4 360.6 858.4 386.3 858.5 412.0 C 858.4 417.0 857.8 422.2 855.8 426.8 C 852.2 435.2 845.8 442.2 838.4 447.4 C 826.9 455.6 813.0 459.7 799.0 460.5 C 790.9 460.7 782.6 460.7 774.6 458.7 C 768.4 457.1 762.1 455.4 756.3 452.6 C 749.0 448.9 743.0 443.3 737.1 437.9 C 732.6 433.7 728.0 429.4 725.0 424.0 C 721.4 417.3 719.4 409.7 719.4 402.1 C 719.5 377.0 719.5 352.0 719.4 327.0 C 719.7 325.3 719.1 322.9 720.9 322.0 M 723.3 325.3 C 723.2 351.2 723.4 377.1 723.2 403.0 C 723.2 408.1 723.8 413.3 726.0 418.0 C 730.8 429.2 740.4 437.6 751.3 442.8 C 759.9 447.3 769.6 448.8 779.1 450.1 C 787.1 451.1 795.2 449.8 803.1 448.3 C 811.6 446.9 819.8 443.5 827.2 439.1 C 837.0 433.2 844.1 423.5 847.5 412.6 C 848.4 409.5 848.6 406.3 848.6 403.1 C 848.4 377.2 848.6 351.3 848.5 325.5 C 838.8 325.3 829.1 325.3 819.5 325.5 C 819.3 346.3 819.4 367.2 819.4 388.0 C 819.3 394.5 820.1 401.3 817.4 407.4 C 813.9 414.7 806.8 419.6 799.5 422.5 C 793.3 425.1 786.5 425.0 779.9 424.6 C 773.5 424.3 767.3 421.6 762.1 417.9 C 756.5 413.8 752.3 407.2 752.5 400.1 C 752.6 375.2 752.7 350.3 752.5 325.5 C 742.8 325.3 733.0 325.5 723.3 325.3 Z"/>
<path fill="#ffffff" stroke="#ffffff" stroke-width="0.09375" opacity="1.00" d=" M 1250.3 322.4 C 1257.1 321.2 1264.1 321.5 1271.0 321.5 C 1280.3 321.5 1289.7 321.6 1299.1 321.4 C 1302.3 321.5 1306.0 321.1 1308.6 323.5 C 1311.7 326.3 1315.6 329.4 1315.5 334.0 C 1315.6 343.1 1315.5 352.3 1315.4 361.5 C 1299.3 361.7 1283.1 361.5 1267.0 361.5 C 1264.2 361.5 1261.4 361.9 1258.8 362.8 C 1255.1 363.9 1252.2 366.7 1249.3 369.1 C 1253.5 369.5 1257.8 369.6 1262.0 369.6 C 1272.7 369.4 1283.4 369.6 1294.1 369.4 C 1296.5 369.5 1299.3 369.1 1301.2 370.8 C 1304.8 374.0 1308.7 377.9 1308.6 383.0 C 1308.6 392.8 1308.5 402.6 1308.5 412.5 C 1289.6 412.8 1270.8 412.4 1251.9 412.7 C 1249.2 412.6 1246.1 412.8 1243.8 411.1 C 1240.6 408.7 1237.5 405.3 1237.5 401.1 C 1237.2 395.3 1237.7 389.5 1237.4 383.7 C 1235.7 385.9 1233.6 388.1 1233.5 391.0 C 1233.1 394.9 1233.1 398.8 1233.9 402.6 C 1235.8 410.4 1242.2 416.6 1249.7 419.2 C 1254.0 420.8 1258.6 420.5 1263.0 420.5 C 1274.3 420.3 1285.7 420.6 1297.0 420.4 C 1299.6 420.3 1302.2 420.2 1304.8 420.6 C 1307.2 420.8 1309.0 422.7 1310.7 424.3 C 1312.5 426.1 1314.5 427.9 1315.2 430.5 C 1315.7 432.9 1315.6 435.5 1315.6 438.0 C 1315.4 445.3 1315.5 452.5 1315.6 459.8 C 1305.7 460.6 1295.9 460.1 1286.0 460.2 C 1278.6 460.1 1271.3 460.4 1263.9 460.1 C 1252.3 459.7 1241.1 455.7 1231.1 449.9 C 1224.1 445.8 1218.3 440.0 1212.5 434.5 C 1207.3 429.3 1201.9 424.2 1198.1 417.9 C 1195.2 413.0 1192.7 407.7 1191.9 402.0 C 1191.3 397.4 1191.5 392.7 1191.4 388.0 C 1191.5 381.9 1191.1 375.6 1192.7 369.6 C 1194.2 363.8 1197.1 358.4 1200.6 353.5 C 1212.2 337.2 1230.4 325.5 1250.3 322.4 M 1246.6 326.5 C 1233.1 329.6 1220.5 336.8 1210.7 346.7 C 1201.7 356.2 1194.2 368.4 1194.2 381.9 C 1194.2 386.6 1194.1 391.3 1194.4 396.0 C 1194.8 404.1 1198.3 411.6 1202.6 418.3 C 1210.2 430.1 1221.6 439.0 1234.3 444.8 C 1244.5 449.4 1256.0 449.6 1267.0 449.5 C 1279.4 449.3 1291.8 449.8 1304.3 449.3 C 1304.6 441.1 1304.6 432.9 1304.3 424.7 C 1288.8 424.2 1273.4 424.6 1257.9 424.6 C 1254.7 424.6 1251.4 424.0 1248.6 422.5 C 1238.2 417.4 1229.6 408.7 1224.8 398.2 C 1222.6 391.9 1222.6 384.8 1224.6 378.5 C 1229.5 367.3 1238.2 357.2 1249.8 352.6 C 1257.2 349.9 1265.3 351.0 1273.0 350.8 C 1283.5 350.7 1294.0 351.3 1304.5 350.4 C 1304.5 342.0 1304.4 333.7 1304.6 325.3 C 1292.0 325.5 1279.5 325.4 1267.0 325.4 C 1260.2 325.4 1253.3 324.9 1246.6 326.5 M 1240.1 373.1 C 1239.4 382.7 1240.2 392.3 1240.2 401.9 C 1249.1 402.5 1258.1 402.2 1267.0 402.2 C 1277.1 402.2 1287.1 402.4 1297.2 402.1 C 1297.6 392.4 1297.6 382.8 1297.2 373.1 C 1287.5 372.8 1277.7 373.3 1268.0 373.2 C 1258.7 373.4 1249.4 372.5 1240.1 373.1 Z"/>
<path fill="#ffffff" stroke="#ffffff" stroke-width="0.09375" opacity="1.00" d=" M 1374.1 322.1 C 1382.4 321.2 1390.7 321.6 1399.0 321.6 C 1410.7 321.5 1422.3 321.6 1434.0 321.5 C 1438.2 321.6 1442.5 321.2 1446.8 321.7 C 1449.2 322.0 1451.0 323.8 1452.6 325.4 C 1454.4 327.2 1456.3 329.1 1457.1 331.6 C 1457.7 334.0 1457.5 336.5 1457.6 339.0 C 1457.4 346.5 1457.5 354.0 1457.4 361.4 C 1441.9 361.7 1426.5 361.5 1411.0 361.6 C 1398.6 361.7 1386.0 360.9 1373.8 363.6 C 1370.7 364.2 1368.2 366.2 1365.9 368.1 C 1370.5 369.4 1375.2 369.8 1380.0 369.5 C 1388.9 369.2 1397.7 370.0 1406.6 370.8 C 1415.9 371.8 1425.3 373.8 1433.6 378.5 C 1439.4 381.7 1443.9 386.8 1448.5 391.5 C 1455.9 398.9 1457.9 410.0 1457.5 420.0 C 1457.1 427.5 1456.1 435.5 1451.8 441.8 C 1446.8 449.4 1438.8 454.6 1430.1 457.0 C 1420.3 459.7 1410.1 459.7 1400.0 460.2 C 1382.3 460.3 1364.7 460.2 1347.0 460.2 C 1343.0 460.2 1338.9 460.5 1334.9 460.2 C 1330.8 459.9 1327.7 456.9 1325.1 454.0 C 1322.8 451.6 1322.9 448.1 1322.8 445.1 C 1322.8 436.8 1322.9 428.6 1323.3 420.4 C 1347.2 420.5 1371.1 420.4 1395.0 420.4 C 1401.8 420.6 1408.7 419.2 1414.6 415.9 C 1414.7 415.1 1414.8 413.6 1414.8 412.9 C 1404.0 411.7 1393.0 413.0 1382.1 412.0 C 1371.0 410.9 1359.7 409.6 1349.5 404.7 C 1343.2 402.1 1338.4 397.1 1333.4 392.6 C 1330.2 389.8 1327.1 386.7 1325.3 382.8 C 1322.8 377.9 1322.5 372.3 1322.4 367.0 C 1322.4 360.7 1322.5 354.3 1324.5 348.3 C 1327.4 339.6 1334.0 332.2 1342.3 328.3 C 1352.1 323.3 1363.4 323.2 1374.1 322.1 M 1344.4 331.3 C 1336.2 335.1 1329.7 342.5 1327.2 351.2 C 1325.5 357.3 1325.2 363.7 1325.6 370.0 C 1326.2 377.5 1329.3 385.0 1335.2 389.8 C 1341.9 395.1 1349.9 398.9 1358.5 400.1 C 1367.9 401.5 1377.4 402.9 1387.0 402.5 C 1394.4 402.6 1401.9 402.0 1409.2 403.6 C 1412.6 404.4 1416.3 406.0 1417.7 409.5 C 1419.4 413.0 1417.7 417.5 1414.4 419.4 C 1410.7 421.7 1406.2 422.5 1402.0 423.2 C 1388.7 425.0 1375.3 424.0 1362.0 424.2 C 1350.2 424.5 1338.4 423.8 1326.6 424.7 C 1326.5 432.9 1326.4 441.1 1326.8 449.3 C 1339.8 449.7 1352.9 449.4 1366.0 449.5 C 1377.8 449.3 1389.6 450.0 1401.4 448.8 C 1408.9 448.4 1416.5 448.1 1423.7 445.7 C 1431.4 443.5 1437.9 438.1 1442.4 431.5 C 1445.0 427.8 1446.2 423.4 1446.7 419.0 C 1447.7 410.9 1447.9 402.3 1444.4 394.7 C 1442.1 389.4 1437.8 385.1 1432.9 382.1 C 1425.1 377.4 1416.0 375.0 1407.0 374.6 C 1400.3 374.4 1393.7 373.5 1387.0 373.5 C 1379.7 373.4 1372.4 373.2 1365.2 372.4 C 1361.6 371.9 1357.5 370.8 1355.7 367.4 C 1354.2 364.3 1354.2 360.2 1356.6 357.6 C 1359.1 354.9 1362.7 353.6 1366.2 352.9 C 1376.3 351.0 1386.7 351.5 1397.0 351.5 C 1413.5 351.4 1430.0 351.5 1446.5 351.4 C 1446.7 342.8 1446.6 334.1 1446.5 325.5 C 1430.3 325.3 1414.2 325.5 1398.0 325.4 C 1389.1 325.5 1380.2 325.2 1371.3 325.6 C 1362.2 326.2 1352.8 327.3 1344.4 331.3 Z"/>
<path fill="#ffffff" stroke="#ffffff" stroke-width="0.09375" opacity="1.00" d=" M 315.3 326.3 C 327.3 321.9 340.3 320.8 353.0 321.8 C 367.4 323.0 381.5 328.2 392.9 337.1 C 398.1 341.2 402.1 346.6 406.6 351.4 C 412.9 358.3 416.2 367.7 416.6 377.0 C 416.7 404.6 416.3 432.3 416.8 460.0 C 407.5 460.4 398.2 460.2 388.9 460.3 C 383.8 460.6 379.6 457.2 376.6 453.5 C 374.7 451.1 375.2 447.9 375.0 445.1 C 375.2 437.2 375.4 429.3 374.7 421.4 C 360.8 421.7 346.9 421.5 332.9 421.7 C 328.3 422.0 324.8 418.6 321.5 415.9 C 321.1 430.6 321.8 445.3 321.2 460.0 C 312.8 460.4 304.4 460.2 296.0 460.3 C 292.3 460.3 288.0 460.6 285.0 457.9 C 282.3 455.6 279.3 452.8 278.8 449.0 C 278.3 444.4 278.7 439.7 278.7 435.0 C 278.7 414.7 278.7 394.3 278.6 374.0 C 278.7 367.8 279.2 361.5 281.7 355.7 C 284.5 349.0 289.3 343.5 294.5 338.5 C 300.3 332.8 307.7 329.1 315.3 326.3 M 316.7 329.6 C 303.3 334.4 290.8 343.7 284.8 356.9 C 281.4 364.8 281.8 373.6 282.0 382.0 C 281.9 392.3 282.1 402.7 282.0 413.0 C 282.5 425.5 281.5 438.1 282.3 450.6 C 292.0 450.3 301.7 450.5 311.4 450.4 C 311.7 424.9 311.5 399.4 311.5 373.9 C 311.6 365.3 318.1 358.1 325.4 354.4 C 336.9 348.9 350.8 349.3 362.3 354.6 C 369.0 357.4 374.5 362.9 377.2 369.7 C 378.7 373.8 378.5 378.2 378.6 382.5 C 360.3 383.0 342.0 382.3 323.7 382.8 C 323.3 392.3 323.3 401.8 323.7 411.3 C 341.9 411.8 360.2 411.2 378.4 411.6 C 378.8 424.1 378.2 436.7 378.7 449.3 C 388.1 449.6 397.5 449.7 406.9 449.2 C 407.0 445.8 407.2 442.4 407.2 439.0 C 407.2 417.7 407.1 396.3 407.2 375.0 C 407.2 369.1 406.9 363.0 404.5 357.5 C 400.6 348.1 393.0 340.8 384.4 335.5 C 375.0 329.7 364.1 326.6 353.2 325.0 C 340.9 323.3 328.3 325.6 316.7 329.6 M 327.7 369.7 C 324.8 372.3 323.2 375.9 321.7 379.5 C 339.5 379.7 357.3 379.5 375.0 379.6 C 374.7 375.8 374.9 371.6 372.7 368.3 C 371.1 365.7 368.3 364.3 365.5 363.3 C 359.7 361.3 353.4 360.1 347.2 361.0 C 340.1 362.1 332.9 364.5 327.7 369.7 Z"/>
<path fill="#ffffff" stroke="#ffffff" stroke-width="0.09375" opacity="1.00" d=" M 205.0 324.1 C 211.5 322.3 218.3 322.5 225.0 322.5 C 237.4 322.6 249.7 322.5 262.1 322.5 C 267.2 322.2 271.5 326.1 273.7 330.4 C 275.0 334.4 274.4 338.8 274.5 343.0 C 274.2 348.9 275.1 355.0 273.8 360.8 C 270.6 361.5 267.3 361.5 264.0 361.5 C 254.3 361.3 244.7 361.5 235.0 361.3 C 230.0 361.3 225.1 361.5 220.1 362.1 C 221.0 362.6 221.8 363.0 222.7 363.4 C 220.4 363.8 218.1 364.1 216.0 364.9 C 214.1 365.9 212.7 367.6 211.3 369.0 C 226.2 370.1 241.1 369.2 256.0 369.5 C 257.8 369.5 259.5 370.0 260.8 371.2 C 264.3 374.1 267.8 378.0 267.5 382.9 C 267.5 392.7 267.6 402.5 267.3 412.2 C 250.5 412.7 233.8 412.2 217.0 412.5 C 213.7 412.4 210.0 412.9 207.1 410.9 C 204.8 409.3 202.7 407.2 201.1 404.9 C 199.5 402.6 199.6 399.7 199.5 397.1 C 199.6 392.2 199.7 387.4 199.3 382.6 C 197.6 385.0 196.1 387.8 196.3 390.9 C 196.2 413.7 196.5 436.5 196.2 459.4 C 187.5 459.8 178.7 459.5 170.0 459.7 C 166.7 459.6 163.0 460.0 160.1 457.9 C 156.6 455.4 153.3 451.7 153.6 447.1 C 153.6 426.4 153.6 405.7 153.5 385.0 C 153.5 378.2 154.2 371.2 156.9 364.9 C 165.6 344.9 184.1 330.0 205.0 324.1 M 172.6 347.6 C 163.3 356.9 156.6 369.5 156.7 383.0 C 156.6 401.3 156.8 419.6 156.6 438.0 C 156.6 442.2 156.8 446.4 157.2 450.6 C 166.9 450.3 176.7 450.6 186.4 450.4 C 186.6 428.9 186.4 407.4 186.4 386.0 C 186.4 376.7 191.0 367.9 197.7 361.7 C 202.0 357.9 206.9 354.5 212.1 352.2 C 217.4 349.8 223.4 350.5 229.0 350.5 C 240.5 350.5 251.9 350.7 263.4 350.4 C 263.6 342.0 263.8 333.7 263.2 325.3 C 250.1 325.4 237.1 325.4 224.0 325.3 C 204.6 324.3 185.7 333.7 172.6 347.6 M 202.4 373.2 C 202.5 382.9 202.3 392.7 202.5 402.4 C 220.8 402.5 239.1 402.6 257.5 402.4 C 257.7 392.7 257.5 383.0 257.6 373.3 C 242.7 372.9 227.9 373.5 213.0 372.9 C 209.4 372.8 205.9 373.0 202.4 373.2 Z"/>
<path fill="#ffffff" stroke="#ffffff" stroke-width="0.09375" opacity="1.00" d=" M 865.7 322.7 C 884.1 322.3 902.6 322.7 921.0 322.5 C 933.5 322.7 946.1 321.8 958.5 324.2 C 966.0 325.5 973.5 327.7 980.0 331.9 C 985.6 335.2 989.6 340.4 993.8 345.2 C 997.0 348.9 999.9 352.9 1001.5 357.5 C 1003.7 363.4 1003.6 369.8 1003.6 376.0 C 1003.5 381.4 1003.4 387.1 1000.9 392.0 C 998.3 397.3 993.9 401.3 989.7 405.3 C 992.6 410.3 996.1 414.9 999.2 419.8 C 1002.1 424.3 1003.4 429.6 1003.5 435.0 C 1003.6 443.3 1003.6 451.7 1003.3 460.1 C 995.2 460.3 987.1 460.2 979.0 460.3 C 975.2 460.3 971.1 460.4 967.9 458.0 C 965.5 456.2 962.8 454.4 961.7 451.5 C 960.7 445.3 962.2 438.9 960.4 432.8 C 959.4 429.4 958.2 425.7 955.5 423.3 C 953.2 422.2 950.5 422.5 948.0 422.4 C 939.0 422.5 929.9 422.4 920.9 422.6 C 918.5 422.4 915.7 422.9 913.8 421.2 C 911.6 419.3 909.7 417.0 907.8 414.9 C 906.9 429.7 907.9 444.6 907.3 459.4 C 897.9 459.7 888.4 459.5 878.9 459.7 C 871.7 460.2 864.8 453.3 865.4 446.1 C 865.6 413.0 865.4 380.0 865.5 347.0 C 865.5 338.9 865.3 330.8 865.7 322.7 M 868.3 325.3 C 868.4 366.8 868.4 408.3 868.3 449.7 C 878.0 449.6 887.7 450.1 897.4 449.3 C 897.5 416.6 897.5 383.9 897.4 351.2 C 906.9 350.6 916.5 350.8 926.0 350.9 C 935.9 351.3 946.2 351.4 955.3 355.7 C 958.4 357.3 961.8 359.2 963.2 362.6 C 964.1 365.5 964.0 368.6 963.3 371.5 C 962.2 375.3 958.8 377.8 955.3 379.3 C 949.5 381.6 943.3 382.6 937.1 382.7 C 927.5 382.9 918.0 382.5 908.4 383.3 C 908.6 392.5 908.6 401.8 908.4 411.0 C 920.6 412.4 932.8 410.9 945.0 411.8 C 951.0 412.2 955.4 416.8 958.7 421.4 C 961.9 426.0 965.1 431.2 965.4 437.0 C 965.6 441.1 965.5 445.2 965.6 449.3 C 974.8 449.6 984.0 449.6 993.2 449.3 C 993.4 442.2 993.7 435.1 993.4 427.9 C 993.1 421.7 990.8 415.7 987.7 410.3 C 984.9 405.5 980.9 401.5 977.2 397.4 C 982.2 393.3 987.3 389.1 990.4 383.4 C 992.9 378.7 993.4 373.2 993.5 368.0 C 993.6 361.0 992.9 353.7 989.7 347.3 C 986.0 340.2 979.5 334.9 972.3 331.6 C 962.0 326.7 950.3 325.9 939.1 325.4 C 915.5 325.3 891.9 325.5 868.3 325.3 M 907.9 361.8 C 907.5 367.6 907.5 373.4 907.8 379.3 C 915.5 379.6 923.3 379.5 931.0 379.5 C 936.7 379.4 942.5 379.2 948.2 378.0 C 951.8 377.2 955.6 375.9 958.1 373.0 C 959.5 370.9 960.4 368.4 960.8 365.9 C 956.8 364.2 952.6 362.8 948.2 362.4 C 934.8 361.0 921.3 361.6 907.9 361.8 Z"/>
<path fill="#ffffff" stroke="#ffffff" stroke-width="0.09375" opacity="1.00" d=" M 1014.2 323.0 C 1018.1 322.1 1022.1 322.5 1026.0 322.5 C 1031.7 322.7 1037.4 322.3 1043.1 322.5 C 1047.3 322.5 1050.6 325.7 1053.0 328.9 C 1054.4 330.6 1054.6 332.8 1054.7 334.9 C 1054.6 376.6 1054.6 418.2 1054.7 459.9 C 1046.1 460.5 1037.5 460.1 1029.0 460.3 C 1025.8 460.2 1022.2 460.5 1019.5 458.5 C 1015.8 455.8 1012.2 452.0 1012.5 447.1 C 1012.5 411.1 1012.5 375.0 1012.5 339.0 C 1012.6 334.1 1012.0 329.1 1012.9 324.2 C 1013.2 323.9 1013.9 323.3 1014.2 323.0 M 1015.4 325.4 C 1015.3 366.9 1015.5 408.3 1015.3 449.7 C 1025.1 449.7 1034.9 449.7 1044.6 449.7 C 1044.4 408.3 1044.7 366.9 1044.5 325.5 C 1034.8 325.3 1025.1 325.4 1015.4 325.4 Z"/>
<path fill="#ffffff" stroke="#ffffff" stroke-width="0.09375" opacity="1.00" d=" M 1060.5 322.8 C 1060.6 329.5 1060.7 336.3 1060.4 343.0 C 1060.3 346.7 1060.6 350.4 1061.4 354.0 C 1062.0 346.0 1061.5 337.9 1061.6 329.9 C 1061.7 327.6 1061.5 324.8 1063.2 322.9 C 1068.1 322.1 1073.1 322.6 1078.0 322.5 C 1106.7 322.6 1135.3 322.5 1164.0 322.5 C 1169.0 322.6 1174.0 322.2 1179.0 322.7 C 1182.9 323.1 1185.7 326.2 1187.9 329.1 C 1189.8 331.6 1189.6 335.0 1189.7 338.0 C 1189.5 345.4 1189.6 352.9 1189.4 360.4 C 1175.5 360.8 1161.5 360.4 1147.6 360.6 C 1147.3 391.4 1147.6 422.2 1147.5 453.0 C 1147.4 455.3 1147.3 457.7 1147.2 460.0 C 1138.8 460.4 1130.4 460.1 1122.0 460.3 C 1118.7 460.3 1115.1 460.5 1112.3 458.7 C 1109.9 457.2 1107.7 455.4 1105.8 453.2 C 1104.2 451.6 1104.4 449.2 1104.3 447.1 C 1104.5 429.1 1104.4 411.0 1104.4 393.0 C 1104.3 382.6 1104.7 372.2 1104.2 361.7 C 1095.8 361.4 1087.4 361.5 1079.0 361.7 C 1076.5 361.7 1073.9 361.8 1071.4 361.2 C 1068.6 360.1 1066.3 358.0 1063.8 356.2 C 1062.6 355.1 1060.9 354.3 1060.7 352.5 C 1060.2 349.7 1060.3 346.8 1060.3 344.0 C 1060.5 336.9 1060.4 329.9 1060.5 322.8 M 1065.4 325.2 C 1065.4 333.6 1065.3 342.0 1065.6 350.4 C 1079.9 350.8 1094.2 350.3 1108.4 350.6 C 1108.6 373.7 1108.4 396.9 1108.5 420.0 C 1108.6 429.8 1108.3 439.5 1108.7 449.3 C 1117.9 449.6 1127.1 449.6 1136.3 449.3 C 1136.7 439.5 1136.4 429.8 1136.5 420.0 C 1136.6 396.9 1136.4 373.7 1136.6 350.6 C 1150.8 350.3 1165.1 350.8 1179.3 350.3 C 1179.6 342.0 1179.5 333.6 1179.6 325.3 C 1153.4 325.5 1127.2 325.3 1101.0 325.4 C 1089.1 325.3 1077.3 325.5 1065.4 325.2 Z"/>
<path fill="#ffffff" stroke="#ffffff" stroke-width="0.09375" opacity="1.00" d=" M 631.4 351.2 C 641.5 349.1 652.4 352.1 660.2 358.7 C 668.5 365.6 673.2 376.3 673.4 387.0 C 673.8 400.2 666.5 413.4 655.0 419.9 C 646.8 424.3 636.9 425.8 628.0 423.0 C 612.5 418.2 601.0 402.4 601.8 386.0 C 602.3 379.9 604.2 373.7 607.5 368.5 C 613.2 360.3 621.3 353.1 631.4 351.2 M 640.4 361.4 C 629.1 363.9 619.3 372.1 614.7 382.6 C 609.2 392.6 610.5 406.2 618.8 414.2 C 625.5 419.5 634.5 423.0 643.1 420.9 C 654.9 418.3 665.0 409.2 668.6 397.7 C 672.2 388.1 670.2 377.0 664.3 368.7 C 658.8 361.6 648.8 359.6 640.4 361.4 Z"/>
</svg>