<svg xmlns="http://www.w3.org/2000/svg" version="1.1" viewBox="11.95 151.59 1599.54 255">
<path fill="#ffffff" stroke="#ffffff" stroke-width="0.09375" opacity="1.00" d=" M 678.4 152.6 C 681.9 152.0 685.4 151.8 689.0 151.7 C 969.3 151.7 1249.7 151.7 1530.0 151.7 C 1536.4 151.8 1543.0 151.1 1549.3 152.8 C 1556.9 154.8 1564.4 157.6 1571.2 161.9 C 1578.0 166.1 1584.7 170.8 1589.9 177.1 C 1595.5 183.8 1601.9 190.2 1605.8 198.2 C 1609.2 204.6 1611.5 211.7 1611.4 219.0 C 1611.4 258.0 1611.4 297.0 1611.4 336.0 C 1611.4 343.6 1611.9 351.3 1609.5 358.6 C 1605.1 372.0 1595.7 383.1 1584.8 391.8 C 1577.1 397.9 1568.1 402.1 1558.8 404.9 C 1551.7 407.1 1544.3 406.4 1537.0 406.4 C 1260.7 406.4 984.3 406.4 708.0 406.4 C 700.6 406.4 693.1 407.1 685.9 405.4 C 680.6 404.1 675.4 402.7 670.5 400.4 C 661.0 395.8 652.9 388.9 645.4 381.7 C 636.1 373.2 628.2 362.9 624.0 351.0 C 621.0 342.3 621.7 333.0 621.6 324.0 C 621.6 287.7 621.7 251.3 621.6 215.0 C 621.6 208.5 622.3 201.9 624.8 195.8 C 630.7 182.1 641.0 170.4 653.6 162.7 C 661.3 158.0 669.5 154.1 678.4 152.6 M 677.4 156.4 C 661.0 160.4 645.8 170.1 635.8 183.8 C 629.1 192.4 624.7 203.0 624.9 214.0 C 624.9 251.0 624.9 288.0 624.9 325.0 C 624.9 332.7 624.4 340.7 626.8 348.1 C 630.8 361.5 639.9 372.6 650.2 381.7 C 659.2 387.9 668.9 393.4 679.6 396.1 C 688.0 397.3 696.5 396.2 705.0 396.6 C 983.3 396.6 1261.7 396.6 1540.0 396.6 C 1553.0 396.1 1564.7 389.4 1575.1 382.0 C 1582.1 377.1 1587.7 370.4 1592.4 363.3 C 1598.3 355.2 1601.5 345.1 1601.6 335.0 C 1601.5 297.7 1601.6 260.3 1601.5 223.0 C 1601.5 216.7 1602.2 210.1 1600.2 204.0 C 1598.4 198.4 1596.5 192.7 1593.3 187.8 C 1583.8 173.0 1568.7 162.1 1551.9 157.1 C 1545.1 155.0 1538.0 155.6 1531.0 155.6 C 1252.0 155.6 973.0 155.5 694.0 155.6 C 688.5 155.6 682.8 155.2 677.4 156.4 Z"/>
<path fill="#ffffff" stroke="#ffffff" stroke-width="0.09375" opacity="1.00" d=" M 686.3 187.0 C 698.2 185.9 710.1 186.9 722.0 186.6 C 991.0 186.6 1260.0 186.6 1529.0 186.6 C 1533.3 186.6 1537.7 186.3 1542.1 186.6 C 1545.5 186.7 1548.4 188.9 1551.2 190.8 C 1558.5 196.1 1565.2 202.7 1569.1 210.9 C 1570.8 214.3 1571.4 218.2 1571.5 222.0 C 1571.4 254.6 1571.4 287.3 1571.5 320.0 C 1571.4 326.3 1572.1 332.8 1569.7 338.8 C 1567.7 343.7 1564.7 348.2 1561.1 352.1 C 1557.8 355.8 1553.4 358.4 1549.9 361.9 C 1548.4 363.1 1547.2 364.5 1545.5 365.3 C 1541.0 366.0 1536.5 365.5 1532.0 365.6 C 1269.0 365.6 1006.0 365.6 743.0 365.6 C 726.7 365.6 710.3 365.6 694.0 365.4 C 688.5 365.3 682.8 364.7 677.8 362.1 C 668.7 357.3 661.4 349.3 656.9 340.1 C 655.1 336.4 654.6 332.1 654.6 328.0 C 654.7 295.7 654.6 263.3 654.6 231.0 C 654.6 224.3 653.9 217.1 656.9 210.9 C 660.8 202.9 667.2 196.4 674.4 191.4 C 677.9 188.9 682.1 187.5 686.3 187.0 M 703.5 196.8 C 699.7 197.2 695.9 197.2 692.1 197.6 C 687.9 198.0 684.5 200.9 681.2 203.2 C 675.1 207.5 670.6 213.6 667.1 220.1 C 664.6 224.6 665.2 230.0 665.1 235.0 C 665.2 265.3 665.2 295.7 665.2 326.0 C 665.2 331.2 664.8 336.5 665.6 341.7 C 666.6 347.2 669.4 352.6 674.1 355.9 C 678.2 358.8 682.8 361.5 688.0 361.6 C 971.3 361.7 1254.7 361.6 1538.1 361.7 C 1542.2 361.7 1545.9 359.5 1549.4 357.5 C 1557.0 353.3 1562.9 346.3 1566.4 338.3 C 1569.2 331.9 1568.3 324.8 1568.4 318.0 C 1568.4 286.3 1568.3 254.6 1568.4 223.0 C 1568.5 209.7 1557.4 197.0 1544.0 196.4 C 1270.0 196.5 996.0 196.4 722.0 196.5 C 715.8 196.4 709.6 196.2 703.5 196.8 Z"/>
<path fill="#ffffff" stroke="#ffffff" stroke-width="0.09375" opacity="1.00" d=" M 217.7 211.9 C 223.1 210.7 228.4 209.5 234.0 209.5 C 240.2 209.4 246.5 209.1 252.6 210.5 C 258.8 212.0 265.0 213.4 270.7 216.3 C 278.4 220.1 285.9 225.0 290.7 232.3 C 293.9 236.7 295.5 242.0 296.1 247.3 C 297.5 257.3 294.2 267.1 291.9 276.6 C 286.2 299.6 280.3 322.5 274.6 345.4 C 274.2 346.7 273.7 348.0 272.8 349.1 C 269.9 349.6 266.9 349.5 264.0 349.5 C 256.3 349.3 248.7 349.7 241.0 349.1 C 244.2 335.4 248.7 321.9 250.3 307.8 C 230.2 307.2 210.1 307.8 190.1 307.6 C 190.6 299.8 193.5 292.4 195.0 284.8 C 195.9 281.5 196.3 278.0 198.0 274.9 C 199.0 273.2 201.3 273.6 203.0 273.4 C 222.0 273.5 241.1 273.7 260.2 273.3 C 261.4 267.2 262.5 260.7 260.2 254.8 C 257.9 249.8 253.8 245.8 249.0 243.1 C 241.3 239.1 232.3 237.1 223.7 239.0 C 217.6 240.4 211.5 242.0 206.0 245.1 C 199.9 248.3 195.1 253.5 190.8 258.8 C 187.3 263.2 186.7 268.9 185.3 274.2 C 183.0 282.7 181.7 291.4 179.0 299.8 C 175.9 311.5 173.2 323.3 170.2 335.0 C 168.9 339.5 168.4 344.2 166.5 348.5 C 164.6 349.7 162.2 349.3 160.0 349.5 C 151.4 349.3 142.7 349.7 134.1 349.2 C 136.3 340.3 138.8 331.5 140.5 322.5 C 145.3 303.0 150.3 283.6 155.1 264.1 C 157.0 255.8 160.6 247.7 166.3 241.3 C 172.1 234.7 178.7 228.7 186.3 224.3 C 196.0 218.6 206.6 214.1 217.7 211.9 Z"/>
<path fill="#ffffff" stroke="#ffffff" stroke-width="0.09375" opacity="1.00" d=" M 1005.0 213.2 C 1022.1 207.6 1040.9 206.9 1058.2 211.8 C 1070.1 215.5 1081.7 221.4 1090.0 230.9 C 1095.5 237.2 1101.5 243.2 1105.0 250.9 C 1108.0 256.8 1108.7 263.5 1108.6 270.0 C 1108.4 296.5 1108.7 323.0 1108.5 349.5 C 1099.3 349.9 1090.1 349.4 1081.0 349.7 C 1077.9 349.6 1074.4 350.2 1071.9 348.0 C 1069.6 346.1 1067.3 344.0 1065.8 341.4 C 1065.0 339.4 1065.2 337.2 1065.1 335.1 C 1065.2 327.3 1065.4 319.5 1065.0 311.8 C 1054.4 311.2 1043.7 311.7 1033.0 311.5 C 1027.9 311.4 1022.8 312.1 1017.8 311.1 C 1015.2 308.9 1013.3 306.2 1010.6 304.1 C 1010.0 319.1 1010.9 334.2 1010.2 349.2 C 1001.5 349.7 992.7 349.2 984.0 349.5 C 980.8 349.4 977.0 349.9 974.5 347.5 C 971.9 345.3 969.2 343.0 967.9 339.8 C 967.1 335.6 967.6 331.3 967.6 327.0 C 967.6 305.3 967.6 283.7 967.5 262.0 C 967.4 254.9 967.8 247.5 971.2 241.1 C 977.9 227.5 991.1 218.2 1005.0 213.2 M 1025.9 212.0 C 1010.4 213.9 994.9 219.6 983.5 230.5 C 975.3 238.3 969.9 249.5 970.3 261.0 C 970.6 287.1 970.1 313.3 970.6 339.4 C 980.5 339.6 990.5 339.7 1000.4 339.4 C 1000.8 313.6 1000.5 287.8 1000.5 261.9 C 1000.4 256.3 1003.5 251.2 1007.3 247.3 C 1010.9 243.7 1015.7 241.8 1020.4 240.2 C 1026.1 238.3 1032.1 238.3 1038.0 238.5 C 1048.8 238.7 1059.5 244.5 1065.3 253.6 C 1068.5 258.5 1067.1 264.5 1067.4 270.0 C 1067.6 266.6 1067.9 263.1 1068.4 259.7 C 1068.6 263.4 1068.7 267.0 1068.7 270.7 C 1056.8 271.0 1044.9 270.7 1033.0 270.8 C 1025.8 270.8 1018.6 270.5 1011.4 271.2 C 1011.6 281.0 1011.3 290.7 1011.6 300.4 C 1024.4 300.8 1037.2 300.5 1050.0 300.6 C 1055.6 300.7 1061.2 300.1 1066.8 301.0 C 1068.6 302.3 1068.2 304.9 1068.4 307.0 C 1068.4 317.8 1068.3 328.7 1068.4 339.6 C 1078.1 339.5 1087.8 339.7 1097.5 339.5 C 1097.9 312.3 1097.4 285.1 1097.7 257.9 C 1098.0 250.9 1095.3 244.3 1091.5 238.5 C 1083.9 227.0 1071.4 219.7 1058.5 215.5 C 1048.0 212.3 1036.8 210.4 1025.9 212.0 M 1025.7 251.7 C 1018.8 254.6 1013.4 260.5 1010.9 267.5 C 1028.9 267.7 1047.0 267.5 1065.0 267.6 C 1065.0 262.9 1064.9 257.3 1061.1 253.9 C 1057.6 251.4 1053.3 250.6 1049.2 249.5 C 1041.4 247.6 1033.1 248.8 1025.7 251.7 Z"/>
<path fill="#ffffff" stroke="#ffffff" stroke-width="0.09375" opacity="1.00" d=" M 46.8 210.7 C 51.2 210.4 55.6 210.3 60.0 210.4 C 66.9 210.6 73.9 209.9 80.8 210.9 C 74.1 236.9 68.0 263.0 60.8 288.9 C 58.3 299.5 54.8 309.8 53.1 320.6 C 69.4 320.7 85.7 320.6 102.0 320.6 C 109.3 320.7 116.7 320.2 124.0 321.0 C 122.2 330.6 121.5 340.5 117.3 349.5 C 112.9 349.6 108.4 349.7 104.0 349.6 C 73.3 349.5 42.7 349.7 12.0 349.5 C 24.0 303.3 35.1 256.9 46.8 210.7 Z"/>
<path fill="#ffffff" stroke="#ffffff" stroke-width="0.09375" opacity="1.00" d=" M 363.8 211.9 C 372.2 211.2 380.6 210.2 389.0 210.4 C 412.6 210.5 436.3 210.3 459.9 210.5 C 457.6 220.5 455.0 230.5 452.5 240.5 C 426.3 240.6 400.1 240.5 374.0 240.6 C 365.8 241.1 357.1 242.3 350.2 247.1 C 346.8 249.3 345.6 253.7 346.6 257.4 C 348.0 260.3 351.2 261.9 354.3 262.4 C 364.1 263.7 374.1 263.5 384.0 263.9 C 391.6 264.5 399.3 264.4 406.8 265.8 C 412.4 266.9 418.1 268.3 423.3 270.6 C 427.8 272.4 431.3 275.9 434.4 279.6 C 436.5 282.0 438.3 284.9 438.6 288.1 C 439.1 294.2 439.0 300.4 437.2 306.3 C 435.2 313.0 432.7 319.8 428.5 325.5 C 424.1 331.5 418.1 335.9 412.1 340.1 C 406.6 344.0 400.3 346.2 393.8 347.4 C 387.6 348.6 381.3 349.6 375.0 349.6 C 347.0 349.6 319.0 349.6 291.0 349.6 C 292.5 340.0 295.8 330.7 297.4 321.1 C 302.3 320.5 307.1 320.4 312.0 320.6 C 330.7 320.6 349.3 320.6 368.0 320.6 C 374.5 320.6 381.1 320.3 387.5 319.2 C 392.4 318.3 397.0 315.9 400.4 312.4 C 403.0 309.9 403.5 305.9 402.5 302.5 C 400.6 299.2 396.5 298.0 392.9 297.5 C 380.5 296.6 368.0 297.0 355.7 295.7 C 349.0 295.3 342.2 295.3 335.8 293.3 C 328.0 291.2 320.0 287.6 315.3 280.7 C 311.1 274.5 310.8 266.5 312.2 259.4 C 314.2 249.9 317.7 240.5 323.8 232.9 C 328.4 227.2 333.6 221.6 340.3 218.4 C 347.7 214.9 355.7 212.7 363.8 211.9 Z"/>
<path fill="#ffffff" stroke="#ffffff" stroke-width="0.09375" opacity="1.00" d=" M 478.5 210.6 C 482.7 210.0 486.9 210.5 491.0 210.4 C 529.3 210.4 567.6 210.4 605.9 210.4 C 604.4 220.6 600.9 230.3 599.2 240.3 C 583.4 241.0 567.7 240.1 552.0 240.8 C 550.4 245.8 549.1 251.0 547.9 256.1 C 545.6 265.5 542.7 274.6 540.8 284.1 C 535.5 305.9 529.8 327.7 524.5 349.6 C 513.4 349.7 502.2 349.6 491.0 349.6 C 491.3 347.1 491.6 344.5 492.2 342.1 C 498.7 316.7 504.8 291.3 511.2 266.0 C 513.2 257.6 515.6 249.3 517.3 240.8 C 501.9 240.2 486.5 240.7 471.0 240.6 C 471.2 232.7 474.2 225.2 475.7 217.6 C 476.5 215.2 476.6 212.3 478.5 210.6 Z"/>
<path fill="#ffffff" stroke="#ffffff" stroke-width="0.09375" opacity="1.00" d=" M 704.2 210.0 C 708.1 209.2 712.1 209.6 716.0 209.6 C 736.7 209.7 757.3 209.5 778.0 209.6 C 786.6 209.9 795.3 209.8 803.6 212.4 C 808.9 214.1 814.3 215.9 819.1 219.0 C 823.9 222.0 827.6 226.4 831.5 230.5 C 835.4 234.7 839.2 239.2 841.3 244.6 C 843.5 249.8 843.5 255.5 843.5 261.0 C 843.5 267.2 843.6 273.5 841.4 279.4 C 838.6 287.1 833.6 294.1 826.6 298.7 C 818.0 304.6 807.6 306.7 797.5 308.6 C 786.0 310.0 774.5 310.6 763.0 310.5 C 759.4 310.3 755.2 311.2 752.1 309.0 C 749.9 307.6 747.7 306.1 745.5 304.8 C 745.2 319.6 745.8 334.4 745.3 349.2 C 737.2 349.6 729.1 349.3 721.0 349.5 C 718.1 349.5 715.1 349.7 712.2 349.0 C 709.9 348.2 708.1 346.3 706.4 344.6 C 704.7 342.8 702.8 340.7 702.7 338.0 C 702.3 333.7 702.6 329.3 702.6 325.0 C 702.6 291.7 702.6 258.3 702.6 225.0 C 702.7 220.4 702.2 215.8 703.0 211.2 C 703.3 210.9 703.9 210.3 704.2 210.0 M 705.6 212.5 C 705.3 254.6 705.6 296.7 705.4 338.8 C 715.3 339.4 725.2 339.3 735.1 338.9 C 735.8 330.3 735.3 321.6 735.4 313.0 C 735.5 288.2 735.2 263.4 735.5 238.5 C 748.4 238.2 761.2 238.4 774.0 238.4 C 783.1 239.3 793.0 240.6 799.9 247.1 C 803.9 250.5 804.1 256.6 802.0 261.0 C 800.0 264.8 796.1 266.9 792.2 268.1 C 784.0 270.4 775.4 270.8 767.0 271.1 C 760.5 271.3 754.1 270.6 747.7 271.8 C 747.6 280.9 747.4 290.1 747.8 299.2 C 755.5 299.7 763.3 299.4 771.0 299.5 C 778.4 299.5 785.7 298.2 793.0 297.2 C 798.2 296.5 803.3 295.1 808.3 293.2 C 818.8 289.4 827.1 280.5 831.0 270.1 C 833.1 264.6 833.3 258.7 833.3 253.0 C 833.2 247.4 833.0 241.6 830.4 236.5 C 826.8 229.2 820.8 223.0 813.4 219.6 C 806.3 216.0 798.6 214.2 790.8 213.5 C 779.6 211.8 768.3 212.6 757.0 212.4 C 739.9 212.5 722.7 212.2 705.6 212.5 M 746.7 249.8 C 746.3 255.6 746.3 261.4 746.7 267.2 C 757.2 267.6 767.8 267.8 778.2 266.7 C 784.1 266.2 790.4 265.8 795.6 262.7 C 798.5 261.0 800.1 257.6 799.9 254.3 C 797.4 252.1 794.0 251.5 790.9 250.9 C 783.9 250.0 777.0 249.4 770.0 249.5 C 762.2 249.6 754.5 249.3 746.7 249.8 Z"/>
<path fill="#ffffff" stroke="#ffffff" stroke-width="0.09375" opacity="1.00" d=" M 852.8 209.8 C 861.5 209.3 870.3 209.8 879.0 209.5 C 882.0 209.6 885.4 209.1 887.9 211.1 C 890.7 213.4 893.5 215.9 895.0 219.2 C 895.9 223.4 895.3 227.7 895.4 232.0 C 895.4 257.9 895.4 283.8 895.4 309.6 C 912.3 309.5 929.1 309.7 946.0 309.5 C 948.7 309.6 951.6 309.4 953.7 311.3 C 957.0 314.0 960.7 317.3 960.4 321.9 C 960.4 331.0 960.6 340.1 960.2 349.2 C 953.8 349.5 947.4 349.4 941.0 349.4 C 915.6 349.4 890.3 349.4 864.9 349.5 C 859.7 349.8 855.9 345.4 853.3 341.5 C 851.9 337.9 852.6 333.8 852.5 330.0 C 852.6 297.3 852.5 264.7 852.6 232.0 C 852.6 224.6 852.3 217.2 852.8 209.8 M 855.5 212.5 C 855.3 218.0 855.3 223.5 855.4 229.0 C 855.4 260.3 855.4 291.7 855.4 323.0 C 855.3 328.5 855.3 334.0 855.5 339.5 C 883.3 339.7 911.2 339.4 939.0 339.6 C 942.8 339.6 946.6 339.5 950.4 339.4 C 950.6 330.5 950.6 321.5 950.4 312.6 C 936.9 312.3 923.5 312.6 910.0 312.5 C 901.7 312.3 893.4 312.8 885.1 312.1 C 884.5 303.4 884.9 294.7 884.8 286.0 C 884.7 261.5 885.0 236.9 884.7 212.4 C 875.0 212.5 865.2 212.2 855.5 212.5 Z"/>
<path fill="#ffffff" stroke="#ffffff" stroke-width="0.09375" opacity="1.00" d=" M 1116.7 215.0 C 1116.8 213.2 1116.7 210.0 1119.1 209.8 C 1127.0 209.1 1135.0 209.9 1143.0 209.5 C 1146.3 209.6 1150.1 208.9 1152.8 211.2 C 1155.1 212.9 1157.1 214.9 1158.8 217.2 C 1160.5 219.4 1160.3 222.3 1160.4 225.0 C 1160.2 236.0 1160.3 247.0 1160.2 258.1 C 1160.3 260.7 1160.0 263.9 1162.1 265.9 C 1165.4 269.0 1169.6 270.8 1173.9 271.9 C 1185.1 274.4 1197.6 271.9 1206.7 264.7 C 1210.8 260.9 1214.6 255.9 1214.7 250.0 C 1214.9 236.7 1214.2 223.2 1214.9 209.9 C 1223.3 209.2 1231.6 209.8 1240.0 209.5 C 1242.9 209.5 1245.9 209.3 1248.8 210.0 C 1251.7 211.3 1253.9 213.7 1255.8 216.2 C 1257.6 218.3 1257.4 221.3 1257.5 224.0 C 1257.4 234.0 1257.4 244.0 1257.4 254.0 C 1257.4 260.4 1257.9 266.8 1256.3 273.0 C 1253.8 283.1 1247.7 292.2 1239.2 298.1 C 1230.3 304.7 1219.6 308.0 1209.2 311.3 C 1208.3 323.9 1209.1 336.5 1208.8 349.1 C 1200.2 349.8 1191.6 349.2 1183.0 349.5 C 1179.5 349.4 1175.4 350.1 1172.5 347.5 C 1169.4 344.7 1165.5 341.6 1165.6 337.1 C 1165.3 327.7 1166.1 318.2 1165.4 308.8 C 1158.8 306.7 1152.3 304.3 1146.8 300.2 C 1143.5 297.8 1140.9 294.8 1137.9 292.1 C 1135.1 289.6 1131.9 287.4 1129.2 284.8 C 1122.9 278.7 1118.5 270.6 1117.3 261.9 C 1116.3 254.6 1116.8 247.3 1116.7 240.0 C 1116.8 231.7 1116.6 223.3 1116.7 215.0 M 1120.3 212.4 C 1119.9 224.2 1120.3 236.1 1120.1 248.0 C 1120.1 253.8 1119.7 259.9 1121.5 265.5 C 1124.4 274.8 1130.9 282.7 1138.8 288.3 C 1147.4 294.5 1157.5 298.4 1167.9 300.5 C 1169.2 313.4 1167.9 326.4 1168.6 339.4 C 1178.3 339.7 1188.1 339.4 1197.9 339.6 C 1199.0 326.8 1198.1 314.0 1198.4 301.2 C 1205.0 298.9 1212.0 297.6 1218.4 294.4 C 1229.7 289.1 1239.9 280.2 1244.5 268.4 C 1246.1 264.5 1246.6 260.2 1246.6 256.0 C 1246.5 246.3 1246.5 236.7 1246.5 227.0 C 1246.7 222.1 1246.6 217.2 1246.1 212.3 C 1236.6 212.5 1227.1 212.2 1217.6 212.6 C 1217.2 222.7 1217.5 232.9 1217.5 243.0 C 1217.4 248.5 1218.1 254.4 1215.4 259.5 C 1212.0 266.0 1205.8 270.4 1199.1 273.0 C 1192.4 275.8 1185.0 275.7 1178.0 275.4 C 1167.0 274.9 1156.2 268.7 1151.1 258.9 C 1149.5 255.9 1149.4 252.4 1149.4 249.1 C 1149.5 236.8 1149.4 224.5 1149.5 212.2 C 1139.8 212.5 1130.0 212.4 1120.3 212.4 Z"/>
<path fill="#ffffff" stroke="#ffffff" stroke-width="0.09375" opacity="1.00" d=" M 1316.3 211.3 C 1324.0 209.1 1332.1 209.6 1340.0 209.6 C 1351.7 209.6 1363.4 209.7 1375.0 209.5 C 1377.9 209.5 1381.2 209.4 1383.5 211.5 C 1386.6 214.3 1390.5 217.4 1390.4 221.9 C 1390.5 230.7 1390.5 239.5 1390.2 248.3 C 1373.5 248.8 1356.7 248.4 1339.9 248.4 C 1336.3 248.3 1333.3 250.4 1330.3 252.0 C 1327.3 253.7 1324.2 255.0 1321.6 257.2 C 1321.6 257.5 1321.7 258.0 1321.8 258.3 C 1324.5 258.7 1327.2 258.6 1330.0 258.6 C 1342.6 258.4 1355.3 258.6 1368.0 258.4 C 1370.2 258.5 1372.6 258.3 1374.7 259.0 C 1377.3 260.5 1379.3 262.7 1381.0 265.0 C 1383.0 267.6 1382.5 271.0 1382.6 274.0 C 1382.3 282.8 1382.7 291.5 1382.3 300.3 C 1364.5 300.8 1346.8 300.3 1329.0 300.6 C 1326.1 300.6 1323.1 300.8 1320.2 300.1 C 1317.3 298.8 1315.0 296.4 1313.1 293.9 C 1311.3 291.7 1311.5 288.7 1311.5 286.0 C 1311.5 281.3 1311.7 276.5 1311.4 271.7 C 1307.0 275.9 1307.4 282.5 1307.7 288.1 C 1308.6 300.5 1320.9 309.8 1332.9 309.6 C 1347.7 309.6 1362.4 309.6 1377.1 309.5 C 1380.1 309.3 1383.0 310.7 1385.2 312.8 C 1387.8 315.2 1391.0 318.0 1390.7 322.0 C 1390.7 331.2 1390.6 340.4 1390.7 349.7 C 1372.4 349.6 1354.2 349.6 1335.9 349.7 C 1328.2 349.8 1320.7 347.2 1313.7 344.2 C 1308.3 341.4 1303.6 337.6 1298.4 334.5 C 1292.9 330.8 1288.7 325.6 1283.7 321.3 C 1277.2 315.0 1271.3 307.8 1267.7 299.4 C 1265.1 293.3 1264.4 286.6 1264.5 280.0 C 1264.6 272.6 1264.0 265.1 1265.9 257.8 C 1267.6 251.3 1271.1 245.4 1275.0 240.0 C 1284.9 226.0 1299.9 216.1 1316.3 211.3 M 1310.7 216.8 C 1292.8 223.9 1277.2 237.9 1270.1 256.1 C 1267.0 264.0 1267.6 272.7 1267.6 281.0 C 1267.6 296.6 1276.8 310.8 1288.2 320.8 C 1293.0 325.0 1297.9 329.4 1303.8 332.1 C 1311.7 335.8 1320.1 339.2 1329.0 339.5 C 1346.1 339.5 1363.3 339.7 1380.4 339.4 C 1380.8 330.6 1380.4 321.9 1380.6 313.1 C 1377.4 312.7 1374.2 312.3 1371.0 312.4 C 1359.4 312.6 1347.7 312.4 1336.0 312.5 C 1329.9 312.6 1323.5 312.1 1318.2 308.7 C 1312.0 304.8 1306.3 299.7 1302.6 293.3 C 1300.3 289.2 1298.0 284.8 1297.6 280.0 C 1297.1 274.6 1297.4 268.9 1300.0 264.1 C 1304.0 256.2 1309.8 249.2 1316.9 244.0 C 1322.4 239.9 1329.5 239.5 1336.0 239.4 C 1349.0 239.5 1362.0 239.4 1375.0 239.5 C 1376.7 239.3 1378.9 239.7 1380.1 238.1 C 1380.6 236.2 1380.6 234.1 1380.6 232.1 C 1380.6 225.6 1380.6 219.1 1380.4 212.6 C 1364.6 212.2 1348.8 212.6 1333.0 212.3 C 1325.3 212.2 1317.8 214.1 1310.7 216.8 M 1314.2 261.1 C 1314.3 270.9 1313.7 280.6 1314.8 290.3 C 1325.2 290.5 1335.6 290.3 1346.0 290.4 C 1354.7 290.3 1363.5 290.7 1372.2 290.2 C 1372.5 280.5 1372.7 270.8 1372.1 261.1 C 1360.8 260.6 1349.4 261.0 1338.0 260.9 C 1330.1 261.0 1322.1 260.5 1314.2 261.1 Z"/>
<path fill="#ffffff" stroke="#ffffff" stroke-width="0.09375" opacity="1.00" d=" M 1399.2 210.0 C 1403.4 209.2 1407.7 209.6 1412.0 209.6 C 1426.3 209.6 1440.7 209.6 1455.0 209.6 C 1462.9 209.6 1471.1 209.0 1478.8 211.1 C 1494.9 215.4 1509.3 225.3 1519.7 238.3 C 1525.7 244.9 1531.5 251.8 1534.9 260.1 C 1537.5 266.1 1538.6 272.5 1538.5 279.0 C 1538.3 286.6 1539.2 294.4 1536.9 301.8 C 1534.8 309.3 1530.6 315.9 1525.9 321.9 C 1519.3 330.4 1510.5 337.1 1501.0 342.1 C 1493.3 346.2 1484.9 349.5 1476.1 349.6 C 1469.7 349.7 1463.4 349.5 1457.0 349.7 C 1454.2 349.7 1451.3 349.9 1448.5 349.3 C 1445.9 347.6 1443.9 345.1 1441.6 342.9 C 1441.3 345.1 1440.9 347.4 1440.6 349.6 C 1432.1 349.7 1423.5 349.5 1415.0 349.7 C 1412.5 349.7 1409.9 349.8 1407.5 349.3 C 1405.2 348.5 1403.6 346.7 1401.9 345.1 C 1400.1 343.1 1397.8 340.9 1397.7 338.0 C 1397.3 333.0 1397.7 328.0 1397.6 323.0 C 1397.6 287.3 1397.7 251.6 1397.6 216.0 C 1397.8 213.9 1397.3 211.3 1399.2 210.0 M 1401.5 212.2 C 1401.5 251.8 1401.5 291.4 1401.5 331.0 C 1401.5 333.4 1401.6 335.8 1401.7 338.3 C 1411.2 338.6 1420.7 338.6 1430.2 338.3 C 1430.5 333.2 1430.5 328.1 1430.5 323.0 C 1430.4 295.0 1430.5 267.0 1430.4 239.0 C 1438.2 238.2 1446.1 238.8 1454.0 238.6 C 1460.4 238.5 1467.2 238.2 1473.3 240.8 C 1483.0 245.0 1490.5 253.3 1495.4 262.6 C 1498.7 268.7 1499.3 276.0 1497.7 282.7 C 1496.0 289.2 1492.3 294.9 1487.9 299.9 C 1483.7 304.9 1478.3 309.1 1472.0 311.1 C 1467.2 312.7 1462.0 312.6 1457.0 312.5 C 1452.2 312.4 1447.4 312.4 1442.6 312.6 C 1442.3 321.5 1442.3 330.5 1442.6 339.4 C 1447.4 339.6 1452.2 339.6 1457.0 339.6 C 1463.1 339.5 1469.4 340.1 1475.3 338.2 C 1492.0 333.2 1508.5 324.1 1518.3 309.3 C 1522.4 303.3 1526.1 296.8 1527.4 289.6 C 1528.6 282.4 1528.3 275.1 1528.1 267.9 C 1527.9 262.2 1526.3 256.5 1523.7 251.4 C 1513.7 231.2 1493.5 217.0 1471.6 212.8 C 1465.4 212.0 1459.2 212.5 1453.0 212.4 C 1435.8 212.3 1418.6 212.6 1401.5 212.2 M 1441.7 249.8 C 1441.2 259.8 1441.6 269.9 1441.5 280.0 C 1441.6 289.7 1441.2 299.5 1441.7 309.2 C 1449.2 309.5 1456.6 309.5 1464.0 309.4 C 1468.0 309.4 1471.9 308.4 1475.3 306.3 C 1480.2 303.1 1484.6 298.9 1488.3 294.3 C 1492.3 289.0 1495.9 282.8 1495.7 276.0 C 1495.9 270.9 1493.8 266.1 1491.2 261.9 C 1488.8 258.0 1486.2 254.0 1482.1 251.9 C 1477.5 249.5 1472.1 249.5 1467.0 249.5 C 1458.6 249.7 1450.2 249.3 1441.7 249.8 Z"/>
</svg>