<svg xmlns="http://www.w3.org/2000/svg" version="1.1" viewBox="-0.05 -0.05 697.57 131.17">
<path fill="#ffffff" stroke="#ffffff" stroke-width="0.09375" opacity="1.00" d=" M 499.5 0.0 L 505.5 0.0 C 521.3 0.8 537.0 6.4 548.8 17.2 C 553.2 21.0 556.4 26.0 560.1 30.5 C 560.6 21.4 560.0 12.4 560.4 3.4 C 579.5 3.3 598.6 3.3 617.7 3.4 C 620.0 8.1 621.5 13.3 623.7 18.1 C 625.8 13.4 626.7 8.3 628.4 3.4 C 648.2 3.2 667.9 3.3 687.7 3.4 C 687.8 12.1 688.0 20.8 687.6 29.5 C 686.2 30.5 684.7 31.4 683.5 32.5 C 682.2 35.1 682.7 38.2 683.0 41.0 C 685.5 57.1 688.1 73.3 690.6 89.4 C 691.0 91.5 691.2 93.7 692.6 95.4 C 693.9 96.6 695.6 97.4 697.1 98.4 C 697.7 102.6 697.4 106.8 697.4 111.0 C 697.3 116.6 697.6 122.3 697.3 127.9 C 677.5 128.0 657.7 128.1 637.9 127.9 C 637.5 120.3 637.9 112.7 637.7 105.2 C 626.4 104.9 615.0 105.0 603.7 105.1 C 603.2 112.7 603.7 120.2 603.5 127.8 C 591.0 128.4 578.5 127.9 566.0 128.0 C 559.8 127.9 553.6 128.3 547.4 127.8 C 547.3 123.1 547.5 118.4 547.2 113.7 C 543.6 115.8 540.2 118.5 536.6 120.6 C 526.9 126.1 516.2 130.0 505.1 130.9 C 487.8 132.2 470.5 126.4 456.4 116.6 C 452.0 113.7 448.1 110.1 444.1 106.7 C 443.8 113.8 444.2 120.8 443.9 127.9 C 435.6 128.2 427.3 127.9 419.0 128.0 C 409.4 127.9 399.7 128.5 390.1 126.9 C 378.5 125.2 367.3 121.0 357.6 114.4 C 346.3 106.6 337.4 95.3 332.6 82.4 C 331.6 79.6 330.8 76.7 329.8 73.9 C 318.4 82.3 305.9 89.4 292.2 93.2 C 289.9 93.9 287.5 94.3 285.3 95.3 C 283.8 96.2 284.1 98.6 285.4 99.4 C 287.2 100.6 289.2 101.4 291.1 102.3 C 291.5 110.8 291.4 119.4 291.2 127.9 C 286.5 128.1 281.7 128.0 277.0 128.0 C 212.0 128.0 147.0 128.0 82.0 128.0 C 75.3 128.0 68.6 128.2 61.9 127.3 C 47.8 125.5 34.0 120.0 22.9 111.1 C 14.1 103.9 7.0 94.5 3.2 83.7 C 1.5 78.8 0.6 73.6 0.0 68.5 L 0.0 62.5 C 0.9 46.1 7.3 29.8 19.4 18.4 C 34.7 3.7 57.2 -1.6 77.8 1.2 C 96.4 3.7 113.8 14.8 123.2 31.0 C 120.8 34.3 117.8 37.1 115.1 40.0 C 106.9 48.6 98.8 57.3 90.6 65.7 C 83.2 61.5 76.4 56.2 69.3 51.5 C 70.2 49.3 71.3 47.2 72.0 44.9 C 72.6 40.9 68.3 37.3 64.5 38.5 C 56.3 40.5 51.0 48.9 50.6 57.0 C 50.2 65.9 52.7 75.4 59.1 81.9 C 65.0 88.0 74.6 90.8 82.6 87.5 C 86.3 86.1 88.5 82.7 90.7 79.6 C 99.4 79.1 108.1 79.5 116.8 79.4 C 117.3 86.3 116.6 93.3 117.1 100.3 C 118.9 96.5 120.3 92.6 121.7 88.7 C 131.0 64.3 140.2 39.9 149.5 15.6 C 151.1 11.5 152.4 7.3 154.3 3.4 C 168.4 3.3 182.5 3.3 196.6 3.4 C 198.5 7.3 199.9 11.4 201.5 15.4 C 211.1 40.2 220.7 64.9 230.3 89.7 C 231.4 92.7 233.4 95.3 235.8 97.3 C 236.2 78.2 235.9 59.1 236.1 40.0 C 236.0 37.9 236.3 35.6 235.2 33.8 C 233.8 32.4 232.2 31.4 230.6 30.3 C 230.1 21.3 230.4 12.4 230.4 3.4 C 246.6 3.2 262.8 3.4 279.0 3.3 C 290.4 3.4 302.1 2.8 313.2 5.8 C 319.4 7.4 325.2 10.7 329.5 15.5 C 332.9 19.0 335.2 23.4 338.0 27.4 C 341.7 23.3 345.2 19.0 349.4 15.4 C 359.8 6.3 373.3 1.0 387.0 0.4 C 403.2 -0.5 420.3 2.6 433.4 12.6 C 437.8 15.8 441.1 20.3 444.8 24.2 C 448.3 20.9 451.6 17.3 455.6 14.5 C 468.3 5.3 483.9 0.8 499.5 0.0 M 60.7 12.7 C 47.7 14.0 35.2 19.7 25.8 28.8 C 17.8 36.8 12.5 47.7 11.7 59.1 C 10.1 72.2 15.6 85.2 24.1 95.0 C 35.5 108.6 53.4 115.9 71.0 116.0 C 82.0 115.9 92.9 116.1 103.9 115.9 C 104.1 107.6 104.0 99.3 103.9 90.9 C 102.0 90.8 100.1 90.8 98.2 91.0 C 96.1 93.2 94.2 95.9 91.3 97.2 C 85.7 100.3 79.2 100.5 73.0 100.1 C 62.6 99.5 52.5 93.9 46.8 85.2 C 38.3 72.9 35.7 56.0 42.3 42.3 C 45.8 34.8 52.8 28.6 61.1 27.3 C 66.7 26.6 72.6 26.8 77.7 29.2 C 81.9 31.2 84.9 35.4 85.3 40.0 C 85.7 42.7 84.6 45.2 84.0 47.7 C 85.4 48.9 86.8 50.7 88.8 50.6 C 90.7 50.1 91.9 48.4 93.2 47.1 C 97.9 41.9 102.8 36.9 107.6 31.8 C 105.4 28.5 102.2 26.2 99.2 23.8 C 88.4 15.4 74.4 10.9 60.7 12.7 M 492.4 12.4 C 482.9 13.5 473.7 16.5 465.8 21.8 C 454.5 29.1 446.0 40.9 443.3 54.2 C 439.6 71.0 445.0 89.6 457.2 101.8 C 468.1 113.3 484.2 119.4 500.0 119.0 C 515.8 119.4 531.8 113.3 542.8 101.8 C 550.4 94.1 555.5 83.8 557.1 73.0 C 559.7 57.7 554.7 41.2 543.9 30.0 C 531.0 16.1 510.9 10.2 492.4 12.4 M 349.2 36.1 C 342.1 46.4 339.5 59.4 341.5 71.6 C 344.9 87.8 356.5 101.5 371.0 109.1 C 380.5 114.0 391.3 116.4 402.0 116.0 C 412.3 115.9 422.6 116.1 433.0 115.9 C 433.1 107.6 433.1 99.3 432.9 91.0 C 431.1 90.9 429.2 90.9 427.3 91.1 C 425.7 93.2 424.0 95.4 421.7 96.8 C 415.9 100.4 408.7 100.9 402.1 100.3 C 392.6 99.6 383.5 95.0 377.6 87.5 C 372.9 81.7 370.0 74.6 368.6 67.4 C 366.5 56.1 368.9 43.5 376.8 34.8 C 384.4 26.6 397.4 24.8 407.4 29.6 C 412.0 31.9 414.7 36.9 414.8 42.0 C 414.7 44.0 413.7 45.9 413.1 47.8 C 414.4 48.9 415.6 50.1 417.3 50.8 C 418.8 51.3 419.8 49.7 420.8 48.8 C 426.2 43.2 431.8 37.8 437.0 32.0 C 435.0 29.3 432.5 27.1 430.0 25.1 C 421.5 18.2 411.0 13.4 399.9 12.7 C 380.5 11.3 360.3 20.0 349.2 36.1 M 162.2 15.1 C 151.4 43.8 141.0 72.6 130.2 101.3 C 128.9 105.0 125.6 107.3 122.4 109.2 C 122.0 111.4 122.1 113.8 122.4 116.0 C 132.8 116.0 143.3 116.4 153.7 115.9 C 153.7 113.7 153.7 111.6 153.6 109.5 C 152.1 108.6 150.6 107.7 149.1 106.7 C 147.4 102.2 150.1 97.8 151.5 93.6 C 153.2 89.5 154.3 85.3 156.4 81.5 C 166.8 81.5 177.2 81.5 187.6 81.5 C 190.2 86.7 191.9 92.4 194.2 97.8 C 195.0 100.3 196.8 103.0 195.7 105.7 C 195.0 107.7 192.9 108.4 191.4 109.5 C 191.2 111.6 191.2 113.8 191.2 115.9 C 204.2 116.3 217.2 116.1 230.2 116.0 C 230.4 113.7 230.5 111.4 230.2 109.2 C 225.9 107.1 222.5 103.5 220.9 99.0 C 210.2 71.1 199.5 43.1 188.7 15.1 C 179.9 14.9 171.0 14.9 162.2 15.1 M 243.0 15.1 C 242.9 17.7 242.7 20.3 243.1 22.9 C 244.1 24.8 246.5 25.5 247.7 27.3 C 248.3 30.2 247.9 33.1 248.0 36.0 C 248.0 57.7 248.0 79.4 248.0 101.0 C 248.1 102.3 248.0 103.5 247.7 104.8 C 246.7 107.0 244.3 108.0 242.5 109.5 C 242.4 111.6 242.3 113.7 242.4 115.8 C 248.2 116.4 254.1 116.0 260.0 116.1 C 266.2 116.0 272.5 116.4 278.7 115.9 C 278.7 113.7 278.7 111.5 278.6 109.4 C 276.5 107.3 273.3 105.4 273.7 102.0 C 273.8 97.1 273.3 92.2 274.0 87.3 C 286.3 83.7 298.5 79.7 309.9 73.8 C 317.3 70.0 324.1 64.1 327.0 56.0 C 329.3 50.3 329.4 44.0 328.9 38.0 C 328.1 30.8 323.6 24.3 317.3 20.7 C 310.3 16.6 302.0 15.3 294.0 15.0 C 277.0 15.0 260.0 14.9 243.0 15.1 M 572.9 15.1 C 572.8 17.3 572.6 19.6 572.9 21.8 C 574.1 23.3 576.2 23.5 577.7 24.4 C 578.6 27.6 577.6 30.9 577.2 34.0 C 573.9 54.1 570.7 74.2 567.4 94.3 C 566.8 97.7 566.6 101.2 565.4 104.4 C 564.5 107.1 561.3 107.9 559.8 110.1 C 559.5 112.1 559.7 114.0 559.8 116.0 C 570.5 116.1 581.2 116.2 592.0 116.0 C 592.0 114.0 592.1 112.1 592.0 110.1 C 590.4 109.3 588.8 108.6 587.5 107.6 C 586.0 105.7 585.7 103.2 586.2 100.9 C 589.1 83.2 591.2 65.4 594.2 47.8 C 596.2 51.5 597.0 55.6 598.5 59.4 C 602.5 70.8 606.1 82.3 610.4 93.6 C 616.8 93.7 623.2 93.7 629.6 93.6 C 630.8 90.9 631.6 88.2 632.5 85.4 C 636.8 71.9 641.2 58.4 645.6 44.9 C 647.0 47.8 647.1 51.2 647.6 54.3 C 650.0 69.6 652.4 84.8 654.8 100.1 C 655.0 102.0 655.2 104.0 654.8 105.9 C 654.2 108.3 651.4 108.8 649.6 110.0 C 649.5 112.0 649.5 114.1 649.7 116.1 C 662.0 116.2 674.3 116.2 686.6 116.1 C 686.8 114.4 687.0 112.7 686.8 111.0 C 686.1 109.3 684.1 108.5 683.2 106.8 C 682.2 104.7 682.1 102.3 681.7 100.0 C 678.5 77.7 675.2 55.4 671.9 33.0 C 671.6 30.7 671.0 28.5 671.1 26.2 C 671.8 23.8 674.2 22.4 675.9 20.8 C 676.1 18.9 676.1 17.0 676.0 15.1 C 663.1 15.0 650.2 14.8 637.3 15.2 C 632.8 28.5 628.0 41.8 623.6 55.2 C 622.0 54.2 621.8 52.2 621.3 50.7 C 617.4 38.8 613.7 26.9 609.7 15.1 C 597.4 14.8 585.2 15.0 572.9 15.1 Z"/>
<path fill="#ffffff" stroke="#ffffff" stroke-width="0.09375" opacity="1.00" d=" M 495.4 28.5 C 506.2 26.6 517.9 31.9 523.8 41.2 C 528.6 48.5 530.3 57.4 530.0 66.0 C 530.2 72.6 529.0 79.3 526.5 85.4 C 523.1 93.6 515.6 100.1 506.9 101.8 C 498.4 103.4 488.9 102.4 481.9 97.1 C 476.2 92.9 473.1 86.2 471.6 79.4 C 470.1 72.2 469.4 64.8 470.6 57.5 C 471.4 50.7 473.4 43.9 477.6 38.5 C 481.8 32.9 488.5 29.5 495.4 28.5 Z"/>
<path fill="#ffffff" stroke="#ffffff" stroke-width="0.09375" opacity="1.00" d=" M 274.1 30.2 C 282.3 28.6 291.7 28.0 298.7 33.3 C 304.7 38.7 304.2 48.5 299.6 54.6 C 293.2 63.2 283.8 69.0 274.1 73.2 C 274.0 58.9 273.9 44.5 274.1 30.2 Z"/>
<path fill="#ffffff" stroke="#ffffff" stroke-width="0.09375" opacity="1.00" d=" M 168.7 43.8 C 169.5 41.5 170.1 39.0 171.6 36.9 C 174.9 46.5 178.5 56.0 181.7 65.6 C 175.2 65.7 168.6 65.7 162.0 65.7 C 161.8 64.0 162.5 62.4 162.9 60.9 C 164.9 55.2 166.8 49.5 168.7 43.8 Z"/>
</svg>