<?xml version="1.0" encoding="UTF-8" ?>
<!DOCTYPE svg PUBLIC "-//W3C//DTD SVG 1.1//EN" "http://www.w3.org/Graphics/SVG/1.1/DTD/svg11.dtd">
<svg width="724pt" height="287pt" viewBox="0 0 724 287" version="1.1" xmlns="http://www.w3.org/2000/svg">
<g id="#ffffffff">
<path fill="#ffffff" opacity="1.00" d=" M 681.19 0.00 L 685.89 0.00 C 693.57 2.29 702.70 -0.12 709.85 3.31 C 710.24 13.57 709.87 23.86 710.00 34.13 C 700.22 31.33 689.60 29.73 679.66 32.66 C 676.33 34.44 672.75 37.82 672.99 41.88 C 674.43 47.49 680.41 49.07 685.15 50.87 C 695.71 55.67 709.01 57.82 715.25 68.78 C 725.16 86.09 722.54 110.80 707.18 124.16 C 689.85 137.44 665.83 135.37 645.97 130.08 C 646.06 119.62 645.93 109.16 646.04 98.69 C 657.71 102.45 670.47 104.76 682.55 101.60 C 687.19 100.26 692.33 95.84 690.79 90.52 C 687.85 84.75 680.85 83.95 675.55 81.42 C 668.37 78.08 660.35 76.09 654.33 70.69 C 637.70 52.56 641.95 19.91 662.41 6.44 C 668.02 2.71 674.70 1.34 681.19 0.00 Z" />
<path fill="#ffffff" opacity="1.00" d=" M 137.00 3.00 C 151.05 3.28 164.90 1.25 178.99 1.98 C 195.75 1.13 212.74 9.29 220.68 24.44 C 231.41 46.45 228.63 75.98 209.76 92.76 C 201.47 100.05 190.11 103.42 179.21 103.22 C 175.34 105.56 170.24 100.58 167.11 104.36 C 166.58 111.07 167.61 117.86 166.56 124.53 C 167.38 126.72 166.15 128.86 165.75 131.00 C 158.20 130.47 150.31 132.11 142.99 130.12 C 141.10 131.21 137.26 131.91 137.03 128.85 C 136.96 86.90 137.02 44.95 137.00 3.00 M 166.10 32.35 C 166.47 40.25 164.75 48.66 167.07 56.25 C 166.87 56.51 166.47 57.03 166.27 57.29 C 167.89 63.01 166.59 69.13 167.00 75.00 C 173.69 75.23 180.95 74.70 186.43 70.44 C 195.22 65.23 196.61 53.08 193.93 44.12 C 190.66 32.83 175.82 27.84 166.10 32.35 Z" />
<path fill="#ffffff" opacity="1.00" d=" M 544.00 3.00 C 564.36 3.38 585.21 -0.93 605.20 4.86 C 620.88 10.20 631.07 26.08 633.01 42.00 C 636.83 63.35 628.14 88.79 607.69 98.68 C 597.55 103.16 586.27 104.34 575.47 102.92 C 574.65 103.77 573.83 104.62 573.00 105.46 C 573.22 111.81 572.49 118.23 573.44 124.54 C 572.98 126.66 572.96 128.84 572.93 131.00 C 566.41 130.57 559.64 131.92 553.29 130.26 C 552.97 130.52 552.32 131.05 552.00 131.31 C 551.68 131.04 551.03 130.52 550.71 130.25 C 548.63 131.20 544.38 132.05 544.03 128.85 C 543.96 86.90 544.02 44.95 544.00 3.00 M 574.21 30.99 C 571.97 36.03 573.38 41.68 573.00 47.00 C 573.36 54.00 572.10 61.17 573.96 68.01 C 573.17 70.40 572.79 72.78 574.24 75.02 C 581.15 75.34 588.45 74.34 594.20 70.21 C 603.19 63.37 604.38 49.36 598.99 39.95 C 593.90 31.37 583.24 30.10 574.21 30.99 Z" />
<path fill="#ffffff" opacity="1.00" d=" M 241.00 3.00 C 250.67 3.00 260.33 3.00 270.00 3.00 C 270.08 18.55 269.85 34.11 270.10 49.65 C 270.42 49.96 271.04 50.59 271.36 50.90 C 281.23 51.16 291.12 50.91 301.00 51.00 C 301.08 35.45 300.85 19.89 301.10 4.35 C 301.41 4.04 302.04 3.42 302.35 3.10 C 311.89 2.84 321.45 3.09 330.99 3.00 C 331.78 10.76 329.55 18.26 330.00 26.00 C 330.02 56.68 329.97 87.36 330.02 118.04 C 330.31 122.16 332.77 127.54 329.65 130.90 C 320.56 131.08 311.44 131.08 302.35 130.90 C 302.04 130.58 301.41 129.96 301.10 129.65 C 300.78 113.23 301.22 96.78 300.90 80.36 C 298.83 77.73 294.90 79.48 292.00 78.99 C 284.70 79.59 276.99 77.68 269.99 80.21 C 270.02 97.14 269.99 114.07 270.00 131.00 C 260.33 131.00 250.67 131.00 241.00 131.00 C 241.00 88.33 241.00 45.67 241.00 3.00 Z" />
<path fill="#ffffff" opacity="1.00" d=" M 358.00 3.00 C 367.67 3.00 377.33 3.00 387.00 3.00 C 386.93 45.22 387.14 87.44 386.90 129.65 C 386.58 129.96 385.96 130.59 385.64 130.90 C 376.44 131.16 367.21 130.91 358.00 131.00 C 358.00 88.33 358.00 45.67 358.00 3.00 Z" />
<path fill="#ffffff" opacity="1.00" d=" M 414.00 3.00 C 423.64 2.99 433.28 3.03 442.92 2.98 C 443.18 4.26 443.50 5.54 443.41 6.86 C 443.49 6.96 443.66 7.17 443.74 7.28 C 442.90 9.07 442.96 11.06 442.97 12.99 C 443.11 42.21 442.84 71.44 443.10 100.65 C 447.39 103.70 453.85 101.20 459.00 102.00 C 463.65 101.57 468.68 103.04 473.04 101.01 C 472.95 111.01 473.02 121.00 473.00 131.00 C 453.33 131.00 433.67 131.00 414.00 131.00 C 414.00 88.33 414.00 45.67 414.00 3.00 Z" />
<path fill="#ffffff" opacity="1.00" d=" M 488.22 3.00 C 497.10 3.04 505.98 2.93 514.85 3.03 C 516.35 2.94 517.27 4.65 517.01 6.00 C 516.92 47.21 517.14 88.44 516.90 129.65 C 516.58 129.96 515.96 130.59 515.65 130.90 C 506.44 131.16 497.21 130.91 488.00 131.00 C 488.00 94.67 487.99 58.34 488.01 22.00 C 488.60 15.54 485.82 9.31 488.22 3.00 Z" />
<path fill="#ffffff" opacity="1.00" d=" M 7.00 4.00 C 44.67 4.00 82.33 4.00 120.00 4.00 C 120.02 35.33 119.96 66.66 120.03 98.00 C 119.61 114.46 112.48 131.02 99.62 141.58 C 86.05 152.71 67.06 157.95 49.98 153.03 C 26.57 147.65 8.70 125.75 6.99 102.02 C 7.01 69.35 6.99 36.67 7.00 4.00 M 9.99 9.00 C 9.99 40.00 10.03 71.01 9.97 102.01 C 11.29 126.11 30.84 147.70 54.78 151.28 C 85.11 157.54 116.37 131.75 117.03 101.01 C 116.97 69.34 117.02 37.67 117.00 6.00 C 82.33 6.00 47.67 6.01 13.00 5.99 C 11.21 5.60 9.59 7.22 9.99 9.00 Z" />
<path fill="#ffffff" opacity="1.00" d=" M 21.45 16.57 C 23.17 16.85 24.90 16.99 26.64 17.10 C 27.36 17.84 28.09 18.58 28.82 19.32 C 32.43 25.13 26.07 31.42 20.00 30.09 C 20.00 31.39 20.00 32.70 20.00 34.00 C 18.33 34.00 16.67 34.00 15.00 34.00 C 15.00 28.36 15.00 22.72 15.00 17.07 C 17.16 17.03 19.33 17.01 21.45 16.57 M 20.01 19.88 C 20.00 22.25 20.00 24.62 20.00 26.99 C 21.26 27.00 22.52 27.01 23.77 27.02 C 26.21 23.59 24.96 18.61 20.01 19.88 Z" />
<path fill="#ffffff" opacity="1.00" d=" M 82.00 17.08 C 84.19 17.03 86.39 16.98 88.54 16.56 C 90.21 16.88 91.91 17.00 93.60 17.10 C 94.74 18.23 95.88 19.35 97.04 20.46 C 98.66 26.74 93.08 31.63 87.00 30.04 C 87.00 31.36 87.00 32.68 86.99 34.00 C 85.33 34.00 83.66 34.00 82.00 34.00 C 82.00 28.36 82.00 22.72 82.00 17.08 M 87.01 19.88 C 87.00 22.29 87.00 24.71 87.01 27.12 C 93.75 29.26 93.75 17.74 87.01 19.88 Z" />
<path fill="#ffffff" opacity="1.00" d=" M 32.00 17.00 C 33.67 17.00 35.33 17.00 37.00 17.00 C 37.00 19.37 37.00 21.73 37.01 24.10 C 39.03 24.04 41.11 24.08 42.96 23.11 C 41.93 21.23 41.95 19.08 41.90 17.00 C 43.93 17.00 45.97 17.00 48.00 17.00 C 48.00 22.66 48.00 28.32 48.00 33.98 C 46.00 34.00 44.00 34.01 42.00 34.04 C 43.57 31.78 43.94 26.52 40.00 26.95 C 35.98 26.52 37.09 31.48 36.97 34.00 C 35.31 34.00 33.66 34.00 32.00 34.00 C 32.00 28.33 32.00 22.67 32.00 17.00 Z" />
<path fill="#ffffff" opacity="1.00" d=" M 52.00 17.00 C 53.67 17.00 55.33 17.00 57.00 17.00 C 57.00 22.67 57.00 28.33 57.00 34.00 C 55.33 34.00 53.67 34.00 52.00 34.00 C 52.00 28.33 52.00 22.67 52.00 17.00 Z" />
<path fill="#ffffff" opacity="1.00" d=" M 61.00 17.00 C 62.67 17.00 64.33 17.00 66.00 17.00 C 66.00 21.66 66.00 26.31 66.00 30.97 C 67.83 31.00 69.66 31.03 71.49 31.11 C 70.16 35.88 64.62 33.46 61.00 33.99 C 61.00 28.33 61.00 22.66 61.00 17.00 Z" />
<path fill="#ffffff" opacity="1.00" d=" M 73.00 17.00 C 74.67 17.00 76.33 17.00 78.00 17.00 C 78.00 22.67 78.00 28.33 78.00 34.00 C 76.33 34.00 74.67 34.00 73.00 34.00 C 73.00 28.33 73.00 22.67 73.00 17.00 Z" />
<path fill="#ffffff" opacity="1.00" d=" M 101.44 17.00 C 104.63 17.00 107.81 17.00 111.00 17.00 C 111.00 17.75 111.00 19.25 111.00 20.00 C 108.67 20.00 106.33 20.00 104.00 20.01 C 104.00 20.69 103.99 22.04 103.99 22.72 C 106.74 23.67 109.50 24.61 112.03 26.08 C 112.01 27.90 112.00 29.73 112.00 31.56 C 111.18 32.37 110.36 33.18 109.56 34.00 C 106.05 34.00 102.54 34.00 99.03 34.00 C 99.00 32.67 98.97 31.34 98.94 30.01 C 101.38 31.49 104.29 30.93 106.99 31.01 C 107.00 30.31 107.01 28.91 107.02 28.21 C 105.46 27.69 103.90 27.17 102.30 26.76 C 101.21 25.70 100.11 24.63 99.00 23.58 C 99.00 22.20 99.00 20.82 99.00 19.44 C 99.82 18.63 100.63 17.82 101.44 17.00 Z" />
<path fill="#ffffff" opacity="1.00" d=" M 40.45 51.27 C 51.73 46.78 64.38 43.42 76.24 47.79 C 99.33 53.71 116.05 77.93 113.41 101.44 C 112.77 119.28 101.19 135.59 85.52 143.68 C 74.37 149.00 61.33 149.26 49.46 146.64 C 36.06 142.57 24.77 132.91 18.32 120.52 C 11.17 105.15 11.31 86.52 19.64 71.65 C 24.20 62.83 32.23 56.52 40.45 51.27 M 53.36 50.30 C 50.10 52.41 53.87 56.82 53.15 60.00 C 55.65 60.00 58.16 60.00 60.66 60.00 C 61.08 60.50 61.92 61.49 62.34 61.99 C 59.22 61.77 56.15 62.26 53.18 63.19 C 52.16 67.19 50.16 74.50 57.00 73.11 L 57.01 73.97 C 52.02 73.85 47.24 75.65 42.21 74.99 C 40.02 79.11 41.83 83.92 40.17 88.19 C 39.47 89.84 41.47 90.71 42.24 91.85 C 50.09 94.04 58.72 93.02 65.65 88.65 C 68.54 86.54 72.15 87.19 75.46 86.56 C 79.35 86.70 83.00 87.74 86.53 89.33 C 93.30 94.87 102.45 92.85 110.14 90.75 C 108.08 64.21 79.23 43.14 53.36 50.30 M 39.84 55.44 C 41.29 60.90 40.19 66.74 42.21 72.01 C 45.15 72.00 48.08 72.00 51.01 72.00 C 51.05 69.00 51.24 65.90 49.83 63.15 C 47.07 62.43 44.27 61.91 41.41 61.77 C 43.59 60.29 46.14 59.94 48.71 59.80 C 50.97 57.46 50.98 53.81 51.08 50.74 C 47.16 51.89 43.52 53.72 39.84 55.44 M 22.53 73.03 C 27.38 72.99 32.13 71.80 36.87 70.86 C 38.22 66.26 39.07 61.42 39.01 56.61 C 31.98 59.95 26.46 66.40 22.53 73.03 M 22.16 73.89 C 19.49 78.61 17.25 83.78 16.83 89.25 C 20.28 87.91 23.84 86.91 27.53 86.51 C 31.60 86.64 35.29 88.12 39.11 89.33 C 38.02 84.71 39.12 78.94 36.65 75.10 C 31.74 75.41 27.03 74.05 22.16 73.89 M 18.33 91.17 C 17.56 91.92 16.79 92.66 16.01 93.40 C 16.00 94.06 15.97 95.36 15.96 96.01 C 20.13 94.37 24.41 92.45 29.01 92.95 C 35.63 92.67 40.61 98.14 46.97 98.96 C 50.27 99.06 53.59 99.15 56.89 98.87 C 63.41 97.29 68.90 91.93 76.01 92.95 C 84.05 92.12 89.95 99.89 98.00 99.04 C 102.51 99.43 106.93 98.66 111.03 96.73 C 111.01 95.99 110.97 94.50 110.95 93.76 C 103.51 96.29 95.03 97.32 88.00 93.00 C 80.25 88.51 69.99 88.72 62.34 93.34 C 55.23 97.23 46.26 96.79 39.33 92.68 C 33.19 88.59 25.16 89.52 18.33 91.17 M 18.34 97.15 C 17.56 97.91 16.78 98.67 15.99 99.42 C 16.01 100.14 16.04 101.59 16.06 102.31 C 22.82 98.23 31.39 97.78 38.34 101.66 C 46.22 106.43 56.78 106.43 64.66 101.66 C 71.54 97.92 80.22 98.12 87.00 102.00 C 94.20 106.26 103.49 106.08 111.00 102.74 C 111.00 101.47 111.01 100.21 111.02 98.95 C 106.25 101.75 100.54 102.52 95.11 101.87 C 89.50 100.54 84.89 96.46 79.04 95.86 C 71.67 93.89 64.75 98.40 58.20 101.16 C 47.40 105.32 38.31 96.32 28.00 95.19 C 24.85 96.18 21.49 96.12 18.34 97.15 M 16.11 105.03 C 19.89 126.01 37.69 144.38 59.54 145.45 C 64.70 144.16 70.32 146.22 75.22 143.70 C 74.28 140.90 73.79 137.98 73.93 135.02 C 70.56 135.24 67.22 134.78 64.00 133.78 L 63.97 133.08 C 67.34 133.15 70.53 131.90 73.89 131.88 C 73.86 129.18 74.55 126.58 75.23 124.00 L 76.00 123.99 C 75.65 127.21 76.11 130.39 78.11 133.03 C 80.30 133.00 82.49 133.00 84.67 133.00 C 85.09 132.50 85.91 131.51 86.32 131.01 C 85.96 130.56 85.25 129.66 84.89 129.22 C 86.89 127.02 85.74 124.56 83.68 122.97 C 78.71 123.54 73.90 122.30 69.00 121.92 L 69.00 121.20 C 74.22 119.48 79.89 120.90 84.95 118.81 C 85.12 114.38 85.62 109.84 87.09 105.67 C 86.30 104.83 85.51 104.00 84.72 103.17 C 80.02 101.57 74.99 101.86 70.12 102.13 C 65.07 103.28 60.93 106.71 55.89 107.87 C 50.72 108.49 45.29 107.82 40.66 105.34 C 33.35 101.02 23.32 100.14 16.11 105.03 M 87.99 105.75 C 88.21 110.42 87.97 115.98 90.34 119.91 C 95.06 120.02 99.81 119.80 104.40 121.17 C 105.11 119.91 105.89 118.69 106.71 117.51 C 107.54 113.49 110.22 110.01 110.17 105.81 C 103.00 108.95 95.21 108.28 87.99 105.75 M 90.34 123.09 C 87.77 127.66 88.10 133.90 88.00 139.23 C 94.55 134.62 100.45 128.84 104.51 121.89 C 99.80 122.60 95.12 123.25 90.34 123.09 M 77.18 135.10 C 75.72 137.96 75.93 141.19 76.03 144.30 C 80.25 143.64 83.60 140.84 87.14 138.69 C 88.22 131.77 81.14 134.92 77.18 135.10 Z" />
<path fill="#ffffff" opacity="1.00" d=" M 44.86 194.88 C 85.16 181.78 127.88 178.45 169.99 178.97 C 207.61 180.95 246.22 184.67 281.26 199.71 C 292.87 204.72 304.17 211.34 311.66 221.82 C 296.66 222.21 281.64 221.93 266.64 221.97 C 254.39 212.08 238.92 207.63 223.82 204.26 C 202.84 199.89 181.42 197.61 160.00 198.00 C 131.69 197.38 103.19 200.15 75.88 207.88 C 65.10 211.46 53.79 215.40 45.71 223.74 C 41.72 227.78 40.49 234.49 43.63 239.38 C 46.84 244.82 52.68 247.93 57.97 251.01 C 79.91 261.14 104.12 264.89 127.98 266.98 C 168.25 269.59 209.88 268.04 248.28 254.31 C 255.36 252.47 260.63 247.13 267.07 244.13 C 281.92 243.92 296.80 243.87 311.65 244.18 C 304.54 253.86 294.07 260.41 283.26 265.28 C 254.31 277.89 222.66 282.89 191.40 285.44 C 184.59 287.00 177.41 284.74 170.74 287.00 L 144.13 287.00 C 137.52 284.72 130.37 287.02 123.61 285.44 C 94.32 283.12 64.83 278.42 37.34 267.67 C 22.35 261.32 4.84 252.84 0.00 235.93 L 0.00 228.89 C 6.49 209.44 27.70 202.14 44.86 194.88 Z" />
<path fill="#ffffff" opacity="1.00" d=" M 320.00 188.00 C 367.33 187.98 414.67 188.03 462.00 187.98 C 484.75 189.49 507.90 190.88 529.84 198.10 C 546.87 203.22 565.95 209.50 575.79 225.44 C 581.58 237.76 574.14 251.70 563.16 258.17 C 536.79 275.19 504.71 280.43 474.00 282.02 C 422.67 281.97 371.33 282.02 320.00 282.00 C 320.00 250.67 320.00 219.33 320.00 188.00 M 355.00 206.00 C 355.00 225.67 355.00 245.33 355.00 265.00 C 389.01 265.01 423.01 264.98 457.02 265.02 C 474.60 262.91 492.53 262.30 509.84 257.91 C 521.46 254.32 535.80 249.12 538.92 235.85 C 538.88 231.08 535.94 226.64 532.74 223.25 C 514.99 209.37 491.55 207.46 470.00 205.97 C 431.67 206.04 393.33 205.98 355.00 206.00 Z" />
<path fill="#ffffff" opacity="1.00" d=" M 694.00 188.00 C 704.00 188.00 714.00 188.00 724.00 188.00 L 724.00 209.00 C 714.00 209.00 704.00 209.00 694.00 209.00 C 694.00 202.00 694.00 195.00 694.00 188.00 Z" />
<path fill="#ffffff" opacity="1.00" d=" M 694.00 222.00 C 704.00 222.00 714.00 222.00 724.00 222.00 L 724.00 282.00 C 714.00 282.00 704.00 282.00 694.00 282.00 C 694.00 262.00 694.00 242.00 694.00 222.00 Z" />
<path fill="#ffffff" opacity="1.00" d=" M 594.03 222.76 C 618.02 228.37 642.33 232.49 666.43 237.64 C 668.36 238.11 670.36 237.96 672.34 238.02 C 671.93 238.50 671.10 239.46 670.69 239.94 C 645.04 243.79 619.45 248.96 594.00 254.11 C 594.02 243.66 593.96 233.21 594.03 222.76 Z" />
</g>
</svg>
