<?xml version="1.0" encoding="UTF-8" ?>
<!DOCTYPE svg PUBLIC "-//W3C//DTD SVG 1.1//EN" "http://www.w3.org/Graphics/SVG/1.1/DTD/svg11.dtd">
<svg width="699pt" height="191pt" viewBox="0 0 699 191" version="1.1" xmlns="http://www.w3.org/2000/svg">
<path fill="#ffffff" stroke="#ffffff" stroke-width="0.09375" opacity="1.00" d=" M 499.5 0.0 L 505.5 0.0 C 520.1 0.8 534.7 5.6 546.1 14.9 C 551.7 19.3 555.9 25.0 560.1 30.6 C 560.4 21.5 560.2 12.4 560.3 3.3 C 579.5 3.3 598.6 3.3 617.8 3.3 C 619.8 8.3 621.7 13.3 623.8 18.2 C 625.5 13.3 627.0 8.3 628.4 3.3 C 648.2 3.3 668.0 3.3 687.8 3.3 C 687.8 12.0 687.9 20.6 687.7 29.3 C 686.1 30.5 684.4 31.6 683.2 33.3 C 682.3 36.4 682.8 39.6 683.2 42.8 C 685.7 58.1 688.1 73.3 690.4 88.6 C 690.8 90.7 691.1 92.9 692.2 94.7 C 693.6 96.4 695.5 97.4 697.3 98.6 C 697.5 108.4 697.4 118.2 697.4 128.0 C 677.5 128.0 657.6 128.0 637.8 128.0 C 637.7 120.3 637.7 112.7 637.7 105.1 C 626.4 105.0 615.0 105.0 603.6 105.0 C 603.5 112.7 603.5 120.3 603.6 127.9 C 584.8 128.1 566.1 128.1 547.4 127.9 C 547.4 123.1 547.4 118.3 547.3 113.5 C 538.4 119.8 528.9 125.5 518.4 128.4 C 509.3 130.9 499.7 132.3 490.4 130.4 C 472.8 127.8 456.9 118.7 444.0 106.6 C 444.0 113.8 444.0 120.9 444.0 128.0 C 434.3 128.0 424.7 128.0 415.0 128.0 C 406.4 128.0 397.7 128.3 389.2 126.8 C 373.8 124.3 358.8 117.4 347.8 106.2 C 338.9 97.3 333.1 85.8 329.8 73.8 C 318.3 82.5 305.4 89.6 291.4 93.4 C 289.1 94.1 286.8 94.6 284.7 95.8 C 283.9 97.0 284.3 98.6 285.5 99.3 C 287.2 100.6 289.3 101.5 291.2 102.4 C 291.4 111.0 291.3 119.5 291.3 128.0 C 222.2 128.0 153.1 128.0 84.0 128.0 C 77.7 128.0 71.5 128.2 65.2 127.6 C 50.9 126.4 36.8 121.4 25.2 112.8 C 16.1 106.1 8.7 97.1 4.4 86.6 C 1.9 80.8 0.7 74.7 0.0 68.4 L 0.0 62.5 C 0.7 53.8 2.4 45.1 6.1 37.1 C 11.2 26.0 19.7 16.5 30.2 10.2 C 45.3 1.2 63.9 -1.3 81.1 1.8 C 98.5 5.0 114.2 16.0 123.5 31.0 C 112.6 42.8 101.5 54.2 90.5 65.9 C 83.3 61.3 76.4 56.3 69.3 51.6 C 70.3 49.1 71.7 46.7 72.0 44.0 C 72.0 40.3 68.0 37.5 64.5 38.5 C 56.3 40.5 51.0 48.9 50.6 57.0 C 50.1 65.9 52.7 75.4 59.1 81.9 C 64.8 87.9 74.0 90.6 81.9 87.8 C 85.9 86.5 88.5 82.8 90.9 79.5 C 99.5 79.3 108.2 79.4 116.9 79.4 C 117.0 86.4 116.9 93.4 117.1 100.3 C 119.9 93.9 122.2 87.3 124.8 80.7 C 134.6 54.9 144.3 29.1 154.2 3.3 C 168.4 3.3 182.6 3.3 196.8 3.3 C 207.7 31.4 218.7 59.5 229.4 87.6 C 230.8 91.4 233.1 94.7 235.7 97.6 C 236.4 79.8 235.8 61.9 236.1 44.0 C 236.1 40.8 236.4 37.6 235.5 34.5 C 234.3 32.6 232.2 31.4 230.5 30.0 C 230.3 21.1 230.4 12.2 230.4 3.3 C 251.2 3.3 272.1 3.3 292.9 3.4 C 303.4 3.6 314.6 4.5 323.6 10.4 C 330.0 14.5 334.0 21.1 338.0 27.5 C 342.0 22.7 346.1 18.0 351.0 14.0 C 361.1 5.7 374.0 1.0 387.0 0.4 C 402.3 -0.4 418.3 2.2 431.1 10.9 C 436.4 14.5 440.7 19.4 444.8 24.3 C 448.8 20.1 453.0 16.1 457.9 12.9 C 470.2 4.7 484.9 0.8 499.5 0.0 M 24.8 29.8 C 13.8 41.4 8.9 58.6 12.8 74.2 C 17.4 90.7 30.3 104.4 46.0 111.0 C 54.8 114.7 64.5 116.2 74.0 116.0 C 84.0 116.0 94.0 116.1 104.0 116.0 C 104.0 107.6 104.0 99.2 104.0 90.9 C 102.1 90.9 100.1 90.9 98.2 90.9 C 96.2 93.3 94.1 95.8 91.3 97.2 C 85.8 100.3 79.2 100.5 73.0 100.1 C 62.8 99.5 53.0 94.2 47.2 85.9 C 40.1 76.0 37.1 63.2 39.3 51.2 C 40.9 43.4 44.9 35.9 51.4 31.3 C 57.8 26.6 66.5 26.0 74.0 27.9 C 79.1 29.1 83.8 32.8 85.0 38.1 C 85.9 41.4 84.8 44.8 83.9 48.0 C 85.5 48.9 87.0 50.3 88.8 50.7 C 91.0 49.7 92.5 47.8 94.2 46.1 C 98.6 41.2 103.2 36.4 107.7 31.7 C 97.9 20.7 84.0 13.0 69.1 12.3 C 52.8 11.8 36.2 18.0 24.8 29.8 M 492.4 12.4 C 478.0 14.0 464.1 20.5 454.6 31.5 C 446.5 40.7 442.2 52.8 442.1 65.0 C 442.3 77.9 447.0 90.8 455.7 100.3 C 466.7 112.7 483.5 119.4 500.0 119.1 C 520.6 119.6 541.5 108.7 551.3 90.3 C 558.7 76.9 559.9 60.1 554.1 45.9 C 548.7 32.3 537.2 21.6 523.6 16.3 C 513.7 12.6 502.9 11.1 492.4 12.4 M 352.2 32.2 C 342.8 43.0 339.0 58.3 341.6 72.4 C 344.4 84.7 352.0 95.5 361.8 103.2 C 372.9 111.9 387.0 116.3 401.0 116.0 C 411.7 116.0 422.3 116.0 433.0 116.0 C 433.0 107.6 433.0 99.3 433.0 91.0 C 431.1 91.0 429.3 91.0 427.4 91.1 C 425.3 93.8 422.9 96.4 419.8 97.9 C 414.0 100.6 407.3 100.9 401.0 100.2 C 392.2 99.3 383.7 94.9 378.1 88.0 C 370.2 78.4 366.6 65.5 368.3 53.2 C 369.4 46.4 372.1 39.9 376.8 34.8 C 382.3 28.8 390.9 26.1 399.0 27.2 C 403.0 27.8 407.2 28.8 410.3 31.7 C 413.0 34.1 414.5 37.6 414.8 41.1 C 414.9 43.5 413.8 45.8 413.0 48.0 C 414.6 49.1 416.2 50.2 418.0 51.0 C 419.6 50.0 421.0 48.7 422.3 47.3 C 427.3 42.2 432.3 37.1 437.1 31.9 C 428.7 22.5 417.3 15.5 404.9 13.3 C 385.7 10.1 364.9 17.3 352.2 32.2 M 162.1 15.0 C 151.6 43.5 141.1 72.1 130.5 100.6 C 129.2 104.6 125.8 107.2 122.2 109.3 C 122.2 111.5 122.2 113.8 122.2 116.1 C 132.7 116.1 143.2 116.2 153.7 116.0 C 153.7 113.8 153.7 111.6 153.7 109.4 C 152.0 108.5 150.4 107.7 148.8 106.8 C 148.6 104.0 148.5 101.2 149.6 98.6 C 151.7 92.8 153.9 87.1 156.2 81.4 C 166.7 81.5 177.2 81.5 187.8 81.4 C 190.1 87.1 192.2 92.9 194.5 98.5 C 195.2 100.6 196.2 102.7 196.0 104.9 C 195.5 107.2 193.1 108.3 191.3 109.6 C 191.3 111.7 191.2 113.9 191.2 116.0 C 204.2 116.2 217.3 116.1 230.3 116.1 C 230.3 113.8 230.3 111.5 230.3 109.3 C 226.1 107.1 222.5 103.6 220.9 99.0 C 210.2 71.0 199.4 43.1 188.8 15.0 C 179.9 15.0 171.0 15.0 162.1 15.0 M 242.9 15.0 C 242.9 17.6 242.8 20.2 243.2 22.8 C 244.5 24.5 246.3 25.7 247.6 27.4 C 248.1 28.9 248.0 30.5 248.0 32.0 C 248.0 55.0 248.0 78.0 248.0 101.0 C 248.0 102.3 247.9 103.5 247.7 104.7 C 246.6 106.9 244.3 108.1 242.5 109.5 C 242.4 111.7 242.4 113.8 242.4 115.9 C 254.5 116.2 266.6 116.2 278.7 116.0 C 278.7 113.8 278.7 111.6 278.6 109.4 C 276.8 107.5 274.0 105.9 273.8 103.0 C 273.4 97.8 273.7 92.5 273.8 87.3 C 285.7 83.9 297.5 80.0 308.6 74.5 C 315.7 71.0 322.3 65.9 325.9 58.7 C 329.2 52.1 329.7 44.4 328.8 37.1 C 327.7 29.5 322.3 22.9 315.4 19.6 C 307.8 16.0 299.3 15.0 291.0 15.0 C 275.0 15.0 258.9 15.0 242.9 15.0 M 572.8 15.0 C 572.8 17.3 572.7 19.6 572.9 21.8 C 574.4 23.1 576.3 23.7 578.0 24.6 C 578.1 31.0 576.5 37.3 575.6 43.6 C 572.6 62.3 569.5 81.0 566.6 99.6 C 566.2 101.5 565.9 103.4 565.0 105.0 C 563.7 107.0 561.5 108.3 559.9 110.1 C 559.6 112.1 559.7 114.1 559.6 116.1 C 570.4 116.1 581.2 116.1 592.0 116.1 C 592.0 114.1 592.0 112.1 592.0 110.2 C 589.7 108.9 586.6 107.8 586.2 104.9 C 585.8 101.9 586.6 98.9 587.0 96.0 C 589.6 79.9 591.4 63.6 594.3 47.6 C 599.9 62.8 604.8 78.3 610.3 93.6 C 616.8 93.6 623.2 93.6 629.7 93.6 C 635.2 77.4 640.2 60.9 645.8 44.7 C 647.3 50.7 648.0 56.9 649.0 63.0 C 650.9 74.9 652.6 86.7 654.6 98.6 C 654.9 101.0 655.3 103.5 654.8 105.9 C 654.1 108.2 651.4 108.9 649.5 110.1 C 649.5 112.1 649.6 114.1 649.6 116.1 C 662.0 116.2 674.5 116.2 686.9 116.1 C 686.8 114.4 686.9 112.7 686.6 111.1 C 684.9 108.5 682.3 106.3 682.1 102.9 C 678.9 80.8 675.7 58.7 672.4 36.6 C 672.0 33.2 671.1 29.7 671.2 26.2 C 671.9 23.8 674.2 22.4 675.9 20.7 C 676.0 18.8 676.0 16.9 676.0 15.0 C 663.1 15.0 650.2 14.9 637.3 15.1 C 632.7 28.6 628.1 42.1 623.2 55.6 C 620.7 49.8 619.1 43.8 617.1 37.9 C 614.7 30.3 612.2 22.6 609.7 15.1 C 597.4 14.9 585.1 15.0 572.8 15.0 Z" />
<path fill="#ffffff" stroke="#ffffff" stroke-width="0.09375" opacity="1.00" d=" M 495.4 28.4 C 505.8 26.7 516.9 31.4 523.0 40.0 C 527.0 45.5 529.1 52.3 529.8 59.0 C 530.4 67.1 530.1 75.5 527.3 83.3 C 524.9 90.2 520.0 96.3 513.4 99.5 C 507.5 102.5 500.5 103.0 494.0 102.0 C 488.5 101.3 483.1 98.8 479.2 94.8 C 475.8 91.2 473.5 86.6 472.2 81.8 C 469.3 71.2 469.2 59.8 472.3 49.2 C 474.1 43.2 477.5 37.4 482.6 33.6 C 486.3 30.8 490.8 29.2 495.4 28.4 Z" />
<path fill="#ffffff" stroke="#ffffff" stroke-width="0.09375" opacity="1.00" d=" M 274.0 30.2 C 281.4 28.9 289.4 28.1 296.3 31.7 C 300.9 33.9 303.2 39.1 303.1 44.0 C 303.2 48.8 300.9 53.3 297.8 56.8 C 291.5 64.2 282.8 69.3 274.0 73.3 C 273.9 58.9 274.0 44.5 274.0 30.2 Z" />
<path fill="#ffffff" stroke="#ffffff" stroke-width="0.09375" opacity="1.00" d=" M 161.6 65.7 C 164.5 55.9 167.8 46.2 171.4 36.7 C 174.9 46.3 178.4 56.0 181.8 65.7 C 175.1 65.7 168.3 65.7 161.6 65.7 Z" />
<path fill="#ffffff" stroke="#ffffff" stroke-width="0.09375" opacity="1.00" d=" M 454.5 141.5 C 461.3 132.0 474.5 127.7 485.6 131.4 C 488.5 132.2 491.6 133.8 494.7 132.7 C 502.0 130.8 509.5 131.2 517.0 131.2 C 520.8 131.2 524.8 131.3 528.4 132.6 C 531.5 133.7 534.1 135.5 536.8 137.2 C 540.3 134.7 544.1 132.3 548.4 131.4 C 558.2 128.9 569.6 130.7 577.0 138.0 C 579.4 140.4 581.9 143.3 581.9 146.9 C 581.7 149.5 580.0 151.6 578.7 153.7 C 582.0 153.6 585.3 153.6 588.6 153.7 C 589.0 150.9 589.1 148.0 590.4 145.5 C 591.7 143.0 594.4 141.6 597.2 141.4 C 601.8 140.9 606.4 141.1 611.0 141.1 C 613.9 141.2 616.9 141.1 619.5 142.4 C 622.8 144.3 624.4 148.3 623.9 151.9 C 623.3 155.6 620.5 158.4 619.7 162.0 C 619.3 164.3 619.3 166.7 619.7 169.0 C 620.5 172.6 623.3 175.4 623.9 179.1 C 624.5 183.2 622.3 187.8 618.2 189.1 C 613.9 190.3 609.4 189.8 605.0 190.0 C 600.9 189.8 596.5 190.4 592.9 188.2 C 589.1 185.8 589.2 181.0 588.6 177.1 C 586.2 177.2 583.9 177.3 581.6 177.3 C 579.5 180.3 577.4 183.3 574.5 185.5 C 569.9 189.0 564.0 190.1 558.5 191.0 L 552.7 191.0 C 547.8 189.8 542.8 188.3 538.8 185.2 C 534.3 181.9 531.5 176.9 529.3 171.9 C 526.6 173.0 523.9 174.0 521.2 175.0 C 521.2 177.9 521.5 180.9 520.8 183.8 C 520.0 186.9 517.0 189.2 513.8 189.6 C 508.9 190.3 504.0 189.8 499.0 189.7 C 493.3 189.4 487.7 190.4 482.0 190.3 C 477.5 190.3 473.1 189.5 468.9 188.1 C 461.5 185.7 455.2 180.2 451.9 173.2 C 447.2 163.2 447.9 150.6 454.5 141.5 M 460.9 146.0 C 456.5 151.7 455.9 159.6 457.6 166.5 C 459.6 173.9 466.1 179.6 473.5 181.5 C 480.2 183.3 487.1 182.2 493.9 181.8 C 494.0 178.5 494.0 175.2 493.9 171.9 C 492.7 171.8 491.5 171.7 490.3 171.7 C 488.7 173.3 487.3 175.6 484.8 175.7 C 479.4 176.3 473.6 174.2 470.3 169.7 C 467.0 165.6 466.4 160.1 467.2 155.1 C 468.1 149.8 472.7 145.4 478.1 145.1 C 480.8 144.7 482.9 146.7 485.1 148.0 C 484.9 149.6 484.8 151.3 484.7 152.9 C 485.7 153.6 486.6 154.3 487.6 155.0 C 490.2 152.3 492.9 149.7 495.6 147.0 C 493.0 144.4 490.4 141.6 487.0 140.0 C 478.4 135.7 466.6 138.0 460.9 146.0 M 544.4 141.4 C 539.6 144.4 538.6 151.2 540.9 156.1 C 543.6 161.0 549.6 162.1 554.6 163.4 C 558.1 164.4 562.1 164.6 564.8 167.3 C 565.5 169.6 565.5 172.8 563.2 174.2 C 558.9 177.0 552.6 176.7 549.1 172.8 C 547.4 171.2 548.9 168.8 549.2 166.9 C 548.5 166.2 547.7 165.5 547.0 164.7 C 543.7 167.0 540.5 169.2 537.4 171.7 C 539.7 175.0 542.1 178.4 545.6 180.4 C 550.4 183.3 556.3 183.6 561.7 182.6 C 566.7 181.6 572.0 179.0 574.1 174.1 C 576.0 169.3 575.4 163.2 571.3 159.7 C 566.1 154.8 558.6 155.0 552.2 152.7 C 550.6 152.2 548.7 151.0 549.0 149.0 C 548.9 146.7 551.2 145.6 553.1 145.2 C 556.4 144.6 560.2 144.8 562.9 147.0 C 564.4 148.8 563.8 152.0 566.1 153.3 C 569.4 152.1 571.5 148.8 574.2 146.6 C 571.9 144.0 569.4 141.2 566.1 139.9 C 559.2 137.0 550.8 137.3 544.4 141.4 M 498.2 139.1 C 498.1 139.8 498.0 141.2 497.9 141.9 C 498.9 142.7 499.9 143.5 500.8 144.3 C 500.9 155.1 500.9 165.9 500.8 176.7 C 499.9 177.5 498.9 178.3 498.0 179.1 C 498.0 179.8 498.1 181.2 498.1 181.9 C 503.3 182.0 508.6 182.1 513.8 181.9 C 513.3 179.7 511.9 177.8 510.9 175.8 C 510.6 174.0 510.7 172.1 510.7 170.2 C 517.4 167.9 524.9 166.4 530.3 161.3 C 534.2 157.9 535.1 152.1 533.7 147.3 C 532.6 144.1 529.8 141.6 526.7 140.2 C 523.7 138.8 520.3 139.0 517.0 139.0 C 510.7 139.0 504.4 138.9 498.2 139.1 M 597.0 149.0 C 597.0 150.3 597.0 151.5 597.1 152.7 C 598.6 152.9 600.2 153.2 601.8 153.4 C 602.1 161.5 602.1 169.5 601.8 177.6 C 600.2 177.8 598.6 178.0 597.1 178.3 C 597.0 179.5 597.0 180.7 597.0 182.0 C 603.3 182.0 609.7 182.0 616.0 182.0 C 616.0 180.7 616.0 179.5 615.9 178.2 C 614.6 178.1 613.2 178.0 611.9 177.8 C 611.0 169.6 611.0 161.4 611.9 153.2 C 613.2 153.0 614.6 152.9 615.9 152.8 C 616.0 151.5 616.0 150.3 616.0 149.0 C 609.7 149.0 603.3 149.0 597.0 149.0 M 475.8 153.5 C 475.1 156.5 474.1 159.7 475.2 162.7 C 476.1 165.4 478.7 167.8 481.7 167.8 C 483.7 166.8 485.3 165.2 487.3 164.4 C 489.1 163.9 491.0 163.8 492.9 163.5 C 492.9 162.9 493.0 161.8 493.0 161.2 C 490.4 161.9 487.5 163.3 484.7 162.3 C 480.6 160.8 478.2 157.0 475.8 153.5 M 578.8 161.7 C 578.1 164.0 578.2 166.5 578.0 168.9 C 582.4 169.4 586.8 169.4 591.1 169.2 C 591.1 166.7 591.1 164.3 591.1 161.9 C 587.0 161.6 582.8 160.8 578.8 161.7 Z" />
<path fill="#ffffff" stroke="#ffffff" stroke-width="0.09375" opacity="1.00" d=" M 510.8 145.2 C 515.2 145.8 521.1 144.9 523.8 149.3 C 524.7 151.9 524.4 155.2 522.3 157.2 C 519.2 160.4 514.8 161.7 510.8 163.3 C 510.6 157.3 510.6 151.2 510.8 145.2 Z" />
</svg>
