<?xml version="1.0" encoding="UTF-8" ?>
<!DOCTYPE svg PUBLIC "-//W3C//DTD SVG 1.1//EN" "http://www.w3.org/Graphics/SVG/1.1/DTD/svg11.dtd">
<svg width="699pt" height="191pt" viewBox="0 0 699 191" version="1.1" xmlns="http://www.w3.org/2000/svg">
<path fill="#ffffff" stroke="#ffffff" stroke-width="0.09375" opacity="1.00" d=" M 499.5 0.0 L 505.5 0.0 C 520.1 0.8 534.7 5.6 546.1 14.9 C 551.6 19.3 555.9 24.9 560.1 30.5 C 560.4 21.4 560.2 12.4 560.3 3.3 C 579.5 3.3 598.6 3.3 617.8 3.3 C 619.8 8.3 621.7 13.3 623.8 18.2 C 625.5 13.3 627.0 8.3 628.4 3.3 C 648.2 3.3 668.0 3.4 687.8 3.3 C 687.8 12.0 687.9 20.6 687.7 29.3 C 686.1 30.5 684.3 31.6 683.2 33.2 C 682.3 36.3 682.8 39.6 683.2 42.8 C 685.7 58.1 688.1 73.3 690.4 88.6 C 690.8 90.7 691.1 92.9 692.3 94.8 C 693.6 96.5 695.5 97.4 697.3 98.6 C 697.5 108.4 697.4 118.2 697.4 128.0 C 677.5 128.0 657.6 128.0 637.8 128.0 C 637.7 120.3 637.7 112.7 637.8 105.1 C 626.4 105.0 615.0 105.0 603.6 105.0 C 603.5 112.7 603.5 120.3 603.6 127.9 C 584.9 128.1 566.1 128.1 547.4 127.9 C 547.4 123.1 547.4 118.4 547.3 113.6 C 538.4 119.8 528.9 125.5 518.4 128.4 C 510.1 130.6 501.5 132.2 493.0 130.8 C 481.8 129.4 470.9 125.6 461.3 119.8 C 455.0 116.1 449.4 111.5 444.0 106.7 C 444.0 113.8 444.0 120.9 444.0 128.0 C 430.0 128.0 416.0 128.0 402.0 127.9 C 381.9 127.6 361.4 120.3 347.3 105.7 C 338.6 96.9 333.0 85.6 329.8 73.8 C 318.3 82.5 305.4 89.6 291.4 93.4 C 289.1 94.1 286.8 94.6 284.7 95.8 C 283.8 96.9 284.3 98.6 285.5 99.3 C 287.3 100.6 289.3 101.5 291.2 102.4 C 291.4 110.9 291.3 119.5 291.3 128.0 C 222.2 128.0 153.1 128.0 84.0 128.0 C 76.3 128.0 68.6 128.3 61.0 127.1 C 47.6 125.3 34.7 120.2 24.0 111.9 C 15.3 105.2 8.1 96.2 4.1 85.9 C 1.8 80.3 0.7 74.4 0.0 68.5 L 0.0 62.5 C 0.7 54.1 2.3 45.6 5.8 37.8 C 10.7 26.9 18.8 17.4 29.0 11.0 C 41.9 2.7 57.8 -0.3 73.0 0.7 C 85.2 1.5 97.1 5.8 106.9 13.1 C 113.6 17.9 119.0 24.2 123.5 31.0 C 112.6 42.8 101.5 54.2 90.5 65.9 C 83.3 61.3 76.4 56.2 69.3 51.6 C 70.3 49.1 71.7 46.7 72.0 44.0 C 72.0 40.3 68.0 37.5 64.5 38.5 C 56.3 40.5 51.0 48.9 50.6 57.0 C 50.1 65.9 52.7 75.4 59.1 81.9 C 64.8 87.9 74.0 90.6 81.9 87.8 C 85.9 86.5 88.5 82.8 90.8 79.5 C 99.5 79.3 108.2 79.4 116.9 79.3 C 117.0 86.3 116.8 93.3 117.1 100.3 C 118.0 98.4 118.7 96.5 119.5 94.6 C 131.1 64.2 142.6 33.7 154.2 3.3 C 168.4 3.3 182.6 3.3 196.8 3.3 C 206.4 28.0 215.9 52.7 225.6 77.4 C 228.4 84.4 230.2 92.1 235.7 97.6 C 236.4 79.7 235.8 61.9 236.1 44.0 C 236.1 40.8 236.4 37.5 235.5 34.5 C 234.3 32.5 232.2 31.4 230.5 30.1 C 230.3 21.2 230.4 12.2 230.3 3.3 C 249.6 3.3 268.8 3.3 288.0 3.3 C 296.5 3.3 305.0 3.6 313.2 5.8 C 318.7 7.3 324.0 10.0 328.1 13.9 C 332.1 17.8 335.0 22.8 338.0 27.5 C 342.0 22.7 346.1 18.0 351.0 14.0 C 360.9 6.0 373.3 1.2 386.1 0.5 C 401.6 -0.5 418.0 2.0 431.0 10.9 C 436.4 14.5 440.7 19.4 444.8 24.3 C 448.9 20.0 453.4 15.8 458.5 12.5 C 470.7 4.6 485.1 0.8 499.5 0.0 M 24.8 29.8 C 13.8 41.4 8.9 58.6 12.8 74.2 C 17.4 90.7 30.3 104.4 46.0 111.0 C 54.8 114.7 64.5 116.2 74.0 116.0 C 84.0 116.0 94.0 116.1 104.0 116.0 C 104.0 107.6 104.0 99.2 104.0 90.9 C 102.1 90.9 100.1 90.9 98.2 90.9 C 96.2 93.3 94.1 95.8 91.3 97.2 C 85.8 100.3 79.2 100.5 73.0 100.1 C 63.1 99.5 53.5 94.5 47.6 86.4 C 40.2 76.5 37.0 63.4 39.3 51.2 C 40.9 43.4 44.9 35.9 51.4 31.3 C 57.8 26.6 66.5 26.0 74.0 27.9 C 79.1 29.1 83.8 32.8 85.0 38.1 C 85.9 41.4 84.8 44.8 83.9 48.0 C 85.5 48.9 86.9 50.4 88.8 50.6 C 90.8 49.9 92.2 48.1 93.7 46.6 C 98.3 41.6 103.0 36.6 107.7 31.7 C 97.9 20.7 84.0 13.0 69.1 12.3 C 52.8 11.8 36.2 18.0 24.8 29.8 M 492.4 12.4 C 478.0 14.0 464.1 20.5 454.6 31.5 C 446.5 40.7 442.2 52.8 442.1 65.0 C 442.3 78.6 447.5 92.2 457.2 101.8 C 479.1 124.8 520.1 125.0 542.3 102.3 C 555.7 89.1 561.1 68.4 555.7 50.4 C 551.3 35.3 539.4 22.9 525.0 16.9 C 514.8 12.7 503.4 11.1 492.4 12.4 M 352.2 32.2 C 342.8 43.0 339.0 58.3 341.6 72.4 C 344.5 85.1 352.6 96.4 363.0 104.1 C 373.8 112.2 387.5 116.3 401.0 116.0 C 411.7 116.0 422.3 116.0 433.0 116.0 C 433.0 107.6 433.0 99.3 433.0 91.0 C 431.1 91.0 429.3 91.0 427.4 91.1 C 425.5 93.6 423.3 96.1 420.4 97.5 C 414.5 100.6 407.5 100.9 401.0 100.2 C 392.2 99.3 383.7 94.9 378.1 88.0 C 370.2 78.4 366.6 65.5 368.3 53.2 C 369.4 46.4 372.1 39.8 376.8 34.8 C 382.4 28.8 391.0 26.1 399.0 27.2 C 403.0 27.8 407.3 28.8 410.3 31.7 C 413.0 34.1 414.5 37.6 414.8 41.1 C 414.9 43.5 413.8 45.8 413.0 48.0 C 414.6 49.1 416.1 50.3 418.0 50.9 C 419.4 50.2 420.6 49.0 421.8 47.8 C 427.0 42.5 432.1 37.3 437.1 31.9 C 428.9 22.7 417.8 15.8 405.7 13.4 C 386.2 9.9 365.1 17.1 352.2 32.2 M 162.1 15.0 C 151.6 43.5 141.1 72.1 130.5 100.6 C 129.2 104.6 125.8 107.2 122.3 109.3 C 122.3 111.5 122.3 113.8 122.3 116.1 C 132.8 116.1 143.2 116.2 153.7 116.0 C 153.7 113.8 153.7 111.7 153.6 109.5 C 152.1 108.6 150.5 107.8 149.2 106.6 C 147.8 103.8 148.9 100.6 149.9 97.8 C 152.0 92.4 154.0 86.9 156.2 81.4 C 166.7 81.5 177.2 81.5 187.8 81.4 C 190.1 87.1 192.2 92.9 194.5 98.5 C 195.2 100.6 196.2 102.7 195.9 104.9 C 195.5 107.2 193.1 108.3 191.3 109.6 C 191.3 111.7 191.2 113.9 191.2 116.0 C 204.3 116.2 217.4 116.1 230.4 116.1 C 230.3 113.8 230.5 111.6 229.9 109.4 C 227.9 107.6 225.5 106.3 223.8 104.2 C 222.1 102.0 221.1 99.4 220.1 96.9 C 209.7 69.6 199.1 42.4 188.8 15.0 C 179.9 15.0 171.0 15.0 162.1 15.0 M 242.9 15.0 C 242.9 17.6 242.8 20.2 243.2 22.8 C 244.5 24.5 246.3 25.7 247.6 27.4 C 248.1 28.9 248.0 30.5 248.0 32.0 C 248.0 55.0 248.0 78.0 248.0 101.0 C 248.0 102.3 247.9 103.5 247.7 104.8 C 246.6 106.9 244.3 108.1 242.5 109.5 C 242.4 111.6 242.4 113.8 242.4 115.9 C 254.5 116.2 266.7 116.2 278.9 115.9 C 278.7 113.8 278.8 111.6 278.3 109.6 C 276.9 107.3 274.1 105.8 273.8 103.0 C 273.4 97.8 273.7 92.5 273.8 87.3 C 285.5 84.0 297.0 80.2 308.0 74.8 C 315.0 71.4 321.8 66.5 325.5 59.4 C 329.2 52.6 329.7 44.6 328.8 37.1 C 327.7 29.5 322.3 22.9 315.4 19.6 C 308.1 16.1 300.0 15.0 292.0 15.0 C 275.6 15.0 259.3 15.0 242.9 15.0 M 572.7 15.0 C 572.8 17.3 572.7 19.5 573.0 21.8 C 574.2 23.3 576.4 23.7 578.0 24.6 C 578.1 31.0 576.5 37.3 575.6 43.6 C 572.6 62.3 569.5 81.0 566.6 99.7 C 566.2 101.5 565.9 103.4 565.1 105.0 C 563.7 107.0 561.5 108.3 559.9 110.1 C 559.6 112.1 559.7 114.1 559.6 116.1 C 570.4 116.1 581.2 116.1 592.0 116.1 C 592.0 114.1 592.0 112.1 592.0 110.2 C 589.7 108.9 586.6 107.9 586.2 104.9 C 585.8 101.9 586.6 98.9 587.0 96.0 C 589.6 79.9 591.4 63.7 594.3 47.6 C 599.9 62.8 604.8 78.4 610.3 93.6 C 616.8 93.6 623.2 93.6 629.7 93.6 C 635.2 77.4 640.2 61.0 645.7 44.7 C 646.5 47.4 647.0 50.1 647.4 52.8 C 649.6 67.2 651.9 81.6 654.2 96.0 C 654.6 99.3 655.4 102.6 654.8 105.9 C 653.9 108.0 651.4 108.8 649.8 110.3 C 649.5 112.2 649.5 114.2 649.4 116.1 C 661.9 116.2 674.4 116.2 686.9 116.1 C 686.8 114.4 686.8 112.7 686.6 111.1 C 684.9 108.5 682.3 106.2 682.1 103.0 C 678.6 78.6 675.0 54.2 671.4 29.8 C 671.3 28.3 670.9 26.8 671.4 25.4 C 672.5 23.5 674.3 22.2 675.9 20.7 C 676.0 18.8 676.0 16.9 676.0 15.0 C 663.1 15.0 650.2 14.9 637.3 15.1 C 632.7 28.6 628.1 42.1 623.3 55.5 C 621.0 50.6 619.6 45.3 617.9 40.1 C 615.2 31.8 612.5 23.4 609.7 15.1 C 597.4 14.9 585.1 15.0 572.7 15.0 Z" />
<path fill="#ffffff" stroke="#ffffff" stroke-width="0.09375" opacity="1.00" d=" M 495.4 28.4 C 505.8 26.7 516.9 31.4 523.0 40.0 C 527.0 45.5 529.1 52.3 529.8 59.0 C 530.5 67.4 530.1 76.1 527.0 84.0 C 524.5 90.8 519.4 96.8 512.8 99.9 C 506.9 102.5 500.3 103.0 494.0 102.0 C 487.7 101.2 481.7 98.1 477.8 93.1 C 473.3 87.6 471.4 80.5 470.6 73.6 C 469.5 66.0 470.0 58.2 471.8 50.8 C 473.5 44.2 477.0 37.7 482.6 33.6 C 486.3 30.8 490.8 29.2 495.4 28.4 Z" />
<path fill="#ffffff" stroke="#ffffff" stroke-width="0.09375" opacity="1.00" d=" M 274.0 30.1 C 281.4 28.9 289.4 28.1 296.3 31.7 C 300.9 33.9 303.2 39.1 303.1 44.0 C 303.2 48.8 300.9 53.3 297.8 56.8 C 291.5 64.2 282.9 69.3 274.1 73.3 C 273.9 58.9 274.0 44.5 274.0 30.1 Z" />
<path fill="#ffffff" stroke="#ffffff" stroke-width="0.09375" opacity="1.00" d=" M 161.6 65.7 C 164.5 55.9 167.8 46.2 171.4 36.7 C 174.9 46.3 178.4 56.0 181.8 65.7 C 175.1 65.7 168.4 65.7 161.6 65.7 Z" />
<path fill="#ffffff" stroke="#ffffff" stroke-width="0.09375" opacity="1.00" d=" M 453.7 142.7 C 460.2 132.4 474.0 127.5 485.6 131.4 C 488.5 132.2 491.6 133.8 494.7 132.7 C 501.6 130.9 508.9 131.2 516.0 131.2 C 519.9 131.2 523.9 131.2 527.7 132.4 C 531.0 133.3 533.9 135.4 536.8 137.2 C 540.3 134.7 544.1 132.3 548.4 131.3 C 558.2 128.9 569.6 130.7 577.0 138.0 C 579.4 140.4 582.0 143.3 581.9 146.9 C 581.7 149.5 580.0 151.6 578.7 153.8 C 582.0 153.6 585.3 153.6 588.6 153.7 C 589.2 150.3 589.1 146.3 591.7 143.7 C 594.1 141.3 597.8 141.2 600.9 141.1 C 605.9 141.1 610.9 140.9 615.9 141.4 C 618.7 141.6 621.7 143.2 622.8 146.0 C 624.0 149.2 624.2 152.5 625.0 155.8 C 625.8 152.7 626.1 149.4 627.5 146.5 C 628.6 143.9 631.5 142.6 634.2 142.4 C 638.4 141.9 642.7 142.1 647.0 142.1 C 650.0 142.1 653.0 142.0 655.9 143.1 C 659.6 144.7 661.4 149.1 660.9 152.9 C 660.3 156.6 657.5 159.4 656.7 163.0 C 656.3 165.3 656.3 167.7 656.7 170.0 C 657.5 173.6 660.3 176.4 660.9 180.1 C 661.4 183.9 659.6 188.4 655.7 189.9 C 652.3 191.1 648.6 190.8 645.0 190.9 C 641.0 190.8 637.0 191.1 633.0 190.4 C 630.7 190.0 628.5 188.7 627.4 186.5 C 626.1 183.7 625.8 180.5 625.2 177.4 C 623.7 181.3 623.4 186.3 619.5 188.6 C 615.6 190.4 611.2 189.8 607.0 189.9 C 602.5 189.8 597.7 190.5 593.5 188.6 C 589.3 186.5 589.2 181.2 588.6 177.1 C 586.2 177.2 583.9 177.3 581.6 177.3 C 579.5 180.3 577.4 183.3 574.5 185.5 C 569.9 189.0 564.0 190.1 558.5 191.0 L 552.6 191.0 C 547.8 189.8 542.8 188.3 538.8 185.2 C 534.3 181.9 531.5 177.0 529.3 171.9 C 526.6 172.9 523.9 174.0 521.1 175.0 C 521.2 177.9 521.5 180.9 520.8 183.8 C 520.0 186.9 517.0 189.2 513.8 189.6 C 509.2 190.2 504.6 189.8 500.0 189.7 C 491.7 189.1 483.4 191.3 475.2 189.7 C 468.0 188.5 461.0 185.3 456.2 179.8 C 447.3 169.8 446.5 153.8 453.7 142.7 M 460.5 146.5 C 456.5 152.0 456.1 159.2 457.4 165.7 C 459.1 173.3 465.4 179.2 472.8 181.2 C 479.7 183.4 486.9 182.2 493.9 181.8 C 494.0 178.4 494.0 174.9 493.9 171.5 C 492.7 171.7 491.5 171.9 490.4 172.2 C 488.3 173.5 486.7 175.9 483.9 175.8 C 479.3 176.0 474.3 174.4 471.2 170.8 C 467.0 166.5 466.2 160.0 467.4 154.3 C 468.6 149.1 473.5 144.9 479.0 145.1 C 481.2 145.1 483.0 146.7 484.8 147.9 C 484.7 150.6 485.1 153.4 487.3 155.2 C 490.0 152.5 492.8 149.8 495.6 147.0 C 493.0 144.4 490.4 141.6 487.0 140.1 C 478.2 135.5 466.1 138.1 460.5 146.5 M 545.0 141.0 C 538.4 144.6 537.7 155.7 544.2 159.7 C 548.3 162.3 553.3 162.9 557.9 164.1 C 560.3 164.8 563.0 165.3 564.8 167.3 C 565.5 169.6 565.5 172.8 563.2 174.2 C 558.6 177.2 551.2 176.7 548.3 171.7 C 548.3 170.0 548.9 168.5 549.2 166.9 C 548.5 166.2 547.8 165.5 547.0 164.8 C 543.8 167.0 540.3 168.9 537.7 171.9 C 540.7 177.6 546.4 182.2 553.0 182.9 C 559.5 183.6 566.8 182.4 571.7 177.7 C 575.0 174.5 575.7 169.5 574.8 165.1 C 573.7 161.3 570.6 158.4 567.1 156.9 C 562.4 154.7 557.1 154.4 552.2 152.7 C 550.6 152.2 548.7 151.0 549.0 149.0 C 548.9 147.1 550.7 145.9 552.3 145.4 C 556.1 144.4 560.5 144.9 563.6 147.4 C 564.0 149.1 564.1 150.7 564.3 152.4 C 565.2 152.6 566.1 152.8 567.0 152.9 C 569.7 151.3 571.8 148.7 574.2 146.6 C 571.9 144.0 569.4 141.2 566.1 139.9 C 559.4 137.1 551.3 137.4 545.0 141.0 M 497.4 139.3 C 498.2 141.2 499.3 143.0 500.7 144.7 C 501.0 155.2 500.9 165.8 500.7 176.4 C 499.4 178.0 498.2 179.8 497.4 181.7 C 502.9 182.1 508.4 182.1 513.8 181.9 C 513.2 179.7 511.9 177.8 511.0 175.8 C 510.5 174.0 510.7 172.1 510.7 170.2 C 517.5 167.9 524.9 166.4 530.3 161.3 C 534.2 157.9 535.1 152.1 533.7 147.3 C 532.6 144.1 529.8 141.6 526.7 140.2 C 523.4 138.7 519.6 139.0 516.0 139.0 C 509.8 139.1 503.6 138.8 497.4 139.3 M 597.0 149.0 C 597.0 150.3 597.0 151.5 597.1 152.8 C 598.7 153.0 600.2 153.2 601.8 153.4 C 602.1 161.5 602.1 169.5 601.8 177.6 C 600.2 177.8 598.7 178.0 597.1 178.2 C 597.0 179.5 597.0 180.7 597.0 182.0 C 603.3 182.0 609.7 182.0 616.0 182.0 C 616.0 180.7 615.9 179.5 615.9 178.2 C 614.5 178.1 613.2 178.0 611.8 177.9 C 611.0 169.7 611.0 161.3 611.8 153.1 C 613.2 153.0 614.5 152.9 615.9 152.8 C 615.9 151.5 616.0 150.3 616.0 149.0 C 609.7 149.0 603.3 149.0 597.0 149.0 M 634.0 150.0 C 634.0 151.3 634.0 152.5 634.1 153.8 C 635.7 154.0 637.2 154.2 638.8 154.4 C 639.1 162.5 639.1 170.5 638.8 178.6 C 637.2 178.8 635.7 179.0 634.1 179.2 C 634.0 180.5 634.0 181.7 634.0 183.0 C 640.3 183.0 646.7 183.0 653.0 183.0 C 653.0 181.7 652.9 180.5 652.9 179.2 C 651.5 179.1 650.2 179.0 648.8 178.9 C 648.0 170.7 648.0 162.3 648.8 154.1 C 650.2 154.0 651.5 153.9 652.9 153.8 C 652.9 152.5 653.0 151.3 653.0 150.0 C 646.7 150.0 640.3 150.0 634.0 150.0 M 475.8 153.6 C 475.1 156.5 474.1 159.7 475.2 162.7 C 476.1 165.4 478.7 167.9 481.7 167.7 C 483.7 166.8 485.3 165.2 487.3 164.4 C 489.1 163.9 491.0 163.8 492.9 163.5 C 492.9 162.9 493.0 161.8 493.0 161.2 C 490.3 161.9 487.5 163.3 484.7 162.3 C 480.6 160.8 478.2 157.0 475.8 153.6 M 579.8 161.5 C 577.2 162.8 578.6 166.5 578.0 168.8 C 582.4 169.5 586.8 169.4 591.1 169.2 C 591.1 166.8 591.1 164.3 591.1 161.9 C 587.4 161.6 583.6 161.1 579.8 161.5 M 619.6 162.3 C 619.6 165.0 619.6 167.7 619.6 170.4 C 622.4 170.3 625.3 170.3 628.1 170.2 C 628.1 167.7 628.1 165.3 628.1 162.9 C 625.3 162.7 622.4 162.5 619.6 162.3 Z" />
<path fill="#ffffff" stroke="#ffffff" stroke-width="0.09375" opacity="1.00" d=" M 510.8 145.3 C 514.4 145.6 518.4 145.3 521.8 147.1 C 525.1 149.0 524.9 153.9 522.8 156.7 C 519.7 160.2 515.0 161.6 510.8 163.3 C 510.6 157.3 510.6 151.3 510.8 145.3 Z" />
</svg>
