<svg xmlns="http://www.w3.org/2000/svg" version="1.1" viewBox="-0.05 -0.05 698.09 191.09">
<path fill="#ffffff" stroke="#ffffff" stroke-width="0.09375" opacity="1.00" d=" M 499.5 0.0 L 505.5 0.0 C 520.5 0.8 535.6 5.9 547.2 15.8 C 552.3 20.0 556.1 25.4 560.1 30.5 C 560.5 21.5 560.1 12.4 560.3 3.3 C 579.5 3.3 598.6 3.3 617.7 3.3 C 619.8 8.2 621.7 13.3 623.8 18.2 C 625.5 13.3 626.9 8.3 628.4 3.4 C 648.2 3.2 667.9 3.3 687.7 3.3 C 687.8 12.0 687.9 20.7 687.7 29.4 C 686.1 30.6 684.2 31.5 683.1 33.2 C 682.3 36.3 682.8 39.6 683.2 42.8 C 685.7 58.0 688.1 73.3 690.4 88.6 C 690.8 90.7 691.1 93.0 692.2 94.8 C 693.5 96.5 695.5 97.4 697.2 98.5 C 697.6 108.3 697.4 118.1 697.3 128.0 C 677.5 128.0 657.6 128.0 637.8 127.9 C 637.6 120.3 637.8 112.7 637.7 105.1 C 626.4 105.0 615.0 105.0 603.6 105.1 C 603.4 112.7 603.6 120.3 603.6 127.9 C 584.8 128.1 566.1 128.1 547.4 127.9 C 547.4 123.1 547.4 118.4 547.3 113.6 C 538.6 119.7 529.4 125.2 519.2 128.2 C 509.9 130.9 500.0 132.3 490.4 130.4 C 472.8 127.9 456.9 118.7 444.0 106.7 C 443.9 113.8 444.1 120.9 444.0 128.0 C 435.0 128.1 426.0 127.9 417.0 128.0 C 408.3 127.9 399.6 128.4 391.1 127.1 C 379.2 125.4 367.5 121.2 357.6 114.4 C 346.7 106.9 338.1 96.2 333.2 83.9 C 331.9 80.6 330.9 77.2 329.8 73.8 C 318.0 82.6 304.9 89.9 290.6 93.6 C 288.6 94.2 286.5 94.7 284.7 95.7 C 284.0 96.9 284.2 98.6 285.5 99.4 C 287.2 100.6 289.3 101.4 291.2 102.4 C 291.4 110.9 291.4 119.4 291.2 127.9 C 220.5 128.0 149.7 127.9 79.0 128.0 C 73.0 128.0 66.9 128.0 61.0 127.2 C 47.6 125.3 34.7 120.2 24.0 111.9 C 15.3 105.2 8.1 96.2 4.1 85.9 C 1.8 80.3 0.7 74.4 0.0 68.4 L 0.0 62.5 C 0.7 54.3 2.2 46.1 5.5 38.5 C 10.5 26.8 19.2 16.7 30.2 10.2 C 44.6 1.6 62.1 -1.0 78.7 1.4 C 97.0 4.0 113.8 15.2 123.4 31.0 C 112.6 42.8 101.5 54.2 90.6 65.8 C 83.3 61.3 76.4 56.2 69.2 51.5 C 70.3 49.1 71.7 46.7 72.0 44.0 C 72.0 40.3 68.0 37.5 64.5 38.5 C 56.3 40.5 51.0 48.9 50.6 57.0 C 50.2 65.9 52.7 75.4 59.1 81.9 C 64.8 87.9 74.0 90.6 81.9 87.8 C 85.9 86.5 88.5 82.9 90.8 79.5 C 99.5 79.2 108.2 79.4 116.9 79.4 C 117.1 86.4 116.8 93.3 117.1 100.3 C 119.9 93.9 122.2 87.2 124.8 80.7 C 134.6 54.9 144.3 29.1 154.3 3.3 C 168.4 3.3 182.6 3.3 196.7 3.3 C 208.1 32.1 219.1 60.9 230.3 89.7 C 231.5 92.7 233.6 95.2 235.8 97.5 C 236.3 79.3 235.8 61.2 236.1 43.0 C 236.1 40.2 236.3 37.2 235.5 34.4 C 234.3 32.6 232.3 31.5 230.5 30.2 C 230.2 21.2 230.4 12.3 230.4 3.4 C 248.6 3.2 266.8 3.4 285.0 3.3 C 294.4 3.3 304.1 3.3 313.2 5.8 C 318.7 7.3 324.0 10.0 328.1 13.9 C 332.1 17.8 334.9 22.8 338.0 27.4 C 342.1 22.8 346.1 18.0 351.0 14.0 C 361.1 5.7 374.0 1.0 387.0 0.4 C 402.3 -0.4 418.3 2.2 431.0 10.9 C 436.4 14.4 440.6 19.4 444.8 24.3 C 448.8 20.1 453.0 16.0 457.9 12.9 C 470.2 4.7 484.9 0.8 499.5 0.0 M 29.5 25.5 C 15.3 36.7 8.3 56.5 12.8 74.2 C 17.5 91.2 31.0 105.2 47.4 111.5 C 55.9 114.8 65.0 116.2 74.0 116.0 C 84.0 115.9 94.0 116.1 103.9 115.9 C 104.1 107.6 104.0 99.2 104.0 90.9 C 102.0 90.9 100.1 90.9 98.2 90.9 C 96.2 93.3 94.1 95.8 91.3 97.2 C 85.8 100.3 79.2 100.5 73.0 100.1 C 62.9 99.5 53.0 94.2 47.2 85.9 C 40.3 76.2 37.2 63.8 39.2 52.0 C 40.6 44.0 44.6 36.1 51.4 31.3 C 57.8 26.6 66.5 26.0 74.0 27.9 C 79.1 29.1 83.8 32.8 85.0 38.1 C 85.9 41.4 84.9 44.7 84.0 47.8 C 85.2 48.7 86.3 49.8 87.6 50.4 C 89.5 51.3 90.9 49.2 92.2 48.2 C 97.3 42.7 102.5 37.1 107.7 31.7 C 100.8 23.7 91.5 17.7 81.4 14.5 C 63.7 9.2 43.7 14.0 29.5 25.5 M 492.4 12.4 C 477.8 14.0 463.6 20.7 454.1 32.1 C 446.3 41.2 442.2 53.1 442.1 65.0 C 442.3 77.4 446.6 89.8 454.8 99.2 C 465.6 112.0 482.3 119.2 499.0 119.1 C 514.9 119.5 531.1 113.7 542.3 102.3 C 554.3 90.5 560.0 72.6 557.0 56.1 C 555.1 44.9 549.3 34.6 541.0 27.1 C 528.1 15.2 509.6 10.4 492.4 12.4 M 352.7 31.7 C 342.9 42.5 338.9 58.1 341.6 72.4 C 345.3 88.2 356.7 101.7 371.0 109.1 C 380.2 113.8 390.6 116.3 401.0 116.0 C 411.7 116.0 422.3 116.1 433.0 116.0 C 433.0 107.6 433.1 99.3 433.0 91.0 C 431.1 91.0 429.2 91.0 427.4 91.1 C 425.5 93.6 423.3 96.1 420.4 97.5 C 414.2 100.8 406.8 100.9 400.0 100.1 C 390.3 98.9 381.3 93.3 375.9 85.1 C 366.7 71.8 364.7 52.7 373.7 38.7 C 378.7 30.5 388.6 26.1 398.1 27.1 C 402.4 27.6 407.0 28.6 410.3 31.7 C 413.2 34.3 414.7 38.2 414.8 42.0 C 414.6 44.1 413.7 45.9 413.0 47.9 C 414.6 49.0 416.1 50.4 418.0 51.0 C 419.5 50.2 420.6 49.0 421.8 47.8 C 426.9 42.5 432.1 37.4 437.1 31.9 C 428.9 22.6 417.8 15.9 405.7 13.4 C 386.5 10.0 365.6 16.9 352.7 31.7 M 162.1 15.0 C 151.5 43.5 141.1 72.1 130.5 100.6 C 129.2 104.6 125.8 107.3 122.2 109.2 C 122.2 111.5 122.2 113.8 122.2 116.1 C 132.7 116.0 143.2 116.3 153.7 115.9 C 153.7 113.8 153.7 111.6 153.6 109.5 C 152.1 108.6 150.5 107.7 149.0 106.8 C 148.5 104.3 148.3 101.7 149.3 99.4 C 151.6 93.4 153.7 87.3 156.3 81.4 C 166.7 81.5 177.2 81.5 187.7 81.4 C 190.2 87.1 192.1 92.9 194.5 98.5 C 195.2 100.6 196.3 102.7 196.0 104.9 C 195.5 107.3 193.1 108.3 191.3 109.5 C 191.3 111.7 191.2 113.8 191.2 116.0 C 204.2 116.2 217.3 116.1 230.3 116.0 C 230.3 113.8 230.3 111.5 230.3 109.2 C 228.2 107.9 225.9 106.7 224.2 104.7 C 221.5 101.4 220.2 97.2 218.7 93.3 C 208.7 67.2 198.7 41.1 188.7 15.0 C 179.9 15.0 171.0 15.0 162.1 15.0 M 243.0 15.0 C 242.9 17.6 242.7 20.2 243.1 22.8 C 244.3 24.6 246.3 25.7 247.7 27.4 C 248.3 30.5 248.0 33.8 248.0 37.0 C 248.0 58.3 248.0 79.7 248.0 101.0 C 248.0 102.3 247.9 103.5 247.7 104.8 C 246.6 106.9 244.3 108.1 242.5 109.5 C 242.4 111.6 242.4 113.8 242.4 115.9 C 254.5 116.2 266.6 116.2 278.7 115.9 C 278.7 113.8 278.7 111.6 278.6 109.4 C 276.8 107.5 274.0 105.9 273.8 103.0 C 273.5 97.8 273.6 92.5 273.9 87.3 C 286.0 83.8 298.0 79.9 309.3 74.2 C 316.5 70.5 323.2 65.0 326.5 57.4 C 329.3 51.1 329.6 43.9 328.8 37.1 C 327.7 29.5 322.3 22.9 315.4 19.6 C 308.1 16.1 300.0 15.0 292.0 15.0 C 275.7 15.1 259.3 14.9 243.0 15.0 M 572.8 15.0 C 572.8 17.3 572.7 19.6 572.9 21.8 C 574.2 23.2 576.2 23.6 577.9 24.5 C 578.3 29.4 577.0 34.3 576.3 39.2 C 573.3 57.9 570.3 76.5 567.3 95.2 C 566.7 98.5 566.5 101.9 565.1 105.1 C 563.8 107.1 561.4 108.2 559.8 110.1 C 559.6 112.1 559.7 114.1 559.7 116.0 C 570.5 116.1 581.2 116.1 592.0 116.0 C 592.0 114.1 592.0 112.1 592.0 110.1 C 590.5 109.3 588.8 108.6 587.5 107.5 C 585.4 105.2 586.1 102.0 586.5 99.2 C 589.3 82.0 591.3 64.8 594.3 47.6 C 600.0 62.8 604.7 78.4 610.3 93.6 C 616.8 93.6 623.2 93.6 629.7 93.6 C 635.3 77.4 640.2 61.0 645.7 44.7 C 647.1 49.3 647.5 54.1 648.3 58.8 C 650.5 72.3 652.5 85.8 654.7 99.3 C 655.0 101.5 655.3 103.7 654.8 105.9 C 654.1 108.3 651.4 108.9 649.5 110.1 C 649.5 112.1 649.6 114.1 649.6 116.1 C 662.0 116.2 674.4 116.2 686.8 116.1 C 686.8 114.4 686.9 112.7 686.8 111.0 C 685.1 108.7 682.5 106.9 682.3 103.8 C 678.6 79.2 675.1 54.5 671.4 29.8 C 671.2 28.6 671.1 27.4 671.1 26.2 C 671.9 23.8 674.2 22.4 676.0 20.8 C 676.0 18.9 676.0 16.9 676.0 15.0 C 663.1 15.0 650.2 14.9 637.3 15.1 C 632.7 28.6 628.1 42.0 623.3 55.4 C 622.5 53.9 621.8 52.3 621.2 50.7 C 617.5 38.8 613.6 26.9 609.7 15.1 C 597.4 14.9 585.1 15.0 572.8 15.0 Z"/>
<path fill="#ffffff" stroke="#ffffff" stroke-width="0.09375" opacity="1.00" d=" M 495.4 28.4 C 506.0 26.6 517.4 31.7 523.4 40.6 C 527.2 46.0 529.1 52.5 529.8 59.0 C 530.5 68.4 530.0 78.2 525.9 86.8 C 522.1 94.6 514.6 100.6 506.0 102.0 C 497.3 103.4 487.6 102.1 480.8 96.3 C 474.5 90.8 471.7 82.4 470.7 74.3 C 469.4 66.5 470.0 58.5 471.8 50.8 C 473.5 43.9 477.3 37.3 483.2 33.2 C 486.8 30.6 491.1 29.2 495.4 28.4 Z"/>
<path fill="#ffffff" stroke="#ffffff" stroke-width="0.09375" opacity="1.00" d=" M 274.0 30.2 C 281.4 28.8 289.4 28.1 296.3 31.7 C 300.9 33.9 303.2 39.1 303.1 44.0 C 303.2 49.0 300.6 53.7 297.3 57.4 C 291.0 64.5 282.7 69.4 274.1 73.2 C 274.0 58.9 274.0 44.5 274.0 30.2 Z"/>
<path fill="#ffffff" stroke="#ffffff" stroke-width="0.09375" opacity="1.00" d=" M 166.3 51.2 C 168.0 46.4 169.3 41.4 171.5 36.7 C 174.9 46.4 178.4 56.0 181.8 65.7 C 175.1 65.7 168.4 65.7 161.7 65.7 C 162.7 60.7 164.7 56.0 166.3 51.2 Z"/>
<path fill="#ffffff" stroke="#ffffff" stroke-width="0.09375" opacity="1.00" d=" M 456.3 139.3 C 462.1 132.7 471.2 129.5 479.9 130.2 C 484.2 130.4 488.0 132.5 492.1 133.3 C 494.7 132.9 497.3 131.8 500.0 131.6 C 504.3 131.1 508.7 131.3 513.0 131.2 C 517.9 131.2 522.9 130.9 527.7 132.3 C 531.0 133.3 533.9 135.4 536.8 137.2 C 540.1 134.9 543.6 132.5 547.6 131.6 C 557.6 128.8 569.4 130.5 577.0 138.0 C 579.2 140.2 581.5 142.8 581.9 146.1 C 582.2 149.0 580.2 151.4 578.6 153.7 C 582.0 153.6 585.3 153.6 588.7 153.7 C 589.2 150.3 589.0 146.3 591.7 143.7 C 594.4 141.0 598.5 141.2 602.0 141.1 C 606.6 141.1 611.2 140.9 615.8 141.3 C 619.0 141.6 622.1 143.6 623.2 146.7 C 624.1 149.6 623.5 153.0 625.3 155.6 C 625.9 152.8 626.1 149.9 627.0 147.1 C 628.4 144.0 631.8 142.3 635.0 142.2 C 640.7 142.0 646.3 142.0 652.0 142.2 C 655.2 142.3 658.5 144.0 659.9 147.0 C 660.9 149.8 660.8 153.0 662.3 155.6 C 663.3 152.0 662.8 147.5 665.7 144.7 C 667.6 142.8 670.4 142.3 673.0 142.2 C 677.3 142.0 681.7 142.1 686.1 142.1 C 688.8 142.2 691.8 142.2 694.1 143.8 C 697.3 146.0 698.5 150.2 697.8 153.8 C 697.1 157.5 693.5 160.0 693.5 163.9 C 693.4 166.3 693.3 168.6 693.8 170.9 C 694.7 173.9 697.2 176.1 697.8 179.2 C 698.6 183.3 696.8 188.3 692.7 189.9 C 689.6 191.1 686.3 190.8 683.0 190.9 C 678.7 190.8 674.3 191.2 670.0 190.5 C 667.0 190.0 664.2 187.6 663.6 184.5 C 663.1 182.1 662.8 179.8 662.3 177.4 C 660.9 180.0 660.8 183.1 659.9 185.9 C 658.6 189.0 655.2 190.6 652.0 190.7 C 646.3 191.0 640.7 191.0 635.0 190.7 C 631.7 190.7 628.3 189.0 627.0 185.9 C 626.1 183.2 625.9 180.3 625.3 177.4 C 624.1 180.0 623.5 182.9 622.5 185.5 C 621.0 188.6 617.3 189.8 614.0 189.8 C 608.7 190.0 603.4 190.0 598.0 189.8 C 595.0 189.7 591.9 188.3 590.4 185.5 C 589.1 182.9 589.0 180.0 588.6 177.2 C 586.3 177.2 583.9 177.3 581.5 177.3 C 579.5 180.3 577.4 183.3 574.5 185.5 C 569.9 189.0 564.0 190.1 558.5 191.0 L 552.7 191.0 C 547.6 189.8 542.4 188.2 538.3 184.7 C 534.1 181.5 531.4 176.8 529.4 171.9 C 526.6 172.9 523.8 174.0 521.1 175.1 C 521.2 177.7 521.4 180.3 521.0 183.0 C 520.5 186.5 517.3 189.2 513.8 189.6 C 506.3 190.6 498.6 189.1 491.1 189.8 C 484.7 190.5 478.2 190.7 472.0 189.0 C 463.6 187.1 456.1 181.6 452.2 173.9 C 446.8 162.9 447.9 148.5 456.3 139.3 M 460.1 147.1 C 456.4 152.5 456.2 159.5 457.4 165.7 C 459.1 173.3 465.4 179.2 472.8 181.2 C 479.7 183.4 486.9 182.2 493.9 181.8 C 494.0 178.5 494.0 175.2 493.9 171.9 C 492.7 171.8 491.4 171.7 490.2 171.6 C 488.8 173.4 487.4 175.6 484.8 175.7 C 480.1 176.2 475.1 174.7 471.7 171.3 C 467.1 167.0 466.1 160.2 467.4 154.3 C 468.6 148.8 474.1 144.4 479.8 145.2 C 481.9 145.4 483.4 146.9 485.0 148.1 C 484.9 149.7 484.8 151.4 484.8 153.0 C 485.7 153.6 486.6 154.3 487.6 154.9 C 490.2 152.4 492.9 149.8 495.5 147.1 C 493.1 144.3 490.4 141.6 487.0 140.1 C 478.0 135.4 465.5 138.3 460.1 147.1 M 544.4 141.4 C 539.6 144.4 538.7 151.2 540.8 156.1 C 543.6 161.0 549.6 162.1 554.6 163.4 C 558.1 164.4 562.2 164.5 564.8 167.3 C 565.5 169.6 565.5 172.8 563.2 174.2 C 558.9 176.9 552.6 176.7 549.1 172.8 C 547.3 171.2 548.9 168.9 549.3 167.0 C 548.6 166.2 547.8 165.5 547.0 164.8 C 543.7 166.9 540.4 169.1 537.5 171.8 C 539.7 175.1 542.1 178.4 545.6 180.4 C 550.4 183.3 556.3 183.5 561.7 182.6 C 566.9 181.6 572.5 178.7 574.4 173.4 C 575.9 168.7 575.3 163.0 571.3 159.7 C 565.8 154.4 557.5 155.1 550.8 152.2 C 548.3 151.1 548.4 147.0 551.0 146.0 C 555.0 144.1 560.1 144.7 563.6 147.4 C 564.1 148.9 564.1 150.5 564.2 152.0 C 565.1 152.5 565.9 152.9 566.9 153.2 C 569.5 151.3 571.7 148.9 574.2 146.7 C 572.1 144.1 569.8 141.6 566.8 140.2 C 559.7 136.9 551.0 137.2 544.4 141.4 M 498.1 139.2 C 498.1 139.8 498.1 141.1 498.1 141.7 C 499.5 143.2 501.2 144.7 500.9 147.0 C 500.8 156.8 500.9 166.7 500.8 176.6 C 499.9 177.5 498.9 178.4 498.0 179.2 C 498.0 179.9 498.0 181.2 498.0 181.8 C 503.1 182.1 508.1 182.1 513.1 182.0 C 513.3 181.1 513.5 180.3 513.8 179.5 C 512.7 178.6 511.7 177.7 510.7 176.8 C 510.7 174.6 510.8 172.4 510.8 170.2 C 517.7 167.7 525.5 166.3 530.8 160.8 C 534.4 157.4 535.0 151.9 533.7 147.3 C 532.6 144.1 529.8 141.6 526.7 140.2 C 523.7 138.8 520.3 139.0 517.0 139.0 C 510.7 139.1 504.4 138.8 498.1 139.2 M 597.0 149.0 C 597.0 150.3 597.0 151.5 597.1 152.7 C 598.6 152.9 600.2 153.2 601.8 153.4 C 602.2 161.5 602.1 169.5 601.8 177.6 C 600.2 177.8 598.6 178.1 597.1 178.3 C 597.0 179.5 597.0 180.7 597.0 182.0 C 603.3 182.0 609.7 182.0 616.0 181.9 C 616.0 180.7 616.0 179.5 615.9 178.3 C 614.6 178.1 613.3 178.0 612.0 177.8 C 610.9 169.7 610.9 161.3 612.0 153.2 C 613.3 153.0 614.6 152.9 615.9 152.7 C 616.0 151.5 616.0 150.3 616.0 149.1 C 609.7 149.0 603.3 149.0 597.0 149.0 M 634.0 150.0 C 634.0 151.3 634.0 152.5 634.1 153.7 C 635.6 153.9 637.2 154.2 638.8 154.4 C 639.2 162.5 639.2 170.5 638.8 178.6 C 637.2 178.8 635.6 179.1 634.1 179.3 C 634.0 180.5 634.0 181.7 634.0 183.0 C 640.3 183.0 646.7 183.0 653.0 182.9 C 653.0 181.7 652.9 180.5 652.9 179.3 C 651.6 179.1 650.3 179.0 649.0 178.8 C 647.9 170.7 647.9 162.3 649.0 154.2 C 650.3 154.0 651.6 153.9 652.9 153.7 C 653.0 152.5 653.0 151.3 653.0 150.1 C 646.7 150.0 640.3 150.0 634.0 150.0 M 671.0 150.0 C 671.0 151.3 671.0 152.5 671.1 153.7 C 672.6 153.9 674.2 154.2 675.8 154.4 C 676.2 162.5 676.2 170.5 675.8 178.6 C 674.2 178.8 672.6 179.1 671.1 179.3 C 671.0 180.5 671.0 181.7 671.0 183.0 C 677.3 183.0 683.7 183.0 690.0 182.9 C 690.0 181.7 690.0 180.5 689.9 179.3 C 688.6 179.1 687.3 179.0 686.0 178.8 C 684.9 170.7 684.9 162.3 686.0 154.2 C 687.3 154.0 688.6 153.9 689.9 153.7 C 690.0 152.5 690.0 151.3 690.0 150.1 C 683.7 150.0 677.3 150.0 671.0 150.0 M 475.9 153.6 C 474.5 157.1 474.0 161.4 476.2 164.7 C 477.4 166.7 479.8 167.3 481.8 168.2 C 483.3 166.9 484.8 165.5 486.6 164.6 C 488.6 163.9 490.8 163.8 492.9 163.6 C 492.9 163.0 493.0 161.8 493.1 161.2 C 490.4 161.9 487.5 163.3 484.7 162.2 C 480.7 160.8 478.2 157.1 475.9 153.6 M 578.8 161.7 C 577.8 163.9 578.3 166.4 578.1 168.7 C 582.3 169.9 586.8 169.3 591.1 169.1 C 591.1 166.7 591.1 164.3 591.1 161.9 C 587.0 161.7 582.8 160.6 578.8 161.7 M 619.6 162.3 C 619.6 165.0 619.6 167.7 619.6 170.4 C 622.4 170.3 625.3 170.3 628.1 170.2 C 628.1 167.7 628.1 165.3 628.1 162.9 C 625.3 162.6 622.4 162.4 619.6 162.3 M 656.6 162.3 C 656.6 165.0 656.6 167.7 656.6 170.4 C 659.4 170.3 662.3 170.3 665.1 170.2 C 665.1 167.7 665.1 165.3 665.1 162.9 C 662.3 162.6 659.4 162.4 656.6 162.3 Z"/>
<path fill="#ffffff" stroke="#ffffff" stroke-width="0.09375" opacity="1.00" d=" M 510.8 145.3 C 515.2 145.7 521.0 145.0 523.8 149.3 C 524.6 151.9 524.4 155.2 522.3 157.2 C 519.2 160.3 514.8 161.8 510.8 163.2 C 510.6 157.3 510.6 151.3 510.8 145.3 Z"/>
</svg>