<?xml version="1.0" encoding="UTF-8" ?>
<!DOCTYPE svg PUBLIC "-//W3C//DTD SVG 1.1//EN" "http://www.w3.org/Graphics/SVG/1.1/DTD/svg11.dtd">
<svg width="1634pt" height="556pt" viewBox="0 0 1634 556" version="1.1" xmlns="http://www.w3.org/2000/svg">
<path fill="#ffffff" stroke="#ffffff" stroke-width="0.09375" opacity="1.00" d=" M 710.7 64.6 C 716.3 62.8 722.0 61.2 727.9 61.4 C 744.2 61.6 760.5 61.2 776.7 61.5 C 776.8 67.2 774.3 72.5 773.0 78.0 C 771.9 81.8 771.4 85.9 768.9 89.1 C 766.3 89.6 763.6 89.5 761.0 89.5 C 749.3 89.4 737.6 89.6 726.0 89.4 C 721.7 89.3 717.2 89.5 713.2 91.3 C 699.5 97.1 687.5 106.8 679.4 119.4 C 674.7 127.6 674.1 138.2 678.0 147.0 C 681.0 155.2 687.5 162.1 695.6 165.3 C 699.9 166.9 704.5 166.7 709.0 166.7 C 719.3 166.6 729.7 166.8 740.0 166.6 C 743.3 166.6 746.6 166.5 749.9 167.2 C 750.2 172.9 747.9 178.3 746.7 183.8 C 745.8 187.3 745.4 190.8 744.5 194.2 C 741.0 194.8 737.5 194.4 734.0 194.4 C 725.0 194.4 716.0 194.4 707.0 194.4 C 699.0 194.3 690.9 195.0 683.0 193.0 C 668.7 189.6 656.0 180.3 648.4 167.7 C 646.3 164.3 645.1 160.5 644.0 156.7 C 642.7 152.3 641.6 147.7 641.8 143.0 C 642.1 137.8 643.4 132.7 644.7 127.7 C 646.0 122.9 647.3 118.0 649.4 113.4 C 652.9 106.0 657.8 99.4 663.6 93.6 C 676.5 80.1 692.8 69.8 710.7 64.6 Z" />
<path fill="#ffffff" stroke="#ffffff" stroke-width="0.09375" opacity="1.00" d=" M 792.9 61.9 C 796.9 61.0 801.0 61.4 805.0 61.4 C 811.5 61.6 817.9 61.0 824.4 61.6 C 824.3 66.5 822.5 71.0 821.4 75.7 C 818.6 87.1 815.5 98.5 812.7 109.9 C 810.9 117.6 808.4 125.0 806.7 132.7 C 805.6 137.4 803.8 142.1 803.9 147.0 C 804.4 154.3 809.6 160.8 816.1 163.9 C 824.8 167.9 834.8 168.3 844.0 166.1 C 854.4 163.8 864.0 158.0 870.7 149.7 C 874.3 145.2 875.6 139.4 877.0 133.9 C 879.7 122.3 882.9 110.8 885.4 99.2 C 887.9 88.6 891.5 78.3 893.6 67.6 C 894.0 65.5 894.5 63.5 895.5 61.6 C 900.0 61.1 904.5 61.5 909.0 61.4 C 914.9 61.6 920.8 61.1 926.7 61.5 C 925.8 70.6 922.3 79.2 920.1 88.1 C 916.2 103.6 912.4 119.0 908.5 134.5 C 907.0 140.3 905.9 146.2 903.7 151.7 C 899.7 161.3 893.0 169.6 884.7 175.7 C 878.1 180.9 870.8 184.9 863.1 188.2 C 849.2 194.6 833.5 196.5 818.3 195.4 C 805.1 194.1 791.6 189.6 782.0 180.0 C 777.2 175.6 773.1 170.1 771.6 163.7 C 770.0 156.6 770.8 149.3 772.4 142.3 C 776.4 124.6 781.3 107.1 785.5 89.4 C 787.1 82.7 788.9 76.0 790.6 69.4 C 791.2 66.8 791.8 64.3 792.9 61.9 Z" />
<path fill="#ffffff" stroke="#ffffff" stroke-width="0.09375" opacity="1.00" d=" M 993.9 61.9 C 1002.3 61.1 1010.6 61.5 1019.0 61.4 C 1032.0 61.4 1045.0 61.4 1058.0 61.4 C 1062.2 61.4 1066.4 61.1 1070.7 61.5 C 1071.1 67.2 1069.0 72.5 1067.7 77.9 C 1066.6 81.8 1066.0 85.8 1064.4 89.4 C 1062.9 89.8 1061.5 89.9 1060.1 89.9 C 1035.4 90.0 1010.7 89.6 986.0 90.3 C 979.8 90.6 973.5 91.9 968.2 95.2 C 964.4 97.5 962.2 102.2 963.5 106.5 C 964.2 108.6 966.3 109.8 968.4 110.5 C 974.4 112.6 980.8 112.5 987.0 112.6 C 992.0 112.7 996.9 113.5 1001.9 113.5 C 1007.7 113.6 1013.6 113.2 1019.3 114.4 C 1025.9 115.8 1032.7 117.2 1038.8 120.2 C 1044.8 123.2 1049.3 129.0 1050.7 135.5 C 1052.4 142.2 1050.3 148.9 1048.5 155.3 C 1046.2 163.2 1042.7 171.0 1037.1 177.1 C 1031.9 182.6 1025.1 186.3 1018.2 189.2 C 1009.3 193.0 999.6 194.3 990.1 194.6 C 968.0 194.7 946.0 194.6 924.0 194.6 C 919.3 194.6 914.6 195.1 910.0 194.0 C 910.8 187.9 912.6 181.9 913.8 175.9 C 914.7 172.9 915.0 169.4 917.3 167.1 C 921.5 166.2 925.8 166.7 930.0 166.7 C 948.3 166.7 966.7 166.7 985.0 166.7 C 991.9 166.7 998.8 166.3 1005.4 164.3 C 1008.7 163.3 1011.9 161.8 1014.3 159.4 C 1017.1 156.7 1017.6 152.3 1016.2 148.8 C 1014.1 146.2 1010.5 145.5 1007.3 144.9 C 999.3 143.8 991.1 143.3 983.0 143.5 C 976.6 143.7 970.3 142.9 964.0 142.4 C 957.7 141.9 951.5 140.5 945.7 138.3 C 940.3 136.2 935.1 132.7 932.4 127.5 C 929.3 121.7 928.8 114.7 930.2 108.4 C 931.4 103.3 932.7 98.3 934.6 93.6 C 939.3 82.4 948.5 73.4 959.5 68.5 C 964.5 66.3 969.6 64.3 975.1 63.4 C 981.3 62.3 987.7 62.6 993.9 61.9 Z" />
<path fill="#ffffff" stroke="#ffffff" stroke-width="0.09375" opacity="1.00" d=" M 1087.9 61.9 C 1092.5 60.9 1097.3 61.5 1102.0 61.4 C 1133.7 61.4 1165.3 61.4 1197.0 61.4 C 1201.9 61.5 1206.8 60.8 1211.6 62.1 C 1210.2 67.6 1208.3 72.9 1207.2 78.5 C 1206.2 82.5 1205.8 86.9 1203.4 90.4 C 1201.0 90.7 1198.5 90.6 1196.0 90.6 C 1187.0 90.4 1178.0 90.6 1169.0 90.5 C 1165.7 90.5 1162.4 90.3 1159.2 91.0 C 1157.3 95.4 1156.8 100.2 1155.5 104.8 C 1153.4 112.9 1151.7 121.2 1149.1 129.2 C 1147.6 133.6 1146.5 138.1 1145.6 142.7 C 1143.7 151.8 1141.0 160.8 1138.9 169.9 C 1137.2 178.0 1134.8 186.0 1134.3 194.4 C 1129.2 195.0 1124.1 194.5 1119.0 194.6 C 1113.1 194.5 1107.1 195.0 1101.2 194.5 C 1101.3 189.5 1103.0 184.8 1104.2 180.0 C 1107.9 165.0 1111.6 150.0 1115.3 135.1 C 1118.6 124.9 1120.4 114.5 1123.4 104.3 C 1124.4 99.7 1126.3 95.1 1126.1 90.3 C 1111.5 89.1 1096.8 90.5 1082.2 89.7 C 1081.9 84.1 1084.1 78.8 1085.3 73.4 C 1086.3 69.6 1086.6 65.6 1087.9 61.9 Z" />
<path fill="#ffffff" stroke="#ffffff" stroke-width="0.09375" opacity="1.00" d=" M 1273.5 61.8 C 1278.9 61.1 1284.5 60.8 1290.0 60.9 C 1295.4 61.1 1301.0 61.2 1306.2 62.9 C 1313.4 65.3 1320.4 68.7 1326.1 73.9 C 1335.0 81.7 1340.9 93.1 1341.4 105.0 C 1341.7 113.7 1341.8 122.7 1339.2 131.2 C 1332.6 152.8 1317.3 171.4 1298.0 183.0 C 1294.0 185.6 1289.8 187.8 1285.2 189.3 C 1278.1 191.7 1270.9 194.1 1263.4 194.8 C 1249.8 196.7 1235.5 194.2 1223.5 187.5 C 1212.5 180.5 1203.8 169.1 1201.7 156.0 C 1198.8 141.5 1201.2 126.1 1207.8 112.8 C 1217.3 93.1 1233.9 76.8 1254.0 68.0 C 1260.2 65.1 1266.7 62.8 1273.5 61.8 M 1275.3 90.0 C 1257.4 93.2 1242.1 106.4 1234.9 123.0 C 1232.5 128.3 1232.2 134.3 1232.5 140.0 C 1232.6 150.3 1239.3 160.3 1248.9 164.2 C 1254.6 166.6 1261.0 167.9 1267.1 166.4 C 1277.1 164.7 1286.6 160.0 1293.9 152.8 C 1301.3 145.8 1307.2 136.6 1308.6 126.3 C 1310.5 116.6 1309.1 105.4 1302.0 98.0 C 1295.2 91.2 1284.7 88.4 1275.3 90.0 Z" />
<path fill="#ffffff" stroke="#ffffff" stroke-width="0.09375" opacity="1.00" d=" M 1473.0 68.1 C 1480.5 64.5 1488.6 61.5 1496.9 61.3 C 1502.0 61.1 1507.0 61.1 1512.1 61.3 C 1523.1 61.5 1534.0 66.4 1541.5 74.5 C 1547.2 80.9 1549.1 89.7 1549.4 98.0 C 1549.4 107.2 1545.9 115.9 1544.0 124.8 C 1539.7 145.1 1534.2 165.1 1529.3 185.2 C 1528.6 188.2 1528.1 191.3 1527.1 194.2 C 1522.8 195.1 1518.4 194.6 1514.0 194.6 C 1508.1 194.5 1502.1 195.0 1496.2 194.5 C 1496.0 190.9 1497.1 187.4 1497.9 183.9 C 1500.8 172.7 1503.4 161.4 1506.4 150.2 C 1509.5 139.3 1511.9 128.1 1514.9 117.1 C 1516.6 110.7 1517.6 104.0 1516.3 97.5 C 1514.6 92.9 1509.5 90.5 1504.9 89.8 C 1498.8 89.1 1492.3 89.1 1486.5 91.4 C 1480.4 93.8 1475.7 98.9 1472.4 104.4 C 1469.2 109.6 1467.6 115.5 1466.3 121.3 C 1460.3 145.6 1454.0 169.9 1448.1 194.2 C 1443.8 195.1 1439.4 194.6 1435.0 194.6 C 1428.7 194.5 1422.5 195.0 1416.2 194.5 C 1416.5 191.0 1417.6 187.7 1418.5 184.3 C 1420.4 177.4 1421.9 170.3 1423.5 163.3 C 1425.2 155.7 1428.2 148.6 1429.9 141.1 C 1431.7 133.3 1433.3 125.5 1435.1 117.7 C 1436.6 111.1 1437.1 104.0 1434.6 97.5 C 1432.7 91.9 1426.7 88.6 1421.0 88.3 C 1413.8 87.7 1406.7 90.7 1401.2 95.2 C 1394.5 100.7 1390.2 108.8 1388.2 117.2 C 1381.9 142.9 1375.4 168.5 1369.1 194.2 C 1364.8 195.1 1360.4 194.6 1356.0 194.6 C 1349.7 194.5 1343.5 194.9 1337.2 194.5 C 1337.5 191.7 1338.4 188.9 1339.2 186.1 C 1341.4 178.5 1343.1 170.8 1345.1 163.1 C 1348.4 149.5 1352.0 135.9 1355.3 122.3 C 1357.3 114.6 1358.8 106.6 1362.3 99.3 C 1372.2 78.2 1393.8 63.5 1417.0 61.7 C 1424.9 61.3 1433.0 61.1 1440.7 62.9 C 1445.6 64.1 1450.7 65.2 1454.8 68.2 C 1457.3 69.9 1459.4 72.1 1462.1 73.6 C 1466.0 72.4 1469.3 69.8 1473.0 68.1 Z" />
<path fill="#ffffff" stroke="#ffffff" stroke-width="0.09375" opacity="1.00" d=" M 131.5 227.8 C 135.0 227.2 138.5 227.3 142.0 227.3 C 149.3 227.4 156.7 227.4 164.0 227.4 C 600.0 227.4 1036.0 227.4 1472.0 227.4 C 1477.9 227.4 1484.0 226.8 1489.8 228.3 C 1499.6 230.9 1509.0 234.8 1517.1 240.9 C 1524.1 245.8 1529.8 252.3 1535.4 258.6 C 1540.8 264.8 1545.5 271.7 1547.6 279.7 C 1549.7 285.9 1549.7 292.5 1549.5 299.0 C 1549.5 333.7 1549.5 368.3 1549.5 403.0 C 1549.4 409.1 1550.1 415.4 1548.6 421.4 C 1547.3 427.0 1545.7 432.6 1542.4 437.4 C 1535.6 447.5 1527.2 457.0 1516.0 462.2 C 1507.9 466.4 1499.3 470.4 1490.0 470.5 C 1465.4 470.5 1440.7 470.5 1416.0 470.5 C 1000.7 470.5 585.3 470.5 170.0 470.5 C 164.2 470.5 158.3 470.3 152.5 470.9 C 147.7 471.4 142.8 471.8 137.9 471.4 C 133.6 471.1 129.7 468.9 125.8 467.2 C 121.0 465.2 116.4 462.9 112.2 459.8 C 107.5 456.6 103.7 452.4 99.3 448.8 C 88.9 440.4 80.5 429.3 76.5 416.5 C 74.1 408.9 74.6 400.9 74.6 393.0 C 74.6 357.3 74.6 321.7 74.6 286.0 C 74.7 272.1 81.7 259.1 91.3 249.3 C 102.2 238.4 116.3 230.6 131.5 227.8 M 153.5 230.7 C 147.0 231.4 140.5 231.3 133.9 231.3 C 128.2 231.2 122.5 233.0 117.3 235.3 C 107.5 239.8 98.3 246.0 91.3 254.3 C 85.8 260.6 81.2 267.9 79.1 276.1 C 77.3 283.2 77.9 290.7 77.8 298.0 C 77.8 329.7 77.8 361.3 77.8 393.0 C 77.8 399.5 77.4 406.0 78.8 412.4 C 80.6 420.2 84.4 427.4 89.2 433.8 C 93.1 439.0 97.1 444.5 102.9 447.7 C 109.6 451.5 115.8 456.0 122.9 459.0 C 128.0 461.3 133.6 460.5 139.0 460.5 C 149.0 460.0 159.0 461.9 169.0 461.4 C 602.3 461.4 1035.7 461.4 1469.0 461.4 C 1476.6 461.3 1484.5 462.1 1491.9 459.9 C 1498.0 458.1 1503.7 455.4 1509.0 452.0 C 1515.6 447.8 1522.0 443.1 1526.8 436.8 C 1531.4 430.5 1536.2 424.1 1538.4 416.5 C 1540.8 409.2 1540.3 401.5 1540.3 394.0 C 1540.3 361.3 1540.3 328.7 1540.3 296.0 C 1540.3 290.3 1540.5 284.7 1539.7 279.0 C 1538.9 273.4 1536.7 268.1 1533.7 263.3 C 1523.6 247.3 1507.0 235.6 1488.5 231.5 C 1481.5 229.9 1474.2 230.5 1467.0 230.4 C 1035.0 230.4 603.0 230.4 171.0 230.5 C 165.2 230.4 159.3 230.3 153.5 230.7 Z" />
<path fill="#ffffff" stroke="#ffffff" stroke-width="0.09375" opacity="1.00" d=" M 134.6 260.8 C 137.3 260.1 140.2 260.3 143.0 260.3 C 152.7 260.5 162.3 260.4 172.0 260.4 C 597.3 260.4 1022.7 260.4 1448.0 260.4 C 1457.0 260.4 1466.0 260.5 1475.0 260.3 C 1478.6 260.3 1482.2 260.2 1485.6 261.5 C 1491.7 263.7 1496.9 268.0 1501.4 272.6 C 1505.6 277.0 1509.1 282.1 1511.2 287.8 C 1513.3 293.3 1512.5 299.3 1512.6 305.0 C 1512.6 336.0 1512.6 367.0 1512.6 398.0 C 1512.6 401.3 1512.1 404.6 1510.4 407.4 C 1506.7 413.5 1502.5 419.5 1496.9 423.9 C 1492.5 427.3 1487.6 430.6 1482.0 431.2 C 1477.3 431.7 1472.6 431.4 1468.0 431.4 C 1035.7 431.4 603.3 431.4 171.0 431.4 C 164.9 431.4 158.7 431.3 152.6 431.7 C 147.1 432.0 141.5 432.6 136.0 431.9 C 131.9 431.5 128.4 429.1 125.2 426.8 C 118.9 422.2 113.1 416.6 109.4 409.7 C 107.4 406.1 106.5 402.1 106.5 398.0 C 106.6 363.3 106.6 328.6 106.5 294.0 C 106.4 288.5 108.9 283.4 111.9 279.0 C 117.2 270.6 125.5 264.5 134.6 260.8 M 137.2 273.1 C 130.5 276.8 125.1 282.5 120.6 288.6 C 118.0 292.2 116.2 296.4 116.3 300.9 C 116.3 335.6 116.4 370.4 116.3 405.1 C 116.3 408.1 116.5 411.3 118.0 414.1 C 119.5 417.2 122.3 419.2 125.0 421.1 C 128.4 423.4 131.9 425.8 136.1 426.2 C 141.4 426.7 146.7 426.4 152.0 426.4 C 589.0 426.4 1026.0 426.4 1463.0 426.4 C 1470.1 426.5 1477.1 426.1 1484.2 426.6 C 1045.8 426.6 607.4 426.6 169.0 426.6 C 160.7 426.6 152.3 426.6 144.0 426.5 C 140.8 426.5 137.6 426.5 134.4 427.0 C 137.0 428.6 140.1 428.4 143.0 428.4 C 151.0 428.3 159.0 428.4 167.0 428.4 C 600.3 428.4 1033.7 428.4 1467.0 428.4 C 1471.7 428.3 1476.4 428.6 1481.0 428.2 C 1486.5 427.7 1491.3 424.8 1495.4 421.3 C 1500.3 417.1 1504.4 412.0 1507.1 406.1 C 1509.1 401.7 1509.1 396.7 1509.1 392.0 C 1509.0 377.7 1509.2 363.3 1508.9 349.0 C 1509.2 334.3 1509.1 319.7 1509.0 305.0 C 1509.0 298.9 1509.7 292.4 1507.3 286.6 C 1505.3 281.8 1502.3 277.0 1497.6 274.3 C 1493.6 271.7 1488.8 270.8 1484.0 270.8 C 1043.0 270.8 602.0 270.8 161.0 270.8 C 156.7 270.9 152.3 271.2 148.0 271.3 C 144.3 271.4 140.5 271.3 137.2 273.1 Z" />
<path fill="#ffffff" stroke="#ffffff" stroke-width="0.09375" opacity="1.00" d=" M 317.4 282.2 C 326.7 280.9 336.2 281.6 345.4 283.8 C 354.3 286.1 362.5 290.6 369.6 296.4 C 374.9 300.7 379.0 306.3 383.7 311.3 C 394.9 323.2 399.7 340.0 399.4 356.0 C 398.8 364.5 397.8 373.1 393.8 380.7 C 391.0 386.4 387.8 391.9 383.5 396.5 C 374.3 406.3 362.2 413.9 348.7 416.0 C 336.3 418.1 323.0 418.4 311.1 413.8 C 301.3 409.7 292.8 403.1 285.0 395.9 C 273.2 386.4 264.4 372.6 262.3 357.5 C 259.2 338.4 264.1 317.7 277.2 303.2 C 287.4 291.6 302.0 283.8 317.4 282.2 M 322.5 284.6 C 307.2 286.0 292.2 292.4 281.6 303.6 C 266.9 318.7 260.9 341.8 266.7 362.1 C 269.4 371.9 275.2 380.6 281.7 388.2 C 284.4 391.3 287.5 394.0 290.9 396.1 C 297.7 400.4 304.8 404.2 312.7 406.1 C 324.1 408.6 336.1 407.3 347.3 404.3 C 354.0 402.4 360.1 398.8 365.7 394.7 C 373.1 389.4 378.6 381.8 383.0 374.0 C 388.1 363.1 390.4 350.9 389.1 339.0 C 388.8 332.2 386.7 325.6 383.5 319.5 C 378.5 309.2 370.6 300.3 360.8 294.2 C 349.4 287.3 335.8 283.6 322.5 284.6 Z" />
<path fill="#ffffff" stroke="#ffffff" stroke-width="0.09375" opacity="1.00" d=" M 406.7 282.7 C 415.1 281.9 423.6 282.8 432.0 282.3 C 435.6 282.5 439.8 281.6 442.6 284.4 C 445.3 287.0 448.9 289.8 448.6 293.9 C 448.6 317.0 448.6 340.0 448.6 363.0 C 448.6 368.0 448.2 373.0 449.0 378.0 C 452.3 378.5 455.7 378.4 459.0 378.4 C 471.7 378.3 484.4 378.5 497.1 378.3 C 499.1 378.3 501.3 378.1 503.2 378.8 C 506.0 381.2 508.3 384.1 509.9 387.3 C 510.9 390.7 510.4 394.4 510.5 398.0 C 510.2 404.0 510.9 410.1 510.1 416.1 C 508.4 416.3 506.7 416.4 505.0 416.5 C 476.6 416.4 448.3 416.4 419.9 416.5 C 418.2 416.4 416.3 416.4 414.8 415.3 C 411.9 413.3 409.0 411.1 406.8 408.3 C 405.9 404.3 406.5 400.1 406.4 396.0 C 406.5 363.0 406.4 330.0 406.4 297.0 C 406.5 292.2 406.1 287.5 406.7 282.7 M 411.0 286.1 C 410.1 291.0 410.6 296.0 410.5 301.0 C 410.5 331.0 410.5 361.0 410.5 391.0 C 410.6 396.0 410.2 401.1 410.9 406.1 C 416.3 406.8 421.6 406.3 427.0 406.4 C 449.3 406.4 471.7 406.3 494.0 406.5 C 496.0 406.5 498.0 406.4 500.1 406.1 C 500.7 398.4 500.7 390.6 500.1 382.9 C 497.4 382.4 494.7 382.4 492.0 382.4 C 476.6 382.6 461.3 382.3 445.9 382.6 C 443.9 382.5 441.9 382.6 439.9 382.1 C 438.0 381.2 438.6 378.7 438.3 377.1 C 438.5 349.0 438.3 321.0 438.4 293.0 C 438.4 290.7 438.3 288.4 437.9 286.2 C 433.6 285.4 429.3 285.7 425.0 285.7 C 420.3 285.7 415.6 285.4 411.0 286.1 Z" />
<path fill="#ffffff" stroke="#ffffff" stroke-width="0.09375" opacity="1.00" d=" M 1005.8 282.8 C 1010.5 281.9 1015.3 282.5 1020.0 282.4 C 1025.7 282.6 1031.3 282.1 1037.0 282.4 C 1039.8 282.4 1041.8 284.6 1043.6 286.4 C 1045.7 288.4 1047.9 290.8 1047.6 293.9 C 1047.5 329.6 1047.6 365.3 1047.5 401.0 C 1047.5 406.1 1047.9 411.2 1047.3 416.3 C 1039.2 417.3 1031.1 416.3 1023.0 416.7 C 1019.1 416.5 1014.4 417.6 1011.4 414.6 C 1008.6 412.0 1005.0 409.3 1005.4 405.1 C 1005.5 369.0 1005.4 333.0 1005.4 297.0 C 1005.5 292.3 1004.9 287.5 1005.8 282.8 M 1009.4 285.5 C 1008.5 290.6 1008.9 295.8 1008.9 301.0 C 1008.9 334.0 1008.9 367.0 1008.8 400.0 C 1008.9 402.5 1009.0 405.0 1009.5 407.4 C 1014.0 407.8 1018.5 407.4 1023.0 407.5 C 1027.8 407.4 1032.6 407.8 1037.5 407.4 C 1037.9 403.0 1037.5 398.5 1037.6 394.0 C 1037.6 362.7 1037.6 331.3 1037.6 300.0 C 1037.5 295.3 1037.9 290.5 1037.3 285.7 C 1032.5 285.0 1027.7 285.5 1023.0 285.4 C 1018.5 285.5 1013.9 285.1 1009.4 285.5 Z" />
<path fill="#ffffff" stroke="#ffffff" stroke-width="0.09375" opacity="1.00" d=" M 1109.4 282.2 C 1116.6 281.2 1124.0 281.4 1131.2 282.6 C 1146.4 284.7 1160.3 293.2 1170.1 304.9 C 1175.5 311.2 1181.6 317.3 1185.0 325.0 C 1190.4 336.9 1192.8 350.4 1190.7 363.4 C 1188.1 387.8 1168.6 408.9 1145.1 415.1 C 1132.0 417.9 1118.1 418.7 1105.3 414.6 C 1092.2 410.0 1081.8 400.4 1071.8 391.2 C 1062.9 382.4 1056.4 370.8 1054.4 358.3 C 1053.3 351.8 1052.9 345.0 1053.6 338.4 C 1054.8 328.5 1058.3 318.9 1063.6 310.5 C 1073.7 295.0 1090.9 284.1 1109.4 282.2 M 1107.4 285.7 C 1100.5 286.8 1093.9 289.5 1087.8 292.7 C 1068.7 303.1 1056.3 324.4 1056.6 346.0 C 1056.3 357.1 1059.6 368.1 1065.6 377.3 C 1070.1 384.0 1074.9 390.8 1081.7 395.3 C 1088.8 399.9 1096.4 404.1 1104.7 406.1 C 1113.0 407.9 1121.6 407.8 1130.0 406.3 C 1135.9 405.3 1141.8 404.0 1147.2 401.2 C 1154.8 397.2 1162.1 392.2 1167.4 385.4 C 1173.2 378.0 1178.2 369.7 1180.1 360.4 C 1181.8 352.0 1181.8 343.4 1180.7 335.1 C 1179.5 325.9 1175.1 317.6 1169.9 310.1 C 1160.8 297.4 1146.6 288.8 1131.3 285.8 C 1123.4 284.5 1115.3 284.6 1107.4 285.7 Z" />
<path fill="#ffffff" stroke="#ffffff" stroke-width="0.09375" opacity="1.00" d=" M 1227.6 288.6 C 1238.0 283.8 1249.6 282.1 1261.0 281.6 C 1281.1 282.0 1302.1 288.9 1315.5 304.5 C 1320.9 310.6 1326.7 316.7 1329.5 324.5 C 1332.0 330.7 1331.4 337.5 1331.4 344.0 C 1331.4 363.0 1331.4 382.0 1331.4 401.0 C 1331.4 406.0 1331.8 411.1 1331.1 416.1 C 1325.1 416.9 1319.0 416.3 1313.0 416.4 C 1308.7 416.4 1304.4 416.9 1300.2 416.1 C 1297.7 415.0 1295.7 413.1 1293.8 411.4 C 1292.6 410.1 1291.0 408.8 1290.8 407.0 C 1290.3 403.0 1290.6 399.0 1290.6 395.0 C 1290.7 378.3 1290.6 361.7 1290.6 345.0 C 1290.6 340.5 1291.0 335.9 1290.2 331.5 C 1289.6 327.9 1286.9 324.9 1283.6 323.4 C 1277.3 319.9 1269.9 319.8 1263.0 320.3 C 1257.5 320.7 1252.4 323.1 1247.8 325.9 C 1242.9 328.9 1239.2 334.1 1238.7 340.0 C 1238.3 344.3 1238.6 348.7 1238.6 353.0 C 1238.6 370.0 1238.6 387.0 1238.6 404.0 C 1238.6 408.2 1238.9 412.4 1238.5 416.5 C 1230.0 417.0 1221.5 416.4 1213.0 416.7 C 1209.4 416.6 1205.2 417.4 1202.4 414.6 C 1199.7 412.0 1196.0 409.2 1196.4 405.1 C 1196.5 383.7 1196.4 362.4 1196.5 341.0 C 1196.5 334.8 1195.9 328.5 1197.5 322.5 C 1198.8 317.8 1200.4 313.1 1203.0 309.0 C 1209.0 300.0 1217.6 292.8 1227.6 288.6 M 1236.2 289.1 C 1225.3 292.6 1214.9 298.8 1208.0 308.0 C 1203.3 314.0 1200.1 321.3 1200.3 328.9 C 1200.3 350.6 1200.3 372.3 1200.3 394.0 C 1200.3 398.2 1200.0 402.4 1200.5 406.5 C 1205.0 406.9 1209.5 406.6 1214.0 406.6 C 1218.8 406.5 1223.7 407.0 1228.5 406.5 C 1228.9 402.0 1228.6 397.5 1228.6 393.0 C 1228.6 373.3 1228.7 353.6 1228.6 333.9 C 1228.3 327.5 1232.2 321.9 1236.8 317.8 C 1242.8 312.4 1251.1 310.5 1259.0 310.4 C 1270.1 310.0 1282.3 313.6 1289.2 322.8 C 1292.5 326.3 1293.6 331.3 1293.5 336.0 C 1293.3 357.7 1293.5 379.4 1293.3 401.1 C 1293.3 402.8 1293.4 404.6 1293.7 406.3 C 1298.4 407.0 1303.2 406.6 1308.0 406.6 C 1312.5 406.6 1317.0 406.9 1321.5 406.5 C 1322.0 401.7 1321.6 396.8 1321.6 392.0 C 1321.7 371.0 1321.6 350.0 1321.7 328.9 C 1321.7 325.0 1321.2 321.0 1319.6 317.3 C 1314.6 305.7 1304.3 297.1 1293.0 291.9 C 1284.8 288.4 1276.1 285.6 1267.0 285.3 C 1263.0 285.1 1259.0 285.1 1255.0 285.3 C 1248.5 285.5 1242.3 287.2 1236.2 289.1 Z" />
<path fill="#ffffff" stroke="#ffffff" stroke-width="0.09375" opacity="1.00" d=" M 188.9 284.9 C 194.7 283.0 200.9 282.7 207.0 282.6 C 219.0 282.6 231.0 282.7 243.0 282.6 C 245.3 282.6 247.6 282.5 249.8 283.0 C 252.1 283.9 253.7 285.9 255.4 287.6 C 256.8 289.2 258.4 290.9 258.6 293.1 C 258.9 297.7 258.5 302.4 258.6 307.0 C 258.6 311.7 259.0 316.5 258.3 321.3 C 255.5 321.7 252.8 321.6 250.0 321.6 C 238.4 321.4 226.7 321.6 215.0 321.5 C 210.8 321.4 206.3 321.4 202.5 323.6 C 195.2 327.6 188.9 333.6 184.9 340.9 C 183.4 343.7 182.6 346.8 182.4 349.9 C 182.1 355.6 182.4 361.6 185.4 366.6 C 188.1 371.5 192.9 374.9 198.0 377.0 C 201.8 378.5 206.0 378.4 210.0 378.4 C 221.7 378.3 233.4 378.5 245.1 378.3 C 247.3 378.4 249.8 378.0 251.6 379.5 C 254.1 381.5 256.6 383.8 258.2 386.7 C 259.1 390.3 258.6 394.2 258.6 398.0 C 258.4 404.2 259.0 410.3 258.5 416.5 C 257.0 416.7 255.5 416.7 254.0 416.7 C 238.3 416.6 222.6 416.7 206.9 416.7 C 200.4 416.8 194.4 413.9 188.6 411.4 C 178.8 407.3 170.3 400.6 162.8 393.2 C 154.5 385.6 146.6 377.0 142.8 366.1 C 139.8 357.8 140.6 348.7 140.6 340.0 C 140.6 328.6 145.4 317.4 153.1 309.1 C 158.5 303.4 163.8 297.6 170.4 293.4 C 176.2 289.8 182.4 287.0 188.9 284.9 M 159.1 307.1 C 153.4 312.7 148.9 319.5 146.1 327.0 C 143.5 334.4 143.4 342.3 143.6 350.0 C 143.8 356.9 145.0 363.8 148.1 370.0 C 155.3 384.4 168.3 395.5 183.0 402.0 C 190.9 405.3 199.5 406.5 208.0 406.5 C 218.0 406.4 228.0 406.4 238.0 406.5 C 241.0 406.5 244.1 406.5 247.1 406.1 C 247.7 402.1 247.5 398.0 247.5 394.0 C 247.5 390.0 247.7 386.0 247.1 382.0 C 243.4 381.4 239.7 381.6 236.0 381.6 C 227.0 381.7 218.0 381.6 209.0 381.7 C 204.9 381.7 200.6 381.9 196.9 380.1 C 190.0 376.8 183.8 371.9 179.3 365.7 C 175.9 361.1 172.7 355.9 172.5 350.0 C 172.3 344.5 171.9 338.6 174.5 333.5 C 179.2 324.6 186.4 316.8 195.7 312.8 C 200.9 310.6 206.5 310.5 212.0 310.6 C 221.0 310.7 230.0 310.5 239.0 310.7 C 242.1 310.7 245.2 310.8 248.3 310.3 C 248.9 305.9 248.5 301.4 248.6 297.0 C 248.6 293.3 248.9 289.5 248.2 285.8 C 242.9 284.8 237.4 285.6 232.0 285.4 C 221.1 285.6 210.2 285.0 199.3 285.7 C 184.1 288.1 169.6 295.8 159.1 307.1 Z" />
<path fill="#ffffff" stroke="#ffffff" stroke-width="0.09375" opacity="1.00" d=" M 519.5 283.5 C 523.9 282.2 528.5 282.6 533.0 282.6 C 538.7 282.8 544.4 282.3 550.1 282.7 C 553.9 283.0 556.6 286.2 559.0 288.9 C 560.5 290.5 560.7 292.8 560.7 294.9 C 560.5 317.9 560.7 341.0 560.6 364.0 C 560.6 368.7 560.3 373.4 561.0 378.0 C 564.3 378.5 567.7 378.4 571.0 378.4 C 583.7 378.3 596.4 378.5 609.1 378.3 C 611.1 378.3 613.3 378.1 615.3 378.9 C 617.6 380.4 619.4 382.6 621.1 384.8 C 623.4 387.7 622.6 391.6 622.8 395.0 C 622.4 402.2 623.1 409.4 622.6 416.5 C 618.0 416.9 613.5 416.6 609.0 416.6 C 583.0 416.7 557.0 416.6 530.9 416.7 C 527.5 417.0 525.1 414.3 522.9 412.1 C 521.3 410.4 519.2 408.5 519.1 406.0 C 518.6 401.7 518.9 397.3 518.9 393.0 C 518.9 361.7 518.9 330.3 518.9 299.0 C 518.9 293.8 518.4 288.6 519.5 283.5 M 522.4 285.5 C 521.7 287.2 521.5 289.1 521.4 291.0 C 521.5 327.7 521.5 364.3 521.4 401.0 C 521.6 402.9 521.5 404.9 522.5 406.5 C 523.2 407.6 524.8 407.4 526.0 407.6 C 553.3 407.5 580.7 407.5 608.0 407.6 C 609.4 407.5 610.9 407.5 612.3 407.3 C 613.0 403.2 612.6 399.1 612.7 395.0 C 612.6 390.6 613.1 386.1 612.3 381.7 C 610.2 381.4 608.1 381.3 606.1 381.3 C 590.7 381.6 575.4 381.3 560.0 381.5 C 557.0 381.5 554.0 381.5 551.0 381.0 C 550.3 376.4 550.6 371.7 550.6 367.0 C 550.7 341.6 550.5 316.3 550.7 290.9 C 550.6 289.2 550.6 287.4 550.3 285.7 C 545.6 285.1 540.8 285.5 536.0 285.4 C 531.5 285.5 526.9 285.1 522.4 285.5 Z" />
<path fill="#ffffff" stroke="#ffffff" stroke-width="0.09375" opacity="1.00" d=" M 671.9 284.9 C 680.3 282.2 689.3 282.7 698.0 282.6 C 709.4 282.7 720.7 282.5 732.1 282.6 C 735.6 282.5 738.2 285.1 740.5 287.5 C 742.0 289.1 743.6 290.8 743.9 293.1 C 744.4 297.0 744.1 301.0 744.1 305.0 C 744.0 310.0 744.5 315.0 743.7 319.9 C 740.9 320.6 737.9 320.5 735.0 320.5 C 723.3 320.3 711.7 320.5 700.0 320.3 C 696.4 320.4 692.7 320.1 689.4 321.6 C 685.1 323.4 681.0 325.9 677.9 329.5 C 693.3 329.6 708.7 329.6 724.1 329.5 C 726.1 329.6 728.4 329.4 730.1 330.9 C 732.5 332.9 734.9 335.2 736.1 338.2 C 737.0 342.7 736.4 347.4 736.5 352.0 C 736.3 358.0 737.0 364.0 736.1 370.0 C 732.7 370.5 729.3 370.4 726.0 370.4 C 710.6 370.3 695.3 370.4 679.9 370.4 C 676.7 370.5 674.1 368.2 672.0 366.0 C 670.4 364.3 668.8 362.4 668.6 360.0 C 668.1 354.3 668.9 348.6 668.5 342.9 C 667.0 344.3 665.5 345.9 665.2 348.1 C 664.0 354.3 664.6 360.9 667.5 366.6 C 669.8 371.1 674.2 374.0 678.7 376.3 C 683.1 378.5 688.2 378.4 693.0 378.4 C 705.7 378.3 718.4 378.5 731.1 378.3 C 732.8 378.4 734.6 378.2 736.2 378.9 C 738.6 380.5 740.4 382.6 742.3 384.7 C 743.2 385.7 744.3 386.8 744.4 388.3 C 744.9 392.5 744.5 396.8 744.5 401.0 C 744.4 406.2 744.8 411.3 744.5 416.5 C 740.3 416.9 736.2 416.6 732.0 416.6 C 718.0 416.6 703.9 416.6 689.9 416.7 C 683.4 416.8 677.4 413.9 671.6 411.4 C 662.9 407.8 655.1 402.2 648.3 395.7 C 643.1 390.6 637.5 385.7 633.2 379.8 C 629.4 374.6 626.2 368.7 624.7 362.4 C 623.4 357.0 623.5 351.5 623.5 346.0 C 623.5 340.3 623.4 334.4 625.0 328.8 C 627.2 321.0 631.4 313.8 637.0 308.0 C 642.0 303.0 646.8 297.6 652.8 293.8 C 658.7 290.0 665.2 287.1 671.9 284.9 M 681.5 285.8 C 664.1 288.6 648.3 298.6 637.3 312.3 C 633.0 317.7 629.8 324.0 627.7 330.6 C 625.9 336.2 626.4 342.2 626.3 348.0 C 626.2 353.0 626.4 358.1 628.1 362.9 C 633.0 377.7 644.2 389.5 657.1 397.8 C 666.5 403.1 677.2 406.3 688.0 406.4 C 699.6 406.5 711.3 406.3 723.0 406.5 C 726.3 406.5 729.7 406.6 733.0 406.0 C 733.7 402.1 733.5 398.0 733.5 394.0 C 733.5 390.0 733.7 386.0 733.0 382.1 C 729.4 381.4 725.7 381.6 722.0 381.6 C 712.0 381.7 702.0 381.5 692.0 381.7 C 688.1 381.7 684.2 381.8 680.6 380.4 C 674.6 378.2 669.5 374.4 665.2 369.8 C 661.0 365.4 657.4 360.3 655.7 354.4 C 654.0 348.1 654.3 341.1 657.1 335.1 C 660.1 328.6 664.9 323.0 670.3 318.3 C 673.4 315.5 677.0 313.2 681.0 312.0 C 686.2 310.3 691.7 310.6 697.0 310.6 C 706.3 310.7 715.7 310.5 725.0 310.7 C 728.1 310.7 731.2 310.8 734.3 310.3 C 734.8 306.2 734.5 302.1 734.6 298.0 C 734.5 293.9 734.8 289.8 734.3 285.7 C 731.5 285.3 728.8 285.4 726.0 285.4 C 716.4 285.5 706.7 285.4 697.0 285.4 C 691.8 285.5 686.6 285.1 681.5 285.8 M 671.3 332.3 C 670.5 336.8 670.9 341.4 670.9 346.0 C 671.0 350.8 670.7 355.7 671.4 360.5 C 674.3 360.8 677.1 360.7 680.0 360.6 C 695.5 360.4 711.1 360.8 726.6 360.5 C 727.2 355.7 726.8 350.8 726.9 346.0 C 726.8 341.5 727.2 336.9 726.6 332.3 C 721.1 331.5 715.5 332.1 710.0 332.1 C 702.7 332.1 695.3 332.1 688.0 332.1 C 682.4 332.1 676.8 331.4 671.3 332.3 Z" />
<path fill="#ffffff" stroke="#ffffff" stroke-width="0.09375" opacity="1.00" d=" M 793.5 285.5 C 799.7 283.3 806.4 282.7 813.0 282.6 C 825.3 282.6 837.7 282.7 850.0 282.6 C 852.9 282.6 856.3 282.3 858.7 284.3 C 860.9 286.2 863.2 288.3 864.1 291.1 C 864.9 295.4 864.4 299.7 864.5 304.0 C 864.4 309.3 864.9 314.7 864.1 320.0 C 858.7 320.8 853.3 320.4 848.0 320.4 C 838.6 320.5 829.3 320.4 819.9 320.4 C 813.9 320.3 808.5 323.4 803.7 326.8 C 796.7 331.7 791.4 339.1 789.2 347.4 C 788.0 351.8 788.4 356.6 789.9 360.9 C 791.2 364.9 792.9 369.0 796.2 371.8 C 798.7 374.1 801.6 375.9 804.8 377.2 C 808.6 378.9 812.9 378.7 817.0 378.7 C 827.3 378.5 837.7 378.7 848.0 378.5 C 850.6 378.5 853.3 378.4 855.8 378.9 C 857.9 379.6 859.5 381.3 861.1 382.9 C 862.6 384.6 864.3 386.5 864.4 389.0 C 864.8 393.3 864.4 397.7 864.5 402.0 C 864.4 406.7 864.8 411.4 864.1 416.1 C 860.8 416.6 857.4 416.5 854.0 416.5 C 846.3 416.4 838.7 416.5 831.0 416.4 C 822.8 416.3 814.4 417.1 806.3 415.0 C 797.3 413.1 788.8 409.1 781.3 403.6 C 777.4 400.7 774.1 396.9 770.3 393.8 C 761.4 386.8 754.0 377.7 749.8 367.2 C 747.5 361.8 747.4 355.8 747.5 350.0 C 747.6 344.7 747.3 339.3 747.7 334.0 C 748.3 327.1 751.3 320.7 755.0 315.0 C 764.1 301.3 778.0 290.9 793.5 285.5 M 798.3 287.4 C 781.5 292.2 766.1 303.0 757.1 318.1 C 753.3 324.4 750.2 331.4 750.2 338.9 C 750.2 345.5 749.8 352.1 750.7 358.6 C 752.2 366.0 755.7 372.8 760.1 378.9 C 768.5 389.8 779.8 398.6 792.8 403.2 C 799.6 405.6 806.8 406.5 814.0 406.5 C 824.3 406.4 834.7 406.4 845.0 406.5 C 848.0 406.5 851.0 406.5 854.0 406.0 C 854.8 398.4 854.7 390.6 854.1 382.9 C 848.1 382.2 842.0 382.7 836.0 382.6 C 827.0 382.5 818.0 382.8 809.0 382.6 C 813.6 382.0 818.3 382.4 823.0 382.4 C 830.7 382.4 838.3 382.3 846.0 382.5 C 848.8 382.5 851.6 382.3 854.3 381.7 C 844.8 381.1 835.4 381.6 826.0 381.4 C 817.2 381.2 807.7 382.7 799.7 378.2 C 791.6 373.6 785.5 366.1 781.0 358.0 C 778.1 352.9 777.9 346.8 778.4 341.0 C 779.0 336.3 781.6 332.1 784.2 328.2 C 788.7 322.0 794.3 316.3 801.5 313.3 C 806.0 311.3 811.0 310.4 816.0 310.5 C 826.7 310.7 837.4 310.5 848.1 310.7 C 850.4 310.7 852.9 310.8 855.2 310.2 C 855.9 306.2 855.5 302.1 855.6 298.0 C 855.5 294.1 855.8 290.3 855.5 286.4 C 853.2 285.3 850.5 285.4 848.1 285.3 C 835.7 285.5 823.3 285.4 810.9 285.4 C 806.6 285.3 802.4 286.1 798.3 287.4 Z" />
<path fill="#ffffff" stroke="#ffffff" stroke-width="0.09375" opacity="1.00" d=" M 874.3 283.2 C 878.8 282.1 883.4 282.7 888.0 282.6 C 920.0 282.6 952.1 282.7 984.1 282.6 C 986.6 282.5 989.2 283.2 991.0 285.0 C 993.6 287.5 996.9 290.1 997.2 294.0 C 997.5 298.6 997.2 303.3 997.3 308.0 C 997.2 312.5 997.6 317.0 996.6 321.5 C 990.1 321.8 983.5 321.4 977.0 321.5 C 970.3 321.7 963.6 321.0 956.9 321.9 C 956.2 326.6 956.6 331.3 956.5 336.0 C 956.6 358.7 956.5 381.3 956.6 404.0 C 956.5 408.2 956.8 412.3 956.5 416.5 C 949.3 417.0 942.2 416.4 935.0 416.7 C 930.9 416.6 926.6 417.2 922.6 416.2 C 919.4 414.5 916.8 411.8 915.0 408.7 C 914.0 404.9 914.6 400.9 914.5 397.0 C 914.6 376.0 914.5 355.0 914.5 334.0 C 914.5 329.6 914.9 325.1 914.3 320.7 C 904.2 319.8 894.0 320.8 883.9 320.4 C 879.9 320.5 877.0 317.3 874.5 314.5 C 871.7 311.3 872.7 306.8 872.6 303.0 C 872.9 296.7 872.1 290.4 873.0 284.2 C 873.3 284.0 874.0 283.4 874.3 283.2 M 875.8 285.8 C 875.1 289.5 875.4 293.3 875.4 297.0 C 875.5 301.4 875.1 305.9 875.7 310.3 C 879.1 310.9 882.6 310.7 886.0 310.7 C 892.7 310.5 899.3 310.7 906.0 310.6 C 909.6 310.6 913.3 310.4 916.9 311.1 C 917.8 315.7 917.4 320.4 917.4 325.0 C 917.3 350.7 917.5 376.4 917.3 402.1 C 917.3 403.8 917.4 405.5 917.7 407.2 C 923.1 407.9 928.6 407.4 934.0 407.5 C 937.7 407.5 941.5 407.9 945.1 407.1 C 946.9 406.1 946.3 403.7 946.6 402.0 C 946.4 373.7 946.6 345.3 946.5 317.0 C 946.5 315.0 946.6 313.0 946.9 311.0 C 960.4 309.9 974.0 311.2 987.5 310.5 C 987.8 306.3 987.5 302.2 987.6 298.0 C 987.6 293.9 987.9 289.8 987.3 285.7 C 982.5 285.1 977.7 285.5 973.0 285.4 C 945.3 285.4 917.7 285.4 890.0 285.4 C 885.3 285.5 880.5 285.0 875.8 285.8 Z" />
<path fill="#ffffff" stroke="#ffffff" stroke-width="0.09375" opacity="1.00" d=" M 1361.5 287.6 C 1367.4 285.2 1373.6 283.7 1380.0 283.4 C 1405.0 282.0 1430.0 283.0 1455.0 282.6 C 1458.3 282.7 1462.0 282.1 1464.7 284.3 C 1466.9 286.2 1469.2 288.3 1470.1 291.1 C 1470.9 295.4 1470.4 299.7 1470.5 304.0 C 1470.3 309.3 1470.9 314.7 1470.1 320.0 C 1465.4 320.8 1460.7 320.4 1456.0 320.4 C 1440.0 320.4 1424.0 320.5 1408.0 320.4 C 1400.8 320.4 1393.4 320.9 1386.8 323.7 C 1384.9 324.6 1382.4 325.4 1382.0 327.7 C 1387.3 330.2 1393.3 329.5 1399.0 329.6 C 1408.7 329.6 1418.5 329.0 1428.1 330.8 C 1435.6 332.2 1443.3 334.1 1449.8 338.2 C 1454.3 340.9 1457.5 345.2 1461.1 349.0 C 1463.9 351.9 1466.9 354.8 1468.5 358.6 C 1471.8 366.5 1472.1 375.2 1470.9 383.5 C 1470.0 390.1 1467.9 396.6 1464.0 402.0 C 1461.1 405.9 1456.9 408.6 1452.6 410.7 C 1444.1 414.9 1434.5 416.4 1425.1 416.6 C 1401.0 416.7 1377.0 416.6 1352.9 416.7 C 1348.5 417.0 1345.5 413.2 1342.6 410.4 C 1339.7 408.2 1340.5 404.2 1340.4 401.0 C 1340.7 393.5 1340.1 386.0 1340.5 378.5 C 1345.0 378.1 1349.5 378.4 1354.0 378.4 C 1369.3 378.4 1384.7 378.4 1400.0 378.4 C 1406.5 378.3 1413.1 378.4 1419.6 377.4 C 1423.1 376.8 1426.8 375.9 1429.6 373.5 C 1429.7 372.6 1429.6 371.7 1429.4 370.8 C 1420.6 369.7 1411.7 370.8 1403.0 370.3 C 1393.4 369.7 1383.9 368.6 1374.6 366.2 C 1367.9 364.5 1361.7 361.0 1356.7 356.3 C 1352.5 352.2 1347.8 348.4 1344.4 343.6 C 1341.2 339.0 1340.4 333.3 1340.2 327.8 C 1340.0 322.3 1340.2 316.7 1341.4 311.3 C 1343.7 300.8 1351.5 291.6 1361.5 287.6 M 1377.0 287.1 C 1369.5 288.0 1362.1 290.4 1355.9 294.9 C 1350.2 299.1 1346.2 305.5 1344.4 312.4 C 1343.2 316.8 1343.2 321.5 1343.2 326.0 C 1343.2 330.1 1343.4 334.2 1345.1 338.0 C 1347.4 343.3 1351.5 347.7 1356.3 350.8 C 1362.8 355.0 1370.3 357.8 1378.1 358.7 C 1385.4 359.4 1392.6 360.7 1400.0 360.6 C 1409.3 360.7 1419.0 359.6 1427.9 362.9 C 1432.0 364.3 1434.6 369.4 1432.7 373.5 C 1431.4 376.9 1427.8 378.5 1424.5 379.5 C 1417.5 381.3 1410.2 381.7 1403.0 381.7 C 1386.0 381.6 1369.0 381.7 1352.0 381.6 C 1349.4 381.6 1346.9 381.6 1344.4 382.2 C 1344.0 390.1 1344.0 398.0 1344.4 405.8 C 1349.2 406.9 1354.1 406.4 1359.0 406.4 C 1374.7 406.4 1390.3 406.4 1406.0 406.5 C 1412.3 406.5 1418.6 405.5 1425.0 405.4 C 1433.0 405.2 1440.8 402.6 1447.6 398.6 C 1452.9 395.5 1456.3 390.3 1458.9 384.9 C 1461.6 379.4 1461.7 373.0 1461.7 367.0 C 1461.7 362.2 1461.4 357.1 1459.1 352.8 C 1456.5 347.9 1452.6 343.9 1448.0 341.0 C 1440.4 336.5 1431.7 333.9 1423.0 333.6 C 1416.6 333.3 1410.3 332.4 1404.0 332.5 C 1396.7 332.7 1389.4 332.4 1382.1 331.5 C 1379.2 331.1 1376.2 330.1 1374.1 327.9 C 1371.4 325.4 1370.9 320.9 1372.8 317.8 C 1374.4 315.2 1377.5 314.0 1380.3 313.1 C 1387.8 311.0 1395.6 311.9 1403.2 311.0 C 1409.8 310.3 1416.4 310.6 1423.0 310.6 C 1431.3 310.6 1439.7 310.6 1448.0 310.6 C 1452.4 310.6 1456.9 311.0 1461.2 310.2 C 1461.8 306.2 1461.5 302.1 1461.6 298.0 C 1461.5 293.9 1461.8 289.8 1461.2 285.8 C 1456.5 285.0 1451.7 285.5 1447.0 285.4 C 1430.0 285.4 1413.0 285.5 1396.0 285.4 C 1389.6 285.4 1383.3 286.3 1377.0 287.1 Z" />
<path fill="#ffffff" stroke="#ffffff" stroke-width="0.09375" opacity="1.00" d=" M 319.5 310.8 C 325.5 309.9 331.8 309.7 337.7 311.5 C 346.3 314.9 354.1 321.4 358.1 329.9 C 364.0 343.0 362.4 359.8 352.6 370.6 C 346.0 377.6 336.7 382.3 327.0 382.0 C 313.4 382.2 300.9 372.8 295.3 360.7 C 291.0 350.4 291.4 337.9 297.2 328.2 C 302.0 319.8 310.4 313.7 319.5 310.8 M 328.5 320.8 C 316.1 324.4 305.7 334.7 302.5 347.3 C 301.0 355.4 301.8 364.9 307.7 371.3 C 315.2 378.2 326.6 380.5 336.3 377.3 C 346.8 373.9 355.2 364.6 357.7 353.8 C 359.6 344.4 358.1 333.8 351.7 326.3 C 345.7 320.5 336.5 319.2 328.5 320.8 Z" />
<path fill="#ffffff" stroke="#ffffff" stroke-width="0.09375" opacity="1.00" d=" M 1111.5 310.8 C 1117.5 309.9 1123.8 309.7 1129.7 311.5 C 1139.8 315.5 1148.6 323.7 1151.7 334.3 C 1155.6 346.6 1153.4 360.9 1144.6 370.6 C 1137.6 378.1 1127.3 382.8 1117.0 381.9 C 1104.3 381.3 1093.1 372.5 1087.6 361.4 C 1083.0 350.9 1083.3 338.1 1089.2 328.2 C 1094.0 319.8 1102.4 313.7 1111.5 310.8 M 1120.5 320.8 C 1111.0 323.6 1102.5 330.1 1097.9 338.9 C 1093.6 345.9 1092.9 354.5 1094.9 362.3 C 1096.0 366.3 1098.0 370.1 1101.3 372.7 C 1107.1 377.0 1114.4 379.3 1121.6 378.6 C 1136.6 377.5 1149.5 364.1 1150.3 349.1 C 1150.9 341.0 1149.0 332.5 1143.7 326.3 C 1137.7 320.5 1128.5 319.2 1120.5 320.8 Z" />
</svg>
