<?xml version="1.0" encoding="UTF-8" ?>
<!DOCTYPE svg PUBLIC "-//W3C//DTD SVG 1.1//EN" "http://www.w3.org/Graphics/SVG/1.1/DTD/svg11.dtd">
<svg width="960pt" height="360pt" viewBox="0 0 960 360" version="1.1" xmlns="http://www.w3.org/2000/svg">
<path fill="#ffffff" stroke="#ffffff" stroke-width="0.09375" opacity="1.00" d=" M 179.0 93.8 C 183.0 91.6 186.5 88.6 190.8 87.1 C 193.2 87.3 195.1 88.8 197.1 89.8 C 210.0 97.7 223.4 104.6 236.3 112.5 C 245.1 117.4 253.7 122.5 262.4 127.5 C 265.7 129.5 269.6 130.9 272.3 133.7 C 272.9 137.4 272.6 141.2 272.6 145.0 C 272.7 164.7 272.8 184.3 272.9 204.0 C 273.0 211.5 273.2 219.1 272.8 226.6 C 250.7 239.3 228.6 252.0 206.5 264.7 C 201.6 267.3 197.1 270.7 191.9 272.7 C 190.2 272.5 188.6 271.5 187.1 270.7 C 177.4 265.1 167.8 259.2 157.9 253.8 C 142.1 244.7 126.3 235.5 110.4 226.6 C 110.1 204.8 110.5 182.9 110.6 161.0 C 110.7 151.7 110.6 142.4 110.8 133.1 C 125.6 124.8 140.1 116.0 154.9 107.7 C 162.9 103.0 170.9 98.3 179.0 93.8 M 173.5 104.2 C 156.5 113.6 139.9 123.5 123.0 132.9 C 145.7 146.2 168.4 159.4 191.2 172.5 C 194.5 170.8 197.8 169.0 201.0 167.1 C 197.8 165.3 194.6 163.4 191.3 161.6 C 190.9 139.2 191.5 116.8 191.0 94.3 C 184.9 97.2 179.3 101.0 173.5 104.2 M 247.4 148.5 C 235.8 155.2 224.1 161.6 212.6 168.4 C 206.9 171.8 201.0 174.8 195.4 178.3 C 195.4 206.8 195.4 235.3 195.4 263.9 C 215.7 252.2 236.2 240.9 256.5 229.4 C 260.1 227.2 264.1 225.8 267.1 222.8 C 267.5 220.2 267.4 217.6 267.4 215.0 C 267.1 189.2 267.5 163.4 267.0 137.6 C 260.3 140.9 253.9 144.9 247.4 148.5 Z" />
<path fill="#ffffff" stroke="#ffffff" stroke-width="0.09375" opacity="1.00" d=" M 312.8 135.1 C 331.6 134.9 350.4 134.9 369.1 135.0 C 369.2 139.2 369.2 143.5 369.0 147.7 C 354.8 147.7 340.5 147.5 326.2 147.8 C 326.2 155.9 326.2 164.1 326.2 172.3 C 335.4 172.6 344.7 172.4 353.9 172.4 C 354.1 176.6 354.1 180.8 354.0 185.1 C 344.7 185.2 335.5 185.1 326.2 185.2 C 326.1 198.7 326.4 212.2 326.1 225.7 C 321.7 225.6 317.3 225.6 312.9 225.7 C 312.7 220.8 312.7 215.9 312.7 211.0 C 312.8 185.7 312.6 160.4 312.8 135.1 Z" />
<path fill="#ffffff" stroke="#ffffff" stroke-width="0.09375" opacity="1.00" d=" M 385.2 135.1 C 389.7 134.9 394.2 135.0 398.7 135.1 C 398.6 156.7 398.7 178.4 398.6 200.0 C 398.6 204.2 398.6 208.5 398.8 212.7 C 413.5 212.7 428.2 212.5 442.9 212.8 C 442.8 217.1 442.8 221.4 442.8 225.7 C 423.6 225.6 404.5 225.7 385.3 225.6 C 385.1 195.4 385.3 165.2 385.2 135.1 Z" />
<path fill="#ffffff" stroke="#ffffff" stroke-width="0.09375" opacity="1.00" d=" M 486.8 135.2 C 491.7 134.9 496.5 134.9 501.4 135.2 C 507.6 154.5 515.2 173.4 521.7 192.6 C 525.8 203.6 529.8 214.6 533.7 225.6 C 529.3 225.6 524.8 225.9 520.4 225.5 C 518.9 223.7 518.2 221.5 517.4 219.3 C 515.8 214.4 514.1 209.5 512.2 204.7 C 502.5 204.7 492.7 204.7 483.0 204.6 C 480.7 204.6 478.4 204.6 476.2 205.0 C 474.7 207.1 473.9 209.8 473.0 212.3 C 471.6 216.7 470.0 221.1 468.5 225.6 C 463.7 225.7 459.0 225.7 454.2 225.6 C 458.3 214.6 462.3 203.7 466.3 192.7 C 470.4 180.3 475.4 168.1 479.6 155.7 C 482.0 148.9 484.8 142.2 486.8 135.2 M 485.7 176.8 C 483.9 182.1 481.6 187.3 480.4 192.8 C 489.6 192.8 498.8 192.8 508.1 192.7 C 503.4 179.1 498.3 165.6 494.0 151.8 C 491.9 160.4 488.5 168.5 485.7 176.8 Z" />
<path fill="#ffffff" stroke="#ffffff" stroke-width="0.09375" opacity="1.00" d=" M 534.6 135.0 C 556.1 135.0 577.7 134.9 599.2 135.0 C 599.2 139.3 599.2 143.5 599.1 147.8 C 590.6 147.8 582.2 147.7 573.7 147.8 C 573.5 173.8 573.7 199.7 573.7 225.7 C 569.2 225.6 564.7 225.6 560.2 225.7 C 560.0 199.7 560.3 173.8 560.0 147.9 C 551.6 147.7 543.1 147.8 534.7 147.8 C 534.5 143.5 534.5 139.3 534.6 135.0 Z" />
<path fill="#ffffff" stroke="#ffffff" stroke-width="0.09375" opacity="1.00" d=" M 616.7 135.0 C 627.5 134.9 638.3 135.0 649.0 135.0 C 655.5 135.0 662.2 135.1 668.2 137.8 C 674.2 140.4 678.8 145.6 681.2 151.7 C 682.9 156.1 683.1 161.1 682.7 165.8 C 682.0 175.6 675.3 184.7 666.2 188.1 C 661.0 190.1 655.5 190.3 650.0 190.3 C 643.5 190.3 636.9 190.3 630.3 190.3 C 630.2 202.1 630.4 213.8 630.2 225.5 C 625.7 225.6 621.2 225.6 616.7 225.5 C 616.6 195.3 616.6 165.2 616.7 135.0 M 630.3 147.9 C 630.3 157.7 630.3 167.5 630.3 177.3 C 637.9 177.6 645.5 177.5 653.0 177.5 C 656.9 177.5 661.0 176.7 664.0 174.1 C 669.4 169.7 670.5 161.4 667.5 155.2 C 665.3 150.6 660.1 147.9 655.1 147.9 C 646.8 147.6 638.6 147.7 630.3 147.9 Z" />
<path fill="#ffffff" stroke="#ffffff" stroke-width="0.09375" opacity="1.00" d=" M 715.0 135.0 C 719.7 134.9 724.5 134.9 729.2 135.2 C 736.1 156.6 744.5 177.4 751.6 198.6 C 754.8 207.7 758.3 216.6 761.6 225.6 C 756.9 225.6 752.1 225.7 747.4 225.6 C 744.8 218.9 743.2 211.9 740.4 205.4 C 737.0 204.2 733.4 204.8 730.0 204.7 C 721.7 204.9 713.4 204.4 705.1 204.8 C 703.4 204.6 703.0 206.6 702.5 207.7 C 700.3 213.7 698.3 219.8 695.9 225.7 C 691.3 225.6 686.6 225.7 682.0 225.6 C 686.1 215.6 689.2 205.3 693.1 195.2 C 697.4 184.1 700.9 172.6 705.3 161.5 C 708.7 152.7 711.4 143.7 715.0 135.0 M 721.7 152.0 C 718.2 166.0 712.1 179.1 707.9 192.8 C 717.2 192.8 726.6 192.9 736.0 192.7 C 731.2 179.1 726.3 165.6 721.7 152.0 Z" />
<path fill="#ffffff" stroke="#ffffff" stroke-width="0.09375" opacity="1.00" d=" M 778.3 135.1 C 782.9 135.0 787.4 134.9 792.0 135.0 C 792.1 149.7 791.8 164.3 792.1 179.0 C 799.0 169.3 806.8 160.4 814.0 151.0 C 817.2 146.9 820.6 142.9 823.7 138.8 C 824.8 137.6 825.8 136.0 827.3 135.3 C 832.2 134.5 837.2 135.0 842.2 135.2 C 838.6 139.7 835.0 144.0 831.6 148.6 C 826.9 154.8 821.6 160.5 817.2 166.9 C 827.5 186.7 839.2 205.7 849.0 225.7 C 843.9 225.7 838.7 225.7 833.5 225.6 C 829.1 217.4 824.6 209.2 820.2 201.1 C 816.2 193.5 812.6 185.8 808.0 178.6 C 803.8 183.0 800.2 187.8 796.3 192.3 C 794.9 193.9 793.4 195.5 792.4 197.4 C 791.8 199.5 792.0 201.8 791.9 204.0 C 792.0 211.2 792.1 218.4 791.9 225.7 C 787.4 225.6 782.9 225.6 778.3 225.7 C 778.4 195.5 778.4 165.3 778.3 135.1 Z" />
</svg>
