<?xml version="1.0" encoding="UTF-8" ?>
<!DOCTYPE svg PUBLIC "-//W3C//DTD SVG 1.1//EN" "http://www.w3.org/Graphics/SVG/1.1/DTD/svg11.dtd">
<svg width="1419pt" height="487pt" viewBox="0 0 1419 487" version="1.1" xmlns="http://www.w3.org/2000/svg">
<path fill="#ffffff" stroke="#ffffff" stroke-width="0.09375" opacity="1.00" d=" M 96.4 84.5 C 99.2 84.1 102.1 84.0 105.0 83.9 C 498.6 83.9 892.3 83.9 1286.0 83.9 C 1296.3 84.0 1306.9 83.3 1317.0 86.1 C 1341.1 92.4 1362.7 108.0 1376.0 129.0 C 1380.4 136.0 1383.6 143.7 1385.2 151.7 C 1386.8 159.7 1386.2 167.9 1386.3 176.0 C 1386.3 223.0 1386.3 270.0 1386.3 317.0 C 1386.2 324.8 1386.7 332.6 1385.3 340.3 C 1383.3 350.6 1378.7 360.2 1372.8 368.8 C 1359.6 388.0 1339.8 402.8 1317.4 409.4 C 1306.6 412.7 1295.2 411.9 1284.0 412.0 C 896.0 412.0 508.0 412.0 120.0 412.0 C 112.5 411.9 105.0 412.3 97.5 411.4 C 87.6 410.1 78.1 406.5 69.3 401.7 C 50.8 391.6 35.1 376.0 25.8 357.1 C 22.2 349.5 19.7 341.4 19.3 333.0 C 19.0 327.7 19.2 322.3 19.2 317.0 C 19.2 269.3 19.2 221.7 19.2 174.0 C 19.2 166.7 18.8 159.3 20.1 152.1 C 21.5 145.2 24.0 138.6 27.4 132.4 C 39.1 112.0 58.4 96.4 80.4 88.4 C 85.6 86.6 90.9 85.2 96.4 84.5 M 102.4 127.6 C 95.9 128.5 90.0 131.9 84.7 135.6 C 75.6 142.3 67.9 151.0 63.2 161.3 C 61.0 166.2 60.2 171.6 60.2 176.9 C 60.3 220.3 60.2 263.6 60.2 307.0 C 60.3 315.5 59.3 324.4 62.6 332.4 C 66.9 343.2 74.7 352.2 83.7 359.3 C 89.5 363.6 96.1 367.5 103.4 368.3 C 109.3 369.0 115.1 368.6 121.0 368.6 C 509.0 368.6 897.0 368.6 1285.0 368.6 C 1290.6 368.6 1296.2 368.9 1301.7 368.4 C 1308.3 367.7 1314.3 364.4 1319.7 360.7 C 1329.4 353.8 1337.7 344.5 1342.4 333.5 C 1344.7 328.3 1345.3 322.6 1345.3 317.0 C 1345.2 270.0 1345.3 223.0 1345.3 176.0 C 1345.4 165.3 1340.1 155.5 1333.5 147.5 C 1327.1 140.1 1319.4 133.5 1310.3 129.7 C 1302.7 126.3 1294.1 127.4 1286.0 127.3 C 903.7 127.3 521.3 127.3 139.0 127.3 C 130.7 127.3 122.3 127.4 114.0 127.2 C 110.1 127.2 106.2 127.1 102.4 127.6 Z" />
<path fill="#ffffff" stroke="#ffffff" stroke-width="0.09375" opacity="1.00" d=" M 762.6 170.5 C 793.2 156.7 830.2 157.3 860.0 172.9 C 870.8 178.6 880.4 186.7 887.3 196.8 C 893.1 205.3 896.0 215.6 896.0 225.9 C 895.9 256.0 896.0 286.0 895.9 316.0 C 895.9 321.9 896.3 327.9 895.8 333.8 C 888.9 334.4 881.9 333.9 875.0 334.0 C 868.4 334.0 861.8 334.4 855.2 333.8 C 854.5 325.2 855.2 316.6 855.0 308.0 C 854.7 299.3 855.4 290.7 854.8 282.0 C 852.2 281.8 849.6 281.6 847.0 281.6 C 829.3 281.8 811.7 281.6 794.0 281.7 C 789.1 281.7 784.1 281.9 779.2 281.6 C 778.3 275.1 778.8 268.5 778.8 262.0 C 778.9 255.0 778.4 248.0 779.1 241.0 C 781.7 240.8 784.3 240.6 787.0 240.6 C 804.7 240.8 822.3 240.6 840.0 240.7 C 844.9 240.7 849.8 240.9 854.7 240.6 C 855.5 233.9 855.2 226.9 852.3 220.7 C 849.3 214.4 844.2 209.3 838.5 205.5 C 821.3 194.5 797.9 193.8 780.3 204.3 C 773.4 208.3 767.9 214.6 764.8 221.9 C 762.4 227.6 763.3 234.0 763.2 240.0 C 763.3 265.7 763.2 291.3 763.2 317.0 C 763.2 322.6 763.5 328.2 762.9 333.8 C 756.3 334.4 749.6 334.0 743.0 334.0 C 736.1 333.9 729.2 334.4 722.4 333.8 C 721.9 328.2 722.2 322.6 722.2 317.0 C 722.2 290.7 722.2 264.3 722.2 238.0 C 722.2 232.3 722.0 226.7 722.4 221.1 C 723.1 210.7 727.3 200.8 733.7 192.7 C 741.3 183.0 751.5 175.6 762.6 170.5 Z" />
<path fill="#ffffff" stroke="#ffffff" stroke-width="0.09375" opacity="1.00" d=" M 121.4 162.1 C 127.9 161.4 134.5 161.8 141.0 161.8 C 148.0 161.9 155.0 161.4 161.9 162.1 C 162.6 168.4 162.2 174.7 162.2 181.0 C 162.2 214.3 162.2 247.7 162.2 281.0 C 162.2 286.6 161.9 292.1 162.4 297.7 C 164.2 297.8 166.1 298.0 167.9 298.0 C 190.0 297.8 212.0 297.9 234.0 297.9 C 239.0 297.8 244.0 298.3 249.0 297.8 C 249.3 297.5 250.1 297.1 250.4 296.9 C 249.0 296.6 247.5 296.5 246.0 296.5 C 218.4 296.6 190.7 296.5 163.0 296.6 C 167.3 295.8 171.7 296.7 176.0 296.4 C 195.0 296.5 214.0 296.4 233.0 296.5 C 238.8 296.5 244.7 296.1 250.5 296.6 C 251.5 302.7 250.9 308.9 251.0 315.0 C 250.9 321.3 251.4 327.6 250.8 333.8 C 244.9 334.4 238.9 334.0 233.0 334.0 C 201.7 334.0 170.3 334.0 139.0 334.0 C 133.1 334.0 127.2 334.4 121.4 333.8 C 120.9 328.5 121.2 323.2 121.2 318.0 C 121.2 271.3 121.2 224.7 121.2 178.0 C 121.2 172.7 120.9 167.4 121.4 162.1 Z" />
<path fill="#ffffff" stroke="#ffffff" stroke-width="0.09375" opacity="1.00" d=" M 271.4 162.1 C 277.9 161.4 284.5 161.8 291.0 161.8 C 298.0 161.9 305.0 161.4 311.9 162.1 C 312.6 168.0 312.2 174.0 312.2 180.0 C 312.2 225.3 312.2 270.7 312.2 316.0 C 312.2 321.9 312.6 327.9 311.9 333.8 C 305.3 334.4 298.6 334.0 292.0 334.0 C 285.1 333.9 278.2 334.4 271.4 333.8 C 270.9 328.5 271.2 323.3 271.2 318.0 C 271.2 271.3 271.2 224.7 271.2 178.0 C 271.2 172.7 270.9 167.4 271.4 162.1 Z" />
<path fill="#ffffff" stroke="#ffffff" stroke-width="0.09375" opacity="1.00" d=" M 332.4 162.1 C 334.9 161.9 337.4 161.7 340.0 161.7 C 358.3 161.9 376.7 161.7 395.0 161.8 C 412.7 161.8 430.4 161.4 448.0 162.7 C 460.1 163.5 472.4 166.0 483.0 171.9 C 492.7 177.5 500.6 186.5 503.8 197.2 C 506.0 204.6 506.7 212.4 506.4 220.0 C 506.2 226.7 503.7 233.3 499.3 238.3 C 496.1 242.2 491.6 244.8 487.8 248.0 C 491.6 251.6 496.2 254.4 499.6 258.4 C 503.0 262.2 505.3 267.0 506.0 272.1 C 506.9 277.6 506.5 283.3 505.9 288.9 C 505.0 295.9 503.0 303.0 499.0 309.0 C 494.4 316.0 487.9 321.7 480.3 325.3 C 470.9 329.9 460.5 332.2 450.0 332.9 C 439.7 333.7 429.3 334.1 419.0 334.0 C 396.3 334.0 373.7 334.0 351.0 334.0 C 344.8 334.0 338.6 334.4 332.4 333.8 C 331.9 328.5 332.2 323.2 332.2 318.0 C 332.2 271.3 332.2 224.7 332.2 178.0 C 332.2 172.7 331.9 167.4 332.4 162.1 M 373.4 198.3 C 372.9 203.8 373.2 209.4 373.2 215.0 C 373.2 237.0 373.2 259.0 373.2 281.0 C 373.2 286.6 372.9 292.1 373.4 297.7 C 376.2 297.9 379.1 298.1 382.0 298.0 C 395.3 297.8 408.7 298.1 422.1 297.8 C 432.3 297.5 442.7 297.6 452.6 294.6 C 456.1 293.5 459.8 292.1 462.5 289.5 C 466.8 285.4 465.9 277.4 460.9 274.1 C 455.6 270.6 449.2 269.7 443.0 269.1 C 431.4 268.2 419.7 268.4 408.0 268.4 C 401.7 268.4 395.4 268.8 389.1 268.0 C 388.4 261.0 388.9 254.0 388.8 247.0 C 388.8 240.5 388.3 234.0 389.2 227.5 C 407.1 227.0 425.1 228.0 442.9 226.8 C 449.1 226.1 455.6 225.4 460.8 221.8 C 465.0 219.1 466.4 213.2 464.3 208.7 C 462.7 205.6 459.5 203.9 456.4 202.5 C 449.0 199.5 440.9 198.7 432.9 198.3 C 419.0 197.7 405.0 198.1 391.0 198.0 C 385.1 198.0 379.2 197.7 373.4 198.3 Z" />
<path fill="#ffffff" stroke="#ffffff" stroke-width="0.09375" opacity="1.00" d=" M 527.4 162.1 C 529.9 161.9 532.4 161.7 535.0 161.7 C 553.0 161.9 571.0 161.7 589.0 161.8 C 606.0 161.8 623.0 161.5 640.0 162.9 C 653.3 163.8 666.8 166.8 678.3 173.7 C 687.0 179.1 694.7 187.0 698.1 196.9 C 701.0 205.3 701.5 214.3 701.1 223.0 C 700.6 231.6 698.8 240.5 693.6 247.6 C 689.7 253.3 683.9 257.3 678.9 262.0 C 682.6 266.3 687.1 269.9 690.3 274.7 C 696.8 284.2 701.3 295.4 701.3 307.0 C 701.2 315.9 701.7 324.9 701.0 333.8 C 694.3 334.4 687.7 334.0 681.0 334.0 C 674.1 333.9 667.2 334.4 660.4 333.7 C 659.5 325.0 661.7 315.8 658.7 307.4 C 655.7 299.4 651.0 292.0 644.5 286.6 C 641.8 284.3 638.8 282.5 635.4 281.8 C 631.6 281.1 627.8 281.3 624.0 281.3 C 614.3 281.5 604.7 281.2 595.0 281.4 C 591.4 281.5 587.7 281.4 584.1 281.0 C 583.4 274.4 583.9 267.7 583.8 261.0 C 583.9 254.4 583.4 247.8 584.1 241.2 C 602.7 240.2 621.7 242.5 640.1 238.1 C 645.5 236.8 651.1 235.1 655.0 231.0 C 658.9 226.9 660.2 220.7 658.8 215.3 C 657.7 211.2 654.3 208.3 650.8 206.1 C 643.1 201.5 634.0 199.7 625.1 198.8 C 613.5 197.6 601.7 198.1 590.0 198.0 C 582.8 198.1 575.6 197.6 568.4 198.3 C 568.0 203.2 568.2 208.1 568.2 213.0 C 568.3 251.3 568.1 289.7 568.3 328.0 C 568.2 330.0 568.1 331.9 567.9 333.8 C 561.3 334.4 554.6 334.0 548.0 334.0 C 541.1 333.9 534.2 334.4 527.4 333.8 C 526.9 328.5 527.2 323.3 527.2 318.0 C 527.2 271.3 527.2 224.7 527.2 178.0 C 527.2 172.7 526.9 167.4 527.4 162.1 Z" />
<path fill="#ffffff" stroke="#ffffff" stroke-width="0.09375" opacity="1.00" d=" M 916.4 162.1 C 918.9 161.9 921.4 161.7 924.0 161.7 C 942.0 161.9 960.0 161.7 978.0 161.8 C 995.0 161.8 1012.0 161.4 1029.0 162.9 C 1042.3 163.8 1055.8 166.8 1067.3 173.7 C 1076.0 179.1 1083.7 187.0 1087.1 196.9 C 1090.0 205.3 1090.6 214.3 1090.1 223.0 C 1089.6 231.6 1087.8 240.5 1082.6 247.6 C 1078.7 253.3 1072.9 257.3 1067.9 262.0 C 1071.5 266.1 1075.8 269.6 1078.9 274.1 C 1083.4 280.5 1086.8 287.6 1088.8 295.2 C 1090.6 302.0 1090.3 309.0 1090.3 316.0 C 1090.3 321.9 1090.6 327.9 1090.0 333.8 C 1083.3 334.4 1076.7 334.0 1070.0 334.0 C 1063.1 334.0 1056.2 334.4 1049.4 333.7 C 1048.5 324.7 1050.8 315.3 1047.4 306.6 C 1043.8 297.7 1038.1 289.3 1030.0 284.0 C 1025.5 281.2 1020.1 281.2 1015.0 281.3 C 1007.4 281.4 999.7 281.4 992.0 281.4 C 985.7 281.3 979.4 281.7 973.1 281.0 C 972.4 274.4 972.9 267.7 972.8 261.0 C 972.9 254.4 972.4 247.8 973.1 241.2 C 990.4 240.2 1007.8 242.2 1025.0 239.0 C 1031.3 237.8 1038.0 236.3 1042.9 232.0 C 1047.9 227.8 1049.5 220.5 1047.5 214.5 C 1046.1 210.3 1042.3 207.5 1038.6 205.4 C 1029.8 200.6 1019.6 199.1 1009.7 198.4 C 999.2 197.7 988.6 198.1 978.0 198.0 C 971.1 198.1 964.2 197.6 957.4 198.3 C 957.0 203.2 957.2 208.1 957.2 213.0 C 957.3 251.3 957.1 289.7 957.3 328.0 C 957.2 330.0 957.1 331.9 956.9 333.8 C 950.3 334.4 943.6 334.0 937.0 334.0 C 930.1 333.9 923.2 334.4 916.4 333.8 C 915.9 328.5 916.2 323.2 916.2 318.0 C 916.2 271.3 916.2 224.7 916.2 178.0 C 916.2 172.7 915.9 167.4 916.4 162.1 Z" />
<path fill="#ffffff" stroke="#ffffff" stroke-width="0.09375" opacity="1.00" d=" M 1110.4 162.1 C 1116.9 161.4 1123.5 161.8 1130.0 161.8 C 1137.0 161.9 1144.0 161.4 1150.9 162.1 C 1151.6 168.0 1151.2 174.0 1151.2 180.0 C 1151.2 189.7 1151.3 199.3 1151.1 209.0 C 1151.1 213.7 1151.0 218.6 1152.9 223.0 C 1156.2 230.5 1161.9 236.9 1169.1 240.9 C 1186.7 250.9 1209.9 250.1 1226.9 238.9 C 1232.8 234.9 1238.0 229.5 1240.8 222.9 C 1243.2 217.2 1243.0 211.0 1243.0 205.0 C 1242.9 193.7 1243.1 182.3 1242.9 171.0 C 1242.8 168.0 1242.9 165.1 1243.2 162.1 C 1250.1 161.4 1257.1 161.9 1264.0 161.8 C 1270.6 161.8 1277.2 161.4 1283.8 162.1 C 1284.3 168.4 1283.9 174.7 1283.9 181.0 C 1284.0 192.3 1283.9 203.7 1284.0 215.0 C 1284.0 220.8 1283.9 226.7 1282.3 232.3 C 1279.3 244.0 1272.0 254.2 1262.9 261.9 C 1251.8 271.4 1238.0 277.6 1223.8 280.8 C 1221.7 281.3 1219.7 281.9 1217.6 282.6 C 1216.9 290.7 1217.6 298.9 1217.4 307.0 C 1217.1 315.9 1217.9 324.9 1217.0 333.8 C 1210.0 334.4 1203.0 333.9 1196.0 334.0 C 1189.5 334.0 1183.0 334.4 1176.5 333.7 C 1176.0 324.5 1176.6 315.2 1176.4 306.0 C 1176.2 298.1 1177.1 290.2 1175.9 282.4 C 1171.4 280.9 1166.8 280.0 1162.4 278.6 C 1149.7 274.6 1137.5 268.4 1127.9 259.1 C 1120.1 251.6 1114.0 242.1 1111.5 231.4 C 1110.2 225.7 1110.1 219.8 1110.2 214.0 C 1110.3 203.0 1110.2 192.0 1110.2 181.0 C 1110.3 174.7 1109.9 168.4 1110.4 162.1 Z" />
</svg>
