<?xml version="1.0" encoding="UTF-8" ?>
<!DOCTYPE svg PUBLIC "-//W3C//DTD SVG 1.1//EN" "http://www.w3.org/Graphics/SVG/1.1/DTD/svg11.dtd">
<svg width="514pt" height="440pt" viewBox="0 0 514 440" version="1.1" xmlns="http://www.w3.org/2000/svg">
<path fill="#ffffff" stroke="#ffffff" stroke-width="0.09375" opacity="1.00" d=" M 113.7 55.6 C 114.8 53.9 117.3 54.0 118.9 55.0 C 120.5 57.2 121.4 59.8 122.8 62.2 C 124.2 62.5 125.5 62.7 126.9 62.7 C 169.0 62.7 211.0 62.7 253.1 62.7 C 255.8 62.6 258.4 63.8 260.6 65.3 C 266.8 69.5 272.9 73.7 279.1 77.8 C 282.9 80.5 287.7 79.6 292.0 79.8 C 336.3 79.7 380.7 79.7 425.0 79.7 C 429.8 79.7 434.6 80.1 439.3 79.3 C 441.1 76.9 442.6 74.2 444.3 71.7 C 445.7 71.9 447.3 71.3 448.5 72.2 C 450.2 74.4 451.3 76.9 452.8 79.2 C 456.4 80.0 460.1 79.5 463.8 80.1 C 465.8 80.5 467.6 82.2 467.9 84.2 C 468.5 86.8 468.3 89.4 468.3 92.0 C 468.2 99.7 468.3 107.4 468.3 115.1 C 468.2 117.9 468.3 121.1 466.4 123.4 C 463.4 124.5 460.1 124.3 457.0 124.3 C 446.0 124.2 435.0 124.4 423.9 124.2 C 422.1 124.2 420.3 124.1 418.5 124.5 C 417.1 125.2 416.5 126.8 416.4 128.2 C 415.9 133.8 416.7 139.4 416.2 145.0 C 416.1 146.8 415.0 148.5 413.5 149.6 C 410.1 150.7 406.5 150.2 403.0 150.3 C 366.3 150.2 329.7 150.3 293.0 150.3 C 289.2 150.3 285.4 149.9 281.7 150.8 C 278.5 152.4 277.4 156.4 274.5 158.4 C 266.5 159.5 258.4 157.8 250.4 159.3 C 248.4 162.6 247.3 166.3 245.8 169.8 C 241.7 179.1 238.2 188.7 234.1 197.9 C 233.2 199.5 232.6 201.5 230.8 202.1 C 227.8 202.6 224.8 201.8 221.8 201.3 C 210.5 198.9 198.9 197.8 187.5 195.4 C 184.0 195.0 179.9 193.5 176.8 195.8 C 173.8 199.7 173.1 204.8 171.3 209.3 C 164.5 227.9 158.2 246.7 151.3 265.2 C 149.8 269.6 148.6 274.2 146.3 278.3 C 145.4 279.9 143.4 280.3 141.8 280.8 C 136.8 281.9 131.6 282.3 126.7 283.8 C 125.2 288.0 125.6 292.6 125.6 297.0 C 125.6 303.3 125.7 309.7 125.6 316.0 C 125.4 318.1 125.5 320.4 124.1 322.1 C 121.1 324.4 116.9 323.7 113.7 325.8 C 112.8 327.3 112.7 329.2 112.6 330.9 C 112.3 344.8 113.5 358.7 111.3 372.4 C 109.5 381.6 103.5 389.8 95.4 394.5 C 87.2 399.5 77.4 401.0 68.0 402.0 C 65.5 402.4 62.6 402.1 61.0 399.9 C 59.6 398.2 60.0 395.9 61.0 394.1 C 63.7 392.5 67.0 392.5 70.0 392.3 C 76.9 392.0 83.8 390.2 89.9 386.8 C 95.2 383.9 99.3 379.1 101.5 373.5 C 102.9 369.5 102.7 365.2 102.8 361.0 C 102.7 351.0 102.8 341.0 102.8 330.9 C 102.6 329.1 102.8 327.0 101.6 325.5 C 98.6 324.1 95.2 324.2 92.2 322.8 C 90.4 321.6 90.1 319.0 89.8 317.0 C 89.4 309.4 90.0 301.7 89.7 294.1 C 89.5 292.6 89.4 290.8 88.0 290.0 C 86.8 289.4 85.4 289.4 84.0 289.3 C 78.0 289.1 72.0 289.5 65.9 289.3 C 64.0 289.1 61.8 288.9 60.6 287.3 C 59.9 285.8 60.0 284.1 60.5 282.6 C 61.7 278.2 63.9 274.1 65.9 270.0 C 80.9 235.8 96.3 201.7 111.6 167.6 C 113.6 162.8 116.5 158.3 117.3 153.1 C 116.4 150.2 114.3 147.9 112.1 146.0 C 106.4 141.3 100.0 137.6 93.3 134.8 C 84.1 130.4 74.3 127.5 64.7 124.3 C 62.9 123.6 60.4 123.0 59.9 120.8 C 59.8 117.9 60.8 115.2 61.4 112.5 C 63.3 104.1 65.8 95.9 67.5 87.5 C 68.3 85.0 68.7 81.5 71.6 80.6 C 76.2 79.0 81.1 80.2 85.7 79.5 C 87.0 79.5 87.9 78.5 88.6 77.6 C 91.7 73.5 92.8 68.1 96.1 64.2 C 97.3 62.7 99.3 62.9 101.0 62.8 C 103.8 62.7 106.6 62.7 109.4 62.4 C 111.0 60.2 112.2 57.8 113.7 55.6 M 101.4 73.4 C 97.8 78.3 96.8 85.0 92.3 89.2 C 87.2 90.5 81.7 88.5 76.9 90.8 C 74.6 95.8 73.8 101.3 72.4 106.5 C 71.7 109.9 70.2 114.1 72.9 117.0 C 85.8 121.6 99.0 125.9 110.5 133.4 C 114.5 136.0 118.6 138.6 121.6 142.4 C 123.2 144.4 124.5 146.7 126.5 148.5 C 128.3 149.9 130.8 149.6 132.9 149.7 C 144.3 149.7 155.7 149.6 167.1 149.7 C 169.4 149.7 171.8 149.8 174.0 148.9 C 176.0 147.6 176.9 145.2 178.1 143.2 C 181.3 136.7 184.3 130.1 187.4 123.5 C 188.7 120.9 189.7 117.9 191.8 115.7 C 193.6 114.6 195.9 114.8 197.9 114.7 C 226.0 114.8 254.0 114.7 282.0 114.7 C 285.5 114.7 289.1 115.1 292.5 114.4 C 295.7 112.6 297.7 109.1 299.1 105.8 C 299.9 103.1 297.3 101.0 295.3 99.7 C 282.9 91.5 270.5 83.3 258.2 74.9 C 255.7 73.2 252.5 71.7 249.6 73.4 C 245.8 78.0 244.9 84.5 240.7 88.9 C 238.1 90.9 234.4 89.0 233.7 85.9 C 234.3 81.4 238.1 77.4 236.4 72.7 C 232.3 71.4 227.2 70.9 223.5 73.5 C 219.8 78.1 218.3 84.1 214.6 88.7 C 212.1 91.3 206.9 88.7 207.5 85.0 C 208.2 80.9 211.6 76.9 209.4 72.7 C 205.5 71.3 201.4 71.4 197.4 72.3 C 194.5 76.7 192.8 81.7 190.2 86.2 C 189.1 88.0 187.5 90.1 185.1 89.7 C 182.9 89.8 181.8 87.5 180.7 85.9 C 181.9 81.6 185.8 77.3 183.4 72.7 C 181.3 72.1 179.2 71.7 177.1 71.7 C 154.0 71.8 131.0 71.8 107.9 71.7 C 105.7 71.9 103.0 71.5 101.4 73.4 M 309.5 90.5 C 307.9 91.1 307.6 93.3 307.5 94.8 C 308.7 97.1 310.8 98.8 311.8 101.2 C 311.9 104.7 309.2 107.5 308.5 110.8 C 309.0 113.9 312.3 114.8 315.0 114.7 C 360.7 114.7 406.4 114.7 452.1 114.7 C 454.3 114.6 457.1 114.6 458.5 112.5 C 459.0 106.4 458.7 100.3 458.7 94.1 C 458.9 90.6 454.9 89.6 452.1 89.7 C 408.4 89.7 364.7 89.8 321.0 89.7 C 317.2 89.8 313.2 89.2 309.5 90.5 M 197.4 124.4 C 195.2 127.7 193.9 131.5 192.1 135.1 C 190.7 138.1 189.0 141.0 188.0 144.2 C 187.3 146.0 188.1 148.4 190.0 149.0 C 191.9 149.7 193.9 149.7 195.9 149.7 C 216.3 149.6 236.6 149.7 257.0 149.7 C 260.8 149.6 264.7 150.0 268.6 149.4 C 270.5 149.1 271.7 147.3 272.8 145.8 C 275.1 142.4 277.3 139.0 279.6 135.7 C 281.0 133.5 282.7 131.5 283.3 129.0 C 283.3 127.5 282.7 126.0 282.4 124.6 C 279.0 124.0 275.5 124.2 272.0 124.2 C 247.1 124.4 222.2 124.1 197.4 124.4 M 296.7 126.7 C 294.8 129.2 292.9 131.7 291.6 134.6 C 290.7 136.4 291.3 138.5 291.6 140.4 C 296.7 141.2 301.9 140.6 307.0 140.7 C 335.3 140.7 363.7 140.7 392.0 140.7 C 395.8 140.7 399.7 141.1 403.5 140.3 C 405.6 139.9 406.4 137.7 406.5 135.8 C 406.8 132.7 407.1 129.6 406.5 126.5 C 405.8 125.2 404.4 124.2 402.9 124.3 C 369.9 124.4 336.9 124.4 304.0 124.4 C 301.5 124.5 298.3 124.3 296.7 126.7 M 126.5 159.5 C 124.2 161.3 123.2 164.2 121.9 166.8 C 119.9 171.8 117.6 176.5 115.4 181.4 C 110.6 192.0 106.3 202.8 101.3 213.3 C 94.8 227.2 88.9 241.4 82.5 255.4 C 79.7 261.7 76.4 267.8 74.3 274.4 C 73.6 276.0 74.2 277.7 74.6 279.4 C 77.0 279.8 79.5 279.9 82.0 279.8 C 87.2 279.5 92.5 279.8 97.7 279.5 C 102.6 279.3 107.3 278.0 112.0 276.9 C 120.0 275.1 128.2 274.3 136.1 272.0 C 138.3 271.4 139.9 269.8 140.6 267.7 C 142.5 262.5 144.8 257.4 146.0 252.1 C 146.4 250.6 146.4 248.9 145.6 247.6 C 143.4 245.9 140.5 245.3 138.6 243.3 C 136.8 241.1 138.7 238.7 139.8 236.8 C 143.8 235.9 148.3 236.9 152.1 235.1 C 153.8 231.6 154.6 227.7 156.1 224.1 C 157.3 220.7 159.2 217.3 158.7 213.5 C 156.5 211.4 153.4 210.7 151.1 208.8 C 149.2 206.4 151.2 202.3 154.2 201.9 C 157.3 201.3 160.6 201.8 163.6 200.6 C 165.6 199.4 166.0 196.8 166.7 194.7 C 168.0 189.9 170.1 185.3 171.5 180.5 C 173.3 174.9 176.2 169.7 177.1 163.8 C 177.3 162.4 176.7 161.0 176.4 159.7 C 172.1 158.3 167.5 158.8 163.0 158.7 C 153.3 158.8 143.6 158.8 134.0 158.7 C 131.5 158.7 128.9 158.6 126.5 159.5 M 189.5 159.4 C 187.7 161.2 187.2 164.0 186.3 166.3 C 185.2 170.4 183.4 174.3 182.2 178.3 C 181.6 180.2 181.5 182.5 182.9 184.1 C 186.1 186.3 190.1 186.9 193.9 186.8 C 196.6 187.0 198.5 184.3 198.6 181.8 C 198.9 177.2 198.6 172.5 198.7 167.9 C 198.6 165.6 198.9 163.2 198.0 161.0 C 196.3 158.2 192.2 158.3 189.5 159.4 M 208.7 159.7 C 207.1 165.0 207.8 170.5 207.7 176.0 C 207.8 180.4 207.2 185.0 208.7 189.3 C 214.5 190.7 220.5 192.0 226.5 191.8 C 229.0 187.2 230.5 182.2 232.5 177.5 C 234.1 173.2 236.6 169.2 237.6 164.6 C 238.1 162.5 237.0 159.8 234.7 159.2 C 231.6 158.5 228.2 158.7 225.0 158.7 C 219.5 158.8 214.0 158.2 208.7 159.7 M 100.9 289.8 C 99.3 291.8 99.8 294.6 99.6 297.0 C 99.7 302.4 99.0 308.0 100.6 313.4 C 104.5 314.6 108.8 314.8 112.8 313.9 C 114.3 313.6 115.3 312.1 115.5 310.6 C 116.0 306.7 115.7 302.8 115.8 299.0 C 115.7 295.9 116.0 292.7 115.3 289.6 C 114.8 287.3 112.1 286.4 110.0 286.8 C 106.9 287.3 103.6 288.0 100.9 289.8 Z" />
</svg>
