<?xml version="1.0" encoding="UTF-8" ?>
<!DOCTYPE svg PUBLIC "-//W3C//DTD SVG 1.1//EN" "http://www.w3.org/Graphics/SVG/1.1/DTD/svg11.dtd">
<svg width="816pt" height="96pt" viewBox="0 0 816 96" version="1.1" xmlns="http://www.w3.org/2000/svg">
<path fill="#000000" stroke="#000000" stroke-width="0.09375" opacity="1.00" d=" M 624.0 0.0 L 816.0 0.0 L 816.0 30.4 C 812.1 34.2 807.9 37.7 804.5 42.0 C 807.9 46.3 812.1 49.8 816.0 53.6 L 816.0 96.0 L 624.0 96.0 C 624.0 64.0 624.0 32.0 624.0 0.0 M 635.8 11.8 C 635.5 19.2 635.8 26.6 635.7 34.0 C 635.8 50.7 635.4 67.4 635.9 84.2 C 643.9 84.4 652.1 84.4 660.2 84.2 C 660.5 72.4 660.2 60.7 660.3 49.0 C 666.8 55.1 672.9 61.6 679.3 67.7 C 680.7 69.2 682.3 70.6 683.5 72.4 C 683.9 76.3 683.6 80.2 683.8 84.1 C 691.9 84.4 700.0 84.5 708.1 84.1 C 708.5 76.8 708.2 69.4 708.3 62.0 C 708.2 45.3 708.6 28.6 708.1 11.8 C 700.1 11.5 691.9 11.6 683.8 11.8 C 683.5 19.6 683.8 27.3 683.7 35.0 C 676.6 28.3 669.8 21.2 662.8 14.2 C 661.5 13.0 660.0 11.5 658.1 11.7 C 650.7 11.6 643.2 11.6 635.8 11.8 M 731.9 11.8 C 731.7 15.9 731.2 19.9 732.0 23.9 C 733.3 26.2 735.4 27.9 737.2 29.8 C 741.2 33.8 745.5 37.7 749.2 42.0 C 744.5 47.4 739.2 52.1 734.2 57.2 C 733.0 58.5 731.5 60.0 731.7 61.9 C 731.6 69.3 731.6 76.8 731.8 84.2 C 739.9 84.4 748.1 84.4 756.2 84.2 C 756.7 78.2 755.8 72.3 756.6 66.4 C 759.8 62.1 764.0 58.5 768.0 54.8 C 771.2 57.6 774.3 60.7 777.3 63.7 C 778.4 65.0 779.8 66.2 779.7 68.0 C 779.9 73.4 779.5 78.8 779.8 84.2 C 787.9 84.5 796.1 84.4 804.2 84.2 C 804.4 76.8 804.4 69.3 804.3 61.9 C 804.5 60.0 803.0 58.5 801.8 57.2 C 796.8 52.1 791.5 47.4 786.8 42.0 C 790.5 37.7 794.8 33.8 798.8 29.8 C 800.6 27.9 802.7 26.2 804.0 23.9 C 804.8 19.9 804.3 15.9 804.1 11.9 C 797.4 11.5 790.7 11.7 784.0 11.6 C 782.2 11.8 780.1 11.4 778.8 12.8 C 775.0 16.0 771.9 20.0 768.0 23.2 C 763.6 19.8 760.5 15.0 755.9 11.9 C 747.9 11.3 739.9 11.7 731.9 11.8 Z" />
<path fill="#000000" stroke="#000000" stroke-width="0.09375" opacity="1.00" d=" M 12.3 12.3 C 20.1 12.3 27.9 12.3 35.7 12.3 C 35.7 32.3 35.4 52.2 35.8 72.2 C 51.8 72.6 67.7 72.3 83.7 72.3 C 83.7 76.1 83.7 79.9 83.7 83.7 C 59.9 83.6 36.1 83.6 12.3 83.7 C 12.4 59.9 12.4 36.1 12.3 12.3 Z" />
<path fill="#000000" stroke="#000000" stroke-width="0.09375" opacity="1.00" d=" M 120.5 12.6 C 123.6 12.0 126.8 12.4 130.0 12.3 C 141.0 12.3 152.0 12.4 163.0 12.3 C 164.5 12.3 166.1 12.3 167.5 12.6 C 169.9 14.1 171.7 16.4 173.7 18.3 C 175.6 20.3 177.9 22.1 179.4 24.5 C 180.0 27.9 179.6 31.5 179.7 35.0 C 179.7 45.7 179.6 56.4 179.7 67.0 C 179.7 68.5 179.7 70.1 179.4 71.5 C 177.9 73.9 175.6 75.7 173.7 77.7 C 171.7 79.6 169.9 81.9 167.5 83.4 C 164.4 84.0 161.2 83.6 158.0 83.7 C 147.0 83.7 136.0 83.6 125.0 83.7 C 123.5 83.7 121.9 83.7 120.5 83.4 C 118.1 81.9 116.3 79.6 114.3 77.7 C 112.4 75.7 110.1 73.9 108.6 71.5 C 108.3 70.1 108.3 68.5 108.3 67.0 C 108.4 56.0 108.3 45.0 108.3 34.0 C 108.4 30.8 108.0 27.6 108.6 24.5 C 110.1 22.1 112.4 20.3 114.3 18.3 C 116.3 16.4 118.1 14.1 120.5 12.6 M 131.8 23.8 C 131.4 31.9 131.7 39.9 131.7 48.0 C 131.7 56.1 131.4 64.1 131.8 72.2 C 139.9 72.5 148.1 72.5 156.2 72.2 C 156.6 64.1 156.2 56.1 156.3 48.0 C 156.2 39.9 156.6 31.9 156.2 23.8 C 148.1 23.5 139.9 23.5 131.8 23.8 Z" />
<path fill="#000000" stroke="#000000" stroke-width="0.09375" opacity="1.00" d=" M 204.3 12.3 C 212.1 12.3 219.9 12.3 227.7 12.3 C 227.9 24.2 227.2 36.2 228.0 48.1 C 232.6 45.2 235.4 40.1 240.0 37.3 C 244.6 40.1 247.4 45.2 252.0 48.1 C 252.8 36.2 252.1 24.2 252.3 12.3 C 260.1 12.3 267.9 12.3 275.7 12.3 C 275.6 36.1 275.6 59.9 275.7 83.7 C 271.9 83.6 268.2 84.0 264.5 83.4 C 263.3 82.7 262.3 81.7 261.3 80.7 C 255.4 74.6 249.3 68.7 243.4 62.6 C 242.2 61.7 241.1 59.9 239.3 60.4 C 237.7 61.4 236.4 62.8 235.1 64.1 C 230.1 69.4 224.8 74.4 219.7 79.7 C 218.4 81.0 217.1 82.4 215.5 83.4 C 211.8 84.0 208.0 83.6 204.3 83.7 C 204.4 59.9 204.4 36.1 204.3 12.3 Z" />
<path fill="#000000" stroke="#000000" stroke-width="0.09375" opacity="1.00" d=" M 300.3 12.3 C 316.5 12.4 332.8 12.3 349.0 12.3 C 352.5 12.4 356.1 12.0 359.5 12.6 C 361.9 14.1 363.7 16.4 365.7 18.3 C 367.6 20.3 369.9 22.1 371.4 24.5 C 372.0 28.1 372.0 31.9 371.4 35.5 C 369.9 37.9 367.6 39.7 365.7 41.7 C 363.7 43.6 361.9 45.9 359.5 47.4 C 355.7 47.9 351.8 47.5 347.9 48.0 C 349.3 49.9 350.9 51.7 352.6 53.4 C 357.7 58.3 362.6 63.4 367.7 68.3 C 369.0 69.6 370.4 70.9 371.4 72.5 C 372.0 76.2 371.6 79.9 371.7 83.7 C 366.5 83.6 361.3 83.8 356.1 83.6 C 354.0 83.8 352.7 81.9 351.3 80.7 C 343.9 73.1 336.3 65.7 328.9 58.1 C 327.4 56.6 325.7 55.2 324.0 53.9 C 323.2 63.8 323.9 73.8 323.7 83.7 C 315.9 83.7 308.1 83.7 300.3 83.7 C 300.4 59.9 300.4 36.1 300.3 12.3 M 323.8 23.8 C 323.5 27.9 323.5 32.1 323.8 36.2 C 331.9 36.5 340.1 36.5 348.2 36.2 C 348.5 32.1 348.5 27.9 348.2 23.8 C 340.1 23.5 331.9 23.5 323.8 23.8 Z" />
<path fill="#000000" stroke="#000000" stroke-width="0.09375" opacity="1.00" d=" M 396.3 12.3 C 420.1 12.4 443.9 12.4 467.7 12.3 C 467.7 16.1 467.7 19.9 467.7 23.7 C 451.7 23.8 435.8 23.4 419.8 23.8 C 419.5 27.9 419.5 32.1 419.8 36.2 C 427.8 36.6 435.7 36.2 443.7 36.3 C 443.7 40.1 443.7 43.9 443.7 47.7 C 435.7 47.8 427.8 47.4 419.8 47.8 C 419.5 55.9 419.5 64.1 419.8 72.2 C 435.8 72.6 451.7 72.3 467.7 72.3 C 467.7 76.1 467.7 79.9 467.7 83.7 C 443.9 83.6 420.1 83.6 396.3 83.7 C 396.4 59.9 396.4 36.1 396.3 12.3 Z" />
<path fill="#000000" stroke="#000000" stroke-width="0.09375" opacity="1.00" d=" M 504.5 12.6 C 507.6 12.0 510.8 12.4 514.0 12.3 C 530.6 12.4 547.1 12.3 563.7 12.3 C 563.7 16.1 563.7 19.9 563.7 23.7 C 547.7 23.7 531.8 23.4 515.8 23.8 C 515.5 27.9 515.5 32.1 515.8 36.2 C 527.2 36.6 538.6 36.2 550.0 36.4 C 552.3 36.2 553.6 38.4 555.2 39.8 C 557.9 42.8 561.1 45.2 563.4 48.5 C 564.0 52.3 563.6 56.2 563.7 60.0 C 563.6 63.8 564.0 67.7 563.4 71.5 C 561.9 73.9 559.6 75.7 557.7 77.7 C 555.7 79.6 553.9 81.9 551.5 83.4 C 548.1 84.0 544.5 83.6 541.0 83.7 C 524.8 83.7 508.5 83.6 492.3 83.7 C 492.3 79.9 492.3 76.1 492.3 72.3 C 508.3 72.2 524.2 72.6 540.2 72.2 C 540.5 64.1 540.5 55.9 540.2 47.8 C 532.1 47.4 524.1 47.7 516.0 47.7 C 512.2 47.6 508.3 48.0 504.5 47.4 C 502.1 45.9 500.3 43.6 498.3 41.7 C 496.4 39.7 494.1 37.9 492.6 35.5 C 492.0 31.9 492.0 28.1 492.6 24.5 C 494.1 22.1 496.4 20.3 498.3 18.3 C 500.3 16.4 502.1 14.1 504.5 12.6 Z" />
</svg>
