<svg xmlns="http://www.w3.org/2000/svg" version="1.1" viewBox="45.85 24.75 511.49 156.34">
<path fill="#ffffff" stroke="#ffffff" stroke-width="0.09375" opacity="1.00" d=" M 190.2 32.2 C 192.8 29.8 194.8 26.9 197.6 24.8 C 197.8 27.9 198.2 30.9 198.2 34.0 C 198.3 55.1 198.1 76.1 198.3 97.2 C 199.7 96.9 201.3 96.5 202.3 95.3 C 217.3 80.6 232.1 65.7 246.9 50.9 C 252.3 45.7 257.9 40.6 263.0 35.0 C 266.6 31.6 270.1 27.9 274.0 24.8 C 274.4 29.2 274.2 33.6 274.2 38.0 C 274.2 57.0 274.2 76.0 274.2 95.0 C 274.2 99.0 273.9 102.9 274.7 106.8 C 279.2 104.9 282.0 100.8 285.5 97.5 C 292.0 91.3 298.2 84.9 304.5 78.5 C 313.0 70.7 320.8 62.1 329.2 54.2 C 331.9 51.6 334.3 48.6 337.1 46.1 C 344.5 39.2 351.3 31.8 358.6 24.8 C 359.3 39.6 358.2 54.4 359.2 69.2 C 363.0 68.6 365.1 65.1 367.7 62.7 C 380.3 50.3 392.6 37.7 405.3 25.4 C 405.7 26.9 406.2 28.4 406.2 30.0 C 406.2 51.3 406.2 72.5 406.2 93.8 C 406.9 93.9 408.2 93.9 408.9 93.9 C 426.2 76.6 443.5 59.2 461.0 42.0 C 465.5 36.9 470.7 32.3 475.5 27.5 C 476.7 26.2 478.2 25.2 480.1 25.4 C 501.7 25.4 523.3 25.4 545.0 25.4 C 549.1 25.4 553.2 25.1 557.3 25.9 C 550.6 33.6 542.8 40.3 535.8 47.8 C 534.4 49.1 533.1 51.1 531.0 50.8 C 519.0 50.8 507.0 50.8 495.0 50.8 C 493.2 50.9 491.2 50.6 489.8 51.9 C 486.6 54.7 483.8 58.0 480.8 60.9 C 480.9 61.6 481.1 63.0 481.2 63.7 C 487.2 63.7 493.2 63.2 499.1 64.1 C 492.7 71.4 485.5 77.8 478.8 84.8 C 476.9 86.7 475.2 88.8 472.9 90.1 C 466.3 90.6 459.7 90.2 453.2 90.4 C 450.3 90.2 448.6 93.0 446.7 94.7 C 444.2 97.5 440.3 99.7 439.8 103.8 C 441.8 103.9 443.9 104.1 446.0 104.2 C 467.0 104.2 488.0 104.0 509.0 104.3 C 507.6 105.8 506.5 108.2 504.1 108.0 C 500.4 108.1 496.7 107.9 493.0 108.0 C 490.2 112.3 490.9 117.7 489.4 122.5 C 488.9 126.0 485.7 127.9 483.2 130.1 C 483.0 125.4 482.9 120.7 483.0 116.0 C 482.9 114.5 483.5 113.2 484.0 111.8 C 483.3 110.5 482.6 109.3 481.9 108.0 C 478.0 108.0 474.0 108.0 470.1 108.0 C 469.1 109.4 468.1 110.9 467.6 112.6 C 465.7 118.5 463.8 124.3 461.7 130.2 C 460.5 130.2 459.2 130.2 458.0 130.2 C 458.2 125.7 459.5 121.4 460.0 117.0 C 459.3 113.0 456.6 108.2 452.0 108.0 C 446.7 107.9 441.3 107.9 436.0 108.0 C 433.2 108.0 431.3 110.3 429.4 112.0 C 428.6 110.6 427.8 109.3 426.9 108.0 C 415.6 108.1 404.3 107.9 393.0 108.0 C 391.4 107.8 390.3 109.2 389.0 110.1 C 386.2 108.0 382.7 107.8 379.3 107.7 C 379.4 103.1 379.8 98.4 378.8 93.8 C 371.7 97.7 368.2 106.5 360.1 109.0 C 358.8 108.5 357.4 107.9 356.0 108.0 C 350.4 107.9 344.7 108.1 339.1 107.9 C 339.1 101.5 339.5 95.1 338.8 88.8 C 335.5 89.2 333.5 92.0 331.2 94.2 C 326.2 99.5 320.8 104.3 316.0 109.8 C 312.4 106.8 307.5 108.3 303.3 108.1 C 302.5 108.8 301.8 109.5 301.0 110.3 C 300.8 115.6 301.8 121.4 299.0 126.2 C 297.2 128.8 294.5 131.5 291.1 131.2 C 280.4 131.3 269.7 131.1 259.0 131.3 C 255.1 131.4 251.2 131.4 247.3 131.0 C 246.3 119.4 247.2 107.8 246.8 96.2 C 245.7 96.2 244.5 96.3 243.3 96.3 C 221.8 117.8 200.2 139.2 178.7 160.7 C 177.1 162.4 175.6 164.2 173.6 165.6 C 172.1 165.8 170.6 165.7 169.0 165.7 C 157.0 165.6 144.9 165.8 132.8 165.6 C 135.3 161.6 139.1 158.7 142.4 155.4 C 151.3 146.0 160.8 137.2 169.9 127.9 C 172.0 125.5 171.2 122.0 171.4 119.0 C 171.1 111.3 171.8 103.6 171.0 95.9 C 167.6 96.1 165.2 98.7 162.9 100.9 C 156.6 107.5 149.9 113.9 143.3 120.3 C 139.6 124.3 135.8 128.1 131.7 131.7 C 131.1 126.1 131.5 120.6 131.4 115.0 C 131.5 106.4 131.2 97.8 131.6 89.3 C 130.4 89.0 129.3 88.9 128.1 88.9 C 125.7 90.5 123.9 92.8 121.8 94.8 C 112.0 104.7 102.1 114.5 92.3 124.3 C 90.3 126.4 88.4 128.7 85.9 130.1 C 79.6 130.7 73.3 130.2 67.0 130.3 C 60.0 130.1 52.9 130.8 45.9 129.8 C 48.8 126.4 52.1 123.4 55.2 120.2 C 83.2 92.2 111.2 64.2 139.2 36.2 C 143.0 32.7 146.4 28.8 150.3 25.4 C 151.4 30.5 150.7 35.8 150.9 41.0 C 151.0 50.4 150.4 59.7 151.3 69.1 C 156.5 67.5 159.4 62.6 163.1 59.0 C 172.3 50.3 181.1 41.1 190.2 32.2 Z"/>
<path fill="#ffffff" stroke="#ffffff" stroke-width="0.09375" opacity="1.00" d=" M 304.1 111.0 C 306.8 111.0 309.5 111.0 312.3 111.0 C 312.1 117.3 311.5 123.6 311.4 129.9 C 311.1 139.7 310.1 149.5 310.3 159.3 C 315.5 143.3 319.8 127.0 324.8 111.0 C 327.7 111.0 330.5 111.0 333.4 111.1 C 326.3 134.5 318.0 157.5 310.8 180.8 C 307.7 181.0 304.7 181.0 301.7 181.0 C 302.4 157.7 303.8 134.4 304.1 111.0 Z"/>
<path fill="#ffffff" stroke="#ffffff" stroke-width="0.09375" opacity="1.00" d=" M 338.0 111.1 C 344.4 110.9 350.7 111.0 357.1 111.1 C 356.7 113.7 356.2 116.2 355.8 118.8 C 352.2 119.0 348.7 119.0 345.1 119.1 C 344.0 126.4 342.3 133.6 341.1 140.9 C 344.7 141.0 348.2 141.0 351.8 141.1 C 351.2 143.7 350.6 146.3 350.1 149.0 C 346.7 149.0 343.2 149.0 339.8 149.0 C 338.1 156.9 337.0 165.0 335.2 172.9 C 338.8 173.0 342.3 173.0 345.8 173.1 C 345.3 175.7 344.7 178.4 344.2 181.0 C 337.9 180.9 331.5 181.1 325.2 180.9 C 329.7 157.7 333.6 134.4 338.0 111.1 Z"/>
<path fill="#ffffff" stroke="#ffffff" stroke-width="0.09375" opacity="1.00" d=" M 362.9 111.1 C 369.3 111.0 375.6 110.9 382.0 111.0 C 385.1 110.9 388.4 113.8 388.0 117.0 C 387.7 121.9 386.4 126.7 385.6 131.6 C 384.8 135.2 384.5 138.9 383.4 142.4 C 382.8 144.3 380.9 145.2 379.3 146.3 C 381.1 148.3 382.2 151.0 381.6 153.7 C 380.2 162.8 378.1 171.8 376.8 180.9 C 373.8 181.0 370.9 181.0 368.0 181.0 C 369.5 173.1 370.8 165.2 372.3 157.3 C 372.8 154.9 373.0 152.6 372.9 150.2 C 370.0 150.0 367.1 150.0 364.3 150.1 C 362.7 160.4 360.6 170.6 359.0 180.9 C 356.1 181.0 353.1 181.0 350.2 180.9 C 354.7 157.7 358.7 134.3 362.9 111.1 M 370.0 119.1 C 368.6 126.7 367.2 134.3 365.9 141.9 C 368.9 141.7 372.5 143.0 375.0 141.0 C 375.9 138.6 376.2 136.1 376.6 133.6 C 377.3 128.9 378.5 124.2 378.8 119.4 C 375.9 118.9 372.9 118.9 370.0 119.1 Z"/>
<path fill="#ffffff" stroke="#ffffff" stroke-width="0.09375" opacity="1.00" d=" M 392.2 111.1 C 399.1 110.9 406.0 111.0 412.9 111.1 C 412.4 113.6 412.0 116.2 411.7 118.8 C 409.6 118.9 407.5 119.1 405.4 119.3 C 404.8 124.2 403.8 129.0 402.8 133.8 C 399.9 149.5 397.1 165.3 394.2 181.0 C 391.4 181.0 388.6 181.0 385.8 180.9 C 388.3 166.2 391.2 151.5 393.8 136.7 C 394.9 130.9 395.7 124.9 397.0 119.1 C 395.0 119.0 393.0 119.0 390.9 118.9 C 391.4 116.3 391.8 113.7 392.2 111.1 Z"/>
<path fill="#ffffff" stroke="#ffffff" stroke-width="0.09375" opacity="1.00" d=" M 417.0 111.0 C 419.9 111.0 422.8 111.0 425.8 111.0 C 421.1 134.2 417.0 157.6 412.9 180.9 C 410.0 181.0 407.1 181.0 404.2 181.0 C 408.8 157.7 412.6 134.3 417.0 111.0 Z"/>
<path fill="#ffffff" stroke="#ffffff" stroke-width="0.09375" opacity="1.00" d=" M 430.7 116.8 C 431.4 113.5 434.6 110.9 438.0 111.0 C 442.3 111.0 446.6 110.9 451.0 111.1 C 454.5 111.2 457.0 115.1 456.4 118.5 C 455.5 124.3 454.2 130.1 453.1 136.0 C 450.4 136.0 447.7 136.0 445.1 135.9 C 445.8 130.3 447.5 124.8 447.2 119.1 C 444.9 119.0 442.5 118.8 440.2 119.1 C 439.0 119.7 438.3 120.9 438.1 122.2 C 435.6 135.4 433.2 148.6 430.8 161.9 C 430.2 165.5 429.0 169.2 429.7 173.0 C 432.6 173.0 435.5 173.0 438.4 172.5 C 439.3 167.1 440.4 161.6 441.3 156.1 C 444.0 156.0 446.7 156.0 449.4 156.0 C 448.5 162.1 447.4 168.2 446.3 174.2 C 445.8 177.8 442.7 180.9 439.0 180.9 C 434.7 181.1 430.4 181.1 426.1 180.9 C 423.1 180.7 420.7 178.0 420.7 175.0 C 420.7 171.7 421.6 168.4 422.1 165.1 C 424.4 151.8 427.0 138.5 429.1 125.1 C 429.6 122.3 430.0 119.5 430.7 116.8 Z"/>
<path fill="#ffffff" stroke="#ffffff" stroke-width="0.09375" opacity="1.00" d=" M 471.3 111.2 C 474.2 111.0 477.1 111.0 480.1 111.0 C 480.0 115.3 480.0 119.7 479.9 124.0 C 478.9 143.0 478.5 162.0 477.9 181.0 C 475.3 181.0 472.6 181.0 470.0 181.0 C 470.1 177.4 470.3 173.8 470.8 170.2 C 467.5 170.0 464.2 170.0 460.9 170.0 C 459.8 173.6 458.7 177.2 457.7 180.8 C 454.7 181.0 451.7 181.0 448.7 180.9 C 456.1 157.6 464.2 134.6 471.3 111.2 M 463.2 161.9 C 465.8 162.0 468.4 162.0 471.0 162.0 C 471.2 152.6 472.4 143.2 471.9 133.7 C 468.6 143.0 466.4 152.6 463.2 161.9 Z"/>
<path fill="#ffffff" stroke="#ffffff" stroke-width="0.09375" opacity="1.00" d=" M 494.9 111.1 C 497.7 111.0 500.5 111.0 503.4 111.0 C 500.6 128.4 497.1 145.7 494.2 163.1 C 493.6 166.4 493.0 169.7 492.2 172.9 C 495.7 173.0 499.3 173.0 502.8 173.1 C 502.3 175.7 501.7 178.4 501.2 181.0 C 494.9 181.0 488.5 181.1 482.2 180.9 C 486.7 157.7 490.7 134.3 494.9 111.1 Z"/>
<path fill="#ffffff" stroke="#ffffff" stroke-width="0.09375" opacity="1.00" d=" M 348.3 122.3 L 348.8 122.3 L 348.8 122.8 L 348.3 122.8 L 348.3 122.3 Z"/>
<path fill="#ffffff" stroke="#ffffff" stroke-width="0.09375" opacity="1.00" d=" M 390.1 123.2 C 391.1 122.8 392.2 122.4 393.2 122.0 C 392.5 124.6 392.0 127.3 391.7 130.0 C 391.1 130.1 389.9 130.2 389.2 130.3 C 389.9 128.0 390.1 125.6 390.1 123.2 Z"/>
<path fill="#ffffff" stroke="#ffffff" stroke-width="0.09375" opacity="1.00" d=" M 408.1 122.0 C 408.9 122.0 410.3 122.0 411.1 122.0 C 411.2 124.8 410.9 127.6 409.8 130.2 C 409.1 130.2 407.7 130.2 407.0 130.2 C 407.5 127.5 408.0 124.8 408.1 122.0 Z"/>
<path fill="#ffffff" stroke="#ffffff" stroke-width="0.09375" opacity="1.00" d=" M 441.1 122.0 C 441.8 122.0 443.4 122.0 444.2 122.1 C 443.5 124.7 442.9 127.4 442.8 130.2 C 442.1 130.2 440.7 130.2 440.0 130.2 C 440.9 127.5 441.1 124.8 441.1 122.0 Z"/>
</svg>