<?xml version="1.0" encoding="UTF-8" ?>
<!DOCTYPE svg PUBLIC "-//W3C//DTD SVG 1.1//EN" "http://www.w3.org/Graphics/SVG/1.1/DTD/svg11.dtd">
<svg width="700pt" height="153pt" viewBox="0 0 700 153" version="1.1" xmlns="http://www.w3.org/2000/svg">
<path fill="#ffffff" stroke="#ffffff" stroke-width="0.09375" opacity="1.00" d=" M 122.5 0.0 L 128.5 0.0 C 132.3 0.9 136.1 1.8 139.6 3.4 C 144.0 5.4 147.5 8.8 151.0 12.0 C 154.5 8.8 157.9 5.4 162.3 3.4 C 165.9 1.8 169.7 0.8 173.5 0.0 L 179.5 0.0 C 185.4 1.4 191.5 2.9 196.4 6.6 C 201.3 10.2 204.9 15.3 207.0 21.0 C 212.3 35.3 216.9 49.9 222.6 64.1 C 222.7 55.0 222.1 45.7 223.7 36.7 C 224.8 30.2 226.5 23.7 230.1 18.1 C 234.1 11.8 240.1 6.8 247.1 4.2 C 255.4 1.1 264.3 0.3 273.0 0.4 C 284.1 0.6 295.4 -0.4 306.2 2.8 C 311.4 4.1 316.0 6.8 320.4 9.6 C 321.4 7.6 322.4 5.5 323.8 3.8 C 325.4 1.7 328.0 0.9 330.4 0.0 L 389.3 0.0 C 397.6 1.9 406.6 3.1 413.7 8.3 C 418.4 11.5 421.7 16.3 425.0 20.9 C 430.8 13.7 437.9 7.1 446.7 3.7 C 453.1 1.1 460.1 0.3 467.0 0.4 C 484.0 0.6 501.0 0.3 518.0 0.6 C 529.0 0.3 540.0 0.8 551.0 0.4 C 555.3 0.4 559.6 0.1 563.9 1.0 C 566.6 1.5 569.1 3.2 570.2 5.7 C 571.7 8.9 571.6 12.5 571.7 15.9 C 571.5 36.3 571.7 56.6 571.6 77.0 C 571.6 82.0 571.6 86.9 571.8 91.9 C 583.2 92.1 594.6 91.8 606.1 91.9 C 610.4 92.0 615.7 92.9 617.6 97.4 C 619.7 102.3 619.0 107.8 619.0 113.0 C 618.7 120.7 619.1 128.4 619.2 136.0 C 619.1 139.7 619.2 143.4 617.8 146.9 C 616.4 150.3 612.8 151.7 609.6 153.0 L 553.7 153.0 C 549.2 151.8 544.6 150.6 540.2 148.8 C 534.5 146.5 529.7 142.5 525.0 138.7 C 524.4 141.8 524.1 145.0 522.7 147.8 C 521.2 150.5 518.2 151.7 515.6 153.0 L 459.7 153.0 C 453.4 151.5 447.0 149.9 441.3 146.7 C 434.8 143.1 429.6 137.7 424.9 131.9 C 421.1 137.3 417.0 142.8 411.2 146.2 C 404.5 150.1 396.7 151.2 389.3 153.0 L 330.4 153.0 C 328.0 152.1 325.4 151.3 323.8 149.2 C 322.3 147.4 321.4 145.3 320.4 143.2 C 316.5 145.6 312.7 148.0 308.4 149.4 C 300.2 152.2 291.5 152.7 283.0 152.6 C 274.5 152.4 265.9 153.2 257.6 151.4 C 255.1 150.9 252.7 150.2 250.2 149.9 C 247.5 149.6 245.0 150.8 242.5 151.4 C 236.9 153.2 230.9 152.5 225.0 152.5 C 217.7 152.2 210.3 152.7 203.0 152.6 C 200.0 152.5 196.8 152.4 194.1 150.9 C 191.5 149.3 190.4 146.3 189.3 143.7 C 184.9 130.9 181.1 117.8 176.0 105.3 C 170.2 118.1 166.0 131.6 160.7 144.7 C 159.7 147.1 158.3 149.6 156.0 151.0 C 153.0 152.7 149.0 152.7 146.0 151.1 C 143.3 149.6 141.9 146.8 140.8 144.2 C 135.8 131.3 131.5 118.1 126.0 105.4 C 121.0 118.1 117.3 131.1 113.0 144.0 C 111.9 146.6 110.7 149.7 108.0 151.1 C 105.6 152.3 102.8 152.5 100.0 152.6 C 93.0 152.8 86.0 152.3 79.0 152.5 C 74.0 152.5 69.0 152.8 63.9 152.5 C 61.1 152.3 58.1 152.0 55.8 150.2 C 53.0 147.9 51.9 144.0 52.7 140.6 C 53.7 135.4 55.9 130.6 57.6 125.6 C 68.8 94.1 80.0 62.6 91.2 31.1 C 92.8 26.5 94.2 21.8 96.5 17.4 C 99.5 11.4 104.4 6.3 110.6 3.6 C 114.4 1.9 118.4 0.9 122.5 0.0 M 111.7 13.7 C 106.2 17.4 103.7 23.8 101.6 29.8 C 90.4 61.8 78.9 93.8 67.7 125.8 C 65.6 131.5 63.4 137.2 61.9 143.1 C 68.0 143.5 74.1 143.4 80.1 143.3 C 81.9 139.1 83.4 134.9 84.8 130.7 C 96.0 98.6 107.4 66.5 118.5 34.4 C 119.2 32.9 119.8 31.2 121.1 30.1 C 123.4 28.6 126.8 28.3 129.1 29.9 C 130.5 30.9 131.2 32.5 131.9 34.0 C 138.2 50.4 144.0 67.0 150.5 83.4 C 153.0 80.1 154.3 76.2 155.5 72.4 C 159.9 60.5 164.5 48.7 168.8 36.7 C 169.7 34.5 170.5 32.0 172.2 30.2 C 174.4 28.4 177.7 28.5 180.2 29.8 C 182.1 31.0 182.8 33.4 183.6 35.3 C 194.5 67.0 205.8 98.5 216.8 130.1 C 218.3 134.6 219.9 139.0 221.8 143.3 C 227.9 143.4 234.0 143.5 240.0 143.1 C 238.7 138.5 237.1 134.1 235.5 129.6 C 224.2 97.6 212.8 65.6 201.5 33.6 C 199.4 27.9 197.9 21.8 193.9 17.1 C 186.3 8.6 172.1 7.4 162.9 13.9 C 157.0 18.5 154.3 25.7 150.8 32.0 C 147.8 26.3 145.5 19.9 140.6 15.4 C 132.9 8.2 120.3 8.1 111.7 13.7 M 261.3 10.4 C 255.1 11.1 248.8 12.9 243.9 16.9 C 238.7 20.8 235.6 26.9 234.0 33.1 C 232.4 38.9 232.2 45.0 232.2 51.0 C 232.3 69.0 232.2 87.0 232.3 105.1 C 232.2 112.1 233.3 119.3 236.2 125.8 C 239.2 132.4 244.9 137.9 251.8 140.3 C 258.6 142.8 265.9 143.2 273.0 143.4 C 283.1 143.4 293.3 143.8 303.2 141.2 C 309.8 139.5 315.9 135.4 319.4 129.4 C 324.1 121.5 325.3 112.0 325.4 103.0 C 325.4 86.0 325.3 69.0 325.4 52.0 C 325.4 44.2 324.8 36.3 322.2 28.8 C 319.5 21.2 313.3 14.9 305.6 12.4 C 299.3 10.3 292.6 9.9 286.0 9.7 C 277.8 9.6 269.5 9.4 261.3 10.4 M 330.3 9.9 C 330.4 16.2 330.4 22.4 330.4 28.7 C 347.2 28.7 364.1 28.7 381.0 28.6 C 385.0 28.7 389.1 28.8 392.9 30.1 C 397.3 31.7 400.7 35.5 401.9 39.9 C 403.0 43.9 402.9 48.0 403.0 52.0 C 403.0 67.7 403.0 83.3 403.0 99.0 C 403.0 103.4 403.1 107.9 402.1 112.3 C 401.0 117.8 396.3 122.4 390.8 123.6 C 385.6 124.7 380.3 124.3 375.0 124.4 C 366.1 124.2 357.2 124.6 348.3 124.1 C 348.3 101.0 348.5 77.9 348.2 54.8 C 342.3 54.5 336.3 54.5 330.3 54.9 C 330.5 84.3 330.5 113.7 330.3 143.1 C 346.2 143.7 362.1 143.1 378.0 143.4 C 388.0 143.2 398.7 143.0 407.3 137.3 C 413.5 133.5 417.1 126.7 418.9 119.8 C 421.2 111.4 420.6 102.6 420.7 94.0 C 420.6 77.3 420.9 60.6 420.6 44.0 C 420.0 33.9 417.2 22.7 408.7 16.3 C 400.5 10.3 389.8 10.0 380.0 9.6 C 363.4 9.8 346.9 9.3 330.3 9.9 M 451.9 11.8 C 435.9 17.5 424.9 34.1 425.3 51.0 C 425.4 68.0 425.4 85.0 425.3 102.0 C 424.9 118.9 435.9 135.5 451.9 141.2 C 460.3 144.1 469.3 143.2 478.0 143.3 C 490.3 143.2 502.5 143.6 514.8 143.1 C 514.8 136.9 514.8 130.6 514.7 124.3 C 499.8 124.4 484.9 124.3 470.0 124.4 C 465.3 124.4 460.3 124.2 456.0 122.0 C 449.6 118.7 445.2 112.0 444.4 104.9 C 444.0 101.3 444.0 97.6 444.0 94.0 C 444.0 82.7 444.0 71.3 444.0 60.0 C 444.0 56.0 444.0 52.0 444.4 48.1 C 445.2 41.0 449.6 34.3 456.0 31.0 C 460.3 28.7 465.3 28.7 470.0 28.6 C 484.9 28.7 499.8 28.6 514.8 28.7 C 514.8 22.4 514.8 16.1 514.8 9.9 C 502.5 9.4 490.3 9.8 478.0 9.7 C 469.3 9.8 460.3 8.9 451.9 11.8 M 519.8 9.8 C 519.4 39.2 519.8 68.6 519.6 98.0 C 519.5 106.3 520.8 114.8 524.8 122.1 C 529.9 131.9 539.2 139.5 549.9 142.2 C 557.1 143.9 564.6 143.2 572.0 143.3 C 584.5 143.2 597.1 143.7 609.6 143.0 C 609.5 136.8 609.5 130.6 609.6 124.3 C 594.4 124.4 579.2 124.3 564.0 124.4 C 559.3 124.4 554.3 124.1 550.1 121.8 C 544.7 118.9 540.9 113.5 539.5 107.6 C 538.3 102.8 538.6 97.9 538.6 93.0 C 538.7 65.3 538.5 37.6 538.7 9.9 C 532.4 9.5 526.1 9.5 519.8 9.8 M 542.8 9.8 C 542.4 39.2 542.8 68.6 542.6 98.0 C 542.4 105.6 545.5 113.8 552.2 117.9 C 556.3 120.5 561.3 120.5 566.0 120.4 C 580.4 120.2 594.8 120.5 609.3 120.2 C 609.5 114.1 609.5 107.9 609.3 101.7 C 595.5 101.4 581.7 101.7 567.9 101.7 C 566.1 101.5 563.9 101.9 562.6 100.3 C 562.0 98.3 561.9 96.2 561.9 94.1 C 561.9 66.0 562.0 37.9 561.8 9.8 C 555.5 9.5 549.1 9.6 542.8 9.8 M 122.3 34.3 C 119.7 38.6 118.8 43.5 117.0 48.1 C 107.0 77.4 97.0 106.6 86.8 135.9 C 86.0 138.2 85.4 140.7 84.8 143.1 C 90.9 143.5 97.0 143.4 103.0 143.2 C 104.5 139.2 105.9 135.2 107.2 131.1 C 112.4 115.3 117.8 99.6 122.8 83.7 C 123.6 81.1 124.5 78.6 125.5 76.1 C 132.3 94.7 139.4 113.1 146.2 131.7 C 147.5 135.1 148.6 138.6 150.3 141.9 C 150.6 141.8 151.3 141.5 151.6 141.4 C 153.9 137.4 154.9 132.8 156.7 128.6 C 163.3 111.1 169.6 93.5 176.5 76.1 C 183.1 96.4 190.4 116.5 197.0 136.9 C 197.7 138.9 198.3 140.9 199.4 142.8 C 205.2 144.1 211.2 143.2 217.1 143.1 C 216.2 140.0 215.3 136.9 214.3 133.8 C 204.1 104.3 193.9 74.8 183.8 45.3 C 182.5 41.6 181.6 37.8 179.6 34.3 C 178.8 32.8 176.7 32.5 175.1 32.7 C 173.3 33.8 172.5 35.9 171.7 37.8 C 164.8 56.9 158.0 76.1 150.9 95.1 C 143.8 75.9 136.8 56.5 129.9 37.2 C 129.4 36.0 128.9 34.8 128.1 33.8 C 126.5 32.2 123.4 32.2 122.3 34.3 M 330.3 32.9 C 330.4 39.2 330.4 45.4 330.4 51.6 C 344.3 51.4 358.1 51.7 372.0 51.5 C 374.3 51.5 376.6 51.4 378.8 51.9 C 381.3 52.8 381.2 55.8 381.3 57.9 C 381.4 64.0 381.2 70.0 381.3 76.0 C 381.2 84.4 381.7 92.7 380.9 101.1 C 378.0 101.5 375.1 101.6 372.3 101.1 C 371.5 85.8 372.2 70.5 371.9 55.2 C 365.3 55.0 358.8 55.0 352.3 55.2 C 352.4 76.8 352.4 98.5 352.3 120.1 C 361.5 120.6 370.8 120.2 380.0 120.4 C 384.7 120.3 389.8 120.6 394.0 118.0 C 398.5 115.0 398.7 109.0 398.8 104.1 C 398.8 86.4 398.8 68.7 398.8 50.9 C 398.8 46.8 398.8 42.3 396.4 38.6 C 394.4 35.3 390.7 33.3 386.9 32.9 C 381.6 32.3 376.3 32.7 371.0 32.7 C 357.4 32.8 343.9 32.3 330.3 32.9 M 460.0 33.9 C 454.9 35.9 451.2 40.5 449.5 45.6 C 448.2 49.2 448.2 53.1 448.2 57.0 C 448.2 62.9 448.2 68.8 448.3 74.7 C 467.1 74.5 485.8 74.5 504.6 74.6 C 504.6 68.5 504.6 62.4 504.7 56.2 C 491.3 55.8 477.9 56.7 464.6 55.7 C 465.2 54.5 465.9 53.4 466.5 52.2 C 468.5 51.4 470.8 51.5 473.0 51.5 C 486.9 51.7 500.8 51.4 514.7 51.6 C 514.8 45.4 514.8 39.1 514.8 32.8 C 500.9 32.4 486.9 32.8 473.0 32.6 C 468.7 32.6 464.1 32.3 460.0 33.9 M 448.3 78.4 C 448.2 84.2 448.2 90.1 448.2 96.0 C 448.2 99.9 448.2 103.8 449.5 107.4 C 451.3 112.7 455.3 117.5 460.7 119.3 C 465.0 120.8 469.6 120.4 474.0 120.4 C 487.6 120.2 501.2 120.6 514.8 120.2 C 514.8 114.0 514.8 107.9 514.8 101.8 C 500.2 101.4 485.5 101.7 470.9 101.7 C 469.5 101.6 468.1 101.6 466.8 101.2 C 466.0 100.0 465.4 98.7 464.7 97.5 C 478.0 97.0 491.4 97.8 504.7 97.1 C 504.6 90.9 504.6 84.6 504.6 78.4 C 485.8 78.5 467.1 78.5 448.3 78.4 Z" />
<path fill="#ffffff" stroke="#ffffff" stroke-width="0.09375" opacity="1.00" d=" M 43.4 19.6 C 40.5 14.4 44.2 6.8 50.1 5.9 C 54.7 5.2 59.3 5.7 64.0 5.7 C 73.6 6.3 83.3 6.4 93.0 6.4 C 90.5 14.3 87.5 22.0 84.8 29.7 C 83.2 29.1 81.6 28.4 80.0 27.8 C 81.5 22.3 83.7 17.0 85.1 11.5 C 72.7 11.7 60.4 11.1 48.1 11.5 C 48.0 13.1 47.3 14.7 47.7 16.4 C 48.7 18.0 50.2 19.2 51.6 20.4 C 61.1 27.9 70.5 35.3 79.9 43.0 C 77.6 49.6 75.0 56.2 72.8 62.8 C 71.4 66.7 69.8 70.8 66.2 73.2 C 63.4 75.2 59.7 75.2 56.4 74.5 C 52.1 73.4 48.0 71.6 43.8 70.1 C 40.3 68.8 36.5 67.8 33.3 65.6 C 29.5 62.9 27.7 57.7 29.1 53.1 C 31.0 46.3 33.8 39.7 36.2 33.0 C 37.8 33.5 39.4 33.9 41.0 34.3 C 39.8 40.2 37.3 45.7 35.3 51.4 C 34.4 54.2 33.5 57.8 35.6 60.3 C 37.5 62.1 40.0 62.9 42.3 63.8 C 46.3 65.1 50.1 66.6 54.0 68.0 C 56.5 68.8 59.2 69.8 61.8 69.2 C 64.2 68.6 65.4 66.3 66.3 64.2 C 68.2 60.0 69.5 55.6 70.9 51.1 C 65.3 49.0 59.8 46.8 54.1 45.4 C 52.8 48.9 51.6 52.3 50.4 55.8 C 48.7 55.2 46.9 54.7 45.2 54.1 C 47.0 48.7 48.9 43.4 51.1 38.1 C 58.6 40.6 65.7 44.0 73.4 45.7 C 71.2 43.1 68.8 40.8 66.1 38.8 C 60.5 34.5 55.1 29.9 49.4 25.6 C 47.2 23.8 44.8 22.1 43.4 19.6 Z" />
<path fill="#ffffff" stroke="#ffffff" stroke-width="0.09375" opacity="1.00" d=" M 50.1 13.9 C 60.7 13.2 71.4 13.6 82.0 14.1 C 80.7 18.3 79.3 22.4 77.7 26.4 C 76.4 26.5 75.1 26.6 73.8 26.7 C 76.6 29.5 79.6 32.0 82.8 34.4 C 82.2 36.5 81.5 38.6 80.9 40.8 C 74.5 35.7 68.1 30.5 61.6 25.4 C 57.4 21.9 52.6 18.9 50.1 13.9 M 66.5 20.3 C 67.9 22.3 69.7 23.9 71.8 25.2 C 72.2 23.5 72.6 21.8 73.0 20.1 C 70.8 20.1 68.6 20.2 66.5 20.3 Z" />
<path fill="#ffffff" stroke="#ffffff" stroke-width="0.09375" opacity="1.00" d=" M 261.5 29.6 C 268.2 28.0 275.2 28.9 282.0 28.6 C 288.2 28.7 295.0 28.1 300.5 31.6 C 305.9 35.1 307.7 41.9 307.6 47.9 C 307.6 66.3 307.5 84.7 307.6 103.0 C 307.7 107.5 307.4 112.2 305.2 116.2 C 303.4 119.7 300.2 122.3 296.4 123.3 C 291.1 124.7 285.5 124.3 280.0 124.4 C 274.1 124.3 268.1 124.8 262.2 123.6 C 258.4 122.8 254.8 120.6 252.8 117.2 C 250.0 112.7 249.9 107.2 249.8 102.0 C 249.9 85.0 249.9 68.0 249.8 51.0 C 249.9 45.8 250.0 40.3 252.8 35.8 C 254.7 32.7 258.0 30.5 261.5 29.6 M 264.3 33.2 C 260.9 34.0 257.8 36.1 256.1 39.2 C 254.0 43.1 254.1 47.7 254.0 52.0 C 254.1 69.0 254.0 86.0 254.0 103.1 C 254.2 107.5 254.1 112.3 256.8 116.1 C 259.4 119.6 264.0 120.2 267.9 120.4 C 274.3 120.5 280.7 120.3 287.0 120.4 C 291.2 120.3 296.0 120.3 299.4 117.4 C 303.0 114.0 303.4 108.7 303.4 104.0 C 303.3 86.0 303.4 68.0 303.4 50.0 C 303.4 44.9 302.6 39.0 298.3 35.6 C 293.7 32.0 287.5 32.6 282.0 32.6 C 276.1 32.8 270.1 32.1 264.3 33.2 Z" />
<path fill="#ffffff" stroke="#ffffff" stroke-width="0.09375" opacity="1.00" d=" M 37.9 50.9 C 39.8 45.7 41.7 40.6 43.9 35.5 C 45.5 36.1 47.2 36.7 48.8 37.3 C 46.7 43.2 44.4 49.1 42.5 55.1 C 47.8 57.6 53.3 59.6 59.0 61.0 C 59.6 59.4 60.3 57.8 61.0 56.2 C 60.6 55.9 59.7 55.5 59.3 55.2 C 58.7 56.3 58.2 57.4 57.6 58.5 C 55.9 58.0 54.1 57.4 52.4 56.9 C 53.4 54.0 54.4 51.1 55.5 48.2 C 59.7 49.4 63.8 50.9 67.9 52.5 C 66.6 56.8 65.5 61.3 63.2 65.2 C 62.4 66.7 60.6 67.2 59.1 66.9 C 55.6 66.4 52.4 64.9 49.1 63.8 C 45.8 62.5 42.2 61.6 39.1 59.9 C 37.9 59.2 36.6 58.2 36.5 56.7 C 36.5 54.7 37.3 52.8 37.9 50.9 Z" />
<path fill="#ffffff" stroke="#ffffff" stroke-width="0.09375" opacity="1.00" d=" M 272.5 51.5 C 276.6 51.4 280.6 51.4 284.6 51.4 C 285.9 60.2 285.1 69.2 285.3 78.0 C 285.2 85.8 285.8 93.7 284.6 101.5 C 280.7 101.6 276.7 102.0 272.7 101.3 C 272.0 97.2 272.3 93.1 272.3 89.0 C 272.5 76.5 272.1 64.0 272.5 51.5 Z" />
<path fill="#ffffff" stroke="#ffffff" stroke-width="0.09375" opacity="1.00" d=" M 638.7 67.8 C 646.2 63.9 654.8 63.1 663.1 63.6 C 670.4 64.1 678.0 65.5 683.7 70.3 C 689.9 75.2 692.9 84.0 690.7 91.7 C 689.6 95.5 687.0 98.6 684.5 101.5 C 687.9 103.7 691.2 106.3 692.9 110.1 C 697.8 120.1 695.1 132.7 688.0 141.1 C 682.4 147.7 673.5 150.8 665.0 151.3 C 655.7 151.8 645.8 151.4 637.6 146.5 C 630.4 142.4 626.0 134.9 623.8 127.2 C 623.1 125.5 623.6 123.2 625.5 122.6 C 630.0 121.1 634.8 121.2 639.4 120.5 C 643.1 120.2 646.9 119.2 650.6 120.2 C 652.6 122.8 653.2 126.3 655.6 128.6 C 659.0 130.4 664.2 129.5 665.7 125.6 C 667.0 122.0 666.7 116.7 662.7 115.1 C 659.0 114.1 655.3 115.6 651.6 115.3 C 650.0 115.0 649.1 113.4 649.1 112.0 C 648.8 106.1 649.6 100.2 650.4 94.4 C 644.5 94.1 638.7 93.0 632.8 92.2 C 630.4 91.7 627.9 91.4 625.8 90.2 C 624.3 88.6 624.9 86.3 625.4 84.5 C 627.6 77.6 632.2 71.2 638.7 67.8 M 640.3 74.3 C 636.3 76.8 633.9 81.0 631.8 85.1 C 636.4 86.2 641.1 87.0 645.9 87.4 C 648.1 84.3 650.3 80.4 654.4 79.5 C 658.8 78.5 664.2 79.0 667.2 82.7 C 670.1 86.2 669.8 91.6 666.8 94.8 C 664.1 97.7 660.0 98.4 656.3 99.4 C 656.1 102.2 655.8 105.1 655.7 108.0 C 659.7 108.3 664.1 107.9 667.6 110.4 C 675.6 116.2 674.4 131.0 665.0 134.9 C 661.3 136.3 656.9 136.2 653.3 134.6 C 649.8 133.1 648.1 129.6 646.4 126.5 C 641.2 126.8 636.1 127.4 630.9 128.0 C 632.6 132.3 634.9 136.5 638.6 139.4 C 643.5 143.4 649.8 144.6 656.0 144.8 C 662.5 144.9 669.3 145.1 675.4 142.4 C 682.8 139.3 688.0 131.8 688.7 123.7 C 689.1 119.2 688.6 114.1 685.4 110.5 C 682.5 107.1 678.1 105.8 674.1 104.2 C 674.3 103.1 674.6 102.0 675.0 100.9 C 677.7 97.6 682.0 95.8 683.8 91.7 C 685.9 86.3 684.7 79.6 680.3 75.8 C 675.4 71.2 668.4 70.5 662.0 70.2 C 654.7 70.0 646.7 70.1 640.3 74.3 M 655.3 86.1 C 653.0 87.4 652.6 90.4 651.6 92.6 C 654.5 92.4 657.6 92.6 660.5 91.5 C 662.2 90.9 663.0 89.1 662.8 87.3 C 661.0 85.2 657.8 85.2 655.3 86.1 Z" />
<path fill="#ffffff" stroke="#ffffff" stroke-width="0.09375" opacity="1.00" d=" M 24.1 66.2 C 25.7 66.9 27.4 67.6 29.0 68.3 C 27.2 75.1 24.0 81.5 22.1 88.3 C 21.2 90.9 22.0 94.1 24.4 95.6 C 27.3 97.3 30.7 98.2 33.8 99.3 C 37.8 100.6 41.6 102.4 45.6 103.4 C 47.8 103.9 50.4 103.7 51.9 101.9 C 53.5 99.9 54.3 97.4 55.2 95.1 C 56.9 90.1 58.7 85.1 60.5 80.2 C 62.3 80.5 64.1 80.9 65.8 81.2 C 64.1 86.6 62.1 91.9 60.2 97.3 C 59.2 100.1 58.2 102.9 56.2 105.2 C 53.6 108.4 49.1 109.9 45.1 109.0 C 40.9 108.1 37.0 106.3 32.9 104.9 C 29.3 103.6 25.6 102.5 22.3 100.7 C 19.0 98.9 16.6 95.6 16.3 91.9 C 16.0 88.2 17.3 84.7 18.5 81.4 C 20.4 76.3 22.2 71.2 24.1 66.2 Z" />
<path fill="#ffffff" stroke="#ffffff" stroke-width="0.09375" opacity="1.00" d=" M 31.4 69.1 C 33.1 69.7 34.7 70.3 36.4 70.9 C 35.0 75.6 33.2 80.1 31.5 84.7 C 30.7 86.5 30.8 88.5 30.9 90.5 C 34.0 86.2 35.3 81.0 37.1 76.1 C 38.7 76.5 40.3 77.0 41.9 77.4 C 40.4 84.1 37.6 90.5 35.4 97.0 C 31.4 96.2 27.6 94.7 24.0 92.7 C 24.8 84.4 28.8 76.9 31.4 69.1 Z" />
<path fill="#ffffff" stroke="#ffffff" stroke-width="0.09375" opacity="1.00" d=" M 53.4 77.1 C 55.0 77.7 56.7 78.3 58.4 78.9 C 56.4 84.8 54.4 90.6 52.2 96.4 C 51.4 98.4 50.3 101.1 47.7 101.4 C 44.1 101.3 40.9 99.4 37.6 98.0 C 39.7 91.7 42.1 85.4 44.4 79.1 C 46.2 79.5 48.0 79.8 49.8 80.2 C 48.1 85.2 45.8 90.1 45.1 95.4 C 46.6 94.0 48.0 92.4 48.6 90.5 C 50.2 86.0 51.7 81.5 53.4 77.1 Z" />
<path fill="#ffffff" stroke="#ffffff" stroke-width="0.09375" opacity="1.00" d=" M 11.4 101.2 C 13.2 101.8 15.0 102.3 16.8 102.9 C 14.8 108.3 12.7 113.5 10.8 118.9 C 9.7 122.2 8.7 126.1 10.7 129.2 C 13.6 134.0 21.0 134.9 24.7 130.7 C 27.2 127.6 27.7 123.3 30.2 120.2 C 33.0 117.1 38.6 117.8 40.5 121.6 C 42.1 124.0 41.0 126.9 40.3 129.3 C 38.4 134.8 36.3 140.2 34.1 145.5 C 32.5 144.9 30.8 144.3 29.2 143.7 C 31.3 136.9 34.7 130.5 35.7 123.3 C 32.1 126.3 31.8 131.4 28.6 134.6 C 23.6 140.0 14.1 140.2 8.8 135.2 C 6.4 133.0 4.6 130.1 4.1 126.9 C 3.5 123.4 4.6 119.9 5.7 116.6 C 7.6 111.5 9.5 106.3 11.4 101.2 Z" />
<path fill="#ffffff" stroke="#ffffff" stroke-width="0.09375" opacity="1.00" d=" M 18.5 104.2 C 20.3 104.5 22.1 104.9 23.9 105.2 C 22.0 112.2 18.4 118.6 17.4 125.8 C 20.1 123.4 21.2 119.9 22.9 116.9 C 26.1 111.9 32.5 109.2 38.3 110.8 C 44.6 112.3 49.4 118.5 49.2 125.0 C 49.1 128.1 48.0 131.1 46.9 134.0 C 45.2 138.7 43.5 143.4 41.7 148.0 C 40.0 147.4 38.2 146.8 36.5 146.2 C 38.6 139.8 41.5 133.6 43.2 127.1 C 44.6 122.8 42.1 117.6 37.6 116.4 C 34.5 115.7 30.8 116.0 28.5 118.5 C 25.8 121.8 25.3 126.3 22.5 129.5 C 18.5 133.0 11.0 129.7 11.9 124.1 C 13.3 117.2 16.5 110.9 18.5 104.2 Z" />
</svg>
