<?xml version="1.0" encoding="UTF-8" ?>
<!DOCTYPE svg PUBLIC "-//W3C//DTD SVG 1.1//EN" "http://www.w3.org/Graphics/SVG/1.1/DTD/svg11.dtd">
<svg width="1875pt" height="454pt" viewBox="0 0 1875 454" version="1.1" xmlns="http://www.w3.org/2000/svg">
<path fill="#ffffff" stroke="#ffffff" stroke-width="0.09375" opacity="1.00" d=" M 1573.4 10.6 C 1576.5 10.0 1579.8 9.6 1583.0 9.6 C 1659.0 9.6 1735.0 9.6 1811.0 9.5 C 1816.3 9.6 1821.4 10.9 1826.3 12.8 C 1831.3 14.7 1836.3 17.1 1840.4 20.6 C 1843.6 23.4 1847.2 25.8 1849.9 29.2 C 1853.0 33.0 1856.5 36.7 1858.8 41.2 C 1861.3 46.0 1863.4 51.1 1864.6 56.4 C 1865.9 61.8 1865.4 67.5 1865.4 73.0 C 1865.4 117.3 1865.4 161.7 1865.4 206.0 C 1865.4 211.2 1865.9 216.5 1864.5 221.6 C 1862.3 230.3 1857.3 237.9 1851.5 244.5 C 1843.6 253.5 1833.8 261.1 1822.6 265.5 C 1818.3 267.2 1813.5 266.5 1809.0 266.6 C 1731.0 266.6 1653.0 266.6 1575.0 266.6 C 1569.8 266.5 1564.9 264.8 1560.3 262.6 C 1549.3 257.2 1540.5 247.9 1534.9 237.0 C 1530.0 228.6 1527.8 218.7 1527.8 209.0 C 1527.9 169.3 1527.8 129.7 1527.8 90.0 C 1527.9 78.9 1527.2 67.7 1529.7 56.8 C 1531.6 48.4 1534.9 40.1 1540.0 33.0 C 1547.7 21.6 1559.9 13.3 1573.4 10.6 M 1607.4 71.4 C 1607.1 77.9 1607.4 84.5 1607.3 91.0 C 1607.3 130.5 1607.2 170.1 1607.4 209.6 C 1666.9 209.5 1726.4 209.6 1785.9 209.6 C 1786.8 205.4 1786.4 201.2 1786.4 197.0 C 1786.4 155.3 1786.5 113.6 1786.4 71.9 C 1783.1 70.8 1779.5 71.5 1776.0 71.4 C 1719.8 71.4 1663.6 71.4 1607.4 71.4 Z" />
<path fill="#ffffff" stroke="#ffffff" stroke-width="0.09375" opacity="1.00" d=" M 9.8 14.8 C 14.5 14.4 19.3 14.6 24.0 14.6 C 97.7 14.6 171.3 14.6 245.0 14.6 C 251.8 14.7 258.7 14.2 265.5 15.6 C 287.2 19.8 307.3 35.1 314.7 56.3 C 317.0 62.6 316.4 69.4 316.4 76.0 C 316.4 136.7 316.4 197.4 316.4 258.1 C 315.3 258.5 314.1 258.6 313.0 258.6 C 287.4 258.5 261.8 258.6 236.1 258.6 C 235.9 257.1 235.7 255.6 235.7 254.1 C 235.8 200.0 235.7 146.0 235.7 92.0 C 235.8 88.8 235.8 85.6 235.7 82.3 C 186.8 82.3 137.9 82.3 89.0 82.3 C 88.7 83.5 88.6 84.7 88.5 86.0 C 88.6 143.5 88.5 201.0 88.6 258.6 C 62.2 258.6 35.9 258.5 9.5 258.6 C 9.7 178.4 9.5 98.2 9.6 18.0 C 9.6 17.2 9.7 15.6 9.8 14.8 Z" />
<path fill="#ffffff" stroke="#ffffff" stroke-width="0.09375" opacity="1.00" d=" M 715.2 16.4 C 843.8 16.5 972.4 16.4 1101.0 16.4 C 1107.1 16.5 1112.9 19.0 1118.2 21.9 C 1123.9 24.9 1127.9 30.1 1132.5 34.5 C 1137.0 38.6 1140.0 43.9 1142.8 49.2 C 1146.1 55.6 1148.0 62.8 1148.3 70.0 C 1148.3 125.6 1148.2 181.3 1148.0 237.0 C 1148.1 244.2 1147.9 251.4 1147.5 258.6 C 1121.4 258.6 1095.3 258.5 1069.2 258.6 C 1068.2 254.8 1068.8 250.9 1068.7 247.0 C 1068.7 192.1 1068.7 137.2 1068.6 82.4 C 1036.5 82.3 1004.4 82.3 972.3 82.3 C 971.9 86.9 972.1 91.4 972.1 96.0 C 972.1 145.3 972.1 194.7 972.1 244.0 C 972.0 248.9 972.3 253.8 971.8 258.6 C 946.0 258.5 920.3 258.5 894.5 258.6 C 894.7 200.2 894.5 141.8 894.6 83.4 C 860.8 83.4 827.1 83.4 793.4 83.4 C 793.3 137.6 793.4 191.8 793.3 246.0 C 793.2 250.2 793.8 254.5 792.8 258.6 C 766.9 258.5 741.1 258.6 715.2 258.6 C 714.8 257.4 714.7 256.3 714.6 255.1 C 714.7 179.4 714.7 103.7 714.7 28.0 C 714.8 24.1 714.2 20.2 715.2 16.4 Z" />
<path fill="#ffffff" stroke="#ffffff" stroke-width="0.09375" opacity="1.00" d=" M 377.4 18.2 C 378.0 18.0 379.3 17.8 380.0 17.6 C 460.0 17.6 540.0 17.7 620.0 17.6 C 626.4 17.8 632.6 20.0 638.4 22.7 C 653.1 30.4 665.1 43.6 670.7 59.4 C 672.9 65.3 672.9 71.7 673.0 78.0 C 673.0 133.3 673.0 188.7 673.0 244.0 C 673.0 248.9 673.2 253.8 672.8 258.6 C 588.2 258.5 503.6 258.6 419.0 258.6 C 412.0 258.5 404.8 259.0 397.9 257.4 C 387.6 255.5 377.6 251.3 370.0 244.0 C 365.3 238.9 361.0 233.3 358.2 226.9 C 351.7 212.5 350.4 196.5 349.6 181.0 C 350.6 165.6 351.5 149.9 357.5 135.4 C 360.1 129.5 363.3 123.6 368.0 119.0 C 371.8 115.2 375.5 111.0 380.3 108.4 C 387.6 104.4 395.7 102.1 404.0 101.7 C 466.2 101.6 528.4 101.8 590.6 101.6 C 590.6 91.2 590.6 80.8 590.6 70.4 C 520.7 70.2 450.8 70.3 380.9 70.3 C 379.7 70.3 378.6 70.1 377.4 69.9 C 377.5 52.6 377.4 35.4 377.4 18.2 M 438.3 157.4 C 438.1 171.4 438.1 185.6 438.3 199.6 C 489.1 199.6 539.8 199.7 590.6 199.6 C 590.6 185.5 590.6 171.5 590.6 157.4 C 539.8 157.3 489.1 157.4 438.3 157.4 Z" />
<path fill="#ffffff" stroke="#ffffff" stroke-width="0.09375" opacity="1.00" d=" M 1205.5 34.5 C 1214.4 24.5 1227.5 17.8 1241.0 17.6 C 1317.0 17.7 1393.0 17.6 1469.0 17.6 C 1474.7 17.7 1480.4 17.4 1486.1 17.8 C 1486.6 31.9 1486.2 45.9 1486.3 60.0 C 1486.2 66.4 1486.5 72.8 1486.1 79.2 C 1481.7 79.6 1477.4 79.4 1473.0 79.4 C 1405.1 79.4 1337.2 79.5 1269.4 79.4 C 1269.2 119.5 1269.3 159.6 1269.4 199.6 C 1336.6 199.7 1403.8 199.6 1471.0 199.7 C 1476.0 199.7 1481.1 199.5 1486.1 199.9 C 1486.6 213.9 1486.2 228.0 1486.3 242.0 C 1486.2 248.3 1486.6 254.7 1486.1 261.0 C 1481.4 261.3 1476.7 261.1 1472.0 261.1 C 1395.3 261.1 1318.6 261.1 1242.0 261.1 C 1235.8 261.0 1229.5 259.9 1224.0 257.0 C 1215.4 252.7 1207.9 246.4 1202.3 238.6 C 1194.7 229.9 1188.8 218.9 1188.8 207.0 C 1188.8 164.0 1188.8 121.0 1188.8 78.0 C 1188.8 73.0 1188.6 68.0 1189.2 63.0 C 1189.9 57.0 1192.5 51.5 1195.4 46.3 C 1197.9 41.7 1201.8 38.2 1205.5 34.5 Z" />
<path fill="#ffffff" stroke="#ffffff" stroke-width="0.09375" opacity="1.00" d=" M 1477.9 338.8 C 1482.9 338.4 1488.0 338.6 1493.0 338.6 C 1509.3 338.6 1525.7 338.5 1542.0 338.6 C 1552.4 339.0 1563.1 339.1 1572.9 343.1 C 1580.4 345.9 1586.8 351.5 1590.2 358.8 C 1592.5 364.2 1593.2 370.2 1593.2 376.0 C 1593.2 381.8 1592.1 387.9 1588.7 392.7 C 1584.1 399.1 1576.9 403.3 1569.4 405.5 C 1555.4 409.7 1540.6 409.1 1526.1 409.6 C 1520.9 409.9 1515.6 410.1 1510.6 411.6 C 1507.9 412.3 1505.5 414.3 1505.1 417.2 C 1504.5 421.0 1504.7 425.0 1505.0 428.9 C 1534.2 429.3 1563.5 428.7 1592.8 429.2 C 1592.8 437.1 1592.8 445.0 1592.8 452.9 C 1587.8 453.3 1582.9 453.0 1578.0 453.1 C 1549.3 453.1 1520.7 453.1 1492.0 453.1 C 1487.1 453.0 1482.2 453.3 1477.3 452.8 C 1477.3 440.5 1477.4 428.2 1477.3 415.9 C 1477.3 409.5 1478.6 402.8 1482.7 397.7 C 1487.9 391.3 1495.6 387.5 1503.4 385.5 C 1518.0 381.7 1533.2 382.6 1548.0 381.9 C 1552.6 381.5 1557.3 381.4 1561.6 379.6 C 1565.4 377.9 1566.9 372.8 1564.8 369.3 C 1563.5 367.1 1561.0 366.1 1558.7 365.2 C 1551.7 362.9 1544.3 362.8 1537.0 362.7 C 1517.4 362.6 1497.7 362.7 1478.1 362.6 C 1477.3 354.7 1477.7 346.8 1477.9 338.8 Z" />
<path fill="#ffffff" stroke="#ffffff" stroke-width="0.09375" opacity="1.00" d=" M 1605.9 338.8 C 1614.9 338.4 1624.0 338.4 1633.1 338.8 C 1633.6 351.8 1633.0 364.9 1633.4 377.9 C 1633.4 382.3 1636.5 386.0 1640.5 387.5 C 1646.3 389.9 1652.7 390.6 1658.9 390.8 C 1667.2 391.1 1675.7 391.1 1683.7 388.7 C 1686.9 387.7 1690.3 386.2 1692.3 383.3 C 1694.0 380.9 1694.1 377.9 1694.2 375.0 C 1694.3 363.0 1694.1 351.0 1694.3 338.9 C 1699.5 338.2 1704.7 338.7 1710.0 338.6 C 1713.9 338.6 1717.8 338.2 1721.6 339.1 C 1721.7 351.1 1721.6 363.1 1721.7 375.0 C 1721.7 381.9 1720.9 389.1 1717.0 394.9 C 1714.3 399.0 1710.4 401.9 1706.9 405.1 C 1709.6 408.3 1712.9 411.1 1715.2 414.8 C 1719.0 420.8 1721.7 427.7 1721.7 434.9 C 1721.6 440.9 1721.7 446.8 1721.7 452.8 C 1712.8 453.3 1703.8 453.1 1694.9 452.9 C 1694.5 448.6 1694.9 444.3 1694.7 440.0 C 1694.6 436.9 1693.2 434.0 1691.8 431.3 C 1689.3 426.7 1685.9 422.3 1681.4 419.7 C 1678.6 418.0 1675.2 418.1 1672.0 418.0 C 1666.7 418.1 1661.3 418.1 1656.0 418.0 C 1652.5 418.0 1648.8 418.0 1645.8 419.9 C 1640.4 423.1 1636.7 428.6 1634.2 434.2 C 1631.5 440.1 1633.0 446.6 1632.7 452.8 C 1623.8 453.3 1614.8 453.1 1605.9 452.9 C 1605.5 447.0 1605.7 441.0 1605.7 435.0 C 1605.8 427.4 1608.7 420.1 1612.8 413.8 C 1615.0 410.6 1618.0 408.0 1620.7 405.2 C 1616.4 401.6 1611.8 397.9 1609.2 392.8 C 1605.1 385.2 1605.8 376.3 1605.7 368.0 C 1605.9 358.3 1605.4 348.5 1605.9 338.8 Z" />
<path fill="#ffffff" stroke="#ffffff" stroke-width="0.09375" opacity="1.00" d=" M 1781.2 340.2 C 1788.3 338.2 1795.7 338.6 1803.0 338.6 C 1814.3 338.6 1825.7 338.6 1837.0 338.6 C 1841.7 338.6 1846.4 338.4 1851.1 338.8 C 1851.3 346.8 1851.7 354.7 1850.9 362.6 C 1832.3 362.7 1813.6 362.6 1795.0 362.6 C 1788.0 362.4 1781.6 366.0 1776.5 370.5 C 1772.7 373.8 1769.0 377.4 1766.8 382.0 C 1772.5 382.4 1778.3 382.2 1784.0 382.2 C 1806.4 382.3 1828.7 382.1 1851.1 382.3 C 1851.9 389.5 1851.2 396.8 1851.4 404.0 C 1851.2 413.5 1852.4 423.5 1848.3 432.3 C 1844.4 440.4 1836.7 446.3 1828.3 449.4 C 1818.3 453.1 1807.5 453.4 1797.0 453.6 C 1789.7 453.6 1782.2 454.2 1775.2 451.8 C 1761.6 447.4 1750.0 437.4 1742.9 425.1 C 1738.5 417.8 1735.9 409.5 1735.7 401.0 C 1735.7 395.1 1735.3 389.2 1736.5 383.4 C 1738.4 374.1 1743.6 365.9 1750.0 359.0 C 1758.4 350.1 1769.3 343.4 1781.2 340.2 M 1767.1 409.4 C 1769.7 414.4 1773.5 418.6 1777.9 422.2 C 1782.7 426.0 1788.6 429.2 1794.9 429.0 C 1802.2 428.9 1809.7 428.9 1816.7 426.7 C 1819.5 425.6 1823.0 424.0 1823.7 420.7 C 1824.3 416.9 1824.1 413.1 1823.8 409.4 C 1804.9 409.4 1786.0 409.4 1767.1 409.4 Z" />
<path fill="#ffffff" stroke="#ffffff" stroke-width="0.09375" opacity="1.00" d=" M 1120.9 360.0 C 1127.8 355.9 1136.1 355.0 1144.0 355.7 C 1148.3 356.1 1152.9 356.8 1156.4 359.5 C 1159.1 361.6 1161.6 364.2 1162.7 367.5 C 1163.8 370.6 1163.5 373.9 1163.2 377.1 C 1159.8 377.5 1156.4 377.7 1153.1 377.7 C 1152.5 375.3 1152.2 372.9 1151.3 370.6 C 1150.0 367.5 1146.7 365.6 1143.5 364.7 C 1136.4 363.4 1128.1 364.4 1123.2 370.2 C 1120.6 372.9 1120.7 377.1 1121.6 380.5 C 1122.7 382.5 1125.1 383.1 1127.1 383.8 C 1133.9 385.9 1140.9 387.2 1147.6 389.4 C 1152.4 390.9 1156.6 394.5 1159.0 398.9 C 1161.2 405.3 1159.2 412.7 1154.9 417.8 C 1150.9 423.2 1145.0 426.7 1138.7 428.7 C 1131.6 430.4 1124.2 430.2 1117.1 428.9 C 1110.8 427.8 1104.4 423.9 1102.5 417.5 C 1101.4 413.9 1099.8 409.4 1102.2 406.0 C 1105.4 405.1 1108.7 404.8 1111.9 404.9 C 1112.4 408.0 1112.4 411.4 1113.7 414.4 C 1115.8 418.2 1120.2 419.9 1124.3 420.7 C 1130.2 422.2 1136.6 420.8 1141.8 417.9 C 1145.6 415.7 1149.1 411.7 1148.7 407.1 C 1149.0 403.3 1145.5 400.8 1142.5 399.4 C 1134.0 395.9 1124.3 395.5 1116.2 390.8 C 1111.8 388.3 1109.1 383.1 1109.6 378.1 C 1110.4 370.8 1114.5 363.7 1120.9 360.0 Z" />
<path fill="#ffffff" stroke="#ffffff" stroke-width="0.09375" opacity="1.00" d=" M 1288.1 364.1 C 1291.1 361.2 1295.0 359.6 1298.9 358.1 C 1298.5 364.3 1296.2 370.3 1296.2 376.5 C 1298.8 376.6 1301.5 376.6 1304.1 376.7 C 1303.9 378.9 1303.6 381.1 1303.0 383.2 C 1300.1 383.4 1297.3 383.5 1294.4 383.5 C 1292.4 392.0 1291.3 400.8 1289.4 409.3 C 1288.8 412.7 1287.4 416.5 1289.1 419.7 C 1291.1 421.2 1294.1 420.8 1296.3 422.0 C 1296.4 424.3 1296.3 426.6 1295.8 428.9 C 1291.6 429.7 1287.2 429.8 1283.0 429.2 C 1280.6 428.9 1278.2 427.4 1277.7 425.0 C 1277.1 421.1 1277.8 417.2 1278.5 413.4 C 1279.9 406.1 1281.2 398.8 1282.7 391.6 C 1283.3 388.9 1283.6 386.2 1283.7 383.5 C 1281.8 383.4 1280.0 383.3 1278.1 383.2 C 1278.3 381.1 1278.6 379.0 1279.0 376.9 C 1281.2 376.7 1283.4 376.5 1285.5 376.4 C 1286.7 372.3 1286.6 368.0 1288.1 364.1 Z" />
<path fill="#ffffff" stroke="#ffffff" stroke-width="0.09375" opacity="1.00" d=" M 1211.7 376.6 C 1215.3 376.3 1219.0 376.3 1222.7 376.3 C 1211.4 395.3 1201.1 414.9 1190.1 434.2 C 1186.8 439.5 1183.5 445.7 1177.5 448.3 C 1173.4 449.6 1168.4 450.5 1164.6 448.0 C 1164.4 445.4 1164.5 442.8 1165.0 440.3 C 1168.4 440.3 1172.0 441.1 1175.2 439.4 C 1177.6 438.1 1179.1 435.6 1180.4 433.4 C 1181.6 431.2 1183.0 428.9 1182.5 426.4 C 1179.7 409.8 1175.8 393.4 1173.1 376.8 C 1176.7 376.4 1180.4 376.3 1183.9 376.9 C 1186.3 388.8 1188.4 400.8 1190.4 412.8 C 1191.4 412.9 1192.2 412.5 1192.6 411.5 C 1198.9 399.8 1205.4 388.3 1211.7 376.6 Z" />
<path fill="#ffffff" stroke="#ffffff" stroke-width="0.09375" opacity="1.00" d=" M 1238.1 377.3 C 1243.2 375.5 1248.7 375.2 1254.1 375.7 C 1257.9 376.2 1262.0 377.3 1265.0 380.0 C 1267.6 382.7 1267.8 386.8 1267.7 390.4 C 1264.3 390.9 1260.9 391.4 1257.5 391.5 C 1256.8 389.5 1256.3 387.5 1255.3 385.6 C 1253.7 383.8 1251.2 383.3 1248.9 383.2 C 1245.1 383.0 1241.1 383.7 1238.0 386.0 C 1235.8 388.1 1235.9 391.9 1238.0 394.0 C 1245.2 397.0 1253.3 397.7 1260.2 401.7 C 1262.2 403.0 1264.4 404.7 1265.2 407.1 C 1266.8 414.6 1262.6 422.3 1256.1 426.1 C 1250.1 429.8 1242.8 429.7 1236.0 429.5 C 1231.3 429.3 1226.2 427.7 1223.4 423.6 C 1221.3 420.4 1220.1 416.3 1221.1 412.5 C 1224.3 412.1 1227.6 411.5 1230.9 411.9 C 1231.8 414.8 1232.2 418.2 1234.5 420.4 C 1240.3 423.7 1248.2 422.7 1252.9 417.9 C 1254.7 416.3 1255.1 413.7 1254.6 411.5 C 1252.2 408.6 1248.3 407.9 1244.9 406.9 C 1238.9 405.2 1232.2 404.0 1228.0 399.0 C 1225.4 396.2 1226.1 392.2 1226.9 388.9 C 1228.2 383.3 1233.0 379.2 1238.1 377.3 Z" />
<path fill="#ffffff" stroke="#ffffff" stroke-width="0.09375" opacity="1.00" d=" M 1324.4 377.6 C 1330.0 375.4 1336.1 375.0 1342.0 375.9 C 1347.9 376.8 1353.1 381.2 1355.0 386.9 C 1357.2 392.7 1356.2 398.9 1354.8 404.7 C 1342.0 405.7 1329.1 404.5 1316.2 405.2 C 1316.2 408.6 1315.9 412.0 1317.0 415.2 C 1319.1 419.2 1323.5 422.0 1328.0 422.4 C 1331.2 422.1 1334.3 420.8 1336.9 418.9 C 1339.4 416.7 1341.1 413.9 1343.3 411.5 C 1346.5 411.6 1349.7 412.1 1352.9 412.6 C 1352.1 416.1 1349.5 418.6 1347.4 421.3 C 1344.6 424.7 1340.8 427.2 1336.6 428.4 C 1331.8 429.8 1326.8 429.6 1322.0 429.4 C 1316.1 429.0 1310.1 426.0 1307.6 420.5 C 1304.4 414.0 1305.4 406.6 1307.0 399.9 C 1309.1 390.4 1315.5 381.6 1324.4 377.6 M 1327.2 385.2 C 1322.8 387.9 1318.6 392.1 1318.1 397.5 C 1327.3 397.6 1336.5 397.6 1345.7 397.6 C 1345.9 393.9 1345.7 389.8 1343.0 387.0 C 1339.3 382.2 1332.1 382.2 1327.2 385.2 Z" />
<path fill="#ffffff" stroke="#ffffff" stroke-width="0.09375" opacity="1.00" d=" M 1382.6 379.9 C 1386.3 378.4 1389.8 376.1 1393.9 375.7 C 1397.7 375.3 1401.7 375.3 1405.4 376.7 C 1407.7 377.9 1409.4 380.0 1411.3 381.8 C 1414.8 380.3 1417.5 377.4 1421.3 376.4 C 1425.6 375.2 1430.4 375.1 1434.8 376.2 C 1438.3 377.1 1441.2 379.9 1442.1 383.4 C 1443.0 387.3 1441.8 391.3 1441.2 395.1 C 1438.9 406.1 1437.0 417.1 1434.9 428.1 C 1431.6 428.7 1428.3 428.6 1425.0 428.2 C 1426.2 418.7 1428.4 409.4 1430.1 400.0 C 1430.9 395.1 1433.0 389.5 1430.1 385.0 C 1424.7 381.4 1417.5 384.2 1413.9 388.9 C 1409.9 394.4 1409.3 401.4 1408.0 407.8 C 1406.6 414.7 1405.5 421.6 1404.4 428.5 C 1400.8 428.7 1397.1 428.7 1393.5 428.8 C 1395.9 419.5 1397.6 410.0 1399.3 400.5 C 1400.3 395.9 1401.3 391.2 1400.4 386.5 C 1398.1 383.0 1393.1 382.6 1389.6 384.4 C 1384.1 386.5 1380.7 392.0 1379.5 397.6 C 1377.6 405.9 1376.2 414.3 1374.6 422.7 C 1374.3 424.6 1373.7 426.4 1373.0 428.3 C 1369.9 428.6 1366.8 428.6 1363.7 428.2 C 1363.9 424.9 1364.6 421.7 1365.3 418.4 C 1367.9 404.6 1370.5 390.7 1373.1 376.9 C 1375.9 376.4 1378.9 376.2 1381.7 377.0 C 1381.9 377.7 1382.4 379.1 1382.6 379.9 Z" />
</svg>
