<?xml version="1.0" encoding="UTF-8" ?>
<!DOCTYPE svg PUBLIC "-//W3C//DTD SVG 1.1//EN" "http://www.w3.org/Graphics/SVG/1.1/DTD/svg11.dtd">
<svg width="600pt" height="200pt" viewBox="0 0 600 200" version="1.1" xmlns="http://www.w3.org/2000/svg">
<path fill="#ffffff" stroke="#ffffff" stroke-width="0.09375" opacity="1.00" d=" M 294.4 44.4 C 315.7 43.1 337.1 54.8 347.6 73.4 C 355.0 86.0 357.2 101.6 353.7 115.8 C 350.5 129.7 341.8 142.1 330.0 150.1 C 320.7 156.5 309.4 160.2 298.0 160.0 C 284.1 160.4 270.3 155.2 259.8 146.2 C 247.5 135.8 239.9 120.1 239.6 104.0 C 239.0 88.5 245.1 73.0 255.9 61.9 C 265.9 51.5 280.0 45.2 294.4 44.4 M 291.3 62.4 C 282.9 63.7 274.9 67.8 268.9 73.9 C 261.2 81.5 256.8 92.2 257.2 103.0 C 257.2 116.5 264.7 129.7 276.2 136.8 C 286.5 143.4 299.9 144.6 311.4 140.4 C 321.9 136.6 330.7 128.2 334.9 117.9 C 341.2 103.4 337.8 85.5 326.7 74.3 C 317.8 64.9 304.1 60.3 291.3 62.4 Z" />
<path fill="#ffffff" stroke="#ffffff" stroke-width="0.09375" opacity="1.00" d=" M 553.9 45.2 C 558.3 45.2 562.7 45.3 567.2 45.2 C 567.2 45.9 567.3 47.3 567.4 48.0 C 565.6 48.1 563.9 48.2 562.2 48.2 C 562.2 53.3 562.2 58.3 562.2 63.3 C 561.3 63.3 559.6 63.3 558.7 63.3 C 558.7 58.3 558.7 53.3 558.8 48.2 C 557.1 48.2 555.4 48.1 553.8 48.1 C 553.8 47.3 553.9 45.9 553.9 45.2 Z" />
<path fill="#ffffff" stroke="#ffffff" stroke-width="0.09375" opacity="1.00" d=" M 568.3 45.2 C 569.8 45.2 571.3 45.2 572.8 45.3 C 575.3 48.5 576.3 52.6 578.2 56.2 C 580.2 52.7 581.5 48.9 583.2 45.3 C 584.4 45.2 585.7 45.2 586.9 45.2 C 586.9 51.2 586.9 57.3 586.9 63.4 C 585.8 63.3 584.6 63.3 583.4 63.2 C 583.5 59.7 583.6 56.2 583.5 52.7 C 581.3 55.9 580.3 59.6 578.7 63.1 C 576.2 59.7 574.5 55.7 571.9 52.4 C 571.6 56.0 571.7 59.6 571.8 63.2 C 570.6 63.2 569.4 63.1 568.3 63.1 C 568.3 57.2 568.2 51.2 568.3 45.2 Z" />
<path fill="#ffffff" stroke="#ffffff" stroke-width="0.09375" opacity="1.00" d=" M 525.0 45.6 C 530.8 45.4 536.6 45.6 542.4 45.4 C 542.8 50.6 542.5 55.8 542.6 61.0 C 542.5 92.1 542.4 123.2 542.3 154.4 C 536.4 154.4 530.6 154.4 524.8 154.4 C 524.8 118.1 524.9 81.8 525.0 45.6 Z" />
<path fill="#ffffff" stroke="#ffffff" stroke-width="0.09375" opacity="1.00" d=" M 93.2 47.0 C 99.1 46.8 104.9 46.8 110.8 47.0 C 110.7 82.1 110.8 117.3 110.7 152.4 C 108.0 150.5 105.4 148.3 102.8 146.2 C 79.1 126.9 55.3 107.6 31.6 88.3 C 30.4 87.4 29.1 86.4 27.9 85.5 C 27.7 108.3 27.8 131.0 27.8 153.8 C 22.7 153.8 17.7 153.8 12.7 153.9 C 12.4 148.6 12.6 143.3 12.5 138.0 C 12.4 108.0 12.3 77.9 12.3 47.9 C 39.4 70.1 66.2 92.6 93.3 114.7 C 93.6 110.8 93.4 106.9 93.4 103.0 C 93.4 84.3 93.3 65.7 93.2 47.0 Z" />
<path fill="#ffffff" stroke="#ffffff" stroke-width="0.09375" opacity="1.00" d=" M 173.7 60.7 C 176.1 56.4 178.3 52.1 180.8 47.9 C 200.6 83.4 220.3 118.9 240.1 154.3 C 233.1 154.5 226.1 154.4 219.1 154.3 C 215.4 147.5 211.8 140.6 208.3 133.7 C 207.6 132.9 207.2 131.2 205.9 131.4 C 188.7 131.3 171.5 131.4 154.3 131.4 C 150.1 139.0 145.8 146.5 141.8 154.2 C 135.2 154.6 128.6 154.4 122.0 154.3 C 126.4 146.6 131.3 139.3 135.2 131.4 C 131.2 131.4 127.2 131.4 123.1 131.3 C 123.2 125.9 123.2 120.6 123.2 115.2 C 130.1 115.2 136.9 115.4 143.8 115.1 C 153.6 96.9 163.7 78.8 173.7 60.7 M 177.5 85.5 C 172.3 95.4 166.7 105.0 161.6 114.9 C 174.2 114.9 186.8 114.9 199.3 114.9 C 193.3 103.2 186.8 91.9 180.7 80.3 C 179.5 82.0 178.4 83.7 177.5 85.5 Z" />
<path fill="#ffffff" stroke="#ffffff" stroke-width="0.09375" opacity="1.00" d=" M 483.2 56.2 C 485.9 53.2 488.3 49.9 491.2 47.1 C 491.5 82.9 491.3 118.6 491.3 154.4 C 485.2 154.4 479.0 154.4 472.9 154.4 C 472.7 135.2 472.7 116.0 472.6 96.8 C 470.1 99.3 468.0 102.1 465.7 104.8 C 454.4 118.4 443.1 132.0 431.8 145.7 C 417.8 129.7 404.6 113.1 390.6 97.2 C 390.2 116.3 390.8 135.4 390.3 154.5 C 384.6 154.3 378.9 154.6 373.2 154.3 C 373.3 119.0 373.1 83.8 373.3 48.5 C 376.9 52.0 379.9 56.0 383.2 59.8 C 399.5 78.6 415.6 97.5 432.0 116.3 C 449.2 96.3 466.1 76.2 483.2 56.2 Z" />
</svg>
