<svg xmlns="http://www.w3.org/2000/svg" version="1.1" viewBox="22.15 -0.05 265.44 307.79">
<path fill="#ffffff" stroke="#ffffff" stroke-width="0.09375" opacity="1.00" d=" M 203.1 0.0 L 206.8 0.0 C 201.6 5.0 196.7 10.2 191.7 15.4 C 194.7 15.3 197.7 15.2 200.6 15.1 C 197.4 18.0 194.3 21.0 191.5 24.3 C 197.9 24.2 204.4 23.3 210.9 23.0 C 199.2 30.3 187.5 37.5 175.9 44.9 C 170.9 47.9 165.8 50.7 161.3 54.5 C 168.6 54.5 175.8 53.7 183.0 53.2 C 185.0 53.0 187.2 53.0 189.1 52.2 C 193.0 47.2 196.0 41.6 199.6 36.5 C 214.6 40.3 229.4 44.2 244.4 47.7 C 246.6 48.1 248.7 49.0 249.9 51.0 C 259.2 64.1 268.6 77.0 278.0 90.0 C 279.3 91.8 280.5 93.8 280.9 96.0 C 283.0 105.7 284.7 115.4 287.0 125.1 C 287.2 126.6 287.7 128.1 287.5 129.6 C 285.5 133.4 282.4 136.5 280.0 140.0 C 273.4 148.3 267.0 156.9 260.7 165.4 C 266.4 165.3 272.1 165.1 277.9 165.1 C 277.9 176.4 276.8 187.7 276.7 199.0 C 276.7 207.4 275.9 215.7 275.8 224.1 C 275.7 225.7 276.0 227.6 274.9 228.9 C 272.0 232.3 268.4 235.1 265.2 238.2 C 254.1 248.8 242.8 259.1 231.9 269.9 C 229.4 272.1 227.0 274.8 223.6 275.5 C 213.1 277.8 202.7 280.9 192.1 283.0 C 187.1 279.7 183.2 274.3 177.1 272.9 C 172.8 271.8 168.5 270.8 164.2 269.8 C 165.4 274.8 166.9 279.8 168.2 284.8 C 166.7 284.6 165.2 284.4 163.7 284.2 C 165.0 292.1 166.8 299.9 168.1 307.7 C 154.1 289.8 140.2 271.7 126.3 253.6 C 122.5 248.7 119.0 243.6 114.5 239.2 C 117.3 258.5 120.7 277.6 124.0 296.8 C 106.7 288.9 89.1 281.3 73.2 270.8 C 64.8 265.8 57.5 259.2 50.6 252.4 C 44.1 245.2 38.6 237.0 35.1 227.9 C 30.0 215.0 29.5 200.9 29.2 187.2 C 26.3 192.7 24.6 198.8 22.2 204.5 C 22.6 196.0 22.5 187.5 23.0 179.0 C 23.4 168.3 23.4 157.7 24.1 147.0 C 24.5 138.7 24.2 130.4 24.6 122.1 C 25.4 110.4 25.2 98.7 25.8 87.0 C 26.0 81.8 26.2 76.7 26.3 71.5 C 31.7 66.4 36.9 61.2 42.0 55.9 C 53.8 64.3 65.4 73.0 77.3 81.3 C 80.8 56.8 84.5 32.4 88.1 8.0 C 91.3 15.4 94.2 23.0 97.3 30.5 C 99.0 28.4 100.5 26.3 102.1 24.2 C 102.5 26.2 102.9 28.3 103.3 30.3 C 106.3 26.3 108.9 22.1 111.6 17.8 C 111.6 21.6 111.7 25.3 111.8 29.1 C 134.8 22.0 157.7 14.9 180.6 7.7 C 188.2 5.2 196.0 3.5 203.1 0.0 M 165.8 19.5 C 159.7 21.2 153.6 23.2 147.6 25.3 C 141.1 27.1 134.7 29.1 128.3 31.3 C 124.3 32.4 120.5 34.0 116.4 34.5 C 115.8 38.3 115.5 42.1 115.7 46.0 C 116.0 58.0 116.1 70.0 117.0 82.0 C 117.8 101.0 117.7 120.0 118.6 139.0 C 119.4 145.0 119.1 151.0 119.4 157.0 C 123.0 156.7 125.3 153.9 127.9 151.9 C 141.6 141.3 155.8 131.2 169.5 120.6 C 172.0 118.6 175.3 117.1 176.6 113.9 C 173.8 114.3 171.1 115.0 168.4 115.8 C 169.1 114.3 169.8 112.9 170.4 111.5 C 168.3 111.6 166.2 111.7 164.0 111.7 C 168.0 109.3 172.4 107.4 175.7 103.9 C 173.6 104.0 171.4 103.8 169.3 104.5 C 164.8 106.0 160.0 106.2 155.4 107.4 C 149.0 107.9 142.8 110.0 136.3 110.1 C 136.3 106.2 136.2 102.4 136.1 98.6 C 149.8 89.3 162.6 78.7 176.2 69.2 C 179.8 66.4 183.8 63.9 186.7 60.3 C 184.5 60.1 182.2 59.8 180.1 60.2 C 171.9 62.0 163.4 61.8 155.0 62.0 C 148.1 61.6 141.4 64.9 134.6 63.2 C 138.6 59.9 143.1 57.2 147.5 54.6 C 155.1 49.8 162.7 45.2 170.2 40.3 C 174.0 37.7 178.5 35.8 181.7 32.3 C 176.9 31.5 172.2 32.8 167.5 33.3 C 171.3 29.0 177.2 27.0 180.6 22.4 C 178.0 22.2 175.4 22.2 172.9 22.1 C 175.4 19.8 179.2 18.8 180.6 15.5 C 175.4 15.8 170.7 18.0 165.8 19.5 M 89.3 41.2 C 87.8 48.1 87.6 55.2 86.5 62.2 C 85.5 72.6 83.7 83.0 83.1 93.5 C 70.9 85.7 59.3 76.9 47.6 68.3 C 46.0 67.3 44.4 65.2 42.2 65.8 C 40.0 67.4 38.2 69.4 36.3 71.3 C 34.7 72.8 32.9 74.5 32.9 76.9 C 32.7 85.9 32.0 95.0 32.0 104.0 C 32.0 121.0 31.2 137.9 31.1 154.9 C 31.8 154.9 33.1 154.8 33.7 154.8 C 36.5 148.6 38.0 141.9 40.9 135.7 C 42.7 131.4 43.8 126.9 45.6 122.6 C 48.2 116.8 49.5 110.4 52.6 104.8 C 61.6 111.0 69.8 118.1 78.5 124.6 C 84.3 128.8 89.7 133.4 95.5 137.6 C 99.6 140.4 103.0 144.9 108.4 145.3 C 108.2 139.8 108.3 134.4 108.1 129.0 C 107.6 122.3 108.2 115.6 107.0 109.0 C 106.5 98.4 107.0 87.7 106.3 77.0 C 106.1 66.4 105.9 55.8 105.7 45.2 C 104.4 45.2 103.2 45.2 101.9 45.3 C 101.8 45.8 101.4 46.8 101.2 47.2 C 100.8 47.4 100.1 47.7 99.7 47.9 C 98.7 46.4 97.8 44.9 95.9 44.8 C 95.8 45.5 95.6 46.9 95.5 47.6 C 94.8 47.7 93.4 47.8 92.7 47.9 C 92.5 45.7 92.2 43.4 92.0 41.2 C 91.3 41.2 89.9 41.2 89.3 41.2 M 201.7 45.5 C 194.7 56.5 188.2 67.9 180.6 78.5 C 178.7 80.7 180.5 83.4 181.4 85.6 C 186.6 96.5 190.7 107.9 196.6 118.4 C 198.5 122.0 201.5 124.8 203.8 128.2 C 208.2 134.4 212.9 140.4 217.8 146.2 C 220.2 149.2 222.2 152.6 224.7 155.5 C 230.1 159.5 237.1 160.0 243.0 163.1 C 245.8 164.5 249.1 164.6 252.2 164.5 C 261.8 153.6 269.8 141.3 278.9 130.0 C 281.8 126.3 278.9 121.8 278.2 117.9 C 277.2 111.0 275.4 104.4 274.3 97.6 C 271.9 91.5 266.5 87.2 263.4 81.5 C 258.0 73.4 251.6 65.8 246.2 57.7 C 244.5 54.5 240.5 54.3 237.4 53.4 C 229.5 51.1 221.6 49.0 213.6 47.3 C 209.8 45.9 205.8 45.1 201.7 45.5 M 148.7 153.7 C 143.3 162.8 136.0 170.6 131.0 180.0 C 126.7 185.5 123.1 191.4 119.1 197.1 C 115.5 202.7 111.2 207.9 107.7 213.7 C 106.8 215.0 106.8 217.0 107.7 218.3 C 110.3 222.6 113.8 226.2 116.6 230.4 C 119.7 235.1 123.6 239.4 126.9 244.0 C 130.5 249.1 134.4 253.9 138.2 258.7 C 141.3 262.7 144.0 267.0 147.3 270.8 C 149.0 271.7 150.2 270.0 151.5 269.2 C 152.6 269.0 153.8 268.9 155.0 268.8 C 154.1 266.6 153.2 264.3 152.3 262.1 C 155.0 262.2 157.7 262.4 160.4 262.6 C 158.8 257.0 155.5 252.2 152.9 247.0 C 149.0 240.8 146.0 234.1 142.0 228.0 C 140.4 225.1 139.5 221.9 137.7 219.2 C 135.9 216.5 134.8 213.4 134.1 210.3 C 150.2 209.1 166.3 211.2 182.4 210.5 C 174.4 196.8 166.3 183.2 157.6 170.0 C 158.0 169.1 158.4 168.1 158.9 167.2 C 167.9 169.1 176.4 172.7 185.1 175.8 C 189.0 176.3 192.3 178.8 196.3 178.8 C 195.5 176.1 193.7 174.0 191.8 172.0 C 194.6 173.8 198.0 174.4 201.3 174.8 C 200.6 170.5 196.9 167.9 194.6 164.4 C 195.2 162.9 195.8 161.4 196.4 159.9 C 195.2 159.8 194.1 159.7 192.9 159.6 C 192.0 158.1 190.9 156.6 189.5 155.4 C 181.6 149.0 173.1 143.1 165.9 135.8 C 164.3 135.7 162.6 135.5 161.0 135.4 C 157.5 141.9 152.4 147.3 148.7 153.7 M 66.0 145.9 C 62.3 146.1 59.3 148.4 56.1 150.1 C 46.9 155.0 40.4 164.2 37.4 174.1 C 35.7 188.7 35.0 203.7 39.0 218.0 C 40.5 225.3 44.1 231.9 47.8 238.2 C 54.9 248.0 63.8 256.5 73.9 263.1 C 77.2 265.3 80.1 268.2 84.1 268.9 C 84.9 269.7 85.6 270.7 86.6 271.3 C 95.9 275.5 104.7 281.1 114.2 284.8 C 114.4 282.6 114.8 280.2 114.2 278.0 C 113.3 275.1 112.1 272.2 112.1 269.1 C 112.2 265.2 111.3 261.4 110.5 257.7 C 109.2 247.3 106.6 237.0 105.4 226.6 C 103.5 215.5 101.5 204.4 100.0 193.3 C 95.3 193.3 91.0 195.4 86.5 196.7 C 83.6 197.7 81.0 199.5 78.0 199.9 C 74.8 200.3 71.8 201.6 69.3 203.4 C 71.2 203.9 73.2 204.3 75.2 204.7 C 72.8 205.7 70.5 206.9 69.2 209.3 C 68.2 209.7 67.2 210.1 66.2 210.4 C 66.3 211.0 66.4 212.0 66.4 212.5 C 68.9 212.6 71.4 212.7 73.9 212.9 C 72.3 216.0 68.6 217.1 66.3 219.7 C 72.0 220.3 77.9 219.7 83.7 220.4 C 84.7 221.8 85.9 223.2 86.0 225.1 C 86.9 231.0 89.6 236.5 90.7 242.5 C 86.6 241.6 82.5 240.3 79.2 237.7 C 74.2 233.8 69.2 229.9 64.7 225.3 C 60.5 219.6 56.9 213.4 54.6 206.7 C 53.5 201.9 52.5 196.9 52.7 191.9 C 53.4 183.7 58.1 176.0 65.0 171.5 C 68.2 172.0 70.9 169.8 74.0 170.0 C 78.8 170.0 83.1 172.5 87.2 174.8 C 92.2 177.4 96.7 180.6 101.6 183.3 C 105.4 185.4 108.7 188.9 113.3 189.0 C 112.6 183.7 109.3 179.4 107.4 174.6 C 105.2 169.0 102.4 163.6 99.9 158.1 C 98.9 156.0 98.1 153.5 96.1 152.0 C 92.3 149.0 87.5 147.4 82.9 146.0 C 77.4 144.9 71.6 145.3 66.0 145.9 M 235.0 173.3 C 229.0 173.5 223.0 173.4 217.0 173.6 C 213.3 177.1 210.2 181.1 207.2 185.2 C 198.7 195.5 191.2 206.5 182.8 216.8 C 180.9 219.7 177.6 222.2 177.7 225.9 C 177.6 236.3 177.6 246.7 177.5 257.1 C 177.7 259.5 178.1 262.3 180.2 263.8 C 184.5 267.3 188.5 271.4 193.3 274.2 C 196.6 274.7 200.2 274.6 203.4 273.2 C 206.2 272.0 209.4 272.2 212.4 271.2 C 216.3 269.7 220.8 269.8 224.3 267.4 C 227.6 264.7 230.6 261.6 233.8 258.8 C 238.0 255.4 241.1 250.8 245.5 247.5 C 253.3 240.2 261.1 232.9 268.8 225.5 C 268.9 221.9 268.9 218.2 269.3 214.5 C 270.2 206.0 269.9 197.5 270.3 189.0 C 270.6 183.3 270.2 177.6 271.7 172.0 C 262.4 171.9 253.2 172.0 244.0 172.2 C 240.9 172.2 238.0 173.2 235.0 173.3 Z"/>
<path fill="#ffffff" stroke="#ffffff" stroke-width="0.09375" opacity="1.00" d=" M 229.2 76.1 C 230.8 76.0 232.5 76.0 234.1 75.9 C 235.5 77.8 237.6 79.4 237.9 81.9 C 237.3 83.9 236.3 85.8 235.5 87.8 C 233.2 87.8 230.9 87.8 228.5 87.7 C 227.8 85.5 227.0 83.4 226.1 81.2 C 227.1 79.5 228.2 77.8 229.2 76.1 Z"/>
<path fill="#ffffff" stroke="#ffffff" stroke-width="0.09375" opacity="1.00" d=" M 204.7 96.9 C 203.9 94.1 206.0 92.1 208.0 90.5 C 210.3 91.5 212.9 92.5 213.9 95.0 C 212.4 96.2 210.8 97.3 209.2 98.4 C 207.7 97.9 206.2 97.4 204.7 96.9 Z"/>
<path fill="#ffffff" stroke="#ffffff" stroke-width="0.09375" opacity="1.00" d=" M 255.7 120.8 C 257.0 117.2 257.9 113.5 259.5 110.0 C 260.4 115.8 260.5 121.8 259.5 127.6 C 257.5 133.0 252.1 135.7 247.7 138.7 C 245.2 140.5 241.9 139.6 239.0 139.8 C 234.7 139.8 231.4 136.8 228.1 134.5 C 233.7 134.4 239.4 133.9 245.0 134.0 C 249.7 130.6 253.3 126.0 255.7 120.8 Z"/>
<path fill="#ffffff" stroke="#ffffff" stroke-width="0.09375" opacity="1.00" d=" M 222.4 190.4 C 225.3 189.5 228.1 188.7 231.1 188.3 C 232.3 189.7 234.1 190.9 234.4 192.9 C 235.3 196.6 233.3 200.2 231.7 203.5 C 228.9 203.7 226.0 204.6 223.2 204.1 C 221.5 202.2 220.0 200.0 218.4 198.0 C 219.8 195.5 221.3 193.0 222.4 190.4 Z"/>
<path fill="#ffffff" stroke="#ffffff" stroke-width="0.09375" opacity="1.00" d=" M 246.2 208.1 C 248.5 208.0 251.3 208.0 252.6 210.4 C 254.4 213.4 251.1 216.0 249.1 217.8 C 247.3 216.8 245.5 215.9 243.7 215.0 C 243.3 212.3 244.4 210.0 246.2 208.1 Z"/>
<path fill="#ffffff" stroke="#ffffff" stroke-width="0.09375" opacity="1.00" d=" M 196.0 232.1 C 198.6 230.4 201.5 229.6 204.2 228.2 C 207.5 231.1 208.8 236.0 213.2 237.7 C 217.9 239.6 221.8 234.5 226.5 236.4 C 228.4 240.3 229.9 244.4 231.9 248.3 C 229.0 249.5 226.1 250.8 223.4 252.4 C 219.0 254.6 214.0 256.0 209.0 255.3 C 208.3 253.5 207.5 251.8 206.7 250.1 C 203.1 250.0 199.5 250.0 195.9 249.8 C 195.0 246.1 193.8 242.4 192.2 238.9 C 193.5 236.6 194.5 234.2 196.0 232.1 Z"/>
</svg>