<?xml version="1.0" encoding="UTF-8" ?>
<!DOCTYPE svg PUBLIC "-//W3C//DTD SVG 1.1//EN" "http://www.w3.org/Graphics/SVG/1.1/DTD/svg11.dtd">
<svg width="949pt" height="204pt" viewBox="0 0 949 204" version="1.1" xmlns="http://www.w3.org/2000/svg">
<path fill="#ffffff" stroke="#ffffff" stroke-width="0.09375" opacity="1.00" d=" M 762.3 9.9 C 767.0 8.6 772.4 8.5 776.7 11.0 C 825.4 37.4 874.5 63.4 923.2 89.9 C 926.4 91.4 929.7 93.1 932.0 96.0 C 934.4 98.1 934.5 101.7 937.0 103.8 C 937.0 105.3 937.0 106.7 937.0 108.2 C 935.1 109.6 934.7 112.0 933.6 114.0 C 931.2 117.7 927.3 120.2 923.3 122.0 C 874.0 148.9 824.3 175.0 775.0 201.9 C 770.4 202.0 765.8 202.2 761.2 201.8 C 757.0 198.8 752.9 194.5 752.6 189.0 C 752.6 134.4 752.7 79.7 752.6 25.0 C 752.1 18.5 756.7 12.5 762.3 9.9 M 771.6 75.9 C 771.5 96.6 771.4 117.3 771.6 137.9 C 773.6 143.7 780.6 142.6 785.4 142.6 C 785.4 134.2 785.4 125.9 785.4 117.5 C 792.6 117.5 799.8 117.6 807.1 117.6 C 817.0 117.9 825.2 109.1 827.3 99.9 C 828.0 94.5 828.1 88.7 825.6 83.7 C 822.6 77.2 816.4 71.4 808.9 71.1 C 799.6 70.5 790.3 71.0 781.0 70.8 C 777.3 70.8 772.0 71.4 771.6 75.9 M 839.9 72.4 C 836.1 75.8 837.5 81.1 837.3 85.6 C 841.2 85.5 845.6 86.5 849.1 84.2 C 851.9 80.9 850.3 76.1 850.7 72.2 C 847.1 72.1 843.5 72.1 839.9 72.4 M 837.3 95.9 C 837.3 109.8 837.1 123.8 837.4 137.7 C 838.8 143.6 846.2 142.9 850.8 142.2 C 850.6 124.7 850.8 107.1 850.7 89.5 C 847.8 89.6 844.9 89.4 842.0 89.7 C 839.1 90.0 837.0 93.0 837.3 95.9 Z" />
<path fill="#ffffff" stroke="#ffffff" stroke-width="0.09375" opacity="1.00" d=" M 719.2 63.4 C 722.1 62.0 725.4 62.7 728.5 62.5 C 728.5 85.0 728.5 107.5 728.5 130.0 C 728.3 134.7 732.5 139.1 737.3 138.9 C 737.7 141.5 737.8 144.2 737.2 146.7 C 735.3 150.5 730.1 150.4 726.9 148.4 C 720.1 145.1 716.4 137.4 716.4 130.0 C 716.4 109.7 716.4 89.4 716.4 69.0 C 716.2 66.9 717.1 64.4 719.2 63.4 Z" />
<path fill="#ffffff" stroke="#ffffff" stroke-width="0.09375" opacity="1.00" d=" M 9.0 71.9 C 13.3 66.8 19.1 62.8 26.0 62.6 C 38.2 62.5 50.5 62.6 62.8 62.5 C 62.6 66.6 64.1 72.9 58.9 74.4 C 48.0 75.2 37.0 74.3 26.1 74.8 C 22.0 75.3 18.6 78.7 18.4 82.9 C 18.1 88.4 18.3 94.1 18.3 99.6 C 33.1 99.7 47.9 99.7 62.7 99.6 C 62.6 103.6 64.2 110.1 59.0 111.5 C 45.5 112.4 31.9 111.6 18.4 111.9 C 18.2 117.3 18.2 122.7 18.3 128.0 C 18.2 132.4 21.8 136.7 26.2 136.9 C 37.2 137.8 48.3 136.5 59.3 137.5 C 64.1 139.2 62.6 145.3 62.8 149.2 C 50.5 149.1 38.2 149.5 26.0 149.0 C 19.2 149.0 13.4 144.9 9.0 140.1 C 9.0 117.3 9.0 94.6 9.0 71.9 Z" />
<path fill="#ffffff" stroke="#ffffff" stroke-width="0.09375" opacity="1.00" d=" M 330.8 65.1 C 333.3 61.6 338.1 62.7 341.8 62.5 C 341.6 66.4 343.1 71.6 339.0 74.0 C 336.3 75.2 333.0 74.5 330.1 74.6 C 329.6 71.5 329.8 68.2 330.8 65.1 Z" />
<path fill="#ffffff" stroke="#ffffff" stroke-width="0.09375" opacity="1.00" d=" M 606.4 63.5 C 609.3 62.0 612.7 62.6 615.8 62.6 C 615.8 70.3 615.5 78.0 616.0 85.6 C 621.0 85.7 626.1 85.6 631.2 85.7 C 631.1 89.6 632.0 95.3 627.6 97.3 C 623.7 98.1 619.7 97.4 615.8 97.7 C 615.7 108.2 615.7 118.6 615.8 129.0 C 615.8 134.2 619.5 139.4 625.1 139.0 C 625.1 142.0 625.3 145.3 624.1 148.1 C 621.2 150.6 616.8 150.0 613.8 148.0 C 607.0 144.4 603.9 136.4 603.7 129.0 C 603.7 109.4 603.7 89.7 603.7 70.0 C 603.7 67.6 604.3 64.9 606.4 63.5 Z" />
<path fill="#ffffff" stroke="#ffffff" stroke-width="0.09375" opacity="1.00" d=" M 168.6 85.1 C 180.9 81.0 195.5 85.2 203.7 95.3 C 207.3 99.7 209.3 105.3 208.8 111.0 C 208.4 120.6 210.8 131.8 203.6 139.6 C 193.5 152.5 174.0 154.1 160.3 146.1 C 160.1 154.9 160.3 163.6 160.2 172.3 C 156.8 172.2 153.1 172.8 150.1 170.7 C 148.4 169.4 148.3 167.0 148.3 165.1 C 148.3 148.4 148.3 131.7 148.3 115.0 C 148.3 110.7 147.9 106.2 149.5 102.1 C 152.6 93.7 160.3 87.8 168.6 85.1 M 173.6 96.2 C 168.6 97.4 163.7 100.2 161.4 104.9 C 159.6 108.7 160.4 113.0 160.2 117.0 C 160.4 122.1 159.2 127.9 162.8 132.1 C 168.2 139.0 178.1 140.4 186.1 137.9 C 191.5 136.0 196.9 131.3 196.8 125.1 C 196.6 119.0 197.2 112.9 196.5 106.9 C 193.6 97.8 182.3 94.1 173.6 96.2 Z" />
<path fill="#ffffff" stroke="#ffffff" stroke-width="0.09375" opacity="1.00" d=" M 232.8 87.6 C 241.1 82.9 251.3 82.7 260.5 85.0 C 267.6 86.7 274.2 92.1 276.3 99.2 C 277.4 104.3 277.2 109.9 274.4 114.3 C 269.9 121.4 261.2 124.8 253.0 124.4 C 246.5 124.1 239.9 125.0 233.5 123.7 C 233.5 126.2 233.4 128.6 233.6 131.1 C 234.6 134.9 238.5 137.1 242.0 138.3 C 248.0 139.4 254.6 139.7 260.4 137.1 C 263.3 135.9 265.0 132.1 268.5 132.3 C 271.7 132.9 274.4 134.9 277.5 136.0 C 273.2 144.9 263.6 150.1 254.0 150.7 C 246.3 151.3 237.9 150.9 231.2 146.6 C 225.5 143.1 222.3 136.5 221.5 130.0 C 221.3 122.4 221.5 114.7 221.4 107.0 C 221.0 99.0 225.7 91.1 232.8 87.6 M 233.6 103.9 C 233.4 106.7 233.5 109.5 233.5 112.4 C 241.4 112.2 249.2 112.5 257.1 112.3 C 260.1 111.8 263.3 110.4 264.5 107.3 C 265.1 105.1 264.7 102.7 264.5 100.4 C 259.4 95.4 251.9 95.1 245.2 95.9 C 240.6 96.7 235.1 98.9 233.6 103.9 Z" />
<path fill="#ffffff" stroke="#ffffff" stroke-width="0.09375" opacity="1.00" d=" M 367.4 88.7 C 377.9 80.8 394.2 82.1 403.0 92.0 C 410.1 84.3 421.8 81.5 431.6 85.1 C 438.4 87.0 443.9 92.7 446.2 99.4 C 448.4 105.0 447.6 111.1 447.7 117.0 C 447.6 127.7 447.9 138.5 447.6 149.2 C 443.5 149.2 436.9 150.0 436.0 144.7 C 435.4 132.1 436.1 119.5 435.6 107.0 C 435.6 102.0 432.1 97.1 427.0 96.3 C 424.0 96.0 421.0 95.9 418.0 96.3 C 412.4 97.6 409.1 103.5 409.2 109.0 C 409.1 122.4 409.2 135.8 409.1 149.2 C 405.9 149.2 402.6 149.5 399.5 148.2 C 397.4 147.0 397.0 144.3 396.8 142.0 C 396.8 130.7 396.9 119.3 396.8 107.9 C 396.9 102.4 392.7 96.7 387.0 96.2 C 383.7 96.0 380.3 95.7 377.2 96.8 C 372.6 98.6 370.3 103.7 370.5 108.4 C 370.5 121.8 370.3 135.2 370.6 148.6 C 367.5 149.8 364.1 149.2 361.0 148.4 C 358.1 146.6 358.3 143.0 358.2 140.0 C 358.3 129.7 358.2 119.3 358.3 109.0 C 358.4 101.4 361.4 93.5 367.4 88.7 Z" />
<path fill="#ffffff" stroke="#ffffff" stroke-width="0.09375" opacity="1.00" d=" M 481.1 84.6 C 490.5 82.5 501.1 83.4 509.3 88.7 C 519.8 95.3 520.7 112.3 510.5 119.5 C 505.2 123.4 498.4 124.7 492.0 124.4 C 486.1 124.2 480.1 124.9 474.3 123.8 C 474.3 126.8 474.0 129.8 474.8 132.7 C 480.3 140.3 491.3 140.0 499.4 137.8 C 503.4 137.2 505.2 132.0 509.4 132.3 C 512.6 132.9 515.3 134.8 518.1 136.1 C 512.5 148.3 497.5 152.3 485.0 150.7 C 474.5 150.4 464.1 142.9 462.6 132.0 C 461.7 123.1 462.3 114.1 462.2 105.1 C 462.4 94.7 471.4 86.6 481.1 84.6 M 492.0 95.6 C 485.8 95.3 478.6 96.8 474.9 102.3 C 473.9 105.5 474.4 109.0 474.4 112.4 C 482.3 112.2 490.2 112.5 498.1 112.2 C 503.1 111.7 507.0 106.9 505.5 101.8 C 503.1 96.9 497.0 95.7 492.0 95.6 Z" />
<path fill="#ffffff" stroke="#ffffff" stroke-width="0.09375" opacity="1.00" d=" M 539.4 90.5 C 551.7 80.3 571.8 81.6 582.3 93.7 C 585.9 97.9 588.4 103.3 588.4 109.0 C 588.4 122.4 588.4 135.8 588.4 149.2 C 584.2 149.2 577.3 150.2 576.4 144.7 C 576.1 132.2 576.5 119.7 576.2 107.1 C 573.1 95.8 557.6 92.6 548.5 98.7 C 545.3 100.8 542.3 104.0 542.3 108.0 C 542.3 121.8 542.4 135.5 542.3 149.2 C 539.0 149.1 535.3 149.8 532.3 147.9 C 530.3 146.7 530.2 144.2 530.2 142.1 C 530.3 130.7 530.2 119.3 530.3 107.9 C 530.2 101.0 534.1 94.7 539.4 90.5 Z" />
<path fill="#ffffff" stroke="#ffffff" stroke-width="0.09375" opacity="1.00" d=" M 641.8 99.5 C 649.0 86.3 666.2 80.3 680.2 85.3 C 690.6 88.5 699.7 97.7 700.2 109.0 C 700.3 122.4 700.2 135.8 700.2 149.3 C 695.8 149.8 691.7 148.1 689.5 144.2 C 683.4 149.2 675.4 151.6 667.5 150.9 C 653.2 150.8 638.5 138.8 639.4 123.8 C 639.9 115.7 637.9 107.0 641.8 99.5 M 665.6 96.0 C 658.8 97.3 651.3 102.4 651.5 109.9 C 651.6 115.9 651.1 122.0 651.8 128.0 C 654.2 134.9 661.8 139.4 669.0 138.8 C 676.5 139.5 685.3 135.7 687.6 128.1 C 688.1 123.1 687.7 118.0 687.8 113.0 C 687.7 110.0 688.3 106.7 686.5 104.1 C 682.1 97.3 673.2 94.5 665.6 96.0 Z" />
<path fill="#ffffff" stroke="#ffffff" stroke-width="0.09375" opacity="1.00" d=" M 76.7 85.7 C 80.5 85.6 84.3 85.6 88.1 85.7 C 93.6 94.8 98.7 104.2 105.0 112.8 C 106.1 111.9 107.3 111.0 108.0 109.6 C 111.7 103.4 115.6 97.3 119.3 91.0 C 121.0 88.4 123.6 85.4 127.0 85.6 C 130.3 85.6 133.6 85.7 136.8 85.5 C 130.3 95.3 124.5 105.6 118.3 115.5 C 116.6 117.2 118.3 119.1 119.2 120.6 C 125.2 130.0 130.6 139.8 136.7 149.1 C 132.3 149.1 127.8 149.5 123.5 148.3 C 120.8 146.8 119.4 143.9 117.9 141.4 C 114.4 135.7 111.0 130.0 107.5 124.3 C 105.7 124.5 103.0 123.5 102.0 125.8 C 97.4 133.3 93.0 140.9 88.3 148.4 C 84.6 150.0 80.3 149.0 76.4 148.5 C 76.5 147.0 76.1 145.3 77.0 144.0 C 81.8 136.1 86.6 128.2 91.4 120.3 C 92.0 119.0 93.7 117.5 92.5 116.1 C 87.3 107.5 82.0 98.9 76.7 90.2 C 75.9 88.9 76.6 87.2 76.7 85.7 Z" />
<path fill="#ffffff" stroke="#ffffff" stroke-width="0.09375" opacity="1.00" d=" M 293.3 94.2 C 296.3 89.5 301.8 86.9 307.1 85.8 C 311.0 85.4 314.9 85.7 318.9 85.6 C 318.5 88.7 319.5 92.2 318.1 95.1 C 315.2 99.6 309.0 95.9 305.4 99.3 C 300.7 102.2 301.7 108.3 301.6 113.0 C 301.4 125.1 302.0 137.2 301.3 149.2 C 298.2 149.1 295.0 149.2 292.0 148.3 C 290.0 146.9 289.3 144.3 289.4 142.0 C 289.4 130.7 289.4 119.3 289.4 108.0 C 289.4 103.2 290.5 98.2 293.3 94.2 Z" />
<path fill="#ffffff" stroke="#ffffff" stroke-width="0.09375" opacity="1.00" d=" M 332.0 87.0 C 334.8 84.7 338.5 85.9 341.8 85.6 C 342.4 88.3 342.2 91.2 342.2 94.0 C 342.2 112.4 342.3 130.8 342.2 149.2 C 338.9 149.2 335.3 149.6 332.2 148.1 C 329.8 146.6 330.1 143.5 329.8 141.0 C 329.8 125.4 329.8 109.7 329.8 94.0 C 330.1 91.6 329.7 88.5 332.0 87.0 Z" />
<path fill="#ffffff" stroke="#ffffff" stroke-width="0.09375" opacity="1.00" d=" M 785.5 84.7 C 792.7 84.8 799.9 84.6 807.1 84.8 C 815.4 86.6 816.1 100.0 808.8 103.4 C 801.0 103.9 793.1 103.5 785.3 103.6 C 785.5 97.3 785.4 91.0 785.5 84.7 Z" />
</svg>
