<svg xmlns="http://www.w3.org/2000/svg" version="1.1" viewBox="1.25 1.15 409.19 105.72">
<path fill="#ffffff" stroke="#ffffff" stroke-width="0.09375" opacity="1.00" d=" M 374.6 1.2 C 378.8 1.2 383.0 1.2 387.2 1.3 C 387.2 5.1 387.2 8.9 387.2 12.7 C 391.0 12.7 394.9 12.7 398.7 12.7 C 398.7 16.6 398.7 20.5 398.7 24.3 C 402.6 24.4 406.5 24.4 410.4 24.4 C 410.4 28.5 410.4 32.7 410.4 36.8 C 406.5 36.8 402.6 36.8 398.8 36.8 C 398.7 40.7 398.7 44.6 398.7 48.6 C 394.9 48.6 391.0 48.6 387.2 48.6 C 387.2 52.5 387.2 56.3 387.2 60.2 C 383.0 60.3 378.8 60.3 374.6 60.2 C 374.6 56.3 374.6 52.5 374.5 48.6 C 370.6 48.6 366.7 48.6 362.8 48.5 C 362.8 44.6 362.8 40.7 362.7 36.8 C 358.9 36.8 355.1 36.8 351.3 36.8 C 351.3 32.6 351.3 28.5 351.3 24.4 C 355.1 24.4 359.0 24.4 362.8 24.4 C 362.8 20.5 362.8 16.6 362.8 12.7 C 366.7 12.7 370.6 12.7 374.5 12.7 C 374.6 8.8 374.6 5.0 374.6 1.2 M 376.0 14.0 C 376.0 17.7 376.0 21.3 376.0 25.0 C 372.0 25.0 368.0 25.0 364.0 25.0 C 364.0 28.7 364.0 32.3 364.0 36.0 C 368.0 36.0 372.0 36.0 376.0 36.0 C 376.0 40.0 376.0 44.0 376.0 48.0 C 379.3 48.0 382.7 48.0 386.0 48.0 C 386.0 44.0 386.0 40.0 386.0 36.0 C 390.0 36.0 394.0 36.0 398.0 36.0 C 398.0 32.3 398.0 28.7 398.0 25.0 C 394.0 25.0 390.0 25.0 386.0 25.0 C 386.0 21.3 386.0 17.7 386.0 14.0 C 382.7 14.0 379.3 14.0 376.0 14.0 Z"/>
<path fill="#ffffff" stroke="#ffffff" stroke-width="0.09375" opacity="1.00" d=" M 12.8 47.8 C 28.7 47.7 44.5 47.7 60.4 47.7 C 60.5 59.7 60.4 71.6 60.4 83.5 C 48.8 83.6 37.1 83.6 25.5 83.6 C 25.4 91.3 25.5 99.1 25.4 106.8 C 17.4 106.8 9.3 106.8 1.3 106.8 C 1.3 91.0 1.3 75.2 1.3 59.4 C 5.1 59.4 8.9 59.4 12.8 59.4 C 12.8 55.5 12.8 51.6 12.8 47.8 M 25.5 60.3 C 25.4 63.9 25.4 67.5 25.5 71.1 C 29.0 71.2 32.6 71.2 36.2 71.2 C 36.2 67.5 36.2 63.9 36.2 60.3 C 32.6 60.2 29.0 60.2 25.5 60.3 Z"/>
<path fill="#ffffff" stroke="#ffffff" stroke-width="0.09375" opacity="1.00" d=" M 71.3 47.7 C 87.1 47.7 102.9 47.7 118.7 47.7 C 118.7 51.9 118.7 56.1 118.7 60.2 C 114.9 60.2 111.1 60.2 107.2 60.2 C 107.2 71.6 107.2 83.0 107.2 94.4 C 111.0 94.4 114.9 94.4 118.7 94.4 C 118.7 98.5 118.7 102.6 118.7 106.8 C 102.9 106.8 87.1 106.8 71.3 106.8 C 71.3 102.6 71.3 98.5 71.3 94.4 C 75.1 94.4 79.0 94.4 82.8 94.4 C 82.8 83.0 82.8 71.6 82.8 60.2 C 78.9 60.2 75.1 60.2 71.3 60.2 C 71.3 56.1 71.3 51.9 71.3 47.7 Z"/>
<path fill="#ffffff" stroke="#ffffff" stroke-width="0.09375" opacity="1.00" d=" M 141.3 47.7 C 153.3 47.7 165.2 47.7 177.2 47.8 C 177.2 51.9 177.2 56.1 177.2 60.2 C 169.4 60.3 161.6 60.2 153.8 60.3 C 153.8 71.6 153.8 83.0 153.8 94.4 C 161.6 94.4 169.4 94.3 177.2 94.4 C 177.2 98.5 177.2 102.6 177.2 106.7 C 161.3 106.9 145.5 106.7 129.6 106.8 C 129.5 91.0 129.6 75.2 129.6 59.4 C 133.5 59.4 137.4 59.4 141.3 59.4 C 141.3 55.5 141.3 51.6 141.3 47.7 Z"/>
<path fill="#ffffff" stroke="#ffffff" stroke-width="0.09375" opacity="1.00" d=" M 199.6 47.7 C 215.5 47.7 231.3 47.7 247.2 47.8 C 247.2 63.6 247.2 79.4 247.2 95.3 C 243.3 95.3 239.4 95.3 235.5 95.3 C 235.4 99.1 235.4 103.0 235.4 106.8 C 219.6 106.8 203.7 106.8 187.9 106.8 C 187.9 91.0 187.8 75.2 187.9 59.4 C 191.8 59.4 195.6 59.4 199.5 59.4 C 199.6 55.5 199.6 51.6 199.6 47.7 M 212.1 60.2 C 212.1 71.6 212.1 83.0 212.1 94.4 C 215.7 94.4 219.2 94.4 222.8 94.4 C 222.8 83.0 222.8 71.6 222.8 60.2 C 219.2 60.2 215.7 60.2 212.1 60.2 Z"/>
<path fill="#ffffff" stroke="#ffffff" stroke-width="0.09375" opacity="1.00" d=" M 304.6 47.7 C 320.4 47.7 336.3 47.7 352.1 47.7 C 352.2 67.4 352.1 87.1 352.1 106.8 C 332.3 106.8 312.6 106.9 292.8 106.7 C 292.8 94.9 292.8 83.1 292.8 71.3 C 296.7 71.2 300.6 71.2 304.5 71.1 C 304.6 63.3 304.5 55.5 304.6 47.7 M 317.2 60.2 C 317.2 63.9 317.2 67.5 317.3 71.2 C 320.8 71.2 324.3 71.2 327.8 71.2 C 327.9 67.5 327.9 63.9 327.9 60.2 C 324.3 60.2 320.8 60.2 317.2 60.2 M 317.2 83.6 C 317.2 87.2 317.2 90.8 317.2 94.4 C 320.8 94.4 324.3 94.4 327.9 94.4 C 327.9 90.8 327.9 87.2 327.9 83.6 C 324.3 83.6 320.8 83.6 317.2 83.6 Z"/>
<path fill="#ffffff" stroke="#ffffff" stroke-width="0.09375" opacity="1.00" d=" M 257.9 71.2 C 266.0 71.2 274.0 71.2 282.1 71.2 C 282.1 75.3 282.1 79.4 282.1 83.6 C 274.0 83.6 266.0 83.6 257.9 83.6 C 257.9 79.4 257.9 75.3 257.9 71.2 Z"/>
</svg>