<?xml version="1.0" encoding="UTF-8" ?>
<!DOCTYPE svg PUBLIC "-//W3C//DTD SVG 1.1//EN" "http://www.w3.org/Graphics/SVG/1.1/DTD/svg11.dtd">
<svg width="400pt" height="175pt" viewBox="0 0 400 175" version="1.1" xmlns="http://www.w3.org/2000/svg">
<path fill="#ffffff" stroke="#ffffff" stroke-width="0.09375" opacity="1.00" d=" M 91.9 33.4 C 96.2 33.4 100.6 33.4 104.9 33.4 C 109.8 42.3 114.6 51.3 119.5 60.2 C 124.6 51.3 129.8 42.4 134.9 33.4 C 143.0 33.4 151.1 33.4 159.3 33.4 C 159.2 45.9 159.2 58.4 159.3 70.9 C 155.3 70.9 151.3 70.9 147.3 70.9 C 147.3 58.6 147.3 46.2 147.3 33.9 C 140.5 46.2 133.7 58.6 126.8 70.9 C 122.0 70.9 117.2 70.9 112.5 70.9 C 105.6 58.4 98.8 45.9 91.9 33.4 Z" />
<path fill="#ffffff" stroke="#ffffff" stroke-width="0.09375" opacity="1.00" d=" M 161.2 33.4 C 173.1 33.5 185.1 33.4 197.0 33.5 C 201.6 33.6 206.8 34.4 209.9 38.1 C 213.0 42.0 212.1 47.3 212.3 52.0 C 212.1 56.8 213.1 62.1 210.4 66.4 C 207.9 70.1 203.1 70.8 199.0 70.9 C 186.4 70.9 173.8 70.8 161.2 70.9 C 161.2 58.4 161.2 45.9 161.2 33.4 M 173.0 42.7 C 173.0 49.0 173.0 55.3 173.0 61.7 C 179.7 61.7 186.4 61.7 193.0 61.7 C 195.1 61.6 197.5 61.6 199.0 59.9 C 200.4 58.3 200.2 56.0 200.3 54.0 C 200.3 51.4 200.5 48.7 199.9 46.1 C 198.6 43.7 195.6 42.8 193.0 42.8 C 186.4 42.6 179.7 42.8 173.0 42.7 Z" />
<path fill="#ffffff" stroke="#ffffff" stroke-width="0.09375" opacity="1.00" d=" M 213.6 33.4 C 227.4 33.4 241.2 33.4 255.0 33.4 C 255.0 36.5 255.0 39.6 255.0 42.6 C 245.2 42.6 235.4 42.6 225.6 42.6 C 225.6 44.5 225.6 46.3 225.6 48.2 C 234.8 48.2 244.0 48.2 253.3 48.2 C 253.3 50.8 253.2 53.4 253.2 56.1 C 244.0 56.1 234.8 56.1 225.6 56.1 C 225.6 58.0 225.6 59.9 225.6 61.8 C 235.5 61.7 245.5 61.8 255.5 61.7 C 255.5 64.8 255.5 67.8 255.5 70.9 C 241.5 70.9 227.6 70.9 213.6 70.9 C 213.7 58.4 213.7 45.9 213.6 33.4 Z" />
<path fill="#ffffff" stroke="#ffffff" stroke-width="0.09375" opacity="1.00" d=" M 265.4 33.5 C 273.9 32.5 282.5 33.2 291.0 33.0 C 295.8 33.2 301.6 33.0 305.2 36.8 C 308.6 40.7 308.0 46.2 308.0 51.0 C 307.9 56.1 308.8 61.5 306.2 66.2 C 304.1 69.7 299.8 70.8 296.0 71.1 C 288.7 71.5 281.3 71.3 274.0 71.3 C 269.8 71.1 265.3 71.4 261.3 69.6 C 258.6 68.4 256.6 65.8 256.1 62.9 C 255.2 58.7 255.7 54.3 255.5 50.0 C 255.6 46.1 255.3 41.8 257.3 38.3 C 258.9 35.4 262.2 34.0 265.4 33.5 M 273.5 42.6 C 271.3 42.8 268.9 43.8 268.2 46.1 C 267.5 48.6 267.7 51.4 267.7 54.0 C 267.7 56.2 267.7 58.9 269.7 60.3 C 272.8 62.2 276.5 61.8 280.0 62.0 C 284.0 61.9 288.1 62.2 292.0 61.2 C 294.1 60.9 295.5 59.0 295.8 57.0 C 296.1 54.0 296.1 50.9 295.9 47.9 C 295.7 46.2 295.0 44.4 293.5 43.6 C 290.8 42.4 287.8 42.5 285.0 42.4 C 281.2 42.4 277.3 42.2 273.5 42.6 Z" />
<path fill="#ffffff" stroke="#ffffff" stroke-width="0.09375" opacity="1.00" d=" M 2.7 77.8 C 4.5 75.6 7.3 74.6 10.0 74.2 C 14.9 73.3 20.0 73.6 25.0 73.6 C 29.7 73.6 34.4 73.4 39.0 74.1 C 41.7 74.6 44.3 76.0 45.5 78.4 C 47.0 81.2 46.8 84.4 47.0 87.5 C 43.3 87.5 39.6 87.5 35.9 87.5 C 35.2 86.2 35.0 84.3 33.4 83.6 C 31.1 82.7 28.5 83.0 26.0 82.9 C 22.2 83.0 18.3 82.6 14.6 83.6 C 12.6 84.0 11.8 86.2 11.7 88.1 C 11.3 91.3 11.3 94.7 11.8 97.9 C 12.0 99.4 12.8 101.0 14.4 101.6 C 17.4 102.7 20.8 102.4 24.0 102.5 C 27.2 102.4 30.5 102.7 33.6 101.6 C 35.5 100.9 35.4 98.6 36.0 97.0 C 39.8 97.0 43.6 97.0 47.4 97.0 C 47.2 100.7 47.6 105.0 45.0 108.1 C 42.6 110.9 38.6 111.5 35.1 111.7 C 28.4 112.0 21.7 111.9 15.0 111.8 C 11.0 111.7 6.5 111.4 3.5 108.5 C 1.4 106.6 0.6 103.8 0.0 101.2 L 0.0 85.2 C 0.5 82.6 0.9 79.8 2.7 77.8 Z" />
<path fill="#ffffff" stroke="#ffffff" stroke-width="0.09375" opacity="1.00" d=" M 57.3 74.4 C 62.8 73.2 68.4 73.7 74.0 73.6 C 79.9 73.7 85.9 73.2 91.7 74.4 C 94.9 75.1 97.5 77.5 98.5 80.6 C 99.6 84.3 99.3 88.2 99.4 92.0 C 99.3 95.7 99.6 99.4 98.9 103.1 C 98.4 106.2 96.4 109.2 93.4 110.4 C 89.8 111.9 85.8 111.7 82.0 111.8 C 75.3 111.9 68.6 112.0 61.9 111.7 C 58.2 111.5 54.0 110.6 51.6 107.3 C 49.2 103.8 49.6 99.1 49.5 95.0 C 49.6 90.3 49.1 85.6 50.3 81.0 C 51.2 77.7 54.0 75.1 57.3 74.4 M 65.3 83.4 C 63.3 83.7 61.7 85.2 61.4 87.2 C 60.8 91.0 60.7 94.9 61.5 98.6 C 62.1 101.2 64.8 102.1 67.1 102.2 C 71.7 102.6 76.3 102.5 80.9 102.3 C 83.3 102.2 86.4 101.7 87.3 99.1 C 88.1 96.8 88.0 94.4 88.0 92.0 C 87.9 89.5 88.1 86.7 86.3 84.7 C 83.9 82.9 80.8 83.1 78.0 83.0 C 73.8 83.1 69.5 82.6 65.3 83.4 Z" />
<path fill="#ffffff" stroke="#ffffff" stroke-width="0.09375" opacity="1.00" d=" M 102.6 74.0 C 108.5 74.0 114.4 74.0 120.3 74.0 C 124.9 81.8 129.6 89.5 134.2 97.3 C 139.0 89.5 143.7 81.7 148.4 74.0 C 154.2 74.0 160.1 74.0 165.9 74.0 C 165.9 86.5 165.9 98.9 165.9 111.4 C 162.0 111.4 158.1 111.4 154.2 111.4 C 154.3 102.5 154.3 93.7 154.2 84.9 C 148.9 93.7 143.5 102.6 138.1 111.4 C 135.5 111.4 132.8 111.4 130.2 111.4 C 124.9 102.5 119.6 93.7 114.2 84.9 C 114.3 93.7 114.2 102.5 114.3 111.3 C 110.4 111.4 106.5 111.4 102.6 111.4 C 102.5 98.9 102.6 86.5 102.6 74.0 Z" />
<path fill="#ffffff" stroke="#ffffff" stroke-width="0.09375" opacity="1.00" d=" M 168.7 74.0 C 179.1 74.0 189.6 74.0 200.0 74.0 C 203.5 74.1 207.5 74.3 210.3 76.7 C 213.0 78.9 213.7 82.6 213.9 86.0 C 214.1 89.8 214.0 93.8 212.4 97.4 C 210.9 100.5 207.3 102.0 204.0 102.0 C 196.0 102.1 188.1 102.0 180.1 102.1 C 180.0 105.2 180.0 108.3 180.0 111.4 C 176.3 111.4 172.5 111.4 168.7 111.3 C 168.7 98.9 168.7 86.4 168.7 74.0 M 180.0 83.4 C 180.0 86.5 180.0 89.6 180.0 92.7 C 184.0 92.8 188.0 92.7 192.0 92.8 C 195.2 92.7 198.5 93.0 201.6 92.1 C 202.3 89.6 203.1 86.7 201.5 84.4 C 200.3 83.2 198.6 83.4 197.0 83.4 C 191.4 83.4 185.7 83.4 180.0 83.4 Z" />
<path fill="#ffffff" stroke="#ffffff" stroke-width="0.09375" opacity="1.00" d=" M 215.0 74.0 C 218.8 74.0 222.7 74.0 226.6 74.0 C 226.6 81.3 226.5 88.7 226.6 96.0 C 226.6 98.1 226.9 100.8 229.2 101.7 C 232.3 102.7 235.7 102.4 239.0 102.5 C 242.0 102.4 245.1 102.7 248.0 101.8 C 250.4 101.0 250.9 98.3 250.9 96.1 C 251.0 88.7 250.9 81.3 250.9 74.0 C 254.8 74.0 258.7 74.0 262.6 74.0 C 262.6 82.7 262.7 91.4 262.6 100.0 C 262.6 103.5 261.6 107.5 258.5 109.4 C 255.1 111.5 250.9 111.7 247.0 111.8 C 241.7 111.9 236.3 111.9 231.0 111.8 C 227.1 111.7 223.0 111.4 219.4 109.6 C 216.3 108.0 215.0 104.3 215.0 101.0 C 214.8 92.0 214.9 83.0 215.0 74.0 Z" />
<path fill="#ffffff" stroke="#ffffff" stroke-width="0.09375" opacity="1.00" d=" M 265.4 74.0 C 279.4 74.0 293.5 74.0 307.6 74.0 C 307.6 77.0 307.6 80.1 307.6 83.1 C 302.4 83.2 297.2 83.2 292.1 83.2 C 292.1 92.6 292.1 102.0 292.1 111.4 C 288.3 111.4 284.6 111.4 280.8 111.4 C 280.8 102.0 280.8 92.6 280.8 83.2 C 275.7 83.2 270.5 83.2 265.4 83.1 C 265.4 80.1 265.4 77.0 265.4 74.0 Z" />
<path fill="#ffffff" stroke="#ffffff" stroke-width="0.09375" opacity="1.00" d=" M 310.3 74.0 C 324.0 74.0 337.6 74.0 351.3 74.0 C 351.3 77.1 351.2 80.1 351.2 83.2 C 341.3 83.2 331.5 83.2 321.6 83.2 C 321.6 85.0 321.6 86.9 321.6 88.8 C 330.9 88.7 340.2 88.8 349.6 88.7 C 349.6 91.4 349.6 94.0 349.6 96.6 C 340.2 96.6 330.9 96.6 321.6 96.6 C 321.6 98.5 321.6 100.4 321.6 102.3 C 331.6 102.3 341.6 102.3 351.7 102.3 C 351.7 105.3 351.7 108.4 351.7 111.4 C 337.9 111.4 324.1 111.4 310.3 111.4 C 310.3 98.9 310.3 86.5 310.3 74.0 Z" />
<path fill="#ffffff" stroke="#ffffff" stroke-width="0.09375" opacity="1.00" d=" M 354.0 74.0 C 364.0 74.0 374.0 74.0 384.0 74.0 C 388.1 74.1 392.4 74.0 396.0 76.1 C 398.6 77.5 399.4 80.6 400.0 83.3 L 400.0 88.9 C 399.8 92.4 397.8 95.6 394.3 96.6 C 396.4 97.6 398.7 98.6 399.3 101.1 C 400.1 104.4 399.7 107.9 399.7 111.4 C 396.0 111.4 392.2 111.4 388.5 111.4 C 388.4 108.6 388.7 105.8 387.9 103.1 C 386.6 101.8 384.7 102.0 383.0 101.9 C 377.2 101.8 371.3 101.9 365.4 101.9 C 365.4 105.1 365.4 108.2 365.4 111.4 C 361.6 111.4 357.8 111.4 354.0 111.4 C 354.0 98.9 354.0 86.5 354.0 74.0 M 365.4 83.4 C 365.4 86.4 365.4 89.4 365.5 92.5 C 371.0 92.4 376.5 92.4 382.0 92.5 C 383.9 92.4 385.9 92.7 387.5 91.5 C 389.0 89.3 388.5 86.5 387.8 84.1 C 386.2 83.7 384.6 83.3 383.0 83.4 C 377.2 83.4 371.3 83.4 365.4 83.4 Z" />
<path fill="#ffffff" stroke="#ffffff" stroke-width="0.09375" opacity="1.00" d=" M 113.1 116.0 C 114.2 116.0 115.3 116.0 116.4 116.0 C 120.2 122.9 124.0 129.9 127.8 136.9 C 131.6 130.0 135.2 122.9 139.0 116.0 C 139.8 116.0 141.5 116.0 142.3 116.0 C 138.3 124.0 134.2 132.0 130.2 140.0 C 128.6 140.0 127.1 140.0 125.5 140.0 C 121.4 132.0 117.2 124.0 113.1 116.0 Z" />
<path fill="#ffffff" stroke="#ffffff" stroke-width="0.09375" opacity="1.00" d=" M 143.2 117.1 C 147.2 115.5 151.7 116.1 156.0 115.9 C 159.5 116.1 163.4 115.5 166.5 117.5 C 168.5 119.0 168.0 121.8 168.3 123.9 C 167.6 124.0 166.1 124.0 165.4 124.0 C 165.1 122.5 164.8 121.0 164.4 119.6 C 157.9 118.5 151.2 118.4 144.8 119.7 C 143.3 125.1 143.5 130.9 144.7 136.3 C 149.4 137.4 154.2 137.0 159.0 137.0 C 161.1 137.0 163.1 136.7 165.1 135.9 C 165.1 134.5 165.3 133.1 165.4 131.7 C 166.2 131.7 167.8 131.7 168.6 131.7 C 168.3 133.7 168.5 135.8 167.7 137.6 C 166.2 139.7 163.4 139.8 161.0 139.9 C 156.3 140.0 151.6 140.1 146.9 139.7 C 144.7 139.6 142.2 138.9 141.4 136.7 C 140.2 133.0 140.5 128.9 140.5 125.0 C 140.7 122.3 140.7 118.9 143.2 117.1 Z" />
<path fill="#ffffff" stroke="#ffffff" stroke-width="0.09375" opacity="1.00" d=" M 175.7 131.2 C 181.8 126.1 187.9 121.0 194.0 116.0 C 195.5 116.0 197.1 116.0 198.6 116.0 C 198.6 121.3 198.6 126.7 198.6 132.1 C 199.5 132.1 201.1 132.1 201.9 132.1 C 202.0 132.8 202.0 134.2 202.0 134.9 C 201.1 134.9 199.5 135.0 198.6 135.0 C 198.6 136.6 198.6 138.3 198.6 140.0 C 197.9 140.0 196.4 140.0 195.7 140.0 C 195.7 138.3 195.7 136.6 195.7 135.0 C 189.0 134.9 182.4 134.9 175.7 135.0 C 175.7 134.0 175.7 132.1 175.7 131.2 M 179.5 132.1 C 184.9 132.1 190.3 132.1 195.7 132.1 C 195.7 127.6 195.7 123.2 195.7 118.8 C 190.3 123.2 184.8 127.6 179.5 132.1 Z" />
<path fill="#ffffff" stroke="#ffffff" stroke-width="0.09375" opacity="1.00" d=" M 207.3 116.5 C 211.8 115.6 216.5 116.0 221.0 116.0 C 223.4 116.2 226.2 116.1 228.1 117.9 C 230.1 120.1 229.7 123.3 229.9 126.0 C 229.8 129.6 230.1 133.5 228.8 137.0 C 227.6 139.5 224.5 139.7 222.1 139.9 C 217.3 140.0 212.4 140.3 207.7 139.5 C 205.4 139.2 203.5 137.3 203.2 135.0 C 202.6 130.4 202.7 125.6 203.3 121.0 C 203.5 118.8 205.1 116.8 207.3 116.5 M 206.8 119.8 C 205.7 125.2 205.5 130.8 206.9 136.1 C 211.8 137.6 217.0 137.2 222.1 137.0 C 223.8 136.9 226.2 136.3 226.3 134.2 C 227.1 129.5 226.9 124.6 226.0 119.9 C 224.1 119.2 222.0 118.8 220.0 118.8 C 215.6 118.8 211.0 118.4 206.8 119.8 Z" />
<path fill="#ffffff" stroke="#ffffff" stroke-width="0.09375" opacity="1.00" d=" M 235.4 116.5 C 240.5 115.5 245.9 116.0 251.1 116.1 C 253.7 116.1 256.8 117.2 257.7 120.0 C 258.5 123.9 258.2 128.0 258.1 132.0 C 257.9 134.3 257.8 137.3 255.6 138.7 C 253.3 139.9 250.6 139.8 248.0 140.0 C 243.9 140.0 239.8 140.3 235.8 139.4 C 233.4 139.0 231.7 137.0 231.5 134.6 C 231.0 130.1 231.0 125.6 231.6 121.1 C 231.7 119.0 233.3 117.0 235.4 116.5 M 234.4 124.9 C 234.4 128.5 233.8 132.4 235.3 135.8 C 238.1 137.6 241.8 137.0 245.0 137.1 C 248.0 136.9 251.3 137.5 254.0 136.0 C 255.9 130.9 255.2 125.0 254.3 119.8 C 248.7 118.3 242.8 118.6 237.1 119.2 C 234.3 119.5 234.6 122.9 234.4 124.9 Z" />
<path fill="#ffffff" stroke="#ffffff" stroke-width="0.09375" opacity="1.00" d=" M 264.3 116.5 C 268.8 115.6 273.5 116.0 278.0 116.0 C 280.4 116.2 283.2 116.1 285.1 117.9 C 286.9 119.8 286.7 122.6 286.9 125.0 C 286.8 129.0 287.2 133.1 285.8 137.0 C 284.6 139.5 281.5 139.7 279.1 139.9 C 274.3 140.0 269.4 140.3 264.7 139.5 C 262.4 139.2 260.5 137.3 260.2 135.0 C 259.6 130.4 259.6 125.6 260.3 121.0 C 260.5 118.8 262.1 116.8 264.3 116.5 M 263.8 119.8 C 262.7 125.2 262.5 130.8 263.9 136.1 C 268.8 137.6 274.0 137.2 279.1 137.0 C 280.8 136.9 283.2 136.3 283.3 134.2 C 284.1 129.5 283.9 124.6 283.0 119.9 C 281.1 119.2 279.0 118.8 277.0 118.8 C 272.6 118.8 268.0 118.4 263.8 119.8 Z" />
</svg>
