<?xml version="1.0" encoding="UTF-8" ?>
<!DOCTYPE svg PUBLIC "-//W3C//DTD SVG 1.1//EN" "http://www.w3.org/Graphics/SVG/1.1/DTD/svg11.dtd">
<svg width="1224pt" height="360pt" viewBox="0 0 1224 360" version="1.1" xmlns="http://www.w3.org/2000/svg">
<path fill="#ffffff" stroke="#ffffff" stroke-width="0.09375" opacity="1.00" d=" M 526.1 0.0 L 567.7 0.0 C 567.8 14.3 567.6 28.6 567.8 42.9 C 573.0 47.0 578.1 51.1 583.2 55.3 C 588.6 51.4 593.6 46.9 598.9 42.8 C 599.1 28.5 598.9 14.3 599.0 0.0 L 640.6 0.0 C 640.6 18.5 640.7 37.0 640.5 55.5 C 633.5 60.3 626.9 65.9 619.6 70.4 C 597.0 70.8 574.5 70.4 552.0 70.6 C 549.8 70.5 547.3 71.0 545.5 69.5 C 539.5 65.2 533.6 60.8 527.6 56.5 C 525.8 55.7 526.2 53.6 526.1 52.1 C 526.2 34.7 526.1 17.4 526.1 0.0 Z" />
<path fill="#ffffff" stroke="#ffffff" stroke-width="0.09375" opacity="1.00" d=" M 645.8 0.0 L 687.4 0.0 C 687.5 23.5 687.3 46.9 687.5 70.4 C 673.7 70.8 659.8 70.4 646.0 70.6 C 645.6 47.1 645.9 23.5 645.8 0.0 Z" />
<path fill="#ffffff" stroke="#ffffff" stroke-width="0.09375" opacity="1.00" d=" M 723.5 0.0 L 807.1 0.0 C 807.1 17.4 807.1 34.7 807.1 52.1 C 806.9 53.4 807.4 55.2 806.1 56.1 C 801.0 60.0 795.6 63.6 790.5 67.5 C 788.5 68.9 786.6 70.9 784.0 70.6 C 753.5 70.4 723.0 70.9 692.5 70.3 C 692.8 53.6 692.5 36.8 692.7 20.0 C 702.9 13.3 713.2 6.7 723.5 0.0 M 734.2 15.0 C 734.2 28.4 734.3 41.8 734.2 55.2 C 744.6 55.6 755.0 55.3 765.4 55.4 C 765.5 41.9 765.5 28.4 765.4 15.0 C 755.0 15.0 744.6 14.8 734.2 15.0 Z" />
<path fill="#ffffff" stroke="#ffffff" stroke-width="0.09375" opacity="1.00" d=" M 842.9 0.0 L 926.5 0.0 C 920.3 4.4 914.3 8.9 908.2 13.3 C 907.0 14.2 905.6 15.1 904.1 14.9 C 887.4 15.0 870.7 14.9 854.0 15.0 C 853.9 20.0 853.9 25.0 853.9 30.0 C 871.2 30.1 888.4 30.0 905.7 30.1 C 898.9 35.3 892.1 40.5 884.9 45.1 C 874.6 45.6 864.3 45.2 854.0 45.3 C 853.9 48.6 853.9 52.0 853.9 55.4 C 876.4 55.5 898.9 55.3 921.3 55.5 C 921.8 42.0 921.4 28.5 921.5 15.0 C 928.3 9.9 935.2 5.2 941.8 0.0 L 1015.5 0.0 C 1022.2 5.1 1029.4 9.7 1035.8 15.1 C 1036.2 27.1 1035.8 39.1 1036.0 51.0 C 1035.9 52.9 1036.5 55.5 1034.5 56.5 C 1028.5 60.9 1022.6 65.2 1016.6 69.5 C 1015.3 70.6 1013.6 70.6 1012.0 70.6 C 989.7 70.5 967.3 70.6 945.0 70.6 C 943.4 70.7 941.8 70.4 940.6 69.3 C 935.1 65.4 929.7 61.2 924.1 57.3 C 917.9 61.6 912.1 66.6 905.6 70.4 C 874.5 70.8 843.4 70.5 812.3 70.6 C 812.2 53.8 812.4 36.9 812.3 20.1 C 822.3 13.2 832.8 7.0 842.9 0.0 M 963.2 15.0 C 963.1 28.4 963.2 41.9 963.1 55.3 C 973.5 55.5 983.9 55.4 994.4 55.4 C 994.4 41.9 994.4 28.4 994.3 15.0 C 983.9 14.9 973.6 14.9 963.2 15.0 Z" />
<path fill="#ffffff" stroke="#ffffff" stroke-width="0.09375" opacity="1.00" d=" M 23.9 69.9 C 24.1 67.3 26.4 65.1 29.0 65.0 C 32.7 64.8 36.4 64.8 40.1 65.0 C 42.8 65.0 45.3 67.3 45.4 70.0 C 45.6 73.6 45.5 77.2 45.4 80.8 C 51.1 80.9 56.8 80.9 62.5 80.8 C 62.7 76.6 61.9 72.2 63.1 68.1 C 64.8 64.3 69.5 64.9 73.0 64.9 C 76.7 65.0 81.7 64.1 83.6 68.2 C 84.8 72.3 84.0 76.7 84.2 80.9 C 89.8 80.9 95.4 80.9 101.0 80.9 C 101.1 77.2 100.9 73.6 101.1 69.9 C 101.2 67.4 103.5 65.2 106.0 65.0 C 109.7 64.8 113.4 64.9 117.1 65.0 C 119.9 64.9 122.4 67.3 122.6 70.0 C 122.9 73.6 122.7 77.2 122.6 80.8 C 128.3 81.0 134.0 80.9 139.7 80.8 C 139.7 77.2 139.5 73.6 139.7 69.9 C 140.0 67.3 142.4 65.1 145.0 65.0 C 148.7 64.8 152.4 64.8 156.1 65.0 C 158.8 65.1 161.1 67.4 161.3 70.0 C 161.6 73.6 161.4 77.2 161.4 80.8 C 167.0 80.9 172.7 80.8 178.4 80.9 C 178.5 77.2 178.3 73.6 178.5 70.0 C 178.6 67.2 181.2 65.0 183.9 65.0 C 187.6 64.8 191.3 64.8 195.0 65.0 C 197.6 65.2 199.8 67.4 200.0 70.0 C 200.3 73.6 200.0 77.3 200.1 80.9 C 205.7 80.9 211.3 80.9 216.9 80.9 C 216.9 77.3 216.7 73.6 217.0 70.0 C 217.1 67.4 219.4 65.1 222.0 65.0 C 225.7 64.8 229.4 64.8 233.1 65.0 C 235.8 65.0 238.4 67.3 238.5 70.0 C 238.7 73.6 238.5 77.2 238.5 80.8 C 244.1 80.9 249.7 80.8 255.3 80.9 C 255.4 77.2 255.2 73.6 255.4 69.9 C 255.5 67.2 258.2 64.9 260.9 65.0 C 264.6 64.9 268.3 64.8 272.0 65.0 C 274.5 65.2 276.8 67.4 276.9 69.9 C 277.1 73.6 276.9 77.2 277.0 80.9 C 282.7 80.9 288.3 80.9 294.0 80.9 C 294.1 77.3 293.8 73.6 294.1 70.0 C 294.2 67.4 296.5 65.2 299.0 65.0 C 302.7 64.8 306.4 64.9 310.1 65.0 C 312.8 64.9 315.4 67.2 315.6 69.9 C 315.9 73.6 315.6 77.2 315.7 80.9 C 321.3 80.8 327.0 80.9 332.6 80.8 C 332.5 77.2 332.4 73.6 332.6 70.0 C 332.7 67.3 335.2 65.0 337.9 65.0 C 341.6 64.8 345.3 64.8 349.0 65.0 C 351.6 65.1 353.9 67.4 354.1 70.0 C 354.4 73.6 354.2 77.2 354.2 80.9 C 359.8 80.9 365.5 80.9 371.1 80.9 C 371.8 75.9 369.0 68.6 374.3 65.6 C 378.4 64.3 382.8 65.1 387.0 65.0 C 389.9 64.8 392.6 67.1 392.8 69.9 C 393.1 73.6 392.8 77.2 392.9 80.9 C 398.6 80.9 404.2 80.9 409.9 80.9 C 410.0 76.8 409.4 72.5 410.3 68.5 C 411.8 64.5 416.5 64.8 420.0 64.9 C 423.8 65.1 429.0 63.9 431.0 68.2 C 432.2 72.2 431.4 76.6 431.5 80.8 C 437.1 80.9 442.7 80.8 448.3 80.9 C 448.5 77.2 448.3 73.6 448.5 70.0 C 448.6 67.2 451.2 65.0 453.9 65.0 C 457.6 64.8 461.3 64.8 465.0 65.0 C 467.6 65.2 469.9 67.4 470.0 70.0 C 470.2 73.6 470.0 77.3 470.1 80.9 C 474.8 80.8 479.7 80.7 484.3 81.9 C 489.6 83.3 494.3 87.7 495.4 93.2 C 496.7 97.7 496.5 102.4 496.5 107.0 C 496.5 157.3 496.5 207.7 496.5 258.0 C 496.6 264.7 494.1 272.6 487.5 275.5 C 482.3 278.9 475.9 277.1 470.1 277.4 C 470.0 281.3 470.2 285.2 470.0 289.1 C 470.1 291.8 467.8 294.4 465.0 294.6 C 461.4 294.8 457.7 294.7 454.0 294.6 C 451.3 294.7 448.7 292.5 448.5 289.8 C 448.2 285.7 448.4 281.6 448.5 277.5 C 442.8 277.5 437.2 277.5 431.5 277.5 C 431.5 281.3 431.7 285.2 431.5 289.0 C 431.6 292.0 429.0 294.7 426.0 294.6 C 422.3 294.7 418.6 294.8 415.0 294.6 C 412.2 294.5 409.8 291.8 409.9 289.1 C 409.7 285.2 409.9 281.4 410.0 277.5 C 404.2 277.5 398.5 277.4 392.8 277.5 C 392.6 282.2 393.6 287.0 392.3 291.5 C 390.4 295.5 385.5 294.6 382.0 294.7 C 378.4 294.6 373.3 295.5 371.6 291.2 C 370.5 286.8 371.3 282.0 371.3 277.5 C 365.6 277.5 359.8 277.4 354.1 277.5 C 354.2 281.4 354.3 285.2 354.2 289.0 C 354.2 291.8 351.9 294.5 349.0 294.6 C 345.3 294.8 341.7 294.7 338.0 294.6 C 335.3 294.7 332.8 292.5 332.6 289.8 C 332.3 285.7 332.6 281.6 332.6 277.5 C 326.9 277.5 321.2 277.5 315.6 277.5 C 315.7 281.4 315.8 285.3 315.7 289.1 C 315.7 292.1 313.1 294.7 310.1 294.6 C 306.4 294.7 302.7 294.8 299.0 294.6 C 296.2 294.4 294.0 291.8 294.0 289.1 C 293.8 285.3 294.1 281.4 294.1 277.5 C 288.4 277.5 282.6 277.5 276.9 277.5 C 276.9 281.4 277.1 285.3 276.9 289.1 C 277.0 291.9 274.5 294.6 271.7 294.6 C 268.1 294.8 264.5 294.7 260.9 294.6 C 257.9 294.7 255.2 292.1 255.4 289.1 C 255.2 285.2 255.3 281.4 255.4 277.5 C 249.8 277.5 244.1 277.5 238.5 277.5 C 238.5 281.3 238.7 285.2 238.5 289.0 C 238.6 291.7 236.5 294.3 233.9 294.5 C 229.9 294.8 225.9 294.7 222.0 294.6 C 219.2 294.5 216.9 291.8 216.9 289.0 C 216.8 285.2 216.9 281.3 216.9 277.4 C 211.3 277.5 205.7 277.5 200.1 277.4 C 200.0 281.3 200.2 285.2 200.1 289.1 C 200.1 291.8 197.8 294.4 195.0 294.6 C 191.4 294.8 187.7 294.7 184.0 294.6 C 181.3 294.7 178.7 292.5 178.5 289.8 C 178.2 285.7 178.4 281.6 178.5 277.5 C 172.8 277.5 167.0 277.5 161.3 277.5 C 161.3 282.0 161.8 286.5 161.1 290.8 C 159.7 295.2 154.6 294.8 151.0 294.7 C 147.1 294.7 141.5 295.5 140.0 290.8 C 139.2 286.4 139.8 281.9 139.8 277.4 C 134.0 277.6 128.3 277.3 122.5 277.6 C 122.7 281.4 122.8 285.3 122.7 289.1 C 122.7 292.1 120.1 294.7 117.1 294.6 C 113.4 294.7 109.7 294.8 106.0 294.6 C 103.2 294.4 101.0 291.8 101.1 289.1 C 100.9 285.3 101.1 281.4 101.1 277.5 C 95.4 277.5 89.7 277.5 84.1 277.5 C 84.2 281.4 84.4 285.2 84.2 289.0 C 84.2 291.8 81.9 294.5 79.0 294.6 C 75.4 294.8 71.7 294.7 68.0 294.6 C 65.3 294.7 62.9 292.5 62.6 289.8 C 62.3 285.7 62.5 281.6 62.6 277.5 C 56.8 277.5 51.1 277.5 45.4 277.5 C 45.5 281.3 45.6 285.2 45.5 289.0 C 45.6 292.0 43.0 294.7 40.0 294.6 C 36.3 294.7 32.7 294.8 29.0 294.6 C 26.1 294.5 23.7 291.9 23.8 289.0 C 23.7 285.2 23.9 281.3 23.8 277.4 C 20.9 277.4 17.9 277.6 15.0 277.6 C 9.6 276.9 5.2 273.2 2.4 268.8 C 0.3 264.5 1.1 259.6 1.0 255.0 C 1.0 203.3 1.1 151.7 1.0 100.0 C 0.1 94.3 2.5 88.5 6.7 84.7 C 11.6 81.0 18.0 80.8 23.8 80.8 C 23.9 77.2 23.6 73.5 23.9 69.9 M 15.4 91.6 C 8.8 93.0 3.0 98.9 3.5 106.0 C 3.5 155.3 3.4 204.6 3.5 254.0 C 3.7 263.3 13.8 268.0 21.9 268.0 C 172.6 268.1 323.3 268.0 474.0 268.0 C 481.7 268.0 490.9 264.4 492.4 256.0 C 492.6 205.4 492.5 154.7 492.5 104.0 C 492.3 95.9 483.4 91.0 476.1 91.0 C 326.0 90.9 176.0 91.0 26.0 91.0 C 22.5 91.0 18.9 90.7 15.4 91.6 Z" />
<path fill="#ffffff" stroke="#ffffff" stroke-width="0.09375" opacity="1.00" d=" M 914.7 96.7 C 942.2 96.3 969.7 96.6 997.1 96.5 C 992.3 100.9 986.6 104.3 981.4 108.3 C 979.4 109.6 977.6 111.8 975.0 111.5 C 958.3 111.5 941.7 111.5 925.0 111.6 C 925.1 116.6 924.9 121.6 925.1 126.6 C 942.2 126.6 959.3 126.4 976.3 126.8 C 970.8 131.2 964.9 135.1 959.2 139.4 C 957.9 140.3 956.6 141.6 954.9 141.5 C 944.9 141.6 935.0 141.5 925.0 141.6 C 925.0 144.9 925.0 148.3 925.1 151.6 C 949.1 151.6 973.0 151.4 997.0 151.7 C 992.1 156.0 986.5 159.4 981.4 163.3 C 979.4 164.6 977.6 166.8 975.0 166.6 C 944.5 166.4 914.0 166.8 883.6 166.3 C 883.7 149.8 883.7 133.3 883.5 116.8 C 893.8 109.8 904.2 103.2 914.7 96.7 Z" />
<path fill="#ffffff" stroke="#ffffff" stroke-width="0.09375" opacity="1.00" d=" M 555.5 97.5 C 557.1 96.2 559.1 96.5 561.0 96.5 C 587.1 96.7 613.3 96.3 639.5 96.7 C 633.4 101.6 626.9 105.9 620.6 110.6 C 619.4 111.7 617.6 111.5 616.0 111.5 C 599.9 111.4 583.7 111.6 567.6 111.5 C 567.2 124.8 567.5 138.2 567.4 151.6 C 577.8 151.5 588.2 151.8 598.6 151.4 C 598.5 148.1 598.5 144.8 598.5 141.6 C 589.9 141.5 581.4 141.6 572.9 141.5 C 579.0 136.7 585.5 132.4 591.7 127.7 C 592.9 126.6 594.5 126.5 596.0 126.6 C 610.7 126.6 625.3 126.5 640.0 126.6 C 640.0 135.0 640.2 143.4 639.9 151.7 C 633.4 156.2 627.0 161.0 620.6 165.6 C 619.8 166.3 618.9 166.6 617.9 166.5 C 587.3 166.6 556.7 166.4 526.1 166.6 C 525.7 151.1 526.1 135.5 525.9 120.0 C 526.1 118.6 525.5 116.6 527.0 115.9 C 536.5 109.8 546.0 103.7 555.5 97.5 Z" />
<path fill="#ffffff" stroke="#ffffff" stroke-width="0.09375" opacity="1.00" d=" M 674.6 97.6 C 675.8 96.6 677.4 96.5 679.0 96.5 C 705.7 96.6 732.5 96.4 759.2 96.6 C 759.1 119.9 759.6 143.3 759.0 166.6 C 745.4 166.4 731.9 166.7 718.3 166.5 L 717.8 166.0 C 717.6 157.9 717.7 149.8 717.8 141.8 C 707.4 141.2 697.0 141.7 686.6 141.6 C 686.6 149.9 686.7 158.2 686.6 166.5 C 672.8 166.6 659.0 166.5 645.2 166.6 C 645.0 151.0 645.2 135.5 645.1 120.0 C 645.3 118.7 644.6 116.8 646.0 116.0 C 655.5 109.9 665.1 103.8 674.6 97.6 M 686.6 111.5 C 686.6 116.5 686.7 121.4 686.5 126.4 C 696.9 126.9 707.3 126.4 717.7 126.6 C 717.7 121.6 717.7 116.5 717.7 111.5 C 707.3 111.5 697.0 111.5 686.6 111.5 Z" />
<path fill="#ffffff" stroke="#ffffff" stroke-width="0.09375" opacity="1.00" d=" M 764.4 166.5 C 764.5 143.2 764.2 119.8 764.6 96.4 C 778.1 96.6 791.5 96.4 805.0 96.6 C 810.9 98.1 815.9 102.2 821.7 103.8 C 826.9 101.7 831.7 98.7 837.0 96.7 C 850.8 96.3 864.6 96.6 878.4 96.5 C 878.5 119.8 878.3 143.1 878.5 166.4 C 864.7 166.8 850.9 166.3 837.1 166.6 C 836.7 150.0 837.1 133.3 836.9 116.7 C 831.6 118.8 826.7 121.9 821.3 123.9 C 816.0 121.7 811.1 118.9 805.9 116.7 C 805.7 133.3 806.0 149.9 805.8 166.6 C 792.0 166.5 778.2 166.6 764.4 166.5 Z" />
<path fill="#ffffff" stroke="#ffffff" stroke-width="0.09375" opacity="1.00" d=" M 156.4 133.8 C 158.6 133.4 160.9 133.4 163.2 133.8 C 163.6 136.3 163.9 138.8 164.2 141.4 C 165.8 139.2 165.5 136.3 166.1 133.7 C 168.0 133.6 169.8 133.5 171.7 133.4 C 171.1 139.1 168.5 144.4 167.6 150.0 C 167.4 153.3 167.5 156.6 167.6 159.9 C 165.4 160.0 163.2 160.0 161.0 160.0 C 162.1 150.9 158.7 142.4 156.4 133.8 Z" />
<path fill="#ffffff" stroke="#ffffff" stroke-width="0.09375" opacity="1.00" d=" M 174.9 133.6 C 177.5 133.4 180.2 133.4 182.9 133.7 C 184.1 142.5 185.3 151.2 186.3 160.0 C 184.0 160.0 181.7 160.0 179.4 159.9 C 179.6 157.6 179.5 155.2 179.1 152.9 C 178.4 153.0 177.2 153.1 176.5 153.2 C 176.5 155.5 176.2 157.7 175.9 160.0 C 173.9 160.0 171.9 160.0 169.9 160.0 C 171.7 151.2 173.1 142.4 174.9 133.6 M 179.0 149.3 C 178.7 146.9 178.5 144.4 178.5 142.0 C 177.9 144.3 175.9 148.4 179.0 149.3 Z" />
<path fill="#ffffff" stroke="#ffffff" stroke-width="0.09375" opacity="1.00" d=" M 187.0 133.7 C 190.0 133.4 193.0 133.4 196.0 133.7 C 196.9 138.9 197.2 144.1 198.6 149.2 C 199.2 144.0 200.4 138.9 201.1 133.7 C 204.1 133.4 207.0 133.4 210.0 133.7 C 210.1 142.5 209.8 151.2 210.2 160.0 C 208.1 160.0 206.1 160.0 204.0 160.0 C 203.9 155.0 204.3 150.0 203.6 145.0 C 202.8 150.1 201.8 155.0 200.8 160.0 C 199.0 160.0 197.1 160.0 195.3 159.9 C 194.6 155.3 193.5 150.6 192.4 146.1 C 192.5 150.7 192.6 155.4 192.5 160.0 C 190.6 160.0 188.7 160.0 186.8 160.0 C 187.2 151.2 186.9 142.5 187.0 133.7 Z" />
<path fill="#ffffff" stroke="#ffffff" stroke-width="0.09375" opacity="1.00" d=" M 215.1 133.7 C 217.8 133.4 220.5 133.4 223.1 133.5 C 224.6 142.3 225.6 151.1 226.8 160.0 C 224.6 160.0 222.3 160.0 220.1 160.0 C 220.0 157.8 219.9 155.5 219.7 153.2 C 219.0 153.2 217.8 153.0 217.1 152.9 C 216.8 155.2 216.5 157.6 216.5 159.9 C 214.5 160.0 212.5 160.0 210.6 160.0 C 211.7 151.2 213.8 142.5 215.1 133.7 M 218.3 143.4 C 217.7 145.1 217.6 147.2 217.9 149.0 C 219.9 149.0 219.7 144.1 218.3 143.4 Z" />
<path fill="#ffffff" stroke="#ffffff" stroke-width="0.09375" opacity="1.00" d=" M 227.6 133.6 C 229.7 133.5 231.9 133.5 234.0 133.7 C 234.0 136.9 234.0 140.1 234.0 143.3 C 237.3 141.7 234.7 136.6 235.5 133.5 C 237.5 133.5 239.5 133.5 241.5 133.5 C 241.5 142.4 241.5 151.2 241.5 160.0 C 239.5 160.0 237.4 160.0 235.4 159.9 C 235.5 155.8 235.5 151.7 235.5 147.6 L 234.0 147.5 C 234.0 151.7 234.0 155.8 234.0 160.0 C 231.8 160.0 229.7 160.0 227.5 160.0 C 227.5 151.2 227.4 142.4 227.6 133.6 Z" />
<path fill="#ffffff" stroke="#ffffff" stroke-width="0.09375" opacity="1.00" d=" M 247.2 133.7 C 249.8 133.4 252.5 133.4 255.2 133.6 C 256.3 142.4 257.8 151.2 258.6 160.0 C 256.4 160.0 254.3 160.0 252.1 160.0 C 251.8 157.6 251.5 155.3 251.3 152.9 C 247.5 152.4 249.1 157.6 248.2 160.0 C 246.3 160.0 244.4 160.0 242.4 160.0 C 243.8 151.2 245.5 142.5 247.2 133.7 M 251.0 149.3 C 251.0 147.1 251.0 144.9 250.8 142.8 C 250.3 144.8 247.9 148.6 251.0 149.3 Z" />
<path fill="#ffffff" stroke="#ffffff" stroke-width="0.09375" opacity="1.00" d=" M 274.7 139.0 C 275.5 139.0 277.2 139.0 278.0 139.0 C 277.9 144.7 278.2 150.4 277.9 156.1 C 277.3 159.8 273.1 160.8 269.9 160.5 C 269.9 159.7 270.1 158.2 270.2 157.5 C 270.9 157.5 272.2 157.4 272.9 157.4 C 273.3 157.0 274.1 156.1 274.5 155.6 C 274.5 150.1 274.3 144.5 274.7 139.0 Z" />
<path fill="#ffffff" stroke="#ffffff" stroke-width="0.09375" opacity="1.00" d=" M 285.0 138.9 C 286.2 139.0 287.4 139.1 288.6 139.2 C 290.5 146.4 293.2 153.3 294.6 160.6 C 293.8 160.5 292.1 160.3 291.2 160.2 C 290.8 158.5 290.3 156.7 289.9 155.0 C 287.6 155.0 285.3 155.0 283.0 155.0 C 282.6 156.7 282.2 158.5 281.8 160.2 C 280.9 160.3 279.2 160.5 278.3 160.6 C 280.3 153.3 282.6 146.1 285.0 138.9 M 283.9 152.0 C 285.6 152.0 287.2 152.0 288.8 152.0 C 288.3 149.3 287.5 146.6 286.6 144.0 C 285.6 146.6 284.8 149.3 283.9 152.0 Z" />
<path fill="#ffffff" stroke="#ffffff" stroke-width="0.09375" opacity="1.00" d=" M 296.0 139.0 C 299.6 139.2 303.6 138.3 306.9 140.2 C 310.7 142.5 311.0 148.7 307.4 151.3 C 305.1 153.0 302.1 152.4 299.5 152.5 C 299.5 155.2 299.5 157.8 299.5 160.5 C 298.6 160.5 296.9 160.5 296.0 160.5 C 296.0 153.3 296.0 146.2 296.0 139.0 M 299.5 141.9 C 299.5 144.7 299.5 147.4 299.5 150.1 C 301.4 149.9 303.5 150.2 305.2 149.1 C 307.0 147.5 307.0 144.5 305.5 142.6 C 303.7 141.7 301.5 142.1 299.5 141.9 Z" />
<path fill="#ffffff" stroke="#ffffff" stroke-width="0.09375" opacity="1.00" d=" M 307.3 160.5 C 309.6 153.3 311.7 146.1 314.1 138.9 C 315.3 139.0 316.5 139.1 317.7 139.1 C 319.7 146.4 322.5 153.4 323.9 160.7 C 319.9 161.7 319.8 157.6 319.1 155.0 C 316.8 155.0 314.6 155.0 312.3 155.1 C 311.6 157.7 311.1 161.7 307.3 160.5 M 315.6 143.1 C 315.0 146.1 314.0 149.0 313.4 152.0 C 315.0 152.0 316.6 152.0 318.1 152.0 C 317.4 149.0 316.4 146.1 315.6 143.1 Z" />
<path fill="#ffffff" stroke="#ffffff" stroke-width="0.09375" opacity="1.00" d=" M 325.1 139.1 C 325.8 139.1 327.2 139.0 327.9 138.9 C 330.9 143.5 333.5 148.4 336.5 152.9 C 336.6 148.3 336.3 143.6 336.7 138.9 C 337.5 139.0 339.1 139.1 339.9 139.1 C 340.1 146.2 339.9 153.4 340.0 160.5 C 339.4 160.5 338.3 160.6 337.7 160.6 C 334.2 156.0 331.8 150.6 328.4 145.9 C 328.5 150.8 328.5 155.6 328.5 160.5 C 327.6 160.5 325.9 160.5 325.0 160.5 C 325.1 153.4 324.9 146.2 325.1 139.1 Z" />
<path fill="#ffffff" stroke="#ffffff" stroke-width="0.09375" opacity="1.00" d=" M 414.2 153.2 C 427.8 151.6 441.6 161.6 444.4 175.0 C 446.5 184.2 444.0 194.5 437.2 201.2 C 428.1 211.0 411.9 212.9 401.0 205.0 C 391.5 199.0 386.6 186.9 388.9 175.9 C 391.1 163.9 402.0 154.1 414.2 153.2 Z" />
<path fill="#ffffff" stroke="#ffffff" stroke-width="0.09375" opacity="1.00" d=" M 157.6 170.0 C 158.4 170.0 160.0 170.0 160.8 170.0 C 162.4 173.0 163.5 176.2 165.2 179.0 C 166.5 176.0 167.9 173.0 169.2 170.0 C 170.0 170.0 171.6 170.0 172.4 170.0 C 170.9 173.9 168.9 177.6 167.3 181.5 C 165.9 184.6 166.7 188.2 166.5 191.5 C 165.7 191.5 164.3 191.5 163.5 191.5 C 163.2 187.8 164.3 183.8 162.4 180.5 C 160.8 177.0 159.0 173.6 157.6 170.0 Z" />
<path fill="#ffffff" stroke="#ffffff" stroke-width="0.09375" opacity="1.00" d=" M 173.5 170.0 C 174.3 170.0 176.0 170.0 176.8 170.0 C 178.5 173.6 180.5 177.0 181.7 180.8 C 183.2 177.5 184.5 174.2 186.2 171.1 C 186.8 169.5 188.7 170.2 190.0 169.9 C 190.0 177.0 190.0 184.1 190.0 191.3 C 189.2 191.3 187.7 191.4 187.0 191.5 C 187.0 186.4 187.2 181.2 186.8 176.0 C 185.3 179.6 183.9 183.1 181.9 186.4 C 179.4 183.4 178.3 179.5 176.5 176.1 C 176.5 181.2 176.5 186.4 176.5 191.6 C 175.8 191.5 174.4 191.4 173.7 191.3 C 173.3 184.2 173.6 177.1 173.5 170.0 Z" />
<path fill="#ffffff" stroke="#ffffff" stroke-width="0.09375" opacity="1.00" d=" M 193.5 171.7 C 196.9 167.5 205.0 169.3 205.4 175.0 C 205.2 180.8 199.3 184.1 196.3 188.6 C 199.4 188.5 202.5 188.5 205.6 188.5 C 205.4 189.3 204.9 190.7 204.7 191.4 C 200.5 191.7 196.3 191.4 192.1 191.6 C 192.1 191.0 192.1 189.7 192.0 189.1 C 194.9 184.7 199.3 181.4 201.9 176.8 C 202.9 173.9 199.6 171.4 197.0 172.7 C 194.7 173.3 195.2 176.2 194.7 178.0 C 194.0 177.9 192.7 177.9 192.1 177.9 C 191.9 175.7 191.8 173.3 193.5 171.7 Z" />
<path fill="#ffffff" stroke="#ffffff" stroke-width="0.09375" opacity="1.00" d=" M 207.1 174.1 C 208.4 169.2 215.1 168.1 218.9 171.0 C 220.4 172.7 220.6 175.0 220.5 177.1 C 219.8 177.1 218.4 176.9 217.6 176.8 C 217.5 174.6 216.7 172.2 214.0 172.4 C 210.4 172.3 209.6 176.2 209.9 179.0 C 213.2 178.4 217.1 177.8 219.7 180.4 C 220.9 182.5 221.6 185.2 220.6 187.5 C 218.5 192.9 209.5 193.1 207.1 187.8 C 206.9 183.3 206.9 178.7 207.1 174.1 M 209.9 181.7 C 210.1 184.1 209.3 187.9 212.4 188.6 C 216.7 190.6 219.8 184.0 216.0 181.5 C 214.0 181.5 212.0 181.6 209.9 181.7 Z" />
<path fill="#ffffff" stroke="#ffffff" stroke-width="0.09375" opacity="1.00" d=" M 229.4 171.3 C 232.1 170.6 234.8 169.9 237.5 169.4 C 237.5 176.6 237.6 183.9 237.4 191.1 C 236.7 191.0 235.2 190.9 234.4 190.8 C 234.6 185.0 234.4 179.1 234.5 173.2 C 232.8 173.4 231.1 173.6 229.3 173.8 C 229.4 173.2 229.4 171.9 229.4 171.3 Z" />
<path fill="#ffffff" stroke="#ffffff" stroke-width="0.09375" opacity="1.00" d=" M 239.9 177.5 C 238.8 173.1 242.3 168.6 247.0 169.4 C 252.2 168.9 254.9 175.4 252.0 179.3 C 249.7 182.3 246.9 185.0 244.5 188.0 C 247.4 188.0 250.3 188.0 253.3 188.0 C 253.3 188.8 253.4 190.3 253.5 191.0 C 248.8 191.0 244.1 191.0 239.4 191.0 C 240.5 183.9 251.2 180.9 249.2 172.9 C 245.8 171.3 241.9 173.4 242.9 177.5 C 242.1 177.5 240.7 177.5 239.9 177.5 Z" />
<path fill="#ffffff" stroke="#ffffff" stroke-width="0.09375" opacity="1.00" d=" M 525.8 192.8 C 539.6 192.7 553.3 192.6 567.1 192.8 C 572.6 194.8 577.6 197.9 583.0 200.3 C 588.4 198.0 593.5 194.8 599.0 192.8 C 612.8 192.6 626.5 192.8 640.3 192.7 C 640.4 216.3 640.2 239.8 640.4 263.3 C 626.5 263.7 612.5 263.7 598.6 263.3 C 598.7 246.6 598.7 229.8 598.6 213.0 C 593.4 215.5 588.2 218.1 583.0 220.5 C 577.8 218.0 572.7 215.4 567.4 213.0 C 567.5 229.8 567.4 246.6 567.5 263.4 C 553.7 263.8 539.9 263.3 526.0 263.6 C 525.5 240.0 525.9 216.4 525.8 192.8 Z" />
<path fill="#ffffff" stroke="#ffffff" stroke-width="0.09375" opacity="1.00" d=" M 645.6 192.7 C 659.4 192.7 673.3 192.7 687.2 192.8 C 687.2 211.3 687.2 229.8 687.2 248.3 C 697.6 248.6 708.0 248.4 718.4 248.4 C 718.4 229.9 718.5 211.5 718.3 193.0 C 732.2 192.4 746.1 192.9 760.0 192.8 C 760.1 210.2 760.0 227.6 760.1 245.0 C 760.0 246.6 760.3 248.7 758.5 249.5 C 752.1 254.1 745.9 259.0 739.3 263.4 C 715.0 263.7 690.7 263.6 666.4 263.4 C 659.3 258.6 652.4 253.4 645.5 248.2 C 645.6 229.7 645.5 211.2 645.6 192.7 Z" />
<path fill="#ffffff" stroke="#ffffff" stroke-width="0.09375" opacity="1.00" d=" M 791.2 196.1 C 793.7 194.7 795.9 192.3 799.0 192.7 C 825.8 192.8 852.5 192.5 879.3 192.9 C 872.7 198.0 865.8 203.1 858.9 207.8 C 841.6 208.1 824.2 207.8 806.9 207.9 C 806.9 213.0 806.9 218.0 806.9 223.1 C 822.5 223.1 838.0 222.4 853.6 223.1 C 854.1 222.0 854.7 220.9 855.2 219.7 C 855.0 220.9 854.9 222.1 855.0 223.3 C 863.2 222.9 871.5 223.1 879.8 223.1 C 879.6 231.6 880.2 240.1 879.6 248.5 C 874.1 252.7 868.3 256.6 862.8 260.8 C 861.0 262.0 859.3 263.9 857.0 263.6 C 826.6 263.5 796.2 263.5 765.8 263.5 C 770.7 259.1 776.4 255.7 781.6 251.7 C 783.6 250.4 785.4 248.1 788.0 248.4 C 804.7 248.4 821.4 248.5 838.1 248.4 C 838.1 245.0 838.1 241.6 838.0 238.3 C 813.7 238.2 789.5 238.5 765.2 238.1 C 765.4 229.8 765.1 221.5 765.4 213.2 C 773.7 207.1 782.7 201.9 791.2 196.1 Z" />
<path fill="#ffffff" stroke="#ffffff" stroke-width="0.09375" opacity="1.00" d=" M 885.0 192.7 C 898.9 192.8 912.8 192.4 926.7 192.9 C 926.5 216.5 926.8 240.0 926.6 263.5 C 912.8 263.6 899.0 263.5 885.1 263.6 C 884.9 240.0 885.1 216.4 885.0 192.7 Z" />
<path fill="#ffffff" stroke="#ffffff" stroke-width="0.09375" opacity="1.00" d=" M 961.6 193.7 C 963.1 192.5 965.1 192.8 967.0 192.7 C 993.3 192.8 1019.6 192.5 1045.8 192.9 C 1040.6 197.3 1034.7 201.0 1029.2 205.3 C 1027.6 206.3 1026.1 208.1 1024.0 207.9 C 1007.2 208.1 990.3 207.7 973.4 208.1 C 973.7 221.6 973.2 235.0 973.7 248.5 C 997.8 248.3 1021.9 248.5 1046.1 248.4 C 1040.0 253.3 1033.5 257.6 1027.3 262.3 C 1025.3 264.2 1022.5 263.4 1020.0 263.5 C 990.7 263.6 961.4 263.5 932.1 263.6 C 931.6 246.7 932.0 229.9 931.9 213.0 C 941.7 206.5 951.7 200.2 961.6 193.7 Z" />
<path fill="#ffffff" stroke="#ffffff" stroke-width="0.09375" opacity="1.00" d=" M 156.1 208.1 C 158.9 203.2 166.0 203.2 170.6 205.4 C 174.7 207.8 173.3 213.1 173.5 217.0 C 173.9 220.3 172.9 224.1 169.6 225.4 C 164.4 227.2 155.5 226.3 155.8 219.0 C 157.2 219.0 158.5 219.0 159.8 219.0 C 160.0 219.7 160.2 221.2 160.3 221.9 C 163.1 223.7 167.1 223.6 169.5 221.1 C 169.5 219.6 169.5 218.1 169.5 216.6 C 165.8 216.9 161.6 217.9 158.2 215.7 C 155.3 214.4 155.9 210.6 156.1 208.1 M 160.3 208.2 C 160.1 208.9 159.6 210.3 159.3 211.1 C 161.0 215.3 165.9 214.6 169.5 213.9 C 169.5 212.2 169.5 210.6 169.5 209.0 C 167.1 206.5 163.1 206.2 160.3 208.2 Z" />
<path fill="#ffffff" stroke="#ffffff" stroke-width="0.09375" opacity="1.00" d=" M 175.4 212.5 C 173.8 203.3 188.3 200.9 191.8 208.1 C 193.1 210.2 192.0 212.7 190.4 214.3 C 187.5 217.4 184.1 219.9 181.2 223.0 C 184.9 223.0 188.7 223.0 192.5 223.0 C 192.5 223.7 192.5 225.3 192.5 226.0 C 186.8 226.0 181.1 226.0 175.5 226.0 C 175.5 225.5 175.5 224.4 175.5 223.8 C 178.9 219.8 183.3 216.7 186.9 212.8 C 188.3 211.4 188.7 208.2 186.5 207.4 C 183.0 205.6 178.3 208.2 179.3 212.5 C 178.3 212.5 176.4 212.5 175.4 212.5 Z" />
<path fill="#ffffff" stroke="#ffffff" stroke-width="0.09375" opacity="1.00" d=" M 193.1 206.1 C 196.3 205.0 199.7 204.5 203.0 204.4 C 203.0 211.6 203.0 218.9 203.0 226.1 C 201.8 226.0 200.6 225.9 199.4 225.9 C 199.5 219.9 199.5 213.9 199.5 207.9 C 197.2 208.1 195.0 208.4 192.8 208.5 C 192.9 207.9 193.1 206.7 193.1 206.1 Z" />
<path fill="#ffffff" stroke="#ffffff" stroke-width="0.09375" opacity="1.00" d=" M 205.1 206.1 C 208.4 204.9 212.0 204.5 215.5 204.4 C 215.4 211.6 215.8 218.9 215.3 226.1 C 214.0 226.0 212.7 225.9 211.4 225.9 C 211.5 219.9 211.5 213.9 211.5 207.9 C 209.2 208.2 207.0 208.4 204.8 208.5 C 204.9 207.9 205.1 206.7 205.1 206.1 Z" />
<path fill="#ffffff" stroke="#ffffff" stroke-width="0.09375" opacity="1.00" d=" M 233.0 204.5 C 234.3 204.5 235.7 204.5 237.0 204.5 C 237.0 211.7 237.0 218.8 237.0 226.0 C 235.7 226.0 234.3 226.0 233.0 226.0 C 233.0 218.8 233.0 211.7 233.0 204.5 Z" />
<path fill="#ffffff" stroke="#ffffff" stroke-width="0.09375" opacity="1.00" d=" M 250.1 204.9 C 251.2 205.0 252.4 205.1 253.5 205.2 C 255.2 212.2 257.4 219.0 259.1 226.0 C 258.3 226.0 256.8 226.0 256.0 226.0 C 255.6 224.3 255.2 222.5 254.8 220.7 C 252.8 220.5 250.7 220.5 248.7 220.5 C 248.3 222.2 247.8 224.0 247.4 225.8 C 246.7 225.9 245.2 226.1 244.5 226.2 C 245.7 219.0 248.2 212.0 250.1 204.9 M 251.4 209.9 C 250.8 212.6 250.2 215.3 249.3 217.9 C 250.8 217.9 252.4 218.0 253.9 218.0 C 253.3 215.2 252.5 212.5 251.4 209.9 Z" />
<path fill="#ffffff" stroke="#ffffff" stroke-width="0.09375" opacity="1.00" d=" M 259.4 209.1 C 261.1 203.3 271.0 203.5 272.4 209.5 C 272.6 213.2 272.5 217.0 272.5 220.8 C 272.3 223.8 269.7 225.5 267.3 226.8 C 267.4 227.6 267.5 229.1 267.6 229.9 C 266.6 229.9 265.5 229.9 264.5 229.9 C 264.5 228.7 264.4 227.5 264.4 226.2 C 261.5 226.0 259.3 223.7 259.1 220.8 C 259.0 216.9 258.7 212.9 259.4 209.1 M 262.6 209.1 C 262.4 213.4 262.4 217.7 262.6 221.9 C 264.5 224.8 269.5 223.4 269.5 220.0 C 269.3 215.9 270.4 211.4 268.0 207.9 C 266.3 208.3 263.6 207.3 262.6 209.1 Z" />
<path fill="#ffffff" stroke="#ffffff" stroke-width="0.09375" opacity="1.00" d=" M 281.0 204.5 C 284.3 204.6 287.6 204.1 290.9 204.9 C 294.7 206.7 294.9 211.8 292.7 215.0 C 296.0 217.9 295.5 223.5 291.6 225.5 C 288.2 226.5 284.5 225.9 281.0 226.0 C 281.0 218.8 281.0 211.7 281.0 204.5 M 284.0 207.5 C 284.0 209.7 284.0 211.9 284.0 214.0 C 286.0 213.8 288.5 214.6 290.0 212.9 C 291.8 211.8 290.9 209.3 289.9 208.0 C 288.1 207.1 286.0 207.6 284.0 207.5 M 284.0 216.5 C 284.0 218.7 284.0 220.9 284.0 223.0 C 286.2 222.9 288.5 223.4 290.5 222.4 C 291.9 220.9 291.8 218.9 290.7 217.3 C 288.7 216.1 286.2 216.6 284.0 216.5 Z" />
<path fill="#ffffff" stroke="#ffffff" stroke-width="0.09375" opacity="1.00" d=" M 44.2 216.2 C 48.5 215.7 53.2 215.6 56.8 218.2 C 65.7 223.2 67.3 236.9 59.9 243.9 C 52.5 251.6 37.9 249.4 33.5 239.5 C 28.4 230.6 34.4 218.5 44.2 216.2 Z" />
<path fill="#ffffff" stroke="#ffffff" stroke-width="0.09375" opacity="1.00" d=" M 554.2 291.1 C 555.6 290.1 557.2 289.2 559.0 289.4 C 586.0 289.4 613.0 289.4 639.9 289.3 C 640.1 299.5 640.1 309.6 639.9 319.7 C 634.1 324.0 628.2 328.2 622.4 332.5 C 620.8 333.7 619.1 335.0 617.1 334.8 C 600.5 334.9 583.9 334.6 567.3 334.9 C 567.4 343.3 567.3 351.6 567.3 360.0 L 525.8 360.0 C 525.9 343.7 525.8 327.3 525.9 311.0 C 525.6 309.5 527.1 308.8 528.1 308.0 C 536.8 302.4 545.5 296.8 554.2 291.1 M 567.4 304.5 C 567.3 309.5 567.3 314.6 567.3 319.7 C 577.8 319.5 588.2 320.0 598.6 319.4 C 598.4 314.5 598.5 309.6 598.5 304.6 C 588.1 304.3 577.7 304.6 567.4 304.5 Z" />
<path fill="#ffffff" stroke="#ffffff" stroke-width="0.09375" opacity="1.00" d=" M 645.2 289.3 C 659.0 289.4 672.8 289.3 686.6 289.4 C 686.7 307.9 686.6 326.4 686.7 344.9 C 710.8 344.9 735.0 344.8 759.1 345.0 C 752.4 350.1 745.5 355.0 738.6 360.0 L 645.1 360.0 C 645.2 336.4 645.1 312.9 645.2 289.3 Z" />
<path fill="#ffffff" stroke="#ffffff" stroke-width="0.09375" opacity="1.00" d=" M 791.2 292.3 C 793.3 290.9 795.4 289.1 798.0 289.4 C 824.9 289.4 851.8 289.4 878.7 289.4 C 878.7 312.9 878.7 336.5 878.7 360.0 L 837.2 360.0 C 837.2 351.6 837.2 343.2 837.2 334.8 C 826.8 334.8 816.4 334.8 806.0 334.8 C 806.0 343.2 806.0 351.6 806.0 360.0 L 764.6 360.0 C 764.5 343.3 764.6 326.5 764.5 309.8 C 773.2 303.7 782.3 298.2 791.2 292.3 M 806.1 304.4 C 805.9 309.5 806.0 314.6 806.1 319.7 C 816.4 319.6 826.7 319.6 837.0 319.7 C 837.3 314.6 837.4 309.5 837.0 304.4 C 826.7 304.6 816.4 304.5 806.1 304.4 Z" />
<path fill="#ffffff" stroke="#ffffff" stroke-width="0.09375" opacity="1.00" d=" M 884.0 289.3 C 897.9 289.5 911.7 289.0 925.6 289.6 C 925.4 294.6 925.4 299.6 925.5 304.5 C 930.6 307.6 935.8 310.7 941.0 313.7 C 946.2 310.7 951.3 307.6 956.5 304.5 C 956.5 299.6 956.6 294.6 956.4 289.6 C 970.3 289.1 984.1 289.5 998.0 289.3 C 998.2 296.1 998.3 303.0 997.9 309.7 C 987.2 313.9 976.7 318.6 966.0 322.9 C 964.6 323.5 963.0 324.0 961.9 325.1 C 961.6 336.7 961.9 348.4 961.8 360.0 L 920.2 360.0 C 920.1 348.4 920.4 336.7 920.1 325.1 C 919.0 323.9 917.4 323.5 916.0 322.9 C 905.3 318.6 894.8 313.9 884.1 309.8 C 883.7 303.0 883.9 296.1 884.0 289.3 Z" />
<path fill="#ffffff" stroke="#ffffff" stroke-width="0.09375" opacity="1.00" d=" M 1029.6 292.5 C 1031.8 291.0 1034.1 289.0 1037.0 289.3 C 1063.7 289.4 1090.4 289.3 1117.2 289.4 C 1112.0 293.6 1106.5 297.2 1101.2 301.3 C 1099.1 302.8 1096.9 304.9 1094.0 304.5 C 1077.7 304.4 1061.3 304.6 1045.0 304.4 C 1044.7 309.5 1044.7 314.6 1044.9 319.7 C 1062.0 319.7 1079.2 319.5 1096.3 319.8 C 1091.0 324.0 1085.3 327.8 1079.9 331.9 C 1078.1 333.2 1076.4 335.0 1074.0 334.8 C 1064.3 334.8 1054.5 334.8 1044.8 334.8 C 1044.8 338.2 1044.8 341.5 1044.8 344.9 C 1067.3 344.9 1089.8 344.9 1112.2 344.9 C 1112.3 333.1 1112.1 321.3 1112.3 309.5 C 1122.8 303.0 1132.9 295.8 1143.4 289.6 C 1170.3 289.1 1197.2 289.5 1224.0 289.4 L 1224.0 326.3 C 1219.7 329.2 1215.2 331.9 1210.9 334.9 C 1215.3 341.8 1219.4 348.9 1224.0 355.8 L 1224.0 360.0 L 1185.0 360.0 C 1176.3 346.6 1167.6 333.2 1159.1 319.7 C 1167.7 319.6 1176.3 319.7 1184.9 319.7 C 1185.0 314.6 1185.0 309.5 1184.9 304.5 C 1174.6 304.5 1164.3 304.5 1154.0 304.4 C 1153.5 323.0 1153.9 341.5 1153.8 360.0 L 1112.3 360.0 C 1112.3 356.3 1112.3 352.7 1112.2 349.0 C 1106.8 352.3 1102.0 356.5 1096.7 360.0 L 1003.3 360.0 C 1003.3 343.2 1003.2 326.3 1003.3 309.5 C 1012.1 303.8 1020.9 298.2 1029.6 292.5 Z" />
</svg>
