<svg xmlns="http://www.w3.org/2000/svg" version="1.1" viewBox="13.24 2.05 780.92 143.7">
<path fill="#ffffff" stroke="#ffffff" stroke-width="0.09375" opacity="1.00" d=" M 77.4 2.4 C 82.5 2.0 87.6 2.0 92.8 2.4 C 112.3 4.4 130.7 14.9 142.5 30.5 C 157.0 49.3 160.9 75.6 152.9 97.9 C 148.4 110.7 140.1 122.1 129.4 130.4 C 116.9 140.3 101.0 145.8 85.0 145.7 C 66.0 145.8 47.1 137.8 33.8 124.2 C 20.5 110.7 12.9 91.9 13.3 73.0 C 13.4 59.2 17.6 45.6 25.2 34.2 C 36.8 16.6 56.4 4.5 77.4 2.4 M 79.9 40.0 C 79.6 50.7 79.7 61.4 79.9 72.1 C 94.6 72.3 109.2 72.4 123.9 72.1 C 124.0 59.3 124.0 46.6 123.9 33.8 C 109.2 35.6 94.6 37.9 79.9 40.0 M 42.4 45.4 C 42.4 54.2 42.5 63.1 42.3 72.0 C 53.3 72.6 64.3 72.2 75.2 72.1 C 75.5 61.7 75.5 51.2 75.2 40.8 C 64.2 42.1 53.3 43.9 42.4 45.4 M 42.3 77.0 C 42.4 85.6 42.5 94.2 42.3 102.9 C 45.0 103.6 47.7 104.2 50.4 104.6 C 58.7 105.6 66.9 107.1 75.1 108.0 C 75.6 97.6 75.4 87.1 75.2 76.7 C 67.2 76.4 59.1 76.7 51.0 76.5 C 48.1 76.4 45.2 76.6 42.3 77.0 M 79.9 76.7 C 79.8 87.4 79.4 98.1 80.1 108.8 C 94.7 110.8 109.2 113.2 123.8 115.0 C 124.1 102.3 123.9 89.5 123.9 76.8 C 117.0 76.4 110.0 76.6 103.0 76.6 C 95.3 76.7 87.6 76.4 79.9 76.7 Z"/>
<path fill="#ffffff" stroke="#ffffff" stroke-width="0.09375" opacity="1.00" d=" M 503.4 7.5 C 507.9 7.3 512.5 7.3 517.0 7.3 C 517.7 20.2 517.1 33.1 517.2 46.0 C 517.7 57.0 516.9 68.0 517.3 79.0 C 517.5 86.7 517.2 94.3 517.2 102.0 C 517.3 111.9 517.6 121.9 517.0 131.8 C 512.4 132.0 507.8 132.0 503.3 131.8 C 503.3 127.1 503.4 122.5 503.7 117.8 C 500.7 121.4 497.9 125.3 494.1 128.1 C 486.8 133.2 477.4 134.9 468.7 133.3 C 461.9 132.5 455.4 129.3 450.8 124.2 C 443.9 116.6 440.2 106.3 439.9 96.0 C 439.3 83.5 441.0 70.1 448.9 59.9 C 453.1 54.8 458.1 49.7 464.6 47.7 C 473.7 44.8 483.8 44.5 492.6 48.5 C 497.2 50.5 500.1 54.9 503.5 58.5 C 503.3 41.5 503.4 24.5 503.4 7.5 M 473.3 58.2 C 465.7 60.3 459.5 66.5 456.8 73.8 C 454.0 81.9 453.1 90.7 454.7 99.2 C 455.7 107.3 460.4 115.3 467.7 119.3 C 474.4 122.5 482.6 122.6 489.3 119.4 C 495.9 116.0 500.5 109.4 502.3 102.3 C 503.6 96.6 503.4 90.8 503.4 85.0 C 503.5 80.0 503.1 74.8 500.8 70.2 C 496.2 60.2 483.7 55.5 473.3 58.2 Z"/>
<path fill="#ffffff" stroke="#ffffff" stroke-width="0.09375" opacity="1.00" d=" M 328.3 11.5 C 331.2 11.4 334.2 12.7 335.9 15.1 C 338.8 18.7 338.3 24.7 334.4 27.4 C 332.0 29.2 328.8 30.3 325.9 29.1 C 321.4 27.8 318.2 22.4 319.9 17.9 C 321.0 14.2 324.5 11.6 328.3 11.5 Z"/>
<path fill="#ffffff" stroke="#ffffff" stroke-width="0.09375" opacity="1.00" d=" M 159.1 14.3 C 164.3 14.0 169.5 14.0 174.8 14.2 C 183.5 46.6 192.8 78.8 201.3 111.2 C 201.8 110.0 202.4 108.8 202.8 107.5 C 205.2 98.7 208.0 90.1 210.4 81.2 C 212.6 72.1 215.8 63.2 218.1 54.0 C 221.3 43.5 224.5 32.9 227.3 22.2 C 228.0 19.5 229.0 16.8 230.1 14.1 C 234.6 14.1 239.1 14.0 243.7 14.3 C 246.2 24.4 249.0 34.4 251.6 44.4 C 256.7 61.2 260.6 78.4 265.6 95.2 C 267.2 100.7 268.3 106.3 270.1 111.8 C 272.4 104.2 273.8 96.5 276.1 88.9 C 280.1 75.1 283.2 61.0 287.2 47.2 C 290.1 36.2 292.9 25.1 296.1 14.2 C 301.1 14.1 306.1 14.0 311.0 14.3 C 310.2 19.9 308.4 25.4 306.8 30.8 C 304.7 37.5 303.2 44.4 301.0 51.1 C 293.4 77.8 286.0 104.7 278.3 131.4 C 272.8 131.8 267.1 132.7 261.8 131.2 C 257.2 117.4 254.1 103.2 249.8 89.3 C 245.1 72.8 240.8 56.2 235.8 39.7 C 232.7 49.0 230.5 58.5 227.7 67.8 C 224.9 76.8 222.9 86.1 220.0 95.1 C 216.4 107.3 213.2 119.5 209.8 131.8 C 204.3 132.0 198.8 131.8 193.4 131.6 C 186.8 111.2 181.7 90.4 175.1 70.0 C 170.2 51.3 164.2 32.9 159.1 14.3 Z"/>
<path fill="#ffffff" stroke="#ffffff" stroke-width="0.09375" opacity="1.00" d=" M 379.9 49.9 C 387.2 45.3 396.3 44.9 404.6 46.4 C 411.6 47.8 417.7 52.8 420.8 59.2 C 423.0 63.8 424.6 68.8 424.9 73.9 C 425.4 83.6 424.8 93.3 424.9 103.0 C 425.1 112.6 425.1 122.2 424.9 131.8 C 420.3 132.0 415.7 132.0 411.2 131.8 C 411.1 128.5 411.1 125.2 411.3 122.0 C 411.7 112.3 410.7 102.6 411.3 93.0 C 411.6 84.0 411.7 74.5 407.8 66.2 C 403.2 57.5 391.1 55.4 382.6 59.6 C 374.5 63.5 369.7 72.4 369.3 81.2 C 368.8 98.0 369.6 114.9 368.9 131.7 C 364.4 131.9 359.8 131.9 355.3 131.8 C 355.4 109.5 355.3 87.3 355.3 65.0 C 355.5 59.2 355.0 53.4 355.7 47.6 C 360.2 47.6 364.6 47.6 369.1 47.9 C 369.2 52.3 369.2 56.7 369.2 61.2 C 372.2 56.9 375.2 52.4 379.9 49.9 Z"/>
<path fill="#ffffff" stroke="#ffffff" stroke-width="0.09375" opacity="1.00" d=" M 574.2 45.6 C 581.9 45.6 590.0 46.2 596.9 50.1 C 603.8 54.1 609.4 60.2 612.5 67.5 C 616.2 76.4 617.2 86.4 616.1 96.0 C 615.4 102.7 613.8 109.4 610.1 115.1 C 605.2 122.8 597.8 129.4 588.9 131.8 C 579.8 134.3 570.0 134.6 560.9 132.0 C 555.1 130.0 549.7 126.9 545.5 122.5 C 539.1 115.9 535.0 107.1 534.1 98.0 C 533.1 91.3 533.9 84.4 535.0 77.8 C 536.8 67.8 542.6 58.7 550.7 52.7 C 557.5 47.8 566.0 45.9 574.2 45.6 M 568.3 58.3 C 562.4 59.7 556.9 63.4 553.5 68.5 C 549.2 75.1 547.8 83.2 548.1 91.0 C 547.7 100.0 550.8 109.3 557.6 115.4 C 561.5 119.2 566.8 121.3 572.1 121.5 C 577.8 121.8 583.7 121.6 588.8 118.8 C 595.1 115.8 599.1 109.3 600.7 102.6 C 602.7 94.3 602.9 85.5 600.9 77.2 C 599.5 71.4 596.3 66.0 591.6 62.3 C 584.9 57.7 576.2 56.6 568.3 58.3 Z"/>
<path fill="#ffffff" stroke="#ffffff" stroke-width="0.09375" opacity="1.00" d=" M 768.9 45.7 C 776.3 44.9 783.8 46.4 790.6 49.3 C 790.6 53.9 790.7 58.5 790.6 63.1 C 788.4 62.0 786.2 61.0 784.0 60.0 C 779.1 57.7 773.4 57.1 768.1 57.8 C 764.1 58.4 760.1 60.5 758.2 64.2 C 755.4 69.1 757.4 76.0 762.2 78.8 C 768.8 83.3 776.7 85.2 783.3 89.7 C 786.8 92.0 790.1 95.0 792.2 98.7 C 794.4 102.8 794.1 107.6 794.1 112.1 C 794.1 119.6 788.6 125.7 782.5 129.5 C 776.7 133.0 769.7 133.7 763.0 133.8 C 756.1 133.6 749.0 132.6 743.0 128.9 C 741.8 124.1 742.9 119.0 742.5 114.0 C 746.3 116.2 749.9 118.7 754.1 120.0 C 759.2 121.6 764.7 121.9 769.9 121.3 C 773.0 120.9 776.1 119.7 778.2 117.3 C 780.1 115.0 780.3 111.8 780.1 109.0 C 780.0 105.4 777.1 102.6 774.3 100.7 C 766.0 95.5 756.1 92.9 748.9 86.1 C 743.8 81.6 742.4 74.4 742.8 68.0 C 743.2 61.3 747.4 55.5 752.5 51.5 C 757.1 47.8 763.1 46.3 768.9 45.7 Z"/>
<path fill="#ffffff" stroke="#ffffff" stroke-width="0.09375" opacity="1.00" d=" M 621.1 47.4 C 625.8 47.6 630.4 47.4 635.1 47.7 C 639.2 60.9 642.3 74.4 646.2 87.7 C 648.8 96.8 650.9 106.1 653.7 115.2 C 660.6 92.8 667.5 70.5 674.2 48.1 C 678.2 47.9 682.3 47.0 686.4 47.8 C 687.4 48.8 687.8 50.4 688.2 51.7 C 692.0 65.6 696.1 79.4 699.6 93.4 C 701.8 100.4 703.3 107.6 705.9 114.4 C 708.9 105.3 710.7 95.8 713.6 86.6 C 716.9 73.6 720.6 60.7 724.1 47.8 C 728.6 47.7 733.0 47.7 737.5 47.9 C 736.2 55.0 733.6 61.8 731.7 68.8 C 729.5 75.6 727.6 82.5 725.4 89.3 C 723.1 97.1 721.1 104.9 718.5 112.6 C 716.3 118.9 715.0 125.4 712.7 131.7 C 708.0 131.8 703.2 131.8 698.5 131.5 C 692.0 110.2 686.3 88.7 679.8 67.4 C 676.9 75.8 674.8 84.5 671.8 92.8 C 667.9 105.8 663.7 118.7 659.7 131.8 C 655.0 132.0 650.3 132.0 645.7 131.4 C 638.5 106.8 630.9 82.2 623.5 57.6 C 622.4 54.3 621.5 50.9 621.1 47.4 Z"/>
<path fill="#ffffff" stroke="#ffffff" stroke-width="0.09375" opacity="1.00" d=" M 321.9 47.8 C 326.5 47.5 331.2 47.5 335.8 47.9 C 336.1 57.9 335.5 67.9 335.8 78.0 C 336.1 87.6 335.5 97.3 335.8 107.0 C 336.0 115.2 335.7 123.5 335.8 131.8 C 331.2 132.0 326.5 132.0 321.9 131.8 C 321.8 128.5 321.7 125.2 321.8 122.0 C 321.9 97.3 321.7 72.5 321.9 47.8 Z"/>
</svg>