<?xml version="1.0" encoding="UTF-8" ?>
<!DOCTYPE svg PUBLIC "-//W3C//DTD SVG 1.1//EN" "http://www.w3.org/Graphics/SVG/1.1/DTD/svg11.dtd">
<svg width="1136pt" height="1136pt" viewBox="0 0 1136 1136" version="1.1" xmlns="http://www.w3.org/2000/svg">
<g id="#fefefef5">
<path fill="#fefefe" opacity="0.96" d=" M 533.45 0.00 L 536.55 0.00 C 542.05 0.48 547.58 0.55 553.09 1.03 C 572.25 3.52 591.01 9.50 607.83 19.05 C 621.76 26.49 633.97 36.81 644.82 48.20 C 666.60 72.25 680.34 103.49 683.06 135.84 C 686.47 171.63 675.64 208.36 654.04 237.01 C 645.68 247.56 636.62 257.71 625.69 265.66 C 622.25 268.32 618.35 270.39 615.23 273.45 C 615.02 277.83 616.76 282.01 617.47 286.28 C 619.32 296.42 621.87 306.42 623.65 316.57 C 624.81 323.07 626.59 329.44 627.88 335.91 C 630.42 349.76 633.61 363.49 636.46 377.28 C 637.45 382.41 638.32 387.57 639.58 392.65 C 641.73 401.31 642.96 410.16 645.06 418.83 C 648.26 433.92 651.27 449.05 654.61 464.11 C 656.52 472.95 657.75 481.96 660.29 490.65 C 664.49 491.32 668.76 490.96 673.00 491.00 C 698.67 490.98 724.34 491.03 750.01 490.98 C 754.71 491.02 759.62 491.10 763.94 493.19 C 773.19 497.62 779.81 507.61 779.26 517.99 C 778.96 523.29 777.28 528.80 773.60 532.72 C 769.53 533.91 765.18 533.15 761.00 533.31 C 664.00 533.29 567.00 533.28 470.01 533.31 C 465.88 533.12 461.51 533.99 457.57 532.59 C 449.29 523.38 450.21 507.65 459.08 499.12 C 461.66 496.64 464.57 494.48 467.80 492.94 C 471.91 491.02 476.55 491.06 480.99 490.98 C 505.66 491.03 530.33 490.95 555.00 491.03 C 556.65 491.01 558.31 490.94 559.96 490.76 C 557.65 478.73 555.27 466.69 552.46 454.75 C 549.74 440.05 546.36 425.47 543.36 410.82 C 541.51 400.18 538.78 389.73 536.82 379.11 C 533.53 363.32 530.03 347.58 526.98 331.74 C 523.88 319.89 522.42 307.67 519.19 295.86 C 515.98 295.01 512.65 294.85 509.40 294.32 C 500.32 292.88 491.54 290.08 482.88 287.09 C 476.47 284.88 470.57 281.49 464.50 278.52 C 446.30 269.01 430.57 255.15 417.93 239.04 C 408.85 226.76 400.83 213.48 395.93 198.94 C 391.73 186.94 388.48 174.53 387.54 161.82 C 386.88 151.38 386.60 140.85 387.72 130.43 C 390.66 108.70 397.94 87.41 409.96 69.00 C 414.31 62.42 418.82 55.93 424.07 50.02 C 431.76 41.34 440.66 33.80 449.95 26.89 C 464.14 17.26 479.79 9.60 496.43 5.28 C 508.38 1.42 521.01 0.79 533.45 0.00 M 524.88 10.78 C 508.80 11.39 493.06 15.89 478.42 22.44 C 470.92 25.54 464.13 30.05 457.20 34.21 C 447.24 41.04 438.56 49.53 430.35 58.34 C 420.56 69.21 413.46 82.16 407.42 95.41 C 402.49 107.38 398.83 120.00 397.85 132.95 C 396.63 141.60 396.51 150.47 397.78 159.12 C 398.52 176.20 403.50 192.90 410.66 208.35 C 418.33 223.50 428.21 237.70 440.81 249.18 C 446.56 253.77 451.71 259.20 458.17 262.86 C 465.94 268.05 474.24 272.34 482.71 276.28 C 493.44 280.37 504.52 283.68 515.96 285.04 C 519.56 285.57 523.65 285.88 526.31 288.69 C 528.58 290.88 529.33 294.08 529.96 297.06 C 530.98 302.32 531.92 307.59 533.19 312.79 C 545.27 371.01 557.51 429.19 569.64 487.39 C 570.29 490.18 570.27 493.23 568.77 495.76 C 567.20 499.48 562.83 501.12 559.04 501.04 C 532.35 500.95 505.66 501.05 478.97 500.98 C 474.95 500.98 471.05 502.54 467.79 504.79 C 462.74 509.00 460.01 516.80 463.28 522.85 C 467.17 523.21 471.09 522.95 475.00 523.00 C 569.00 523.00 663.00 522.99 757.00 523.00 C 760.84 522.94 764.75 523.35 768.55 522.57 C 769.63 517.83 769.23 512.54 766.62 508.35 C 764.12 504.61 759.87 502.46 755.62 501.37 C 752.45 500.71 749.20 501.02 745.99 500.99 C 717.99 501.03 689.98 500.96 661.97 501.03 C 657.79 501.25 653.47 499.35 651.41 495.59 C 650.08 492.58 649.56 489.29 648.91 486.09 C 634.42 416.88 619.97 347.67 605.53 278.45 C 605.01 275.80 604.57 273.00 605.27 270.34 C 606.46 267.42 608.96 265.31 611.41 263.43 C 618.83 258.33 626.12 252.90 632.24 246.24 C 643.30 235.94 651.85 223.26 658.99 210.01 C 665.09 196.99 670.25 183.32 671.95 168.96 C 673.76 160.07 672.71 150.99 673.03 142.01 C 673.26 136.42 672.22 130.91 671.54 125.40 C 668.90 109.91 663.86 94.73 655.83 81.18 C 651.43 73.19 646.40 65.51 640.38 58.64 C 633.36 49.65 624.38 42.49 615.30 35.70 C 607.66 29.91 598.86 25.96 590.34 21.67 C 576.17 15.14 560.70 11.45 545.11 10.77 C 538.42 9.63 531.57 9.63 524.88 10.78 Z" />
<path fill="#fefefe" opacity="0.96" d=" M 569.38 51.37 C 579.48 49.17 589.19 54.13 597.21 59.78 C 602.63 62.84 606.86 67.44 611.58 71.41 C 617.36 77.75 622.52 84.67 626.91 92.05 C 630.06 99.18 633.47 106.29 635.03 113.98 C 636.40 120.58 638.10 127.21 638.04 133.99 C 637.95 139.09 638.36 144.24 637.34 149.28 C 635.37 160.41 633.10 171.72 627.81 181.82 C 623.82 187.99 617.54 193.08 610.11 194.19 C 604.86 195.81 599.51 193.87 594.43 192.56 C 586.52 189.59 579.81 183.56 575.99 176.03 C 573.04 169.61 572.24 162.31 573.35 155.37 C 574.10 150.78 577.18 146.79 577.02 142.03 C 576.94 138.17 577.43 134.21 576.59 130.41 C 574.64 125.89 572.42 121.43 569.61 117.38 C 564.99 111.04 557.27 108.41 551.26 103.74 C 545.52 98.47 542.49 90.66 541.94 83.00 C 542.28 77.82 543.99 72.76 546.03 68.02 C 550.94 59.47 559.55 52.94 569.38 51.37 M 568.43 61.73 C 562.72 63.61 557.79 67.76 555.03 73.12 C 551.50 79.49 551.30 88.17 556.04 94.00 C 557.90 96.58 560.76 98.09 563.50 99.57 C 568.96 102.46 573.58 106.71 577.59 111.36 C 585.94 121.05 589.51 134.81 586.45 147.28 C 585.32 151.86 582.83 156.13 582.81 160.96 C 582.03 174.10 595.02 186.08 608.06 184.29 C 612.72 183.94 616.50 180.55 618.83 176.72 C 622.14 171.17 623.82 164.87 625.45 158.68 C 626.98 152.90 627.44 146.90 627.74 140.95 C 628.99 119.30 621.09 97.40 606.80 81.17 C 600.20 74.25 592.70 68.13 584.15 63.78 C 579.52 60.85 573.66 60.42 568.43 61.73 Z" />
<path fill="#fefefe" opacity="0.96" d=" M 401.96 546.97 C 409.13 544.95 416.64 545.43 424.00 545.41 C 552.00 545.41 680.00 545.41 808.00 545.41 C 814.59 545.44 821.27 545.03 827.74 546.54 C 831.64 547.35 835.16 549.34 838.44 551.53 C 850.06 559.00 855.51 574.81 850.88 587.82 C 847.25 588.12 843.62 587.85 840.00 587.88 C 690.67 587.87 541.33 587.88 392.00 587.87 C 388.07 587.83 384.12 588.21 380.21 587.75 C 376.41 576.55 379.97 563.53 388.24 555.24 C 392.15 551.57 396.67 548.28 401.96 546.97 M 395.33 562.33 C 391.71 566.62 388.64 572.08 389.00 577.87 C 392.66 578.16 396.33 577.97 400.00 578.00 C 543.67 578.00 687.33 578.00 831.00 578.00 C 834.64 577.97 838.29 578.16 841.93 577.88 C 842.08 575.72 842.27 573.49 841.65 571.39 C 839.31 565.57 835.07 560.38 829.32 557.68 C 824.60 555.17 819.11 556.15 814.00 556.00 C 678.99 555.99 543.99 556.03 408.98 555.98 C 403.68 555.74 399.24 559.19 395.33 562.33 Z" />
<path fill="#fefefe" opacity="0.96" d=" M 353.53 602.45 C 361.40 599.79 369.83 600.34 378.01 600.28 C 538.69 600.30 699.37 600.28 860.05 600.29 C 865.21 600.35 870.45 600.35 875.47 601.70 C 885.70 604.71 894.69 611.75 899.99 621.02 C 903.95 627.60 905.57 635.40 905.36 643.03 C 905.26 647.38 903.81 651.53 903.05 655.78 C 907.35 656.19 911.68 655.98 916.00 656.00 C 949.67 655.98 983.34 656.02 1017.01 655.98 C 1020.76 656.02 1024.56 656.10 1028.23 657.00 C 1037.90 659.57 1046.45 666.17 1051.03 675.13 C 1054.30 680.83 1055.14 687.51 1055.11 694.00 C 1055.11 759.33 1055.09 824.66 1055.11 890.00 C 1055.11 895.49 1054.56 901.15 1052.12 906.16 C 1047.61 915.60 1039.20 923.55 1028.87 926.05 C 1021.76 928.13 1014.29 927.55 1007.00 927.59 C 742.68 927.59 478.37 927.59 214.06 927.60 C 208.72 927.54 203.33 926.77 198.33 924.80 C 186.85 920.17 177.96 909.25 176.52 896.85 C 175.59 886.89 176.87 876.85 175.90 866.89 C 169.44 868.12 163.83 871.83 158.39 875.35 C 145.39 884.07 135.91 898.30 133.94 913.94 C 132.73 924.57 133.56 935.75 138.44 945.43 C 143.23 956.79 152.11 965.96 162.18 972.85 C 170.44 978.18 179.76 981.77 189.35 983.84 C 205.65 987.62 222.13 991.25 238.92 991.66 C 257.13 992.57 275.33 990.93 293.52 990.39 C 313.65 989.15 333.85 989.39 353.97 990.59 C 364.47 991.69 374.96 993.13 385.27 995.48 C 395.75 997.42 406.09 1000.11 416.16 1003.64 C 439.61 1011.22 462.04 1021.92 482.67 1035.39 C 491.61 1041.27 499.99 1047.96 508.39 1054.57 C 522.44 1066.48 535.33 1079.76 546.99 1094.02 C 552.67 1100.76 553.82 1110.59 550.75 1118.73 C 547.83 1127.24 540.36 1134.08 531.53 1136.00 L 524.43 1136.00 C 519.59 1134.64 515.18 1131.91 511.96 1128.04 C 501.96 1116.43 491.56 1105.09 479.86 1095.16 C 462.52 1080.62 443.35 1068.01 422.31 1059.55 C 412.93 1055.52 403.29 1052.08 393.45 1049.35 C 372.64 1043.24 350.94 1040.98 329.38 1039.61 C 303.59 1038.41 277.83 1040.96 252.04 1040.64 C 239.30 1040.25 226.52 1040.29 213.82 1039.04 C 205.08 1037.90 196.29 1036.84 187.75 1034.56 C 172.38 1031.47 157.50 1025.86 143.86 1018.12 C 127.92 1008.31 113.37 995.88 102.33 980.68 C 96.09 972.42 90.79 963.40 87.42 953.59 C 82.30 940.73 80.73 926.68 81.36 912.93 C 82.15 897.75 87.81 883.29 95.27 870.20 C 107.21 851.39 124.71 836.18 144.89 826.76 C 154.59 821.88 165.12 818.99 175.62 816.42 C 176.13 814.67 176.22 812.85 176.27 811.06 C 176.15 773.71 176.27 736.36 176.20 699.01 C 176.22 693.51 175.93 687.91 177.31 682.54 C 180.15 670.43 190.25 660.72 202.02 657.22 C 209.19 655.39 216.67 656.15 224.00 656.00 C 231.27 655.85 238.57 656.29 245.84 655.84 C 246.03 651.38 245.40 646.81 246.73 642.47 C 249.10 634.22 256.28 627.13 264.98 626.10 C 269.85 625.54 275.00 625.66 279.56 627.63 C 285.37 630.53 290.05 635.81 291.87 642.09 C 293.24 646.55 292.57 651.27 292.97 655.86 C 298.64 656.26 304.32 655.90 310.00 655.99 C 315.98 655.90 321.97 656.22 327.94 655.90 C 327.22 650.93 325.67 646.07 325.77 641.00 C 325.59 623.96 337.53 607.92 353.53 602.45 M 367.41 610.43 C 363.73 611.21 359.71 610.47 356.29 612.28 C 350.23 615.11 344.15 618.77 340.77 624.77 C 335.63 632.25 334.59 642.05 337.42 650.60 C 338.82 654.40 338.83 658.95 336.25 662.26 C 333.86 664.69 330.46 666.19 327.03 666.04 C 316.01 665.99 304.99 665.99 293.96 666.04 C 290.75 666.20 287.64 664.84 285.24 662.77 C 283.38 660.95 282.78 658.24 282.49 655.75 C 282.51 652.95 283.39 650.14 282.70 647.37 C 281.93 643.50 280.03 639.49 276.41 637.59 C 273.07 635.54 268.94 635.69 265.20 636.15 C 261.34 637.60 258.07 640.75 256.63 644.64 C 254.49 649.85 258.18 655.95 254.87 660.87 C 253.02 664.38 248.89 666.18 245.04 666.04 C 234.68 665.98 224.33 666.02 213.97 665.97 C 207.53 665.96 200.69 667.37 195.75 671.75 C 192.94 674.31 190.05 677.03 188.66 680.66 C 187.13 684.58 185.95 688.72 185.97 692.97 C 186.04 734.31 185.98 775.66 186.01 817.01 C 186.24 821.51 182.30 825.17 178.17 826.15 C 166.47 828.84 154.86 832.48 144.34 838.37 C 136.64 842.71 129.01 847.42 122.71 853.70 C 119.40 856.38 116.05 859.07 113.62 862.64 C 105.28 872.03 98.81 883.10 95.08 895.11 C 93.24 900.21 92.23 905.59 92.01 911.00 C 91.98 914.93 90.44 918.80 91.27 922.74 C 92.17 927.15 91.84 931.70 92.85 936.10 C 94.48 943.80 96.87 951.40 100.65 958.34 C 104.96 967.48 110.68 976.00 117.71 983.29 C 119.80 985.53 121.42 988.20 123.78 990.21 C 131.16 996.19 138.05 1002.89 146.30 1007.72 C 151.12 1010.71 156.24 1013.17 161.33 1015.64 C 178.25 1023.26 196.66 1026.93 215.02 1028.86 C 217.87 1029.04 220.75 1028.95 223.58 1029.43 C 229.33 1030.47 235.19 1029.87 241.00 1029.98 C 246.67 1029.65 252.32 1030.84 257.98 1030.07 C 267.66 1029.84 277.35 1030.09 287.03 1030.01 C 290.70 1029.93 294.29 1028.88 297.97 1028.95 C 306.65 1029.00 315.33 1029.04 324.01 1028.95 C 326.78 1028.87 329.53 1029.23 332.26 1029.69 C 359.69 1031.14 387.15 1035.69 413.12 1044.89 C 434.13 1052.82 454.71 1062.62 472.43 1076.57 C 479.38 1081.90 486.76 1086.80 492.74 1093.26 C 495.33 1096.01 498.52 1098.15 500.90 1101.11 C 504.95 1106.04 510.13 1109.91 514.00 1115.00 C 516.32 1117.97 519.00 1120.65 521.74 1123.26 C 523.22 1124.62 524.95 1126.04 527.09 1126.05 C 532.29 1126.36 536.66 1122.53 539.60 1118.62 C 542.38 1115.11 542.42 1110.41 541.84 1106.19 C 540.68 1102.18 538.08 1098.74 535.24 1095.76 C 531.71 1092.26 528.96 1088.06 525.27 1084.74 C 518.07 1077.93 511.61 1070.32 503.82 1064.17 C 490.94 1052.67 476.41 1043.19 461.57 1034.43 C 441.26 1023.43 419.85 1014.25 397.42 1008.55 C 384.84 1004.69 371.71 1003.26 358.75 1001.28 C 356.50 1000.98 354.23 1001.03 351.97 1000.98 C 348.29 1000.96 344.71 999.88 341.02 999.96 C 329.68 1000.04 318.34 999.99 307.00 1000.00 C 302.80 1000.01 298.57 999.71 294.41 1000.44 C 286.76 1001.85 278.94 1000.28 271.25 1001.32 C 264.24 1002.62 257.08 1001.78 250.00 1002.00 C 244.81 1001.87 239.57 1002.43 234.42 1001.57 C 229.60 1000.71 224.65 1001.24 219.85 1000.23 C 207.20 998.60 194.82 995.47 182.41 992.59 C 173.71 990.44 165.51 986.68 157.79 982.20 C 152.80 978.97 148.34 975.00 143.84 971.16 C 136.78 963.17 130.03 954.46 126.90 944.12 C 124.40 935.68 122.34 926.87 123.05 918.02 C 124.64 906.07 127.97 894.02 135.18 884.18 C 138.50 879.89 141.51 875.19 145.97 871.97 C 151.02 868.27 155.85 864.15 161.64 861.63 C 166.53 859.48 171.42 856.34 176.99 856.92 C 180.92 856.80 184.34 859.83 185.71 863.35 C 186.94 875.36 184.50 887.70 187.47 899.55 C 190.21 907.67 196.98 914.51 205.37 916.64 C 209.53 917.38 213.79 916.89 218.00 917.00 C 486.01 917.01 754.02 916.97 1022.03 917.02 C 1026.32 917.09 1030.31 915.11 1033.85 912.85 C 1040.62 908.70 1044.51 900.79 1045.01 893.03 C 1044.98 825.68 1045.00 758.33 1045.00 690.98 C 1044.84 682.02 1039.35 673.74 1031.73 669.28 C 1027.26 666.80 1022.07 665.98 1017.02 665.97 C 979.34 666.06 941.65 665.94 903.96 666.04 C 899.88 666.17 895.30 664.18 893.91 660.08 C 891.47 655.48 894.28 650.57 894.87 645.90 C 895.15 642.07 895.30 638.16 894.63 634.37 C 891.63 624.07 883.88 614.77 873.42 611.60 C 866.67 610.51 859.85 609.66 853.00 610.00 C 695.33 610.01 537.67 609.99 380.00 610.01 C 375.80 610.00 371.57 609.74 367.41 610.43 Z" />
</g>
</svg>
