<?xml version="1.0" encoding="UTF-8" ?>
<!DOCTYPE svg PUBLIC "-//W3C//DTD SVG 1.1//EN" "http://www.w3.org/Graphics/SVG/1.1/DTD/svg11.dtd">
<svg width="50pt" height="50pt" viewBox="0 0 50 50" version="1.1" xmlns="http://www.w3.org/2000/svg">
<g id="#ffffffff">
<path fill="#ffffff" opacity="1.00" d=" M 4.57 7.55 C 9.09 1.62 18.62 0.06 24.44 5.04 C 25.64 6.40 26.90 4.52 28.03 4.10 C 33.59 0.23 41.67 2.11 45.99 6.97 C 49.44 11.27 47.83 17.26 45.68 21.77 C 40.93 31.51 33.35 39.49 25.71 47.03 C 18.02 39.65 10.52 31.73 5.60 22.17 C 3.45 17.75 1.58 12.05 4.57 7.55 M 8.77 11.90 C 9.41 23.18 18.60 31.59 25.64 39.62 C 32.61 31.60 41.74 23.15 42.23 11.90 C 39.57 4.39 29.32 6.39 25.36 11.84 C 21.63 6.45 11.25 4.60 8.77 11.90 Z" />
</g>
</svg>
