<?xml version="1.0" encoding="UTF-8" ?>
<!DOCTYPE svg PUBLIC "-//W3C//DTD SVG 1.1//EN" "http://www.w3.org/Graphics/SVG/1.1/DTD/svg11.dtd">
<svg width="50pt" height="50pt" viewBox="0 0 50 50" version="1.1" xmlns="http://www.w3.org/2000/svg">
<g id="#ffffffff">
<path fill="#ffffff" opacity="1.00" d=" M 14.24 3.01 C 21.74 2.99 29.23 3.01 36.73 3.00 C 40.30 10.62 44.71 17.96 47.79 25.75 C 44.28 33.24 40.38 40.55 36.76 47.99 C 29.25 48.01 21.74 48.01 14.24 47.99 C 10.62 40.56 6.73 33.26 3.23 25.78 C 6.23 17.99 10.71 10.65 14.24 3.01 M 18.19 10.87 C 15.88 15.69 13.26 20.36 11.10 25.25 C 12.82 30.42 15.95 35.13 18.19 40.13 C 23.06 40.14 27.94 40.14 32.81 40.13 C 35.12 35.31 37.74 30.64 39.90 25.75 C 38.17 20.58 35.05 15.87 32.81 10.87 C 27.94 10.86 23.06 10.86 18.19 10.87 Z" />
</g>
</svg>
