<?xml version="1.0" encoding="UTF-8" ?>
<!DOCTYPE svg PUBLIC "-//W3C//DTD SVG 1.1//EN" "http://www.w3.org/Graphics/SVG/1.1/DTD/svg11.dtd">
<svg width="21pt" height="20pt" viewBox="0 0 21 20" version="1.1" xmlns="http://www.w3.org/2000/svg">
<path fill="#ffffff" stroke="#ffffff" stroke-width="0.09375" opacity="1.00" d=" M 7.9 7.5 C 8.8 5.0 9.7 2.5 10.5 0.0 C 11.3 2.5 12.2 5.0 13.1 7.4 C 15.8 7.5 18.4 7.6 21.0 7.6 L 21.0 7.6 C 18.9 9.3 16.8 10.8 14.8 12.5 C 15.5 15.0 16.2 17.5 17.0 20.0 L 17.0 20.0 C 14.8 18.5 12.7 17.0 10.5 15.5 C 8.3 17.0 6.2 18.5 4.1 20.0 L 4.0 20.0 C 4.8 17.5 5.5 15.0 6.2 12.5 C 4.2 10.8 2.1 9.3 0.0 7.6 L 0.0 7.6 C 2.6 7.6 5.2 7.5 7.9 7.5 Z" />
</svg>
