<?xml version="1.0" encoding="UTF-8" ?>
<!DOCTYPE svg PUBLIC "-//W3C//DTD SVG 1.1//EN" "http://www.w3.org/Graphics/SVG/1.1/DTD/svg11.dtd">
<svg width="21pt" height="20pt" viewBox="0 0 21 20" version="1.1" xmlns="http://www.w3.org/2000/svg">
<path fill="#ffffff" stroke="#ffffff" stroke-width="0.09375" opacity="1.00" d=" M 10.4 0.0 L 10.6 0.0 C 11.3 2.5 12.2 5.0 13.2 7.4 C 15.8 7.5 18.4 7.6 21.0 7.6 L 21.0 7.6 C 18.9 9.2 16.8 10.8 14.8 12.4 C 15.5 15.0 16.2 17.5 17.1 20.0 L 16.9 20.0 C 14.8 18.5 12.6 17.0 10.4 15.6 C 8.3 17.0 6.3 18.5 4.2 20.0 L 3.9 20.0 C 4.8 17.5 5.5 15.0 6.2 12.4 C 4.2 10.8 2.1 9.2 0.0 7.7 L 0.0 7.6 C 2.6 7.6 5.2 7.5 7.8 7.4 C 8.8 5.0 9.7 2.5 10.4 0.0 M 10.4 2.3 C 9.8 4.3 9.2 6.4 8.5 8.4 C 6.7 8.4 4.9 8.5 3.1 8.5 C 4.5 9.7 5.8 10.9 7.2 12.0 C 6.7 13.8 6.3 15.6 5.8 17.4 C 7.4 16.4 9.0 15.5 10.6 14.5 C 12.1 15.5 13.7 16.5 15.2 17.5 C 14.7 15.7 14.3 13.8 13.8 12.0 C 15.2 10.9 16.5 9.7 17.9 8.6 C 16.2 8.6 14.5 8.4 12.8 8.3 C 11.8 6.4 11.0 4.3 10.4 2.3 Z" />
</svg>
