<svg xmlns="http://www.w3.org/2000/svg" version="1.1" viewBox="1.05 0.81 599.67 73.23">
<path fill="#ffffff" stroke="#ffffff" stroke-width="0.09375" opacity="1.00" d=" M 1.2 1.2 C 3.0 1.3 4.8 1.3 6.7 1.4 C 15.1 9.5 23.4 17.8 32.1 25.6 C 32.6 17.5 32.3 9.4 32.3 1.3 C 34.4 1.3 36.6 1.3 38.7 1.3 C 38.6 12.8 38.7 24.2 38.7 35.7 C 36.9 35.6 35.1 35.6 33.4 35.5 C 25.0 27.3 16.9 18.8 8.0 11.2 C 7.5 19.3 7.8 27.3 7.8 35.4 C 5.6 35.4 3.3 35.4 1.1 35.4 C 1.2 24.0 1.1 12.6 1.2 1.2 Z"/>
<path fill="#ffffff" stroke="#ffffff" stroke-width="0.09375" opacity="1.00" d=" M 48.3 1.3 C 50.5 1.3 52.7 1.3 54.8 1.3 C 54.9 12.7 54.8 24.1 54.9 35.4 C 52.7 35.4 50.5 35.3 48.3 35.3 C 48.5 24.0 48.4 12.6 48.3 1.3 Z"/>
<path fill="#ffffff" stroke="#ffffff" stroke-width="0.09375" opacity="1.00" d=" M 65.0 1.2 C 66.8 1.3 68.6 1.4 70.5 1.5 C 78.7 9.9 87.2 18.1 95.8 26.1 C 96.3 17.8 96.0 9.6 96.2 1.3 C 98.1 1.3 100.1 1.3 102.0 1.3 C 102.2 12.8 102.5 24.4 101.9 35.9 C 96.4 36.5 93.3 31.5 89.7 28.3 C 83.5 22.5 77.8 16.3 71.3 10.8 C 71.1 19.1 71.6 27.4 71.0 35.6 C 69.0 35.6 67.0 35.6 65.0 35.6 C 64.6 24.2 64.7 12.7 65.0 1.2 Z"/>
<path fill="#ffffff" stroke="#ffffff" stroke-width="0.09375" opacity="1.00" d=" M 109.2 1.3 C 121.5 1.4 133.9 1.4 146.2 1.3 C 146.3 3.3 146.3 5.3 146.3 7.3 C 141.3 7.4 136.2 7.4 131.2 7.3 C 131.1 16.7 131.2 26.1 131.1 35.4 C 128.8 35.4 126.6 35.4 124.3 35.3 C 124.4 26.1 124.4 16.8 124.3 7.6 C 119.3 7.4 114.2 7.4 109.2 7.6 C 109.2 5.5 109.2 3.4 109.2 1.3 Z"/>
<path fill="#ffffff" stroke="#ffffff" stroke-width="0.09375" opacity="1.00" d=" M 153.3 1.8 C 164.4 1.4 175.6 2.2 186.7 1.4 C 186.7 3.3 186.8 5.3 186.8 7.2 C 177.8 7.5 168.9 7.4 159.9 7.3 C 159.9 9.9 159.8 12.5 159.8 15.1 C 166.8 15.2 173.8 15.2 180.8 15.2 C 180.8 17.1 180.8 19.0 180.8 21.0 C 173.8 21.3 166.8 21.1 159.8 21.1 C 159.8 24.0 159.8 26.9 159.8 29.8 C 168.8 29.9 177.8 29.7 186.8 30.0 C 186.7 31.9 186.7 33.8 186.7 35.7 C 175.6 35.6 164.4 35.7 153.3 35.7 C 153.3 24.4 153.4 13.1 153.3 1.8 Z"/>
<path fill="#ffffff" stroke="#ffffff" stroke-width="0.09375" opacity="1.00" d=" M 196.2 1.2 C 198.0 1.3 199.8 1.4 201.7 1.4 C 209.9 9.7 218.2 18.0 227.1 25.7 C 227.5 17.6 227.2 9.4 227.3 1.3 C 229.3 1.3 231.2 1.3 233.2 1.3 C 233.5 12.7 233.4 24.1 233.3 35.5 C 231.2 35.3 228.5 35.9 227.0 34.0 C 218.8 26.3 211.0 18.1 202.5 10.8 C 202.4 19.0 202.6 27.2 202.4 35.4 C 200.3 35.4 198.2 35.4 196.2 35.4 C 196.3 24.0 196.1 12.6 196.2 1.2 Z"/>
<path fill="#ffffff" stroke="#ffffff" stroke-width="0.09375" opacity="1.00" d=" M 243.3 1.3 C 252.1 1.5 260.9 1.1 269.6 1.4 C 286.4 2.6 287.4 31.7 271.6 35.3 C 262.2 36.0 252.7 35.3 243.3 35.6 C 243.3 24.2 243.4 12.7 243.3 1.3 M 249.3 7.3 C 249.3 14.8 249.3 22.2 249.3 29.7 C 255.5 29.5 261.8 29.7 268.0 29.6 C 280.2 30.0 280.2 6.9 268.0 7.3 C 261.8 7.3 255.5 7.5 249.3 7.3 Z"/>
<path fill="#ffffff" stroke="#ffffff" stroke-width="0.09375" opacity="1.00" d=" M 295.4 1.5 C 304.2 1.0 313.1 1.5 322.0 1.3 C 326.0 1.0 330.8 3.6 330.8 8.0 C 330.9 15.0 330.9 22.0 330.8 29.0 C 330.7 32.9 326.8 35.9 323.0 35.6 C 314.3 35.6 305.7 35.6 297.0 35.6 C 293.2 35.9 289.3 32.8 289.3 28.9 C 289.1 22.0 289.1 15.0 289.3 8.1 C 289.2 4.7 292.1 2.0 295.4 1.5 M 295.2 9.1 C 295.0 16.0 295.2 22.9 295.2 29.8 C 305.1 29.9 314.9 29.9 324.8 29.8 C 325.3 22.4 325.2 15.0 324.9 7.7 C 316.3 7.0 307.6 7.5 299.0 7.3 C 297.6 7.5 295.0 7.0 295.2 9.1 Z"/>
<path fill="#ffffff" stroke="#ffffff" stroke-width="0.09375" opacity="1.00" d=" M 340.5 3.4 C 360.3 0.6 381.0 -0.6 400.7 3.6 C 408.5 5.5 419.4 9.3 419.2 19.0 C 418.1 28.6 407.4 32.1 399.3 34.0 C 406.7 35.1 414.4 37.7 419.1 43.9 C 423.7 49.5 422.7 58.5 417.0 63.0 C 407.3 71.4 393.8 72.9 381.5 74.0 L 368.6 74.0 C 358.6 73.5 348.6 72.8 338.8 70.8 C 338.3 66.9 338.4 62.9 338.8 59.0 C 355.4 62.5 373.4 67.1 389.9 60.8 C 395.9 59.1 400.5 50.9 394.6 46.4 C 382.3 38.7 366.8 41.3 353.0 40.2 C 352.7 37.0 352.7 33.7 353.2 30.4 C 365.7 30.0 379.2 31.6 390.7 25.6 C 395.3 23.4 395.2 16.5 390.5 14.5 C 374.7 6.6 356.8 11.9 340.3 13.9 C 340.1 10.4 340.1 6.9 340.5 3.4 Z"/>
<path fill="#ffffff" stroke="#ffffff" stroke-width="0.09375" opacity="1.00" d=" M 429.7 1.3 C 452.9 2.1 476.6 -0.9 499.3 4.8 C 514.0 8.9 527.5 21.8 526.8 38.0 C 527.2 55.0 512.1 68.3 496.3 71.2 C 474.4 75.8 451.8 73.0 429.6 73.6 C 429.6 49.5 429.4 25.4 429.7 1.3 M 453.2 11.2 C 453.2 28.7 453.1 46.2 453.2 63.7 C 466.3 63.6 480.7 65.1 492.1 57.1 C 505.3 48.2 505.0 26.0 491.6 17.3 C 480.3 9.7 466.1 11.4 453.2 11.2 Z"/>
<path fill="#ffffff" stroke="#ffffff" stroke-width="0.09375" opacity="1.00" d=" M 532.5 11.5 C 538.8 4.7 548.4 2.8 557.1 1.7 C 569.0 0.7 581.1 0.9 592.9 3.3 C 593.2 7.1 593.2 10.8 593.1 14.6 C 581.5 12.3 569.6 9.1 557.8 11.9 C 554.9 12.9 551.1 14.5 550.8 18.0 C 550.8 22.1 554.8 24.4 558.1 25.9 C 570.3 31.3 584.0 33.9 594.8 42.1 C 601.3 46.9 602.8 57.2 597.3 63.2 C 591.3 69.5 582.4 71.8 574.1 72.7 C 559.2 74.8 544.1 73.5 529.2 71.7 C 529.1 67.6 529.1 63.5 529.1 59.3 C 538.9 63.1 549.6 63.9 560.0 64.1 C 565.6 64.2 572.0 63.4 575.9 58.9 C 578.1 55.5 576.6 50.9 573.0 49.0 C 560.5 41.7 545.0 39.9 533.8 30.2 C 528.4 25.6 527.5 16.6 532.5 11.5 Z"/>
<path fill="#ffffff" stroke="#ffffff" stroke-width="0.09375" opacity="1.00" d=" M 295.4 39.6 C 304.8 39.4 314.3 39.5 323.8 39.5 C 327.8 39.4 331.2 43.1 330.8 47.0 C 330.8 53.6 331.0 60.3 330.7 66.9 C 330.6 70.8 326.7 73.5 323.0 73.3 C 314.3 73.3 305.6 73.3 297.0 73.3 C 293.3 73.5 289.3 70.8 289.3 66.9 C 289.1 60.3 289.2 53.6 289.2 47.0 C 288.9 43.4 291.7 39.9 295.4 39.6 M 295.3 45.5 C 295.1 52.9 295.1 60.3 295.3 67.7 C 305.1 67.8 314.9 67.9 324.8 67.7 C 324.9 60.3 325.0 52.9 324.7 45.5 C 314.9 45.4 305.1 45.4 295.3 45.5 Z"/>
</svg>