<svg xmlns="http://www.w3.org/2000/svg" version="1.1" viewBox="8.04 8.26 781.87 282.77">
<path fill="#ffffff" stroke="#ffffff" stroke-width="0.09375" opacity="1.00" d=" M 143.0 9.0 C 146.7 7.5 151.0 8.6 154.2 10.8 C 157.9 13.4 160.5 17.1 163.2 20.7 C 168.3 21.1 173.6 21.4 178.3 23.7 C 185.2 27.0 190.7 32.8 194.4 39.5 C 201.5 52.5 204.1 67.7 202.6 82.4 C 199.4 84.2 195.7 86.3 195.3 90.3 C 194.0 99.4 196.2 108.6 194.4 117.6 C 193.5 123.2 191.2 129.2 186.0 131.9 C 179.2 135.2 171.8 136.8 165.0 140.0 C 162.6 141.0 161.8 143.8 160.7 145.9 C 159.0 149.6 156.6 153.0 153.2 155.2 C 150.0 157.5 146.1 157.9 142.3 158.4 C 145.1 162.1 146.6 166.6 148.2 170.8 C 148.8 172.9 150.9 173.6 152.7 174.4 C 158.0 176.6 163.6 178.2 169.1 180.1 C 171.9 170.1 173.9 159.9 176.9 149.9 C 183.2 149.9 189.5 149.8 195.8 150.0 C 190.6 171.0 185.2 192.0 180.1 213.1 C 193.8 213.5 207.4 213.0 221.1 213.3 C 220.1 218.9 218.7 224.5 217.0 230.0 C 197.0 229.9 176.9 230.1 156.9 229.9 C 160.0 215.5 164.2 201.4 167.2 187.1 C 164.1 190.0 160.9 193.5 156.4 194.3 C 150.5 195.3 144.6 194.3 138.8 193.0 C 136.1 192.5 133.3 191.8 130.6 192.5 C 125.4 194.0 120.5 196.3 115.6 198.7 C 119.9 199.3 124.3 199.4 128.5 200.5 C 132.9 201.7 137.1 204.7 138.7 209.1 C 140.0 212.6 140.3 216.4 139.9 220.0 C 139.5 223.5 137.8 226.6 137.4 230.0 C 137.6 233.4 139.2 236.5 139.2 240.0 C 138.6 243.4 136.1 246.0 134.1 248.8 C 135.2 252.5 136.8 256.5 135.3 260.3 C 133.4 264.8 129.8 268.1 126.9 271.9 C 123.4 276.1 120.3 280.7 117.0 285.1 C 115.1 287.4 112.9 290.0 109.8 290.4 C 104.9 291.1 99.9 290.6 95.0 290.5 C 87.0 290.3 79.0 291.4 71.0 290.8 C 61.1 290.1 51.5 287.3 41.9 285.1 C 38.0 284.0 33.6 283.2 30.7 280.2 C 29.1 278.6 29.9 276.4 30.6 274.6 C 31.8 271.3 33.1 268.0 34.1 264.6 C 30.3 263.1 26.0 262.0 23.1 259.0 C 21.2 256.9 19.8 254.3 19.6 251.6 C 19.8 248.1 21.5 244.9 21.8 241.4 C 18.1 237.5 13.0 235.4 9.6 231.3 C 8.8 230.2 7.7 228.8 8.4 227.3 C 10.4 222.7 14.8 219.2 15.4 214.0 C 15.5 210.5 12.8 207.8 10.9 205.1 C 9.6 203.1 7.6 200.9 8.2 198.2 C 9.3 193.6 13.5 190.7 15.4 186.5 C 16.3 184.0 16.5 181.4 16.9 178.8 C 14.2 178.6 11.6 178.3 8.9 178.1 C 10.0 172.9 10.9 167.7 11.2 162.4 C 12.5 161.5 13.8 160.7 15.1 159.8 C 13.7 155.0 12.1 150.2 10.6 145.5 C 9.6 141.9 8.6 138.1 9.5 134.5 C 10.6 131.5 13.4 129.7 15.8 127.8 C 22.6 123.0 29.2 117.9 35.8 112.8 C 40.3 109.2 45.7 106.8 50.2 103.2 C 55.0 99.4 60.0 95.7 64.3 91.3 C 69.3 86.3 74.8 81.9 80.1 77.2 C 94.0 65.0 107.8 52.9 121.7 40.7 C 124.8 37.9 128.8 35.4 130.2 31.2 C 131.8 26.8 132.7 22.0 134.8 17.7 C 136.5 14.1 139.1 10.5 143.0 9.0 M 144.1 9.4 C 148.3 12.9 150.8 17.9 154.2 22.0 C 156.5 21.9 158.8 21.4 161.0 21.0 C 158.7 17.5 156.3 13.7 152.6 11.4 C 150.1 9.8 147.0 9.8 144.1 9.4 M 156.0 24.0 C 148.3 25.8 140.8 29.4 135.7 35.6 C 130.5 41.9 128.3 50.0 127.8 58.0 C 127.3 66.7 129.0 75.4 131.2 83.8 C 132.0 86.5 132.6 89.4 134.1 91.8 C 136.1 93.5 138.7 94.1 140.9 95.3 C 144.9 97.1 147.2 101.1 149.0 105.0 C 152.5 112.4 154.3 120.9 160.0 127.0 C 165.7 133.1 175.2 133.3 182.7 130.7 C 187.0 129.3 190.0 125.4 191.2 121.2 C 194.8 110.7 191.1 99.6 193.0 88.9 C 193.7 84.8 197.2 82.2 200.2 79.9 C 201.2 67.6 199.3 55.1 194.2 43.9 C 190.7 36.5 185.3 29.8 178.0 26.0 C 171.3 22.5 163.3 22.3 156.0 24.0 M 69.8 88.8 C 68.2 90.2 66.4 91.6 65.2 93.4 C 64.6 95.2 64.8 97.2 64.8 99.1 C 70.5 95.8 75.6 91.7 81.0 88.0 C 94.7 78.4 108.3 68.6 122.0 59.0 C 123.8 57.8 125.6 56.2 126.0 54.0 C 127.2 48.8 128.4 43.6 130.6 38.7 C 110.1 55.1 90.2 72.3 69.8 88.8 M 107.2 81.2 C 104.7 83.9 104.9 88.4 102.1 91.0 C 98.3 92.2 94.0 91.5 90.3 93.4 C 86.3 95.5 82.5 98.7 77.7 98.4 C 81.0 95.6 84.3 92.9 87.3 89.8 C 79.8 91.6 74.4 97.4 67.9 101.2 C 67.8 103.3 67.9 105.4 67.4 107.4 C 66.2 109.5 64.1 110.7 62.1 112.1 C 55.9 116.0 49.5 119.6 43.5 123.9 C 45.1 130.8 46.5 137.7 48.7 144.5 C 62.2 138.9 75.4 132.5 88.9 126.9 C 90.7 126.1 92.6 125.4 94.1 124.1 C 95.7 121.8 96.5 119.1 97.9 116.7 C 99.4 113.8 102.0 111.6 104.7 109.7 C 110.2 105.6 116.3 102.6 122.4 99.6 C 124.6 98.4 127.0 97.3 128.7 95.5 C 129.8 93.4 129.3 90.8 128.4 88.7 C 126.5 86.2 123.3 85.2 121.4 82.7 C 119.9 80.5 119.1 77.9 118.0 75.4 C 114.4 77.2 110.5 78.7 107.2 81.2 M 46.7 107.7 C 44.9 109.2 42.5 110.7 42.3 113.3 C 42.2 115.9 43.2 118.5 44.0 121.0 C 51.4 116.7 58.9 112.6 65.4 106.9 C 61.8 107.9 58.1 109.0 54.9 110.9 C 51.5 113.0 48.7 116.0 45.9 118.8 C 45.3 118.5 44.0 118.0 43.4 117.8 C 44.8 115.5 46.0 112.9 48.3 111.4 C 50.4 110.1 52.7 109.0 54.8 107.8 C 58.1 105.8 60.9 103.2 63.8 100.7 C 63.5 99.4 63.1 98.1 62.8 96.8 C 57.1 100.1 52.0 104.0 46.7 107.7 M 119.2 108.2 C 115.3 109.5 111.7 111.3 108.1 113.1 C 108.2 114.5 108.2 115.8 108.2 117.1 C 111.6 116.0 115.1 114.9 118.5 113.5 C 127.2 109.8 136.1 106.4 145.0 102.8 C 144.6 101.8 144.2 100.9 143.8 99.9 C 135.4 102.1 127.3 105.3 119.2 108.2 M 121.5 119.1 C 121.9 122.5 122.7 125.9 124.0 129.1 C 133.8 127.0 143.0 122.8 152.1 118.8 C 150.9 115.2 149.5 111.6 148.0 108.0 C 139.1 111.5 130.2 115.2 121.5 119.1 M 19.0 127.9 C 15.5 130.4 10.5 133.0 11.0 138.0 C 11.6 146.1 15.8 153.3 18.0 160.9 C 16.2 161.8 14.4 162.6 12.6 163.5 C 12.3 167.9 11.8 172.3 11.1 176.7 C 14.9 177.0 18.9 176.8 22.4 178.6 C 25.7 180.7 28.3 183.7 31.3 186.2 C 30.1 183.7 29.0 181.0 26.8 179.2 C 23.0 176.1 18.1 175.3 13.5 174.4 C 13.6 171.1 13.0 167.6 14.5 164.6 C 16.6 162.7 19.2 161.7 21.8 160.5 C 27.8 158.0 33.8 155.2 40.0 153.0 C 43.0 152.0 45.8 150.3 48.2 148.2 C 38.1 151.2 28.8 156.4 19.0 160.1 C 16.7 154.2 14.3 148.2 12.8 142.0 C 12.4 139.8 11.9 137.3 13.2 135.3 C 14.6 133.3 16.7 131.9 18.6 130.6 C 24.5 126.8 30.2 122.8 36.0 119.0 C 38.2 117.6 39.5 115.4 40.6 113.2 C 32.9 117.3 26.3 123.2 19.0 127.9 M 58.2 143.7 C 62.4 148.2 65.2 154.0 66.1 160.1 C 66.5 164.5 65.4 168.8 64.8 173.2 C 72.1 171.6 79.3 168.4 86.9 169.3 C 90.8 169.7 94.1 172.0 97.2 174.2 C 97.7 170.4 98.7 166.4 101.7 163.7 C 107.6 157.3 116.6 155.8 124.3 152.4 C 117.3 152.5 110.6 155.1 104.8 158.9 C 100.6 161.6 98.1 166.1 95.9 170.5 C 92.8 168.8 89.7 167.1 86.6 165.5 C 88.4 163.1 90.2 160.5 92.8 158.8 C 99.4 154.2 107.5 152.4 115.4 151.1 C 116.0 149.1 116.8 147.1 117.0 145.0 C 116.8 141.7 115.5 138.6 114.7 135.4 C 113.6 130.7 112.6 126.0 111.2 121.4 C 93.5 128.7 75.8 136.1 58.2 143.7 M 144.6 130.0 C 146.6 130.3 148.6 130.7 150.6 130.5 C 152.9 130.1 155.1 128.9 157.3 128.0 C 156.5 126.7 155.7 125.4 154.9 124.0 C 151.1 125.3 147.5 127.2 144.6 130.0 M 116.0 127.6 C 115.8 134.8 118.0 142.0 122.1 147.9 C 126.0 153.3 132.7 155.6 139.0 156.2 C 143.5 156.7 148.4 156.0 152.0 153.0 C 155.6 150.3 157.6 146.1 159.1 142.0 C 155.7 145.3 152.7 149.5 148.0 151.0 C 143.5 152.4 138.7 152.9 134.1 152.1 C 128.9 151.2 124.3 147.5 122.4 142.6 C 121.1 139.0 120.7 135.1 119.5 131.4 C 119.0 129.6 117.3 128.7 116.0 127.6 M 158.7 130.8 C 155.4 131.8 152.6 133.9 149.8 135.9 C 154.4 135.2 158.9 134.1 163.2 132.4 C 161.8 131.7 160.4 130.2 158.7 130.8 M 150.0 140.1 C 144.2 141.6 138.2 145.0 132.0 143.0 C 128.1 141.9 126.1 138.1 123.8 135.1 C 123.8 136.8 123.1 139.0 124.7 140.3 C 127.3 143.0 130.7 144.8 134.3 145.8 C 137.4 146.6 140.7 145.5 143.7 144.6 C 150.2 142.3 156.7 140.2 163.4 138.3 C 167.1 137.3 170.7 135.9 174.2 134.3 C 165.8 134.3 158.0 138.1 150.0 140.1 M 17.8 137.8 C 18.9 139.2 20.1 140.6 21.2 142.0 C 20.9 146.7 21.2 151.4 21.5 156.0 C 23.6 155.3 25.8 154.5 27.9 153.8 C 26.7 147.2 25.2 140.7 23.2 134.3 C 21.4 135.5 19.6 136.7 17.8 137.8 M 47.3 153.2 C 46.7 158.5 48.3 163.8 50.2 168.7 C 50.9 170.3 51.5 172.1 52.9 173.2 C 55.1 174.1 57.5 174.2 59.9 174.6 C 57.5 165.2 54.9 155.9 51.8 146.8 C 50.1 148.7 47.6 150.4 47.3 153.2 M 22.2 169.8 C 25.4 171.5 28.7 173.1 31.9 174.8 C 32.3 172.7 32.7 170.6 33.2 168.4 C 36.6 169.6 39.9 171.2 43.6 171.6 C 45.5 170.2 47.5 168.1 47.2 165.5 C 46.9 162.4 45.8 159.4 45.0 156.4 C 36.3 158.3 27.3 162.0 22.2 169.8 M 126.9 162.2 C 130.1 163.5 133.7 164.3 136.5 166.4 C 139.2 169.8 139.4 174.5 142.1 177.9 C 144.1 180.1 147.0 181.1 149.6 182.4 C 152.7 183.7 155.6 185.5 158.4 187.3 C 156.6 189.0 154.9 190.7 153.4 192.6 C 155.9 191.8 158.5 191.2 160.7 189.7 C 163.2 187.8 164.3 184.6 165.7 181.8 C 160.5 179.3 154.7 177.9 149.4 175.6 C 146.3 174.4 145.9 170.8 144.8 168.2 C 143.4 164.3 140.5 160.7 136.7 159.0 C 133.2 158.6 130.0 160.8 126.9 162.2 M 122.2 165.5 C 120.8 166.1 119.7 167.3 118.5 168.2 C 121.8 168.7 125.0 169.0 128.2 169.9 C 131.3 170.7 133.9 173.2 134.6 176.4 C 135.3 179.4 135.4 182.5 135.7 185.6 C 136.6 182.6 137.9 179.4 136.8 176.3 C 135.4 169.7 128.7 165.3 122.2 165.5 M 118.7 174.4 C 121.6 178.7 122.8 183.6 122.5 188.7 C 120.7 187.9 118.6 187.4 117.0 186.0 C 115.7 184.5 114.8 182.7 113.8 181.0 C 113.9 185.9 114.1 190.8 115.1 195.6 C 118.1 193.0 121.2 190.6 124.6 188.7 C 127.5 187.0 131.3 186.0 132.8 182.6 C 134.2 179.6 133.5 175.1 130.1 173.8 C 126.4 172.2 122.4 173.5 118.7 174.4 M 81.7 173.8 C 85.6 177.1 90.0 179.8 93.1 183.9 C 95.9 187.6 97.7 192.0 99.6 196.2 C 99.5 189.4 99.5 182.5 101.0 175.8 C 94.5 175.5 88.2 173.0 81.7 173.8 M 57.1 179.0 C 49.4 182.0 41.6 184.7 34.2 188.2 C 29.1 190.6 24.0 192.8 18.5 193.9 C 20.4 191.4 22.8 189.3 25.6 187.8 C 23.6 187.5 21.6 187.1 19.6 186.8 C 21.8 185.7 23.9 184.6 26.1 183.6 C 24.3 183.5 22.5 183.4 20.6 183.3 C 21.7 182.6 22.8 181.9 23.8 181.3 C 22.6 180.5 21.3 179.8 20.1 179.1 C 18.9 183.3 17.8 187.7 15.4 191.4 C 13.9 194.1 11.6 196.7 11.7 200.0 C 12.7 205.0 17.2 208.4 18.6 213.2 C 19.0 215.3 17.9 217.2 16.9 218.9 C 14.8 222.2 12.7 225.5 10.8 228.9 C 14.6 233.4 20.0 236.0 23.8 240.3 C 24.0 244.2 22.5 248.0 22.7 251.9 C 23.1 254.9 24.9 257.9 27.6 259.3 C 30.5 260.9 33.7 261.7 36.9 262.7 C 36.3 266.3 35.4 269.7 34.0 273.0 C 33.5 274.7 32.3 276.7 33.3 278.5 C 34.8 280.3 37.2 281.0 39.3 281.7 C 50.4 284.9 61.6 288.0 73.2 288.6 C 79.4 289.0 85.6 288.1 91.9 288.3 C 97.4 288.3 103.0 289.2 108.6 288.3 C 112.6 287.8 115.1 284.3 117.3 281.3 C 120.8 276.5 124.4 271.8 128.3 267.2 C 130.5 264.4 133.1 261.4 133.6 257.6 C 133.7 255.2 132.6 252.9 131.9 250.6 C 128.9 251.8 125.6 252.9 123.4 255.4 C 119.1 259.8 115.9 265.2 112.4 270.2 C 113.7 271.7 115.2 273.1 116.2 274.8 C 116.7 276.9 116.5 279.1 116.4 281.2 C 115.6 280.1 114.7 279.1 113.9 278.0 C 113.4 279.9 113.0 281.8 112.5 283.7 C 106.3 285.3 99.0 287.4 93.4 283.0 C 96.2 282.5 98.9 282.2 101.7 282.1 C 104.6 279.9 106.8 277.2 108.7 274.2 C 104.2 275.2 99.7 276.6 95.0 276.1 C 86.6 275.4 78.9 271.7 71.2 268.8 C 67.2 267.3 63.3 264.9 59.0 264.5 C 56.8 264.8 55.1 266.3 53.2 267.4 C 53.0 266.9 52.7 265.9 52.6 265.4 C 49.6 266.3 46.6 267.1 43.6 267.7 C 46.6 265.0 50.0 262.4 54.1 261.8 C 59.3 260.6 64.2 263.0 68.8 265.1 C 75.0 268.1 81.7 270.0 88.4 271.7 C 92.1 272.7 96.0 273.4 99.9 273.1 C 103.3 272.8 105.9 270.4 107.9 267.9 C 111.4 263.4 112.3 257.7 114.9 252.8 C 116.1 250.2 118.5 248.6 120.7 246.8 C 118.8 250.2 117.2 253.8 116.0 257.5 C 120.5 254.5 124.3 250.6 129.1 248.1 C 132.0 246.5 135.4 244.9 136.8 241.6 C 138.2 238.2 136.3 234.8 135.2 231.6 C 128.6 235.0 122.1 238.7 116.4 243.4 C 112.4 246.6 108.8 250.3 105.3 254.1 C 105.8 257.5 106.1 260.9 106.2 264.3 C 104.7 261.7 103.4 258.8 101.5 256.4 C 97.7 256.3 93.9 257.4 90.1 257.1 C 87.1 256.8 84.2 255.7 81.4 254.6 C 75.2 251.9 69.1 248.9 63.1 245.9 C 59.8 244.3 56.4 242.7 52.7 242.4 C 49.1 242.2 45.4 242.6 41.7 242.6 C 43.4 241.3 45.0 239.5 47.2 238.9 C 50.4 238.5 53.6 239.4 56.7 240.2 C 64.0 242.3 71.4 244.5 78.4 247.6 C 82.9 249.5 87.4 251.3 92.3 251.7 C 95.3 251.9 98.6 251.9 101.1 250.1 C 105.2 247.3 108.3 243.2 112.5 240.6 C 118.8 236.7 125.7 233.8 132.0 230.0 C 134.3 228.7 136.4 226.8 137.2 224.2 C 138.8 219.2 138.7 213.4 136.4 208.6 C 135.0 205.4 131.5 204.2 128.6 202.7 C 128.2 204.3 127.7 205.9 127.3 207.5 C 124.6 207.7 121.9 207.8 119.2 207.9 C 120.3 210.6 121.4 213.2 122.5 215.8 C 120.3 216.9 118.1 218.0 115.8 219.1 C 115.7 222.8 115.7 226.4 115.8 230.1 C 113.3 231.1 110.8 232.3 108.4 233.4 C 105.2 228.5 101.9 222.6 95.8 221.0 C 91.0 221.2 86.5 225.0 81.5 223.6 C 75.2 222.1 69.0 220.1 62.7 218.3 C 57.9 217.0 52.8 216.9 47.8 217.0 C 48.9 216.0 49.9 215.1 51.0 214.1 C 46.2 214.3 41.2 214.1 36.6 215.6 C 32.1 217.1 29.3 221.3 25.0 223.1 C 21.7 224.5 18.1 225.1 14.6 225.8 C 17.0 220.5 21.1 216.2 24.3 211.3 C 20.2 209.1 15.9 206.8 14.1 202.3 C 17.6 203.6 21.3 204.6 25.1 205.0 C 23.2 202.2 21.1 199.6 18.9 197.0 C 26.0 193.2 33.7 190.3 41.8 189.1 C 42.1 190.6 42.4 192.2 42.8 193.8 C 45.2 193.4 47.6 193.1 50.0 192.8 C 48.4 191.1 46.8 189.4 45.3 187.7 C 47.5 185.9 49.9 184.2 52.9 183.8 C 58.7 182.8 64.2 180.6 69.2 177.5 C 71.6 180.9 73.8 184.4 76.3 187.7 C 79.0 191.4 82.7 194.1 86.0 197.2 C 82.6 196.3 79.0 195.2 76.5 192.5 C 74.0 189.8 71.4 187.1 68.7 184.5 C 69.3 187.2 69.7 190.2 71.7 192.3 C 74.4 195.4 77.9 198.3 82.2 198.8 C 86.5 199.2 90.8 198.2 95.1 197.4 C 94.1 194.1 93.1 190.8 91.1 188.0 C 87.3 182.8 81.7 179.2 75.7 177.3 C 69.5 175.3 62.9 176.9 57.1 179.0 M 116.8 178.5 C 117.0 181.5 118.0 184.4 120.1 186.7 C 120.3 184.9 120.7 183.2 120.7 181.4 C 120.3 179.6 118.1 179.3 116.8 178.5 M 75.0 204.2 C 68.8 205.3 62.4 205.6 56.1 204.9 C 52.0 204.4 47.8 204.0 43.6 204.0 C 46.9 206.4 50.5 208.5 54.3 210.3 C 50.0 209.7 45.9 208.7 41.9 207.4 C 45.9 209.6 50.0 212.5 54.8 212.2 C 60.0 211.4 64.9 209.2 70.1 208.1 C 76.8 206.3 84.6 205.9 89.7 200.5 C 84.8 201.6 80.0 203.3 75.0 204.2 M 86.0 207.0 C 88.3 210.8 92.6 212.7 96.3 214.8 C 97.8 210.8 99.1 206.6 98.0 202.3 C 97.7 202.1 97.2 201.6 96.9 201.4 C 92.9 202.0 88.0 203.1 86.0 207.0 Z"/>
<path fill="#ffffff" stroke="#ffffff" stroke-width="0.09375" opacity="1.00" d=" M 161.4 31.5 C 172.0 30.0 182.8 35.7 188.1 44.8 C 191.9 51.9 191.2 60.2 191.3 68.0 C 191.4 80.9 190.8 93.7 190.5 106.6 C 190.4 111.2 190.3 116.0 188.1 120.1 C 186.2 123.7 183.3 127.2 179.2 128.2 C 173.9 129.5 168.0 128.6 163.5 125.4 C 160.3 123.1 158.8 119.2 157.3 115.7 C 151.3 100.5 145.4 85.3 140.2 69.9 C 137.5 62.2 136.8 53.2 140.9 45.8 C 145.1 38.3 152.9 32.7 161.4 31.5 M 161.4 33.4 C 152.6 35.8 144.9 42.8 142.7 51.7 C 141.3 57.1 142.2 62.7 143.9 67.9 C 149.1 83.4 155.2 98.6 161.2 113.8 C 162.6 117.2 164.3 120.6 167.4 122.6 C 172.1 125.5 178.5 126.2 183.5 123.5 C 187.7 120.9 188.8 115.6 189.0 111.1 C 189.7 93.7 189.8 76.3 189.7 59.0 C 189.7 53.1 188.4 47.0 184.7 42.3 C 179.4 35.5 170.1 31.1 161.4 33.4 Z"/>
<path fill="#ffffff" stroke="#ffffff" stroke-width="0.09375" opacity="1.00" d=" M 162.4 43.4 C 169.9 41.7 178.1 45.6 181.6 52.3 C 186.3 60.8 182.7 72.7 174.0 76.9 C 167.4 80.1 158.4 79.5 153.3 73.7 C 147.7 68.4 146.5 59.5 149.9 52.8 C 152.4 48.0 157.1 44.5 162.4 43.4 M 161.4 45.4 C 155.0 47.2 150.1 53.4 150.1 60.0 C 149.7 67.0 154.5 73.9 161.3 75.9 C 167.2 77.8 174.1 75.8 178.0 71.0 C 182.9 65.7 183.2 56.9 178.8 51.2 C 175.0 45.8 167.7 43.3 161.4 45.4 Z"/>
<path fill="#ffffff" stroke="#ffffff" stroke-width="0.09375" opacity="1.00" d=" M 162.4 48.4 C 167.3 47.0 173.1 48.7 176.2 52.8 C 179.9 57.6 179.5 65.0 175.4 69.4 C 170.8 74.5 162.0 74.7 157.1 69.9 C 153.3 66.3 152.2 60.2 154.3 55.4 C 155.8 52.0 158.9 49.4 162.4 48.4 Z"/>
<path fill="#ffffff" stroke="#ffffff" stroke-width="0.09375" opacity="1.00" d=" M 173.4 96.4 C 178.4 95.9 183.5 98.7 185.9 103.0 C 188.5 108.0 187.6 114.6 183.5 118.5 C 178.8 123.1 170.3 123.0 165.7 118.3 C 162.1 114.9 160.8 109.3 162.7 104.6 C 164.2 100.1 168.6 96.8 173.4 96.4 Z"/>
<path fill="#ffffff" stroke="#ffffff" stroke-width="0.09375" opacity="1.00" d=" M 741.3 151.3 C 752.3 148.4 764.4 148.5 774.9 153.1 C 781.0 155.9 786.5 160.7 788.8 167.2 C 790.4 171.6 790.0 176.4 788.9 180.9 C 784.8 197.2 780.6 213.4 776.7 229.8 C 770.4 230.2 764.0 230.2 757.7 229.9 C 760.1 218.2 763.4 206.8 766.2 195.2 C 767.3 190.4 769.0 185.7 769.5 180.8 C 769.9 177.4 768.6 174.1 766.3 171.7 C 763.1 168.3 758.4 166.6 753.8 166.3 C 745.0 165.7 735.7 169.1 730.0 176.0 C 727.8 178.5 726.8 181.8 726.0 185.0 C 722.4 200.0 718.6 214.9 714.9 229.9 C 708.5 230.1 702.2 230.2 695.9 229.9 C 699.0 215.9 702.8 202.1 706.1 188.2 C 707.8 181.6 709.0 174.7 713.2 169.2 C 720.0 160.0 730.5 154.2 741.3 151.3 Z"/>
<path fill="#ffffff" stroke="#ffffff" stroke-width="0.09375" opacity="1.00" d=" M 246.9 149.9 C 253.2 149.9 259.5 149.8 265.8 150.0 C 259.2 176.6 252.5 203.2 245.9 229.9 C 239.5 230.1 233.2 230.2 226.9 229.9 C 232.2 207.1 238.2 184.5 243.7 161.8 C 244.7 157.8 245.8 153.9 246.9 149.9 Z"/>
<path fill="#ffffff" stroke="#ffffff" stroke-width="0.09375" opacity="1.00" d=" M 303.7 151.7 C 310.9 149.4 318.5 149.9 326.0 149.9 C 335.8 150.0 345.5 149.7 355.3 150.1 C 354.3 155.6 352.9 161.1 351.5 166.5 C 341.3 166.9 331.2 166.7 321.0 166.7 C 315.2 166.7 309.1 166.1 303.7 168.7 C 297.4 171.7 291.9 176.2 287.7 181.7 C 284.0 186.5 282.2 193.0 284.0 198.9 C 285.8 204.7 289.8 210.2 295.6 212.4 C 300.2 213.7 305.2 213.2 309.9 212.8 C 313.7 212.2 317.9 211.6 320.8 208.8 C 322.8 206.3 323.1 202.9 324.0 199.8 C 317.0 199.5 310.1 199.6 303.1 199.7 C 304.3 193.2 306.0 186.9 307.6 180.5 C 321.1 180.2 334.5 180.5 347.9 180.4 C 346.4 187.6 344.5 194.7 342.8 201.8 C 341.6 206.5 340.2 211.3 337.3 215.3 C 333.1 221.3 326.6 225.4 319.7 227.6 C 312.5 230.0 305.0 230.2 297.5 230.6 C 291.6 230.8 285.4 230.7 279.9 228.1 C 270.5 223.9 264.1 214.2 263.1 204.0 C 262.5 197.8 264.0 191.7 265.7 185.8 C 267.1 181.0 269.6 176.5 272.7 172.7 C 280.8 163.0 291.6 155.5 303.7 151.7 Z"/>
<path fill="#ffffff" stroke="#ffffff" stroke-width="0.09375" opacity="1.00" d=" M 365.9 149.9 C 372.2 149.9 378.5 149.8 384.8 150.0 C 378.2 176.6 371.5 203.2 364.9 229.9 C 358.5 230.1 352.2 230.2 345.9 229.9 C 351.2 207.1 357.2 184.5 362.7 161.8 C 363.7 157.8 364.8 153.9 365.9 149.9 Z"/>
<path fill="#ffffff" stroke="#ffffff" stroke-width="0.09375" opacity="1.00" d=" M 427.3 150.2 C 433.6 149.8 440.0 149.7 446.3 150.1 C 445.8 152.6 445.3 155.1 444.7 157.6 C 438.7 181.7 432.5 205.7 426.7 229.8 C 420.4 230.2 414.0 230.2 407.7 229.9 C 409.2 221.8 411.8 214.0 413.2 205.9 C 401.5 205.4 389.8 205.8 378.1 205.7 C 379.5 199.3 381.1 193.0 383.0 186.7 C 394.8 186.4 406.6 186.9 418.4 186.5 C 421.3 174.4 424.4 162.3 427.3 150.2 Z"/>
<path fill="#ffffff" stroke="#ffffff" stroke-width="0.09375" opacity="1.00" d=" M 455.9 149.9 C 480.6 149.9 505.2 149.8 529.8 150.0 C 528.5 155.6 527.1 161.1 525.7 166.6 C 516.5 166.9 507.4 166.3 498.3 167.0 C 493.2 188.0 487.7 208.8 482.7 229.8 C 476.2 230.2 469.7 230.2 463.3 230.0 C 468.5 209.0 473.9 188.0 479.0 166.9 C 469.9 166.5 460.9 166.8 451.9 166.7 C 452.8 161.0 454.2 155.4 455.9 149.9 Z"/>
<path fill="#ffffff" stroke="#ffffff" stroke-width="0.09375" opacity="1.00" d=" M 564.7 151.7 C 571.9 149.4 579.5 149.9 587.0 149.9 C 596.8 150.0 606.5 149.7 616.3 150.0 C 615.3 155.6 613.9 161.1 612.5 166.6 C 602.3 166.9 592.2 166.7 582.0 166.7 C 576.2 166.7 570.1 166.1 564.7 168.7 C 558.6 171.5 553.3 175.9 549.1 181.1 C 545.4 185.8 543.3 192.2 544.8 198.1 C 546.3 203.8 549.9 209.1 555.2 211.8 C 559.8 213.9 565.1 213.2 570.0 212.9 C 574.1 212.3 578.7 211.8 581.8 208.8 C 583.8 206.3 584.1 202.9 585.0 199.8 C 578.0 199.5 571.1 199.6 564.1 199.7 C 565.3 193.2 567.0 186.9 568.6 180.5 C 582.0 180.2 595.5 180.5 608.9 180.3 C 607.4 187.6 605.5 194.7 603.8 201.8 C 602.6 206.5 601.2 211.3 598.3 215.3 C 594.1 221.3 587.6 225.4 580.7 227.6 C 573.5 230.0 566.0 230.2 558.5 230.6 C 552.6 230.8 546.4 230.7 540.9 228.1 C 531.5 223.9 525.1 214.2 524.1 204.0 C 523.5 197.8 525.0 191.7 526.7 185.8 C 528.1 181.0 530.6 176.6 533.7 172.7 C 541.8 163.0 552.6 155.5 564.7 151.7 Z"/>
<path fill="#ffffff" stroke="#ffffff" stroke-width="0.09375" opacity="1.00" d=" M 625.9 149.9 C 632.2 149.9 638.5 149.8 644.8 150.0 C 641.8 162.2 638.7 174.4 635.6 186.6 C 634.6 190.9 633.2 195.0 632.6 199.4 C 631.8 204.4 635.2 209.3 639.6 211.4 C 650.0 216.4 663.0 212.9 671.0 205.0 C 674.3 201.8 675.8 197.2 676.8 192.8 C 680.2 178.6 684.0 164.4 687.3 150.2 C 693.6 149.8 700.0 149.7 706.3 150.1 C 705.5 154.2 704.6 158.3 703.5 162.4 C 700.2 174.9 697.3 187.5 694.0 200.0 C 691.5 210.6 683.0 218.6 673.6 223.6 C 660.2 230.5 643.8 233.1 629.4 227.6 C 622.1 225.0 615.4 219.5 613.1 211.8 C 611.3 206.1 613.1 200.2 614.5 194.6 C 618.5 179.7 621.7 164.7 625.9 149.9 Z"/>
<path fill="#ffffff" stroke="#ffffff" stroke-width="0.09375" opacity="1.00" d=" M 29.7 222.7 C 33.8 219.1 39.0 217.3 44.2 216.0 C 41.4 218.6 38.6 221.2 35.8 223.8 C 39.8 222.4 43.5 220.6 47.4 219.3 C 51.4 217.9 55.4 220.0 59.1 221.2 C 59.2 223.0 59.3 224.8 59.4 226.6 C 64.0 224.2 69.4 223.9 74.6 224.6 C 77.4 225.0 79.7 226.8 82.1 228.3 C 86.0 226.4 89.8 224.0 94.1 223.0 C 97.4 222.4 99.3 225.8 101.3 227.7 C 98.7 227.6 96.1 227.2 93.5 227.6 C 92.1 228.2 91.6 229.9 91.3 231.3 C 90.7 234.6 92.0 237.9 92.8 241.1 C 93.7 241.1 95.3 241.2 96.1 241.2 C 96.4 237.9 96.8 234.6 97.5 231.4 C 99.6 235.0 100.4 239.1 101.0 243.2 C 103.1 242.9 105.2 242.7 107.3 242.4 C 104.4 245.3 101.2 248.2 97.0 249.2 C 92.6 250.4 88.1 248.6 83.9 247.1 C 76.6 244.2 69.2 241.5 61.7 239.4 C 54.9 237.6 48.1 236.5 41.2 235.1 C 40.1 236.9 39.1 238.7 38.1 240.6 C 39.9 240.1 41.7 239.6 43.6 239.1 C 40.3 242.1 36.3 244.1 32.1 245.5 C 28.7 241.9 25.0 238.6 21.0 235.7 C 21.0 235.0 20.8 233.7 20.8 233.1 C 22.3 233.6 23.7 234.1 25.2 234.7 C 25.0 230.3 26.8 225.9 29.7 222.7 Z"/>
<path fill="#ffffff" stroke="#ffffff" stroke-width="0.09375" opacity="1.00" d=" M 25.0 250.8 C 24.3 248.0 25.6 245.2 26.3 242.5 C 27.9 244.4 29.3 246.5 31.3 248.0 C 35.7 247.8 39.7 245.7 44.0 245.2 C 49.4 244.5 54.8 245.6 60.0 247.0 C 59.9 248.7 59.7 250.4 59.6 252.2 C 61.9 251.6 64.2 251.0 66.5 250.4 C 67.9 252.0 69.1 253.8 70.8 255.2 C 73.3 255.9 76.0 255.4 78.5 255.8 C 81.4 257.3 83.2 260.6 86.4 261.5 C 90.9 262.3 94.5 259.0 98.4 257.5 C 99.5 256.9 100.7 257.7 101.3 258.6 C 103.3 261.6 103.9 265.8 102.1 269.0 C 101.7 270.1 100.9 270.7 99.7 270.8 C 96.5 271.4 93.1 270.7 89.9 270.1 C 82.1 268.4 74.4 266.3 67.1 263.0 C 62.8 261.1 58.2 259.6 53.5 260.7 C 48.5 261.9 43.9 264.5 39.3 266.7 C 39.6 263.9 40.1 261.1 39.9 258.3 C 36.8 255.7 32.3 256.4 28.7 255.2 C 26.4 255.0 25.4 252.7 25.0 250.8 Z"/>
<path fill="#ffffff" stroke="#ffffff" stroke-width="0.09375" opacity="1.00" d=" M 36.8 268.1 C 41.0 269.7 45.6 269.5 49.9 268.2 C 50.4 269.5 50.9 270.8 51.4 272.1 C 53.8 270.5 56.0 268.5 58.9 267.9 C 61.0 268.7 63.0 269.9 65.1 270.7 C 67.8 271.7 70.7 272.0 73.3 272.9 C 75.5 273.8 77.4 275.3 79.5 276.3 C 82.0 277.7 84.8 278.4 87.5 279.6 C 89.9 280.7 91.8 282.5 93.8 284.2 C 85.7 285.9 77.3 285.6 69.0 285.0 C 60.5 284.4 52.6 280.6 44.3 278.8 C 41.8 278.1 39.0 277.8 36.9 276.0 C 35.1 273.7 36.6 270.7 36.8 268.1 Z"/>
</svg>