<?xml version="1.0" encoding="UTF-8" standalone="no"?>
<!-- Created with Inkscape (http://www.inkscape.org/) -->

<svg
   width="300mm"
   height="62mm"
   viewBox="0 0 300 62"
   version="1.1"
   id="svg5"
   xml:space="preserve"
   inkscape:version="1.2.2 (732a01da63, 2022-12-09)"
   sodipodi:docname="emu.svg"
   xmlns:inkscape="http://www.inkscape.org/namespaces/inkscape"
   xmlns:sodipodi="http://sodipodi.sourceforge.net/DTD/sodipodi-0.dtd"
   xmlns="http://www.w3.org/2000/svg"
   xmlns:svg="http://www.w3.org/2000/svg"><sodipodi:namedview
     id="namedview7"
     pagecolor="#ffffff"
     bordercolor="#111111"
     borderopacity="1"
     inkscape:showpageshadow="0"
     inkscape:pageopacity="0"
     inkscape:pagecheckerboard="1"
     inkscape:deskcolor="#d1d1d1"
     inkscape:document-units="mm"
     showgrid="false"
     inkscape:zoom="0.76167929"
     inkscape:cx="673.51181"
     inkscape:cy="286.2097"
     inkscape:window-width="1920"
     inkscape:window-height="1009"
     inkscape:window-x="-8"
     inkscape:window-y="-8"
     inkscape:window-maximized="1"
     inkscape:current-layer="text242" /><defs
     id="defs2"><rect
       x="31.509323"
       y="38.073769"
       width="1075.2557"
       height="396.49234"
       id="rect236" /></defs><g
     inkscape:label="Layer 1"
     inkscape:groupmode="layer"
     id="layer1"><text
       xml:space="preserve"
       transform="scale(0.26458333)"
       id="text234"
       style="font-size:13.3333px;font-family:'Upheaval TT (BRK)';-inkscape-font-specification:'Upheaval TT (BRK), Normal';white-space:pre;shape-inside:url(#rect236);display:inline;fill:#ffffff;stroke:#ffffff;stroke-width:4;stroke-linecap:round;stroke-linejoin:round;paint-order:fill markers stroke" /><g
       aria-label="Emulators"
       transform="matrix(12.072118,0,0,25.032315,-2201.5467,-1928.1929)"
       id="text242"
       style="font-size:3.52777px;font-family:Stencil;-inkscape-font-specification:Stencil;white-space:pre;inline-size:21.1342;display:inline;fill:#ffffff;stroke-width:1.05833;stroke-linecap:round;stroke-linejoin:round;paint-order:fill markers stroke"><path
         d="m 188.31418,77.087549 v 2.351273 h -0.76653 -0.0448 q -0.062,0 -0.0965,-0.02239 -0.0327,-0.02412 -0.0327,-0.06718 0,-0.07062 0.0689,-0.09302 0.0568,-0.01895 0.0655,-0.02239 0.0103,-0.0052 0.0207,-0.02067 0.0207,-0.02756 0.0207,-0.08785 v -1.724267 q 0,-0.06029 -0.0207,-0.08785 -0.0103,-0.0155 -0.0207,-0.01895 -0.009,-0.0052 -0.0655,-0.02412 -0.0689,-0.02239 -0.0689,-0.09302 0,-0.04306 0.0327,-0.06546 0.0345,-0.02412 0.0965,-0.02412 h 0.0448 z m 0.15331,0 h 0.69418 v 0.609781 q 0,0.0534 -0.0207,0.07751 -0.0207,0.02412 -0.0655,0.02412 -0.0379,0 -0.0551,-0.0155 -0.0172,-0.0155 -0.0327,-0.06373 -0.0654,-0.199815 -0.19292,-0.304891 -0.12575,-0.105075 -0.32728,-0.125745 z m -0.009,1.254012 v -0.199815 q 0.0999,-0.04823 0.14814,-0.105075 0.0482,-0.05684 0.0706,-0.151584 0.0138,-0.06546 0.0362,-0.08957 0.0224,-0.02584 0.0637,-0.02584 0.0551,0 0.0758,0.04306 0.012,0.02239 0.012,0.10163 v 0.656289 q 0,0.08096 -0.0189,0.111966 -0.0172,0.03101 -0.0655,0.03101 -0.0396,0 -0.062,-0.02412 -0.0224,-0.02412 -0.0362,-0.08096 -0.0293,-0.118855 -0.0844,-0.182589 -0.0534,-0.06373 -0.13953,-0.08441 z m 0.0103,1.097261 v -0.186035 q 0.11196,-0.01723 0.18431,-0.04823 0.0741,-0.03101 0.14814,-0.09474 0.0741,-0.06373 0.11713,-0.130914 0.0448,-0.0689 0.0844,-0.180867 0.019,-0.05512 0.0396,-0.07407 0.0207,-0.02067 0.0568,-0.02067 0.0482,0 0.0672,0.02928 0.0189,0.02756 0.0189,0.09819 v 0.608058 z"
         id="path6172" /><path
         d="m 190.98412,77.087549 h 0.76481 0.0465 q 0.12919,0 0.12919,0.08957 0,0.07063 -0.0689,0.09302 -0.0568,0.01895 -0.0672,0.02412 -0.009,0.0034 -0.0189,0.01895 -0.0207,0.02756 -0.0207,0.08785 v 1.724267 q 0,0.06029 0.0207,0.08785 0.0103,0.0155 0.0189,0.02067 0.0103,0.0034 0.0672,0.02239 0.0689,0.02239 0.0689,0.09302 0,0.08957 -0.12919,0.08957 h -0.0465 -0.76653 -0.0568 q -0.0758,0 -0.11541,-0.02239 -0.0379,-0.02412 -0.0379,-0.07063 0,-0.07579 0.0827,-0.09474 0.0672,-0.01722 0.0792,-0.02067 0.0121,-0.0052 0.0241,-0.02067 0.0258,-0.03101 0.0258,-0.09819 z m -0.63389,0 0.33934,0.966347 0.14986,-0.521931 v 0.571885 l -0.39791,1.334972 h -0.0913 l -0.66835,-1.982649 q -0.0344,-0.09991 -0.0724,-0.134358 -0.0224,-0.02239 -0.0775,-0.03273 -0.11197,-0.02412 -0.11197,-0.106798 0,-0.04479 0.031,-0.0689 0.0327,-0.02584 0.093,-0.02584 z m -0.66835,0.79237 0.18259,0.520209 v 0.518485 q 0,0.07924 0.005,0.113688 0.007,0.03445 0.0276,0.07579 0.0362,0.07579 0.0999,0.113688 l 0.0637,0.04134 q 0.0655,0.03962 0.0655,0.08785 0,0.08785 -0.1292,0.08785 h -0.43235 q -0.12919,0 -0.12919,-0.08613 0,-0.02756 0.0103,-0.04134 0.0121,-0.0155 0.0448,-0.03445 0.1912,-0.103352 0.1912,-0.358289 z"
         id="path6174" /><path
         d="m 192.35354,78.751527 v -1.350475 q 0,-0.06029 -0.0207,-0.08785 -0.0103,-0.0155 -0.0207,-0.01895 -0.009,-0.0052 -0.0654,-0.02412 -0.0689,-0.02239 -0.0689,-0.0913 0,-0.04479 0.0327,-0.06718 0.0345,-0.02412 0.0965,-0.02412 h 0.0448 0.76826 0.0448 l 0.062,0.0069 q 0.0293,0.0086 0.0482,0.03101 0.0189,0.02239 0.0189,0.0534 0,0.0689 -0.0689,0.0913 -0.0568,0.01895 -0.0672,0.02412 -0.009,0.0034 -0.019,0.01895 -0.0207,0.02756 -0.0207,0.08785 v 1.445214 q 0,0.146417 0.007,0.204983 0.009,0.05684 0.0327,0.103353 0.0224,0.04306 0.05,0.06201 0.0276,0.01895 0.10507,0.04306 v 0.225653 h -0.0379 q -0.22394,0 -0.37207,-0.03962 -0.17398,-0.04651 -0.30489,-0.137804 -0.13092,-0.09129 -0.18604,-0.204982 -0.0586,-0.120579 -0.0586,-0.351399 z m 1.11794,0.733803 v -0.225653 q 0.17225,-0.02239 0.28766,-0.141249 0.13091,-0.136081 0.13091,-0.391017 v -1.123099 q 0,-0.235988 -0.18086,-0.329006 -0.0534,-0.02756 -0.0706,-0.04651 -0.0155,-0.02067 -0.0155,-0.05857 0,-0.04479 0.0327,-0.06373 0.0327,-0.01895 0.1068,-0.01895 h 0.42202 q 0.0534,0 0.0706,0.0034 0.0189,0.0017 0.0362,0.01206 0.0448,0.02584 0.0448,0.07062 0,0.0379 -0.0276,0.06373 -0.009,0.0086 -0.0741,0.04651 -0.0758,0.04134 -0.11885,0.127468 -0.0431,0.08441 -0.0431,0.192925 v 1.124821 q 0,0.289388 -0.12746,0.475423 -0.093,0.137803 -0.267,0.220485 -0.0861,0.04134 -0.2067,0.06029 z"
         id="path6176" /><path
         d="m 195.53508,79.438822 h -0.76653 -0.0448 q -0.062,0 -0.0965,-0.02239 -0.0327,-0.02412 -0.0327,-0.06718 0,-0.07062 0.0689,-0.09302 0.0568,-0.01895 0.0654,-0.02239 0.0103,-0.0052 0.0207,-0.02067 0.0207,-0.02756 0.0207,-0.08785 v -1.724267 q 0,-0.06029 -0.0207,-0.08785 -0.0103,-0.0155 -0.0207,-0.01895 -0.009,-0.0052 -0.0654,-0.02412 -0.0689,-0.02239 -0.0689,-0.09302 0,-0.04306 0.0327,-0.06546 0.0345,-0.02412 0.0965,-0.02412 h 0.0448 0.76826 0.0586 q 0.0758,0 0.10852,0.02067 0.0448,0.02756 0.0448,0.07235 0,0.07579 -0.0827,0.09474 -0.0672,0.0155 -0.0792,0.02067 -0.0121,0.0052 -0.0258,0.02067 -0.0258,0.03101 -0.0258,0.09646 z m 0.13953,0 v -0.192925 q 0.0844,-0.0155 0.13264,-0.03445 0.0499,-0.01895 0.0947,-0.05512 0.0723,-0.05684 0.13263,-0.156751 0.0603,-0.09991 0.0982,-0.222208 0.0276,-0.09474 0.0499,-0.124023 0.0241,-0.03101 0.0689,-0.03101 0.0482,0 0.0706,0.03962 0.0103,0.01895 0.0103,0.07579 v 0.701076 z"
         id="path6178" /><path
         d="m 197.16461,77.087549 h 0.69419 l 0.47886,2.023989 q 0.0138,0.0534 0.031,0.09474 0.0155,0.03273 0.0689,0.0534 0.0448,0.01895 0.062,0.0379 0.0172,0.01895 0.0172,0.05168 0,0.08957 -0.13436,0.08957 h -0.85955 q -0.0517,0 -0.0827,-0.02412 -0.031,-0.02584 -0.031,-0.06718 0,-0.03445 0.0138,-0.05168 0.0138,-0.01722 0.062,-0.04306 0.0344,-0.01723 0.0482,-0.0379 0.0138,-0.02067 0.0138,-0.05168 0,-0.02928 -0.005,-0.05168 l -0.0551,-0.249769 h -0.48059 l 0.0465,-0.204982 h 0.38585 l -0.31694,-1.400429 z m -0.11886,0.437526 0.0879,0.356567 -0.30489,1.112763 q -0.0138,0.04823 -0.0138,0.08957 0,0.10852 0.10163,0.155028 l 0.0603,0.02756 q 0.0568,0.02584 0.0568,0.08613 0,0.08613 -0.12575,0.08613 h -0.43752 q -0.0637,0 -0.10164,-0.02584 -0.0362,-0.02756 -0.0362,-0.07407 0,-0.04995 0.0758,-0.08268 0.0706,-0.03101 0.10336,-0.05512 0.0344,-0.02584 0.0654,-0.0689 0.0482,-0.07062 0.0792,-0.187758 z"
         id="path6180" /><path
         d="m 199.9448,77.087549 v 2.023989 q 0,0.06718 0.0258,0.09646 0.0138,0.01722 0.0258,0.02239 0.0121,0.0034 0.0792,0.02067 0.0827,0.01895 0.0827,0.09474 0,0.04479 -0.0448,0.07235 -0.0327,0.02067 -0.11025,0.02067 h -0.0568 -0.76826 -0.0568 q -0.0758,0 -0.11541,-0.02239 -0.0379,-0.02412 -0.0379,-0.07063 0,-0.07579 0.0827,-0.09474 0.0672,-0.01722 0.0792,-0.02067 0.0121,-0.0052 0.0241,-0.02239 0.0258,-0.02928 0.0258,-0.09646 v -2.023989 z m 0.596,0 v 0.704521 q 0,0.04995 -0.0293,0.08096 -0.0276,0.03101 -0.0723,0.03101 -0.0431,0 -0.0724,-0.02756 -0.0276,-0.02928 -0.0362,-0.07924 l -0.0172,-0.105075 q -0.0258,-0.160197 -0.0999,-0.27733 -0.0465,-0.07235 -0.12574,-0.118855 v -0.208428 z m -1.95337,0 h 0.45303 v 0.208428 q -0.081,0.04651 -0.12574,0.118855 -0.0741,0.117133 -0.0999,0.27733 l -0.0172,0.105075 q -0.009,0.04995 -0.0379,0.07924 -0.0276,0.02756 -0.0706,0.02756 -0.0448,0 -0.0741,-0.03101 -0.0276,-0.03101 -0.0276,-0.08096 z"
         id="path6182" /><path
         d="m 201.65873,77.227075 q -0.0879,0.03101 -0.12403,0.08441 -0.0362,0.0534 -0.0362,0.156751 v 1.539955 q 0,0.151583 0.0413,0.213595 0.0327,0.05168 0.11886,0.07407 v 0.18948 q -0.38241,-0.03101 -0.64079,-0.287665 -0.3359,-0.334173 -0.3359,-0.931896 0,-0.299723 0.0879,-0.540879 0.0896,-0.242878 0.26355,-0.411688 0.13264,-0.12919 0.28595,-0.19637 0.1533,-0.06718 0.33934,-0.07579 z m 0.14125,0 V 77.04104 q 0.18603,0.0086 0.33934,0.07579 0.15503,0.06718 0.28766,0.19637 0.3514,0.342787 0.3514,0.952567 0,0.597723 -0.3359,0.931896 -0.25838,0.258382 -0.6425,0.287665 v -0.18948 q 0.0448,-0.01033 0.0689,-0.02584 0.0258,-0.01723 0.0465,-0.04823 0.0465,-0.07062 0.0465,-0.213595 v -1.539955 q 0,-0.0913 -0.031,-0.144693 -0.0207,-0.03617 -0.0499,-0.05684 -0.0276,-0.02067 -0.081,-0.03962 z"
         id="path6184" /><path
         d="m 203.93076,77.087549 v 2.023989 q 0,0.06718 0.0258,0.09646 0.0138,0.01722 0.0258,0.02239 0.0121,0.0034 0.0792,0.02067 0.0827,0.01895 0.0827,0.09474 0,0.04479 -0.0448,0.07235 -0.0327,0.02067 -0.10852,0.02067 h -0.0586 -0.76826 -0.0448 q -0.062,0 -0.0965,-0.02239 -0.0327,-0.02412 -0.0327,-0.06718 0,-0.07062 0.0689,-0.09302 0.0568,-0.01895 0.0654,-0.02239 0.0103,-0.0052 0.0207,-0.02067 0.0207,-0.02756 0.0207,-0.08785 v -1.724267 q 0,-0.06029 -0.0207,-0.08785 -0.0103,-0.0155 -0.0207,-0.01895 -0.009,-0.0052 -0.0654,-0.02412 -0.0689,-0.02239 -0.0689,-0.09302 0,-0.04306 0.0327,-0.06546 0.0345,-0.02412 0.0965,-0.02412 h 0.0448 z m 0.52882,1.198891 q 0.15848,0.02412 0.24288,0.0534 0.0861,0.02928 0.15503,0.07924 0.0724,0.0534 0.11024,0.127468 0.0396,0.07407 0.0396,0.156751 v 0.356567 q 0,0.05512 0.0362,0.05512 0.0138,0 0.0224,-0.0069 0.0103,-0.0086 0.0276,-0.03101 0.0431,-0.05857 0.0879,-0.05857 0.0293,0 0.0586,0.03101 0.0293,0.03101 0.0293,0.06201 0,0.0534 -0.0517,0.130914 -0.0499,0.07579 -0.12574,0.136081 -0.0706,0.05684 -0.15331,0.08096 -0.0827,0.02584 -0.19465,0.02584 -0.22737,0 -0.35484,-0.129191 -0.12747,-0.130913 -0.12747,-0.363456 v -0.289388 q 0,-0.09646 -0.002,-0.111965 -0.009,-0.0689 -0.0482,-0.118856 -0.05,-0.06029 -0.14297,-0.07062 v -0.184307 q 0.093,-0.01378 0.13263,-0.04823 0.0344,-0.03101 0.0465,-0.07062 0.0138,-0.03962 0.0138,-0.117133 v -0.456474 q 0,-0.10852 -0.0431,-0.161919 -0.0413,-0.0534 -0.15159,-0.08441 V 77.08755 h 0.0448 q 0.1912,0 0.32556,0.01378 0.19982,0.01895 0.35657,0.130914 0.22565,0.160196 0.22565,0.456474 0,0.242879 -0.15158,0.397908 -0.0637,0.06546 -0.14986,0.106797 -0.0844,0.04134 -0.25839,0.09302 z"
         id="path6186" /><path
         d="m 206.25103,77.04104 v 0.198093 q -0.1068,0.02928 -0.16364,0.09129 -0.0551,0.06029 -0.0551,0.149861 0,0.08613 0.0465,0.151584 0.0465,0.06373 0.15158,0.122301 0.0724,0.03962 0.32728,0.151583 0.15503,0.06718 0.23944,0.122301 0.0861,0.0534 0.16192,0.134358 0.20326,0.213596 0.20326,0.508151 0,0.222208 -0.11025,0.40652 -0.11024,0.184313 -0.30316,0.289388 -0.10336,0.05512 -0.22738,0.08613 -0.1223,0.03273 -0.2291,0.03273 v -0.19637 q 0.14986,-0.03617 0.21532,-0.09991 0.0672,-0.06546 0.0672,-0.1757 0,-0.11541 -0.10335,-0.20326 -0.0689,-0.05684 -0.26183,-0.141249 -0.21187,-0.09302 -0.29111,-0.132635 -0.0775,-0.03962 -0.14986,-0.09302 -0.32384,-0.230821 -0.32384,-0.614948 0,-0.19637 0.081,-0.361734 0.081,-0.167087 0.22565,-0.268717 0.20154,-0.141249 0.49954,-0.156752 z m 0.13608,0.198093 v -0.18948 q 0.10335,0.0069 0.17915,0.02756 0.0758,0.01895 0.21531,0.07751 0.0345,0.01378 0.0569,0.01378 0.0327,0 0.0482,-0.02239 l 0.0379,-0.04995 q 0.0276,-0.0379 0.0672,-0.0379 0.0465,0 0.0672,0.03445 0.0224,0.03273 0.0224,0.105075 v 0.568439 q 0,0.04995 -0.0293,0.08268 -0.0276,0.03101 -0.0723,0.03101 -0.0344,0 -0.0637,-0.02239 -0.0155,-0.01378 -0.0258,-0.03273 -0.009,-0.02067 -0.0172,-0.06718 -0.019,-0.08441 -0.0655,-0.173977 -0.0465,-0.08957 -0.10852,-0.160197 -0.12402,-0.139526 -0.31178,-0.184312 z m -0.22565,2.049827 v 0.19637 q -0.14125,0 -0.31178,-0.08096 -0.0637,-0.02928 -0.0879,-0.0379 -0.0241,-0.0086 -0.0465,-0.0086 -0.0344,0 -0.0517,0.01206 -0.0172,0.01033 -0.0551,0.05512 -0.031,0.0379 -0.0672,0.0379 -0.0965,0 -0.0965,-0.148139 v -0.627006 q 0,-0.04823 0.0276,-0.08096 0.0276,-0.03445 0.0689,-0.03617 0.0379,-0.0017 0.0586,0.02239 0.0224,0.02239 0.0379,0.08096 0.0396,0.148139 0.11369,0.27733 0.0758,0.12919 0.1757,0.218763 0.10163,0.09302 0.23427,0.118855 z"
         id="path6188" /></g><path
       d="m 40.291224,29.73902 q 0,-3.666272 -2.899362,-6.260328 -2.899362,-2.59406 -6.997127,-2.59406 -4.097765,0 -6.997127,2.59406 -2.899362,2.594056 -2.899362,6.260328 0,3.666268 2.899362,6.260327 2.899362,2.59406 6.997127,2.59406 4.097765,0 6.997127,-2.59406 2.899362,-2.594059 2.899362,-6.260327 z m 19.79298,-3.770032 v 7.678411 q 0,0.415052 -0.309265,0.795514 -0.309267,0.380462 -0.773165,0.449636 l -7.151758,0.968448 q -0.734507,1.86772 -1.50767,3.14746 1.353037,1.72937 4.136423,4.77307 0.386582,0.41504 0.386582,0.86468 0,0.44964 -0.347922,0.79551 -1.043772,1.27974 -3.827158,3.73545 -2.783389,2.4557 -3.633869,2.4557 -0.463899,0 -1.005112,-0.31128 l -5.334826,-3.73545 q -1.700958,0.79552 -3.517893,1.31433 -0.618529,4.70389 -1.121085,6.43326 -0.27061,0.96845 -1.391694,0.96845 h -8.582113 q -0.541214,0 -0.947125,-0.29399 -0.40591,-0.294 -0.444569,-0.74363 l -1.082428,-6.36409 q -1.89425,-0.5534 -3.479235,-1.27974 l -5.450802,3.70086 q -0.38658,0.31128 -0.966452,0.31128 -0.541216,0 -0.966456,-0.38046 -4.8709272,-3.94297 -6.3785947,-5.81069 -0.2706068,-0.34587 -0.2706068,-0.79551 0,-0.41505 0.3092645,-0.79551 0.5798713,-0.72633 1.9715655,-2.30007 1.391694,-1.57372 2.0875425,-2.43841 -1.0437725,-1.72937 -1.5849835,-3.42416 L 1.8263545,34.754198 Q 1.3237959,34.685028 1.0145314,34.321856 0.70526691,33.958687 0.70526691,33.509052 v -7.678415 q 0,-0.415049 0.30926449,-0.795511 0.3092645,-0.380462 0.7345049,-0.449636 L 8.9394565,23.617042 Q 9.4806705,22.026018 10.447125,20.434997 8.9007995,18.463513 6.3106991,15.66193 5.9241192,15.246881 5.9241192,14.831829 q 0,-0.345872 0.3479222,-0.795511 1.0051144,-1.245146 3.8078296,-3.718148 2.802717,-2.4730015 3.653197,-2.4730015 0.502556,0 1.005109,0.3458717 l 5.334829,3.7008578 q 1.700959,-0.795511 3.517893,-1.314324 0.61853,-4.7038906 1.121086,-6.4332614 0.270608,-0.9684477 1.391694,-0.9684477 h 8.582113 q 0.541213,0 0.947125,0.293995 0.405908,0.2939907 0.444569,0.7436294 l 1.082427,6.3640847 q 1.89425,0.5534 3.479233,1.279737 l 5.489459,-3.7008568 q 0.347925,-0.3112857 0.927797,-0.3112857 0.502558,0 0.966454,0.3458717 4.986903,4.1159058 6.378597,5.8798648 0.270607,0.276701 0.270607,0.760924 0,0.415052 -0.309265,0.795514 -0.579873,0.726334 -1.971568,2.300064 -1.391691,1.573728 -2.087539,2.438413 1.005112,1.729375 1.584983,3.38957 l 7.074445,0.968448 q 0.502556,0.06918 0.811823,0.432345 0.309265,0.363169 0.309265,0.812805 z"
       id="path3029"
       inkscape:connector-curvature="0"
       style="fill:#ffffff;fill-opacity:1;stroke:none;stroke-width:0.0365661" /></g></svg>
