<svg xmlns="http://www.w3.org/2000/svg" version="1.1" viewBox="0.81 0.43 1453.79 552.73">
<path fill="#ffffff" stroke="#ffffff" stroke-width="0.09375" opacity="1.00" d=" M 1186.0 10.9 C 1195.8 3.8 1208.0 1.0 1220.0 0.6 C 1231.7 0.3 1243.9 0.1 1254.8 5.2 C 1262.9 8.9 1269.2 16.3 1271.9 24.9 C 1273.5 30.4 1273.4 36.3 1273.1 42.0 C 1272.3 56.7 1266.6 70.3 1262.3 84.1 C 1260.5 89.8 1258.5 95.7 1259.4 101.7 C 1260.1 105.6 1262.7 109.9 1267.0 110.3 C 1273.0 110.9 1278.6 108.3 1283.8 105.9 C 1294.5 100.7 1305.2 95.5 1316.8 92.7 C 1326.1 90.4 1335.4 88.3 1344.9 88.1 C 1357.9 87.8 1371.4 88.1 1383.4 93.5 C 1406.0 103.1 1421.7 126.5 1422.6 151.0 C 1423.2 159.2 1422.3 167.4 1423.2 175.6 C 1428.5 178.5 1434.5 180.0 1439.5 183.5 C 1446.2 187.8 1450.2 195.5 1451.4 203.2 C 1452.7 212.6 1450.2 222.0 1446.8 230.7 C 1441.9 242.9 1434.4 253.9 1425.2 263.2 C 1421.3 267.4 1416.5 271.4 1414.9 277.2 C 1413.9 280.7 1414.7 285.0 1417.9 287.1 C 1425.9 292.5 1436.0 293.6 1444.0 299.1 C 1449.8 303.1 1453.4 309.9 1454.3 317.0 C 1455.1 323.2 1454.0 329.6 1451.5 335.3 C 1447.6 344.1 1442.0 351.9 1436.8 359.8 C 1429.6 370.5 1423.2 381.9 1414.1 391.0 C 1407.1 398.2 1398.1 403.0 1391.0 410.0 C 1388.6 412.0 1387.6 415.1 1387.5 418.1 C 1387.0 424.7 1387.4 431.4 1387.0 438.1 C 1386.3 450.3 1380.5 461.6 1372.8 470.9 C 1360.9 484.9 1344.1 494.7 1326.0 498.1 C 1309.0 501.2 1291.2 500.7 1274.7 495.4 C 1269.1 493.7 1263.4 491.7 1257.6 491.3 C 1252.0 491.0 1247.0 493.8 1242.3 496.2 C 1232.2 501.4 1221.3 505.5 1209.9 506.8 C 1200.7 507.7 1191.4 507.8 1182.2 506.5 C 1173.3 505.2 1164.9 501.1 1156.0 499.9 C 1151.4 499.2 1147.0 501.1 1143.1 503.1 C 1137.2 506.2 1131.4 509.7 1125.1 511.9 C 1117.3 514.7 1108.8 515.5 1100.6 514.2 C 1091.5 512.6 1083.5 507.6 1074.7 505.4 C 1071.0 504.3 1067.1 505.2 1063.6 506.6 C 1055.9 509.7 1048.5 513.9 1040.5 516.4 C 1031.3 519.3 1021.7 520.9 1012.0 521.1 C 1003.0 521.3 993.9 521.1 985.2 518.7 C 978.8 517.1 972.6 514.5 966.0 513.8 C 961.1 513.2 956.6 515.3 952.3 517.3 C 944.9 521.0 937.5 525.1 929.3 527.0 C 919.4 529.4 909.1 529.9 899.0 528.7 C 892.0 527.9 885.2 525.7 878.5 523.5 C 874.1 522.2 869.7 520.7 865.0 521.0 C 861.0 521.2 857.4 523.1 853.8 524.8 C 845.5 528.8 837.0 532.9 827.8 534.0 C 821.3 534.8 814.7 533.7 808.5 531.6 C 802.1 529.7 795.3 526.7 788.4 528.5 C 781.6 530.4 775.1 533.4 768.4 535.5 C 758.7 538.8 748.3 539.4 738.3 537.5 C 731.9 536.5 725.8 534.2 719.5 532.8 C 715.6 531.8 711.5 532.3 707.7 533.8 C 701.0 536.3 694.7 539.7 687.8 541.7 C 675.6 545.2 662.4 545.5 650.4 541.5 C 643.4 539.5 636.7 535.5 629.2 536.2 C 622.0 537.4 615.9 541.6 609.1 544.2 C 591.1 552.0 570.9 554.6 551.4 552.3 C 541.2 550.8 531.9 546.0 523.0 541.1 C 520.7 539.9 518.4 538.5 515.9 538.0 C 513.5 538.1 511.4 539.3 509.3 540.3 C 501.6 544.3 493.6 548.3 485.0 549.8 C 477.6 550.9 470.0 550.7 462.8 549.1 C 451.6 546.5 441.3 540.9 432.4 533.7 C 418.0 522.5 408.4 506.3 402.7 489.2 C 395.8 468.6 391.7 447.1 387.3 425.8 C 385.7 417.4 384.1 408.9 381.3 400.8 C 380.1 397.4 378.3 393.7 374.7 392.3 C 368.0 389.5 360.6 389.0 353.5 388.3 C 345.1 387.6 336.8 386.3 328.4 385.8 C 300.6 384.1 272.8 384.9 245.0 384.6 C 239.1 384.6 233.1 384.4 227.3 385.4 C 223.8 385.9 220.5 387.5 218.1 390.1 C 214.1 394.4 211.5 399.7 208.6 404.7 C 193.6 432.5 177.7 459.8 159.7 485.8 C 151.1 498.3 142.1 510.7 131.0 521.2 C 114.2 537.7 90.8 548.0 67.0 547.9 C 48.6 548.2 29.8 542.3 15.5 530.5 C 8.2 524.6 3.1 516.1 1.4 506.9 C -0.1 497.6 1.6 488.0 5.4 479.4 C 9.6 470.1 15.5 461.8 21.4 453.5 C 57.6 401.8 94.4 350.6 131.6 299.6 C 163.9 255.3 195.8 210.7 228.9 167.0 C 246.4 143.0 264.5 119.4 280.4 94.4 C 292.1 76.8 300.2 57.0 313.2 40.2 C 326.8 22.6 346.4 9.3 368.3 4.5 C 380.0 2.1 392.3 2.0 403.9 5.3 C 414.7 8.3 424.5 14.7 431.8 23.3 C 442.7 36.1 448.9 53.0 448.8 70.0 C 449.1 92.0 450.9 114.1 454.4 135.8 C 455.2 140.2 456.0 144.8 458.6 148.5 C 461.6 152.8 468.0 154.2 472.7 151.7 C 474.8 150.6 476.4 148.7 477.8 146.8 C 486.4 134.4 489.3 118.8 498.7 106.8 C 503.6 100.3 511.0 96.2 518.7 93.9 C 529.1 90.6 540.2 90.6 551.1 91.2 C 560.9 91.6 570.1 96.5 580.0 96.3 C 583.9 96.3 587.6 94.9 591.2 93.3 C 601.5 88.8 612.6 85.6 624.0 85.6 C 631.6 85.6 639.4 86.4 646.3 89.7 C 653.3 93.0 658.8 98.6 665.4 102.6 C 667.6 104.0 670.1 105.3 672.7 104.9 C 678.0 104.1 682.8 101.7 687.6 99.6 C 706.1 90.7 726.3 84.7 747.0 84.9 C 763.0 84.6 779.7 87.0 793.4 95.6 C 802.0 100.9 807.1 109.9 814.1 116.9 C 815.8 118.4 817.6 120.3 820.1 120.4 C 823.7 120.5 827.0 118.9 830.1 117.1 C 836.2 113.6 841.8 109.5 847.9 106.0 C 860.6 98.9 874.2 93.5 888.5 90.6 C 900.1 88.3 912.1 88.5 924.0 88.6 C 940.2 88.8 956.4 91.0 972.2 94.8 C 982.6 97.5 993.0 100.9 1001.7 107.4 C 1009.5 113.2 1014.1 122.2 1021.2 128.7 C 1022.8 130.2 1024.8 131.5 1027.0 131.3 C 1030.7 131.1 1033.7 128.8 1036.5 126.6 C 1041.3 122.7 1045.8 118.4 1050.7 114.7 C 1068.7 100.8 1090.2 91.4 1112.7 87.9 C 1123.5 86.3 1134.3 88.2 1145.1 87.8 C 1147.4 87.6 1150.1 87.7 1152.0 85.9 C 1153.9 84.0 1155.0 81.4 1156.0 78.9 C 1161.5 64.8 1163.7 49.6 1169.4 35.5 C 1173.0 26.3 1177.8 16.9 1186.0 10.9 M 1213.4 24.3 C 1209.3 25.3 1205.1 26.9 1201.8 29.8 C 1197.1 33.7 1194.1 39.2 1191.6 44.7 C 1183.1 64.2 1179.2 85.1 1173.3 105.4 C 1172.0 109.6 1170.7 113.9 1168.7 117.9 C 1165.2 117.6 1161.8 116.7 1158.4 115.6 C 1149.2 112.7 1139.8 110.3 1130.1 110.3 C 1108.6 109.4 1087.2 116.4 1069.7 128.8 C 1056.1 138.7 1045.3 152.0 1035.8 165.8 C 1023.1 184.0 1015.4 205.3 1002.2 223.2 C 993.8 235.5 982.0 245.5 968.4 251.8 C 967.9 243.0 968.3 234.1 970.3 225.4 C 973.6 210.6 979.2 196.3 985.2 182.4 C 988.6 174.4 991.5 166.3 994.4 158.2 C 996.4 152.0 998.4 145.6 998.1 139.0 C 998.0 134.1 994.7 130.0 990.9 127.2 C 984.6 122.6 977.0 120.4 969.6 118.3 C 951.3 112.8 932.1 110.1 913.0 110.3 C 904.4 110.4 895.6 110.8 887.3 113.3 C 864.0 120.2 843.0 133.7 826.2 151.2 C 818.3 159.8 810.8 168.9 805.0 179.0 C 798.7 190.0 795.9 202.6 789.5 213.5 C 785.9 219.6 780.8 224.8 775.6 229.7 C 764.5 239.9 751.1 247.5 736.6 251.7 C 727.1 254.7 716.8 256.0 707.0 254.0 C 700.9 252.7 694.8 250.1 691.0 245.0 C 686.9 239.4 685.3 232.5 684.6 225.7 C 682.5 202.9 689.6 179.5 703.0 161.1 C 708.3 153.7 715.0 147.3 723.1 143.1 C 725.9 141.6 729.3 140.4 732.5 141.5 C 737.5 143.1 741.0 147.7 742.0 152.7 C 744.1 162.6 742.5 172.7 743.7 182.6 C 744.0 184.8 744.4 187.4 746.5 188.5 C 749.8 190.4 753.5 191.3 757.2 192.0 C 764.2 193.1 771.8 192.6 778.0 189.0 C 783.4 185.8 787.0 180.3 789.8 174.7 C 795.2 163.7 796.7 151.1 796.1 138.9 C 795.8 133.8 794.7 128.6 791.5 124.5 C 786.9 118.4 780.2 114.4 773.1 111.8 C 763.2 108.2 752.3 108.3 741.9 109.0 C 721.2 111.0 701.3 118.2 683.1 128.1 C 672.7 134.0 663.9 142.3 656.5 151.5 C 645.8 164.3 637.1 178.8 631.3 194.4 C 627.1 205.4 624.0 217.1 623.9 229.0 C 623.7 241.1 625.7 253.5 631.9 264.0 C 641.3 279.6 658.7 290.1 676.9 291.0 C 699.1 292.2 722.1 291.5 742.9 282.9 C 754.0 278.8 763.8 272.1 773.2 265.2 C 778.3 261.6 783.1 257.4 788.9 254.9 C 790.5 257.0 792.1 259.3 793.4 261.7 C 797.5 269.2 802.1 276.7 808.9 282.1 C 820.0 291.0 835.2 294.1 849.0 291.1 C 863.1 288.1 876.9 282.3 888.0 273.0 C 895.8 266.8 901.7 258.7 908.8 251.9 C 909.4 260.1 908.8 268.8 912.6 276.3 C 916.5 283.6 924.1 288.2 932.0 289.9 C 944.4 292.4 957.4 290.8 969.0 286.1 C 978.3 282.3 987.4 277.7 994.5 270.5 C 999.9 265.5 1004.1 259.4 1009.3 254.1 C 1015.9 263.0 1019.8 274.1 1028.6 281.3 C 1041.2 291.1 1058.3 293.9 1073.7 290.5 C 1078.6 289.4 1083.2 287.3 1088.1 285.9 C 1086.2 291.5 1083.2 296.6 1081.1 302.1 C 1080.0 304.9 1078.8 307.7 1077.4 310.3 C 1072.0 311.0 1066.5 310.8 1061.0 310.9 C 1025.3 311.7 989.7 310.5 954.0 310.2 C 916.7 308.6 879.3 309.4 842.0 308.7 C 812.9 308.4 783.8 308.1 754.7 307.5 C 733.3 307.1 711.8 307.6 690.4 306.6 C 671.5 306.1 652.7 306.1 633.8 305.6 C 613.7 305.2 593.5 305.6 573.4 303.8 C 564.9 303.2 556.5 303.4 548.0 303.3 C 528.7 303.1 509.3 303.2 489.9 302.8 C 483.6 302.6 477.0 302.6 471.1 299.8 C 467.6 298.2 465.1 295.1 463.2 291.8 C 458.7 283.9 456.8 275.0 454.8 266.2 C 452.4 256.3 450.9 246.3 448.5 236.4 C 443.1 213.1 439.2 189.4 436.0 165.6 C 434.3 154.8 432.7 144.0 431.6 133.1 C 429.8 116.4 427.2 99.8 426.9 83.0 C 426.7 73.8 426.3 64.4 423.3 55.7 C 419.8 45.7 413.6 36.3 404.5 30.5 C 397.3 25.8 388.2 25.7 379.9 26.3 C 363.5 28.3 348.2 36.9 336.9 48.9 C 324.5 61.4 318.1 78.2 309.0 93.0 C 282.7 136.1 251.3 175.8 221.4 216.4 C 181.0 271.7 140.7 327.0 100.7 382.6 C 87.4 401.1 74.2 419.5 61.2 438.2 C 53.5 449.1 45.7 460.0 37.8 470.8 C 32.9 477.5 28.1 484.5 25.4 492.4 C 23.8 497.1 23.6 502.5 26.1 506.8 C 29.2 512.8 35.3 516.3 41.2 519.0 C 52.5 524.4 65.6 525.5 77.9 523.6 C 91.9 521.2 104.8 514.0 115.1 504.2 C 121.5 498.2 126.9 491.2 132.0 484.1 C 143.0 468.8 152.7 452.7 162.7 436.8 C 175.4 416.8 185.1 395.0 198.2 375.2 C 201.3 370.8 204.7 365.8 210.2 364.2 C 218.2 361.8 226.7 362.1 235.0 361.8 C 257.4 361.6 279.7 361.5 302.0 362.2 C 314.8 362.4 327.5 363.1 340.2 364.4 C 354.7 365.8 369.6 365.4 383.8 369.1 C 387.7 370.1 391.6 371.0 395.0 373.1 C 398.1 375.2 399.3 379.0 400.4 382.4 C 404.1 395.9 407.2 409.5 410.1 423.1 C 415.1 444.6 419.7 466.3 426.7 487.4 C 428.7 493.4 430.8 499.4 434.3 504.7 C 439.4 512.8 447.3 518.9 456.1 522.8 C 464.2 526.4 473.3 526.9 482.1 525.9 C 496.1 524.3 508.0 512.6 510.7 498.9 C 511.9 493.4 511.1 487.7 509.8 482.2 C 503.3 453.9 492.0 427.0 485.8 398.6 C 484.1 390.5 482.6 382.3 482.6 374.0 C 482.7 370.8 482.7 367.2 484.6 364.5 C 487.3 361.2 491.9 360.3 495.9 360.0 C 503.9 359.4 512.0 359.7 520.0 359.7 C 545.6 359.7 571.3 359.8 596.9 360.6 C 609.9 361.4 623.0 361.7 636.0 361.8 C 642.7 361.8 649.4 361.3 656.0 362.0 C 655.4 368.1 653.5 373.9 651.8 379.7 C 650.1 384.8 648.7 389.9 646.5 394.7 C 644.0 394.0 641.5 393.2 639.1 392.1 C 629.2 387.9 618.8 384.5 608.0 384.5 C 585.2 383.7 562.4 392.3 545.3 407.3 C 530.8 420.0 521.1 437.7 516.3 456.4 C 511.3 473.7 511.6 493.1 519.3 509.6 C 526.1 525.1 542.3 535.3 559.0 536.6 C 568.4 537.3 578.0 536.6 587.2 534.0 C 601.4 530.2 614.6 523.6 627.3 516.3 C 629.1 515.4 630.9 514.4 632.9 514.1 C 635.9 515.2 638.4 517.3 641.0 519.0 C 646.9 523.1 653.7 526.2 661.0 526.9 C 668.5 527.7 676.3 527.3 683.8 525.5 C 693.1 523.2 701.2 517.6 708.7 511.7 C 710.7 510.1 712.8 508.7 715.0 507.4 C 717.4 508.9 719.6 510.5 721.8 512.2 C 727.7 516.8 734.5 520.7 742.1 521.5 C 749.1 522.2 756.2 522.0 763.0 520.1 C 771.1 517.8 778.7 514.2 785.7 509.7 C 788.1 508.2 790.4 506.5 793.1 505.5 C 795.2 505.8 797.0 507.1 798.8 508.2 C 803.6 511.3 808.5 514.4 814.0 516.1 C 821.2 518.4 829.1 517.8 836.1 515.1 C 843.8 512.1 850.7 507.3 857.3 502.3 C 859.1 501.1 860.8 499.6 863.0 499.3 C 865.0 499.6 866.9 500.4 868.7 501.2 C 877.7 505.4 886.8 509.5 896.4 511.7 C 910.4 514.6 925.4 512.8 938.1 506.1 C 944.3 502.9 949.9 498.6 955.9 494.9 C 958.5 493.3 961.5 491.4 964.7 492.4 C 969.4 493.5 973.4 496.2 977.7 498.3 C 984.3 501.7 991.5 504.2 999.0 504.7 C 1019.9 506.1 1041.6 501.1 1058.8 488.8 C 1062.9 486.1 1067.0 482.6 1072.1 481.8 C 1074.8 482.2 1077.1 484.1 1079.4 485.6 C 1085.8 490.2 1092.2 495.3 1100.1 496.8 C 1108.9 498.4 1118.4 497.6 1126.4 493.3 C 1133.1 489.7 1139.2 485.0 1145.0 480.1 C 1146.8 478.5 1148.8 477.2 1150.9 476.0 C 1158.0 479.0 1164.4 483.6 1171.6 486.4 C 1181.1 490.6 1191.8 491.2 1202.1 490.6 C 1210.1 490.2 1218.1 488.6 1225.6 485.6 C 1233.6 482.4 1241.2 478.1 1248.5 473.5 C 1250.5 472.3 1252.6 470.8 1254.9 470.5 C 1257.2 470.7 1259.2 471.7 1261.3 472.6 C 1267.9 475.5 1274.7 478.2 1281.7 480.3 C 1292.8 483.6 1304.6 484.0 1316.1 482.9 C 1331.5 481.3 1346.5 474.5 1357.2 463.1 C 1364.4 455.5 1370.2 445.7 1370.4 435.0 C 1370.7 426.3 1367.7 417.9 1365.5 409.6 C 1364.9 407.0 1364.0 404.2 1364.6 401.5 C 1365.7 398.9 1367.9 397.0 1370.0 395.1 C 1379.7 387.0 1391.8 381.9 1400.0 372.0 C 1408.0 362.1 1414.0 350.8 1421.3 340.3 C 1426.3 333.2 1430.6 325.1 1430.9 316.2 C 1418.1 313.5 1405.0 313.3 1392.0 313.3 C 1373.3 313.7 1354.7 313.6 1336.0 313.7 C 1289.3 313.7 1242.7 313.9 1196.0 313.1 C 1190.8 313.0 1185.5 313.2 1180.3 312.7 C 1177.4 306.1 1175.6 299.0 1174.0 292.0 C 1176.3 290.9 1178.8 289.9 1181.3 289.1 C 1188.8 286.8 1196.3 284.1 1203.1 280.1 C 1209.4 276.4 1214.9 271.4 1219.8 265.9 C 1223.4 262.0 1226.5 257.5 1230.7 254.2 C 1239.4 263.8 1246.6 275.3 1258.1 281.9 C 1269.8 288.5 1283.7 290.0 1297.0 290.0 C 1320.8 290.2 1344.8 285.6 1366.3 275.4 C 1376.7 270.4 1387.0 265.2 1396.0 257.9 C 1409.2 247.7 1419.9 233.6 1424.6 217.4 C 1425.4 214.2 1426.4 210.8 1425.5 207.4 C 1424.7 204.2 1422.8 201.5 1420.8 198.9 C 1415.4 201.9 1411.4 206.7 1407.1 211.0 C 1393.7 225.1 1378.2 237.2 1360.7 245.8 C 1346.8 252.7 1330.9 256.8 1315.2 254.4 C 1304.8 252.3 1294.7 245.0 1291.6 234.5 C 1290.7 231.3 1290.0 227.7 1291.3 224.5 C 1292.5 223.1 1294.4 222.6 1296.1 222.3 C 1300.3 221.4 1304.6 221.4 1308.9 221.1 C 1319.3 220.7 1329.5 218.9 1339.5 216.6 C 1349.8 214.0 1360.2 211.0 1369.4 205.4 C 1375.1 202.0 1380.3 197.7 1385.0 193.0 C 1389.4 188.7 1393.9 184.3 1396.7 178.8 C 1399.5 173.3 1400.5 167.1 1400.7 161.1 C 1400.9 153.7 1400.9 146.0 1398.0 139.0 C 1393.1 126.9 1383.0 116.6 1370.5 112.5 C 1363.6 110.1 1356.2 109.9 1349.0 110.0 C 1337.4 110.1 1326.0 112.6 1315.0 116.1 C 1303.2 120.1 1291.6 125.1 1281.7 132.8 C 1274.0 138.6 1267.2 145.6 1261.2 153.2 C 1253.3 163.0 1246.0 173.6 1241.4 185.4 C 1236.5 197.3 1233.1 210.0 1225.7 220.6 C 1220.7 227.6 1214.6 233.7 1208.6 239.7 C 1205.4 242.7 1202.2 246.0 1198.4 248.3 C 1194.6 250.5 1190.1 250.1 1186.0 249.7 C 1186.3 243.3 1188.4 237.2 1190.1 231.1 C 1192.2 224.0 1194.4 216.9 1196.8 209.8 C 1199.7 201.2 1201.8 192.4 1204.8 183.9 C 1208.7 171.9 1213.5 160.2 1217.0 148.0 C 1220.9 134.1 1224.4 120.1 1229.6 106.6 C 1237.5 86.0 1242.8 64.5 1249.6 43.5 C 1250.9 39.5 1252.1 35.3 1251.3 31.1 C 1250.9 28.6 1249.4 26.2 1247.1 24.9 C 1244.1 23.4 1240.8 23.0 1237.6 22.6 C 1229.5 21.8 1221.3 22.2 1213.4 24.3 M 604.2 113.1 C 594.9 117.0 586.4 122.5 578.3 128.3 C 576.3 129.8 574.1 131.2 571.9 132.4 C 569.3 128.7 567.8 124.4 565.3 120.7 C 562.9 117.0 558.5 115.5 554.4 114.8 C 548.1 113.7 541.5 113.7 535.1 114.5 C 530.2 115.1 525.2 116.2 521.1 119.1 C 516.6 122.4 513.9 127.5 511.4 132.4 C 505.7 143.8 500.3 155.3 494.7 166.7 C 491.6 172.9 488.1 178.8 485.2 185.1 C 479.8 196.4 476.1 208.4 472.3 220.3 C 468.6 232.2 465.5 244.5 465.6 257.0 C 465.6 266.6 465.6 276.9 470.8 285.3 C 473.2 289.4 477.5 292.0 482.1 292.8 C 490.8 294.4 499.8 294.6 508.6 293.4 C 511.5 292.8 515.0 292.5 516.8 289.8 C 519.5 285.8 520.9 281.0 522.5 276.5 C 530.6 252.4 539.4 228.3 552.2 206.2 C 556.9 198.3 561.2 190.1 566.8 182.9 C 573.1 174.9 579.7 166.9 588.1 161.0 C 589.2 162.2 590.9 163.3 591.1 165.1 C 591.8 170.9 590.2 176.8 591.5 182.6 C 592.1 185.8 594.9 187.9 597.7 189.3 C 603.3 192.1 609.9 192.0 616.1 191.7 C 620.1 191.6 624.5 190.5 627.3 187.3 C 632.0 182.1 634.3 175.3 637.0 169.0 C 641.6 157.6 647.3 146.4 648.3 134.0 C 648.7 128.5 648.6 122.4 645.3 117.7 C 641.4 112.2 634.7 109.2 628.0 108.8 C 619.9 108.3 611.7 110.0 604.2 113.1 Z"/>
<path fill="#ffffff" stroke="#ffffff" stroke-width="0.09375" opacity="1.00" d=" M 905.3 140.2 C 911.4 139.6 918.0 139.6 923.6 142.4 C 927.3 144.3 930.9 147.5 931.3 151.9 C 932.0 158.1 930.4 164.3 928.2 170.1 C 921.8 186.6 913.2 202.3 902.3 216.4 C 895.3 225.6 887.0 233.8 877.5 240.5 C 872.0 244.3 865.8 247.5 859.0 247.5 C 856.4 247.6 853.9 246.6 852.2 244.6 C 848.8 240.7 848.1 235.1 847.9 230.1 C 847.1 208.1 854.6 186.5 866.0 168.0 C 874.7 154.2 888.6 142.3 905.3 140.2 Z"/>
<path fill="#ffffff" stroke="#ffffff" stroke-width="0.09375" opacity="1.00" d=" M 1126.4 140.2 C 1134.2 139.3 1143.2 140.0 1149.2 145.8 C 1152.6 148.9 1152.6 153.8 1152.4 158.0 C 1151.6 167.4 1147.8 176.2 1143.3 184.3 C 1134.1 200.0 1125.0 216.1 1112.2 229.2 C 1107.4 234.1 1102.6 239.1 1096.9 243.0 C 1092.3 246.1 1086.6 248.0 1081.1 247.0 C 1077.4 246.3 1074.5 243.5 1072.7 240.3 C 1070.3 236.3 1069.7 231.6 1069.6 227.0 C 1069.4 217.0 1071.8 207.1 1074.4 197.4 C 1077.9 184.8 1083.3 172.7 1091.1 162.1 C 1099.3 150.6 1112.0 141.6 1126.4 140.2 Z"/>
<path fill="#ffffff" stroke="#ffffff" stroke-width="0.09375" opacity="1.00" d=" M 1331.5 143.6 C 1334.7 142.7 1338.4 141.9 1341.6 143.2 C 1345.0 145.0 1346.0 149.3 1346.0 152.9 C 1345.7 166.1 1337.8 178.9 1326.1 185.1 C 1319.6 188.6 1312.3 190.7 1305.0 191.0 C 1302.5 191.1 1299.5 191.1 1298.0 188.9 C 1296.4 186.9 1297.5 184.3 1298.1 182.2 C 1301.4 173.0 1307.8 165.4 1313.8 157.9 C 1318.6 152.0 1324.1 146.1 1331.5 143.6 Z"/>
<path fill="#ffffff" stroke="#ffffff" stroke-width="0.09375" opacity="1.00" d=" M 344.1 161.1 C 347.3 157.3 350.3 153.4 353.9 150.0 C 357.6 156.2 359.8 163.1 362.4 169.7 C 371.9 196.4 375.5 224.6 379.8 252.4 C 382.3 267.9 385.5 283.3 386.1 299.0 C 386.2 301.1 385.9 303.2 385.5 305.3 C 357.4 307.0 329.2 306.8 301.0 306.4 C 284.2 306.3 267.2 306.3 250.5 303.4 C 248.2 303.0 246.0 302.2 243.8 301.3 C 248.4 290.9 254.4 281.2 261.0 272.0 C 274.4 252.6 288.4 233.5 302.7 214.8 C 316.0 196.5 329.8 178.6 344.1 161.1 Z"/>
<path fill="#ffffff" stroke="#ffffff" stroke-width="0.09375" opacity="1.00" d=" M 1119.4 275.7 C 1129.0 273.7 1139.3 275.4 1147.9 280.1 C 1158.1 285.9 1166.6 295.7 1168.7 307.5 C 1169.9 314.5 1170.0 322.0 1167.7 328.9 C 1162.7 343.6 1149.1 355.1 1133.7 357.4 C 1120.0 359.4 1106.0 353.4 1097.0 343.0 C 1085.7 331.0 1083.2 311.7 1091.4 297.4 C 1096.9 286.4 1107.5 278.4 1119.4 275.7 M 1110.5 287.5 C 1105.1 289.6 1102.5 296.7 1105.3 301.8 C 1106.9 304.6 1109.7 307.1 1113.0 307.4 C 1117.5 307.6 1121.8 304.6 1123.3 300.4 C 1124.9 295.7 1122.6 290.1 1118.3 287.7 C 1115.9 286.4 1113.0 286.5 1110.5 287.5 Z"/>
<path fill="#ffffff" stroke="#ffffff" stroke-width="0.09375" opacity="1.00" d=" M 700.7 325.7 C 707.0 322.6 714.5 321.3 721.2 323.9 C 727.4 326.4 733.0 330.8 736.2 336.7 C 738.3 340.4 738.4 344.7 738.0 348.8 C 737.1 356.2 734.2 363.3 730.8 370.0 C 723.5 384.4 714.3 397.7 704.3 410.3 C 699.5 416.5 693.9 422.0 689.5 428.6 C 683.9 436.9 682.0 446.9 679.6 456.5 C 677.4 467.7 675.9 479.2 677.2 490.6 C 683.5 490.9 690.2 490.9 696.0 488.0 C 702.8 484.5 707.8 478.3 711.8 471.8 C 716.9 463.5 720.4 454.4 724.4 445.5 C 728.4 436.7 732.6 428.0 738.0 420.0 C 746.4 407.6 758.9 398.3 772.6 392.6 C 779.2 389.8 786.1 387.3 793.3 386.6 C 808.5 385.2 823.8 387.2 838.9 389.3 C 842.4 389.9 846.2 390.5 849.2 392.7 C 851.1 394.1 851.1 396.6 851.0 398.7 C 850.5 403.5 849.2 408.2 847.9 412.9 C 843.9 426.8 839.3 440.6 837.1 454.9 C 836.1 463.6 836.0 472.3 836.5 480.9 C 840.7 480.7 845.0 479.8 848.8 477.8 C 852.1 475.9 854.6 472.9 856.9 469.9 C 863.6 460.5 868.8 450.0 876.1 441.0 C 879.5 436.6 884.8 434.1 890.2 432.9 C 889.8 444.1 885.3 454.8 885.6 466.0 C 885.7 470.9 887.0 476.0 890.2 479.8 C 892.2 482.0 895.2 482.6 898.0 482.9 C 905.0 483.7 912.5 482.6 918.3 478.4 C 921.2 476.5 922.7 473.2 923.2 469.9 C 924.1 463.8 923.5 457.1 920.2 451.8 C 916.4 445.8 910.8 441.2 906.1 436.0 C 899.7 428.8 893.3 421.2 890.0 412.1 C 888.7 408.7 888.3 404.9 889.5 401.4 C 892.6 391.9 900.3 384.3 909.3 380.2 C 916.9 376.4 925.6 375.7 934.0 375.5 C 944.0 375.3 954.3 376.4 963.4 380.7 C 967.9 382.7 971.5 387.0 972.0 392.0 C 972.5 397.5 970.5 403.0 967.2 407.3 C 963.9 411.7 959.8 415.7 955.2 418.9 C 950.4 410.4 948.2 400.8 943.9 392.1 C 943.0 390.7 942.2 389.0 940.5 388.6 C 933.1 386.8 924.4 389.7 920.2 396.3 C 918.7 398.5 919.5 401.3 920.4 403.7 C 923.4 411.6 929.5 417.8 936.0 423.0 C 941.8 427.8 948.3 432.0 952.7 438.3 C 958.1 445.7 960.9 455.4 958.4 464.4 C 955.8 473.6 948.9 480.9 941.4 486.5 C 931.9 493.8 920.0 498.4 907.9 497.9 C 899.3 497.7 891.0 494.6 883.4 490.7 C 877.0 487.4 870.7 483.7 863.6 482.2 C 860.4 481.4 857.2 482.8 854.5 484.4 C 847.3 488.8 841.5 495.1 834.0 499.0 C 829.5 501.5 824.2 503.1 819.0 502.2 C 814.8 501.5 810.9 499.1 808.4 495.6 C 804.7 490.3 803.5 483.8 800.7 478.1 C 798.5 478.9 796.2 479.8 794.2 481.2 C 784.5 487.7 777.4 497.4 767.1 503.1 C 761.5 506.1 755.4 508.5 749.0 508.3 C 744.5 508.1 740.2 506.1 736.7 503.2 C 731.0 498.6 727.0 492.3 721.8 487.2 C 720.0 485.5 717.8 483.7 715.1 484.1 C 712.4 484.6 710.4 486.6 708.4 488.4 C 703.6 493.2 699.2 498.6 694.1 503.1 C 685.5 510.8 673.3 513.8 662.1 511.8 C 657.0 510.9 651.9 508.6 648.6 504.4 C 645.0 499.9 643.5 494.2 640.7 489.2 C 632.9 491.9 626.4 497.1 619.8 501.9 C 610.1 509.3 598.9 514.9 587.1 518.2 C 579.3 520.3 571.2 522.3 562.9 521.9 C 554.6 521.6 546.4 518.4 540.0 513.0 C 534.0 507.7 530.7 499.9 529.0 492.2 C 526.4 478.9 528.5 465.0 533.5 452.5 C 541.8 428.9 561.5 409.3 585.6 402.4 C 595.1 399.3 605.2 399.0 615.0 400.1 C 621.1 400.8 627.3 402.8 631.7 407.3 C 633.6 409.3 634.0 412.2 634.1 414.9 C 634.3 420.6 633.6 426.3 631.9 431.8 C 629.5 439.7 623.2 445.6 617.0 450.6 C 612.5 447.3 608.2 443.0 606.8 437.4 C 604.8 429.8 604.9 421.9 602.8 414.3 C 597.5 414.0 592.0 414.3 587.0 416.2 C 581.4 418.4 577.6 423.4 574.0 428.0 C 564.3 440.5 558.0 456.1 559.1 472.1 C 559.3 481.0 562.7 490.4 570.3 495.7 C 576.3 499.9 584.0 499.7 591.0 499.3 C 600.5 498.6 609.3 494.3 617.1 489.1 C 625.8 483.4 633.3 476.0 640.4 468.4 C 646.2 462.2 650.3 454.5 652.3 446.3 C 656.7 429.2 660.4 412.0 663.8 394.8 C 665.4 387.2 667.3 379.8 669.3 372.3 C 671.8 363.1 674.7 353.9 679.7 345.7 C 684.7 337.3 691.8 329.9 700.7 325.7 M 711.6 344.7 C 709.4 346.3 708.2 348.7 707.0 351.1 C 701.6 363.2 699.3 376.4 696.2 389.2 C 695.8 391.1 695.5 393.0 695.2 394.8 C 697.8 394.8 700.6 395.1 703.2 394.1 C 704.9 392.4 705.9 390.1 707.0 388.0 C 710.4 380.9 713.9 373.7 716.3 366.2 C 718.9 358.4 721.0 350.2 720.3 341.9 C 717.3 342.5 714.1 342.8 711.6 344.7 M 787.4 399.7 C 780.3 401.5 774.5 406.4 769.8 411.8 C 755.2 428.6 748.3 451.8 751.5 473.8 C 751.9 476.9 753.1 480.4 756.2 481.7 C 761.7 484.0 768.2 483.1 773.5 480.5 C 780.3 477.1 785.9 471.5 790.7 465.6 C 797.5 457.2 804.1 448.5 808.6 438.6 C 811.3 432.4 813.5 425.8 813.5 419.0 C 813.5 413.0 812.1 406.6 808.1 401.9 C 806.4 399.9 803.6 399.2 801.0 398.8 C 796.5 398.3 791.8 398.5 787.4 399.7 Z"/>
<path fill="#ffffff" stroke="#ffffff" stroke-width="0.09375" opacity="1.00" d=" M 1315.7 348.7 C 1328.8 345.1 1343.1 345.2 1355.8 350.3 C 1359.6 351.7 1363.2 354.2 1365.1 358.0 C 1368.3 364.1 1368.7 371.8 1366.1 378.2 C 1362.9 384.3 1355.6 386.7 1349.3 388.1 C 1346.5 381.4 1345.7 373.7 1341.3 367.6 C 1339.6 365.1 1336.7 363.8 1333.9 362.9 C 1329.0 361.4 1323.7 360.7 1318.5 361.3 C 1317.5 365.7 1316.7 370.3 1317.1 374.9 C 1317.5 378.2 1319.9 380.7 1322.0 383.0 C 1331.3 392.7 1342.2 401.1 1349.3 412.7 C 1352.7 418.2 1355.7 424.4 1355.7 431.0 C 1355.8 437.9 1352.6 444.2 1348.7 449.7 C 1341.8 459.2 1330.7 464.9 1319.5 467.4 C 1311.9 469.0 1304.1 469.1 1296.4 468.3 C 1286.2 467.1 1277.2 461.9 1268.0 457.9 C 1263.0 455.8 1257.5 453.9 1252.0 454.9 C 1246.0 456.0 1241.0 459.7 1235.9 462.9 C 1228.7 467.5 1221.0 471.4 1212.7 473.7 C 1199.1 477.5 1183.7 477.0 1171.3 469.7 C 1163.3 464.8 1159.2 456.1 1153.8 448.9 C 1149.1 452.2 1145.5 456.6 1141.5 460.5 C 1136.8 465.1 1132.3 470.0 1127.5 474.5 C 1123.6 478.1 1119.1 481.6 1113.7 482.5 C 1107.2 483.5 1100.6 481.3 1095.0 478.0 C 1089.7 474.7 1084.8 469.8 1083.4 463.5 C 1082.2 457.5 1083.6 451.3 1085.1 445.4 C 1087.5 436.5 1089.4 427.6 1091.6 418.7 C 1094.1 408.0 1095.6 397.0 1098.6 386.4 C 1100.2 380.8 1102.9 375.2 1107.8 371.8 C 1115.7 366.2 1125.7 364.8 1135.2 365.1 C 1135.1 374.4 1132.4 383.3 1130.2 392.2 C 1124.5 414.3 1116.8 436.7 1119.1 459.8 C 1125.4 459.0 1131.9 457.1 1136.7 452.8 C 1148.6 441.4 1154.8 425.6 1160.5 410.5 C 1163.5 402.7 1166.2 394.7 1170.7 387.7 C 1183.2 367.8 1206.7 355.6 1230.1 356.0 C 1238.9 356.1 1248.3 358.9 1254.2 365.8 C 1261.2 374.0 1260.8 386.6 1255.6 395.7 C 1252.9 400.8 1247.2 404.7 1241.2 404.1 C 1238.6 403.9 1236.5 401.9 1235.5 399.6 C 1232.0 391.4 1233.5 382.0 1230.1 373.8 C 1229.2 371.4 1226.9 370.0 1224.5 369.6 C 1220.0 368.6 1215.4 370.2 1211.5 372.5 C 1203.9 377.1 1198.2 384.3 1194.3 392.2 C 1188.7 404.0 1187.6 417.3 1188.3 430.1 C 1188.7 437.4 1190.9 444.8 1195.5 450.6 C 1199.6 455.8 1206.8 456.4 1213.0 456.5 C 1229.3 456.9 1245.4 449.3 1255.7 436.7 C 1261.3 429.8 1264.7 421.3 1270.5 414.4 C 1272.5 412.1 1274.9 409.7 1278.1 409.2 C 1282.0 408.6 1285.9 409.1 1289.8 409.5 C 1287.0 415.3 1282.8 420.4 1280.6 426.5 C 1278.6 432.2 1278.4 438.7 1280.7 444.4 C 1281.8 447.3 1284.3 449.6 1287.2 450.8 C 1293.7 453.5 1301.0 453.9 1308.0 452.9 C 1312.4 452.1 1317.2 450.8 1320.1 447.1 C 1322.9 443.6 1323.2 438.7 1322.7 434.4 C 1321.8 426.5 1317.6 419.3 1312.4 413.5 C 1306.3 406.6 1298.0 402.0 1292.3 394.8 C 1288.5 390.0 1285.7 384.1 1285.8 378.0 C 1285.7 369.9 1290.2 362.3 1296.4 357.4 C 1302.1 353.0 1308.9 350.5 1315.7 348.7 Z"/>
<path fill="#ffffff" stroke="#ffffff" stroke-width="0.09375" opacity="1.00" d=" M 1035.0 368.0 C 1044.9 366.5 1055.3 366.5 1064.8 370.2 C 1068.2 371.4 1071.3 373.7 1073.0 377.0 C 1076.6 383.6 1077.0 392.3 1072.7 398.7 C 1069.4 403.4 1064.9 407.3 1059.9 409.9 C 1053.9 405.5 1053.7 397.5 1052.0 391.0 C 1051.1 388.0 1050.3 384.0 1046.7 383.3 C 1039.7 381.5 1031.0 382.1 1026.1 388.1 C 1022.2 392.4 1022.2 399.6 1026.3 403.6 C 1032.6 410.0 1041.2 413.3 1048.0 419.1 C 1053.4 423.6 1057.0 429.8 1059.9 436.1 C 1063.3 443.3 1064.8 451.5 1063.1 459.4 C 1061.3 466.7 1056.2 472.9 1050.0 477.0 C 1042.1 482.3 1032.9 485.5 1023.8 487.8 C 1010.3 491.1 995.2 491.3 982.8 484.2 C 974.7 479.9 969.1 471.2 968.7 462.1 C 968.1 453.1 971.6 444.1 977.6 437.5 C 981.3 433.3 985.5 429.4 990.2 426.3 C 992.3 427.1 994.2 428.4 995.7 430.1 C 995.0 436.9 992.4 443.4 991.4 450.1 C 990.6 455.9 990.1 461.9 991.6 467.6 C 992.7 471.7 996.6 474.2 1000.4 475.6 C 1007.7 478.2 1016.4 476.5 1022.1 471.1 C 1024.8 468.8 1026.8 465.6 1027.1 462.1 C 1028.4 450.6 1023.6 439.2 1016.4 430.6 C 1010.4 423.3 1001.7 418.5 996.4 410.6 C 992.8 405.5 991.9 398.4 994.8 392.7 C 997.7 387.0 1002.1 382.1 1007.4 378.4 C 1015.5 372.7 1025.3 369.7 1035.0 368.0 Z"/>
<path fill="#ffffff" stroke="#ffffff" stroke-width="0.09375" opacity="1.00" d=" M 747.3 372.2 C 748.5 370.5 750.1 368.9 752.3 368.4 C 757.7 367.1 763.4 367.6 769.0 367.5 C 793.9 368.0 818.8 369.1 843.6 370.7 C 852.4 371.2 861.2 372.2 870.0 372.4 C 876.3 372.6 882.6 372.3 888.9 372.4 C 884.5 380.4 877.9 387.2 875.3 396.1 C 873.0 404.3 875.2 412.7 874.1 421.0 C 873.9 422.5 873.6 424.3 872.0 425.0 C 868.3 426.7 864.1 426.0 860.2 425.7 C 861.8 416.6 866.0 408.1 866.7 398.9 C 867.3 390.9 862.7 383.1 856.0 379.0 C 852.1 376.5 847.6 375.5 843.1 374.7 C 829.5 372.5 815.8 370.9 802.0 371.0 C 782.9 371.1 764.0 377.6 748.3 388.3 C 735.3 397.7 724.8 410.3 717.5 424.6 C 713.1 433.3 709.4 442.4 705.2 451.3 C 701.9 458.0 698.3 464.7 693.2 470.3 C 693.8 461.6 695.9 453.1 699.0 445.0 C 702.2 436.6 708.3 429.8 713.8 422.8 C 723.2 410.7 732.7 398.5 740.0 385.0 C 742.3 380.7 744.4 376.2 747.3 372.2 Z"/>
<path fill="#ffffff" stroke="#ffffff" stroke-width="0.09375" opacity="1.00" d=" M 1209.6 396.4 C 1211.4 395.5 1213.7 395.4 1215.6 396.1 C 1217.8 398.0 1219.2 400.8 1220.8 403.3 C 1223.1 407.1 1225.9 410.8 1229.4 413.7 C 1234.0 417.7 1239.7 420.1 1244.4 424.0 C 1238.2 435.0 1225.7 442.0 1213.1 441.8 C 1210.3 441.6 1207.2 440.9 1205.7 438.4 C 1203.8 435.3 1203.2 431.6 1202.9 428.0 C 1202.1 420.0 1203.9 411.9 1206.2 404.2 C 1207.1 401.5 1207.9 398.7 1209.6 396.4 Z"/>
<path fill="#ffffff" stroke="#ffffff" stroke-width="0.09375" opacity="1.00" d=" M 781.6 421.5 C 785.8 416.4 792.5 414.2 798.8 413.2 C 798.4 428.7 790.4 442.9 780.3 454.2 C 777.4 457.6 773.0 460.3 768.4 459.0 C 766.5 455.5 766.8 451.4 767.8 447.7 C 770.4 438.1 775.2 429.1 781.6 421.5 Z"/>
<path fill="#ffffff" stroke="#ffffff" stroke-width="0.09375" opacity="1.00" d=" M 583.6 441.5 C 585.4 441.1 587.5 440.8 589.1 441.9 C 591.7 444.6 593.4 448.2 595.9 451.1 C 601.7 458.4 609.5 463.9 615.4 471.1 C 611.6 474.9 606.9 477.6 602.2 480.1 C 597.2 482.8 591.8 485.3 586.0 485.2 C 582.1 485.2 578.0 483.5 576.0 480.0 C 574.2 476.6 574.0 472.7 574.0 469.0 C 574.1 461.8 576.6 454.9 579.4 448.4 C 580.5 446.0 581.6 443.3 583.6 441.5 Z"/>
</svg>