<svg xmlns="http://www.w3.org/2000/svg" version="1.1" viewBox="9.95 7.92 637.24 134.17">
<path fill="#ffffff" stroke="#ffffff" stroke-width="0.09375" opacity="1.00" d=" M 10.0 37.9 C 10.1 22.1 24.1 8.1 39.9 8.0 C 52.6 8.0 65.3 7.9 78.0 8.1 C 78.1 52.7 78.1 97.3 78.0 141.9 C 66.0 142.1 54.0 141.9 42.0 142.0 C 25.5 143.0 10.0 128.7 10.0 112.1 C 10.0 87.4 10.0 62.6 10.0 37.9 M 20.4 44.1 C 20.3 64.7 20.3 85.3 20.4 105.9 C 20.5 119.1 32.0 131.0 45.3 131.6 C 52.7 131.8 60.1 131.7 67.6 131.6 C 67.7 93.9 67.7 56.1 67.6 18.4 C 60.1 18.3 52.7 18.2 45.2 18.4 C 32.0 19.0 20.5 30.9 20.4 44.1 Z"/>
<path fill="#ffffff" stroke="#ffffff" stroke-width="0.09375" opacity="1.00" d=" M 88.2 8.1 C 97.4 7.9 106.7 8.1 116.0 8.0 C 123.0 8.1 130.2 7.3 136.8 10.2 C 145.9 13.7 153.0 21.9 155.3 31.4 C 156.3 35.5 156.2 39.8 156.2 44.0 C 156.1 66.7 156.3 89.3 156.1 112.0 C 156.1 124.1 148.0 135.5 136.8 139.8 C 130.2 142.7 123.0 141.9 116.0 142.0 C 106.7 141.9 97.4 142.2 88.2 141.9 C 88.1 97.3 88.1 52.7 88.2 8.1 M 118.3 75.1 C 111.6 76.8 106.8 84.0 108.1 90.9 C 109.0 98.0 115.8 103.7 123.0 103.0 C 131.4 102.9 137.9 94.0 136.2 86.0 C 134.8 78.1 126.0 72.6 118.3 75.1 Z"/>
<path fill="#ffffff" stroke="#ffffff" stroke-width="0.09375" opacity="1.00" d=" M 403.3 9.9 C 415.4 9.1 427.6 9.8 439.7 9.5 C 439.7 12.0 439.7 14.5 439.6 16.9 C 432.1 17.7 424.5 17.0 416.9 17.3 C 416.5 20.5 416.5 23.7 416.8 26.9 C 423.9 27.2 430.9 26.8 438.0 27.1 C 438.0 29.6 438.0 32.2 437.9 34.7 C 430.9 34.9 423.8 34.5 416.8 34.9 C 416.5 38.6 416.5 42.3 416.8 46.1 C 424.4 46.5 432.0 46.0 439.6 46.3 C 439.7 48.8 439.7 51.3 439.7 53.8 C 427.5 54.2 415.4 54.1 403.3 53.9 C 403.3 39.2 403.3 24.5 403.3 9.9 Z"/>
<path fill="#ffffff" stroke="#ffffff" stroke-width="0.09375" opacity="1.00" d=" M 606.4 9.7 C 616.8 8.1 628.2 8.0 637.6 13.5 C 650.3 20.9 650.3 42.1 637.8 49.7 C 629.5 54.8 619.4 55.1 610.0 54.2 C 601.8 53.4 592.8 49.8 589.1 41.9 C 585.5 33.8 586.2 23.1 592.6 16.5 C 596.2 12.8 601.3 10.7 606.4 9.7 M 610.4 17.6 C 600.7 20.1 598.7 33.0 603.3 40.7 C 606.9 46.5 614.6 47.3 620.8 46.5 C 626.2 46.0 631.3 42.2 632.5 36.8 C 633.7 30.8 633.0 23.3 627.7 19.4 C 622.6 16.2 616.1 16.1 610.4 17.6 Z"/>
<path fill="#ffffff" stroke="#ffffff" stroke-width="0.09375" opacity="1.00" d=" M 179.3 10.0 C 184.5 9.2 189.8 9.5 195.0 9.6 C 196.7 9.6 197.6 11.3 198.7 12.4 C 207.0 22.6 215.4 32.8 223.8 43.0 C 223.2 32.0 223.2 20.9 223.3 9.9 C 227.2 9.3 231.2 9.4 235.2 9.7 C 235.4 24.5 235.4 39.2 235.2 54.0 C 229.5 54.1 223.9 54.2 218.2 53.9 C 208.7 42.8 200.1 31.0 190.3 20.1 C 191.9 31.3 191.4 42.7 191.2 54.0 C 187.2 54.2 183.3 54.1 179.3 53.8 C 179.4 39.2 179.4 24.6 179.3 10.0 Z"/>
<path fill="#ffffff" stroke="#ffffff" stroke-width="0.09375" opacity="1.00" d=" M 251.2 9.8 C 255.6 9.5 260.2 9.1 264.6 10.0 C 264.6 24.6 264.6 39.2 264.7 53.8 C 260.2 54.2 255.7 54.2 251.2 53.9 C 251.1 39.2 251.1 24.5 251.2 9.8 Z"/>
<path fill="#ffffff" stroke="#ffffff" stroke-width="0.09375" opacity="1.00" d=" M 280.3 10.0 C 285.5 9.2 290.8 9.5 296.0 9.6 C 297.4 9.6 298.3 10.9 299.2 11.8 C 307.8 22.2 316.2 32.6 324.8 43.0 C 324.1 32.0 324.2 20.9 324.3 9.9 C 328.2 9.3 332.2 9.4 336.2 9.7 C 336.4 24.5 336.4 39.2 336.2 54.0 C 330.5 54.1 324.9 54.2 319.2 53.9 C 309.7 42.8 301.1 31.0 291.3 20.1 C 292.8 31.3 292.5 42.7 292.2 54.0 C 288.2 54.2 284.3 54.1 280.3 53.8 C 280.4 39.2 280.4 24.6 280.3 10.0 Z"/>
<path fill="#ffffff" stroke="#ffffff" stroke-width="0.09375" opacity="1.00" d=" M 346.0 9.7 C 361.8 9.4 377.6 9.5 393.4 9.7 C 393.6 12.2 393.6 14.7 393.4 17.2 C 387.9 17.5 382.4 17.3 377.0 17.3 C 376.0 29.4 376.8 41.6 376.6 53.8 C 372.1 54.2 367.6 54.2 363.1 53.9 C 362.8 41.7 363.4 29.5 362.8 17.3 C 357.2 17.3 351.6 17.6 346.0 17.2 C 345.9 14.7 345.9 12.2 346.0 9.7 Z"/>
<path fill="#ffffff" stroke="#ffffff" stroke-width="0.09375" opacity="1.00" d=" M 452.8 9.7 C 458.4 9.6 464.2 9.0 469.7 10.0 C 479.2 20.4 487.4 32.0 497.0 42.4 C 496.6 31.5 496.3 20.6 496.8 9.7 C 500.7 9.5 504.7 9.2 508.7 10.0 C 508.6 24.6 508.6 39.2 508.7 53.8 C 502.9 54.0 497.1 54.6 491.4 53.6 C 482.1 42.6 473.1 31.3 464.0 20.1 C 464.8 31.3 464.8 42.6 464.7 53.8 C 460.8 54.1 456.8 54.2 452.8 53.9 C 452.6 39.2 452.6 24.5 452.8 9.7 Z"/>
<path fill="#ffffff" stroke="#ffffff" stroke-width="0.09375" opacity="1.00" d=" M 524.4 10.0 C 529.8 9.0 535.5 9.8 541.0 9.5 C 550.8 9.4 561.6 10.0 569.6 16.2 C 578.5 22.7 579.2 37.0 571.9 44.9 C 566.7 50.3 559.1 52.5 551.9 53.5 C 542.8 54.3 533.5 54.2 524.3 53.8 C 524.4 39.2 524.4 24.6 524.4 10.0 M 538.1 17.3 C 537.7 26.9 537.8 36.5 538.0 46.1 C 544.2 46.3 550.8 46.6 556.5 43.5 C 563.7 39.7 564.7 29.0 560.3 22.8 C 554.8 16.4 545.6 17.2 538.1 17.3 Z"/>
<path fill="#ffffff" stroke="#ffffff" stroke-width="0.09375" opacity="1.00" d=" M 39.4 33.6 C 47.5 30.7 57.1 36.4 58.2 45.0 C 59.8 53.0 53.1 61.2 45.0 61.5 C 37.3 62.3 29.8 55.8 29.7 48.0 C 29.2 41.7 33.4 35.5 39.4 33.6 Z"/>
<path fill="#ffffff" stroke="#ffffff" stroke-width="0.09375" opacity="1.00" d=" M 188.0 69.0 C 194.6 63.4 203.6 61.8 212.0 61.9 C 221.1 61.6 230.0 64.1 238.5 67.1 C 237.4 71.6 234.8 75.6 232.7 79.7 C 226.5 78.0 220.4 75.7 214.0 75.5 C 209.8 75.3 204.8 75.4 201.8 78.8 C 199.2 82.0 200.4 87.1 204.0 89.0 C 213.4 94.5 224.7 96.7 233.1 103.8 C 241.2 110.6 241.4 124.5 233.6 131.6 C 227.8 136.9 219.8 139.3 212.1 139.9 C 202.7 140.4 193.1 139.9 184.2 136.9 C 183.0 136.4 181.5 136.1 180.8 134.9 C 180.3 130.3 180.6 125.5 180.8 120.8 C 189.0 123.3 197.2 126.4 206.0 126.7 C 210.1 126.8 214.6 126.7 218.0 124.1 C 221.2 121.7 221.3 116.2 218.1 113.8 C 208.5 106.4 195.0 105.6 186.7 96.3 C 179.5 89.0 179.9 75.5 188.0 69.0 Z"/>
<path fill="#ffffff" stroke="#ffffff" stroke-width="0.09375" opacity="1.00" d=" M 505.8 67.9 C 521.3 59.4 540.8 60.3 556.6 67.3 C 555.5 71.8 552.8 75.8 550.8 80.0 C 545.8 79.1 541.2 76.5 536.0 75.8 C 529.4 74.8 522.0 75.3 516.6 79.7 C 511.3 83.7 508.7 90.4 508.2 96.9 C 507.6 104.1 508.1 111.8 512.0 118.0 C 515.0 122.9 520.5 125.7 526.0 126.3 C 535.4 127.3 544.7 125.2 553.6 122.4 C 553.7 127.0 553.7 131.7 553.4 136.3 C 544.3 139.5 534.5 140.3 524.9 140.0 C 514.6 139.5 503.8 136.1 496.9 128.1 C 489.9 120.2 487.9 109.2 488.3 98.9 C 488.4 86.5 494.9 74.0 505.8 67.9 Z"/>
<path fill="#ffffff" stroke="#ffffff" stroke-width="0.09375" opacity="1.00" d=" M 244.5 63.0 C 250.8 63.0 257.1 62.7 263.4 63.3 C 268.0 83.6 275.6 103.3 278.7 124.0 C 282.9 103.3 290.3 83.4 296.2 63.1 C 302.3 62.9 308.5 62.7 314.6 63.3 C 320.1 83.5 328.1 103.2 331.5 124.0 C 335.4 103.4 342.0 83.5 347.3 63.2 C 353.5 62.7 359.8 63.0 366.0 63.0 C 358.9 88.4 350.8 113.4 343.5 138.7 C 336.2 139.2 328.8 139.3 321.4 138.7 C 316.0 119.8 309.1 101.3 305.3 82.0 C 301.1 101.3 294.6 120.1 288.9 139.0 C 281.6 139.1 274.4 139.2 267.2 138.9 C 259.6 113.6 251.6 88.4 244.5 63.0 Z"/>
<path fill="#ffffff" stroke="#ffffff" stroke-width="0.09375" opacity="1.00" d=" M 377.7 63.0 C 384.1 62.9 390.4 62.8 396.7 63.1 C 396.7 88.4 396.7 113.6 396.7 138.9 C 390.4 139.2 384.0 139.1 377.7 139.0 C 377.4 113.7 377.4 88.3 377.7 63.0 Z"/>
<path fill="#ffffff" stroke="#ffffff" stroke-width="0.09375" opacity="1.00" d=" M 410.4 63.2 C 433.0 62.7 455.6 63.0 478.3 63.0 C 478.6 67.4 478.6 71.9 478.3 76.3 C 470.2 76.6 462.2 76.3 454.2 76.4 C 453.7 97.2 454.3 118.1 454.0 139.0 C 447.6 139.1 441.3 139.1 435.0 139.0 C 434.6 118.1 435.1 97.2 434.7 76.4 C 426.6 76.4 418.5 76.4 410.3 76.5 C 410.4 72.0 410.4 67.6 410.4 63.2 Z"/>
<path fill="#ffffff" stroke="#ffffff" stroke-width="0.09375" opacity="1.00" d=" M 572.8 63.0 C 579.1 62.9 585.5 62.8 591.8 63.1 C 592.0 73.0 591.4 82.9 592.0 92.7 C 603.7 92.7 615.4 92.7 627.1 92.7 C 627.8 82.9 627.2 73.0 627.3 63.2 C 633.6 62.8 640.0 62.9 646.3 63.0 C 646.6 88.3 646.6 113.7 646.3 139.0 C 640.0 139.1 633.6 139.2 627.3 138.8 C 627.2 128.0 627.8 117.1 627.1 106.3 C 615.4 106.3 603.7 106.3 592.0 106.3 C 591.4 117.1 592.0 128.0 591.8 138.9 C 585.5 139.2 579.1 139.1 572.8 139.0 C 572.5 113.7 572.5 88.3 572.8 63.0 Z"/>
</svg>