<svg xmlns="http://www.w3.org/2000/svg" version="1.1" viewBox="1.87 0.86 997.23 159.28">
<path fill="#ffffff" stroke="#ffffff" stroke-width="0.09375" opacity="1.00" d=" M 70.0 1.8 C 75.7 0.7 81.7 0.6 87.4 1.6 C 110.1 3.6 131.3 14.0 149.4 27.5 C 153.0 29.9 155.5 33.6 159.0 36.0 C 164.3 39.7 167.9 45.1 172.1 49.9 C 177.9 57.9 183.9 66.0 187.3 75.5 C 182.1 72.7 179.6 66.6 175.3 62.7 C 167.1 53.6 155.4 48.5 143.8 45.2 C 138.4 44.8 132.9 45.1 127.5 45.1 C 129.9 47.6 133.0 49.4 136.0 51.1 C 145.3 57.7 153.3 66.2 158.6 76.3 C 164.4 86.2 169.5 97.3 169.0 109.0 C 169.5 116.2 167.1 123.1 164.8 129.9 C 157.3 145.2 141.7 156.2 124.8 158.7 C 100.9 163.2 76.2 156.4 55.4 144.6 C 45.6 138.8 36.1 132.2 28.2 123.8 C 23.3 120.4 20.1 115.2 16.2 110.8 C 11.7 106.7 9.3 101.0 5.9 96.0 C 4.0 92.8 1.4 89.5 2.0 85.5 C 9.8 96.1 19.1 106.2 31.4 111.6 C 40.8 115.5 51.4 118.8 61.5 115.7 C 56.9 112.2 51.3 110.0 47.2 105.8 C 32.9 92.7 22.0 75.4 19.0 56.0 C 19.0 51.7 18.9 47.4 19.1 43.0 C 19.9 37.8 21.9 32.8 24.0 28.0 C 33.6 12.1 51.8 3.1 70.0 1.8 M 64.9 45.9 C 58.9 48.8 55.3 55.2 53.3 61.4 C 51.8 71.9 53.9 83.1 59.9 92.1 C 61.6 95.0 63.8 97.6 65.6 100.4 C 69.6 106.4 75.8 110.3 81.4 114.5 C 93.2 122.3 108.0 127.6 122.0 123.8 L 122.0 123.2 C 108.3 121.2 95.9 112.4 90.4 99.6 C 88.3 95.1 89.0 89.9 89.1 85.1 C 91.3 77.4 99.6 74.1 106.9 74.1 C 122.5 75.9 138.0 87.6 140.2 103.8 C 140.6 104.1 141.4 104.9 141.8 105.3 C 143.2 100.3 143.6 95.0 142.0 90.0 C 139.9 79.3 134.3 69.2 126.3 61.7 C 118.9 53.6 109.4 47.4 99.0 44.0 C 88.1 39.8 75.2 39.8 64.9 45.9 Z"/>
<path fill="#ffffff" stroke="#ffffff" stroke-width="0.09375" opacity="1.00" d=" M 741.0 49.0 C 747.5 47.6 754.1 48.3 760.5 46.8 C 758.1 52.2 752.4 54.8 748.5 59.0 C 738.0 59.1 727.6 58.8 717.1 59.1 C 711.6 60.3 710.0 66.7 709.9 71.5 C 710.7 72.3 711.6 73.2 712.4 74.0 C 721.0 74.0 729.5 74.0 738.0 74.0 C 741.2 74.0 744.7 74.6 746.8 77.2 C 749.1 79.6 748.9 83.1 749.8 86.0 C 748.1 92.2 747.0 98.8 743.2 104.2 C 740.4 107.5 737.2 110.7 732.9 111.9 C 727.6 112.1 722.3 111.9 717.0 112.3 C 709.2 112.1 701.4 113.5 693.6 112.3 C 690.7 111.7 687.8 113.8 685.0 112.2 C 677.2 113.9 669.0 112.6 661.0 113.0 C 655.6 112.5 649.8 114.1 644.6 111.9 C 647.5 108.9 650.5 106.0 653.4 103.0 C 663.3 102.9 673.2 103.1 683.0 102.9 C 689.7 102.4 696.6 104.0 703.2 102.2 C 705.1 101.9 706.9 103.1 708.8 102.8 C 713.3 102.0 718.4 103.4 722.2 100.3 C 723.9 96.9 725.4 93.3 725.1 89.4 C 724.2 88.6 723.4 87.8 722.6 87.0 C 713.0 86.9 703.5 87.1 694.0 87.0 C 689.9 86.9 687.6 83.1 686.3 79.6 C 684.9 73.6 687.0 67.6 689.0 62.0 C 691.9 55.1 698.2 49.4 706.0 49.0 C 717.7 48.9 729.3 49.1 741.0 49.0 Z"/>
<path fill="#ffffff" stroke="#ffffff" stroke-width="0.09375" opacity="1.00" d=" M 218.4 49.3 C 222.9 48.9 227.5 47.8 232.1 47.9 C 232.3 53.5 230.0 58.7 229.1 64.0 C 228.1 69.9 226.6 75.6 225.4 81.4 C 223.4 89.1 222.6 97.1 219.8 104.5 C 221.0 105.5 222.3 106.4 223.9 106.0 C 227.7 103.8 231.1 101.0 234.8 98.5 C 237.2 87.7 239.4 76.8 241.9 66.0 C 242.8 62.8 242.6 59.2 244.3 56.3 C 247.8 53.8 250.8 50.2 255.1 49.2 C 259.8 48.9 264.4 47.6 269.1 48.0 C 265.9 59.5 264.0 71.4 261.1 83.0 C 259.3 90.5 259.0 99.0 253.8 105.1 C 259.8 108.2 265.0 102.7 269.4 99.4 C 272.1 98.0 271.9 94.7 272.3 92.2 C 275.0 80.2 277.7 68.2 280.2 56.1 C 283.8 54.2 286.7 51.2 290.3 49.3 C 295.3 48.5 300.2 47.6 305.2 48.0 C 301.2 64.9 298.0 81.9 293.7 98.7 C 289.9 102.3 285.1 104.7 281.2 108.1 C 278.3 110.0 275.8 113.4 272.0 113.0 C 246.6 113.0 221.2 113.0 195.8 113.0 C 197.2 102.0 200.6 91.4 202.6 80.6 C 205.0 72.6 205.7 64.2 208.3 56.3 C 211.5 53.8 214.7 51.1 218.4 49.3 Z"/>
<path fill="#ffffff" stroke="#ffffff" stroke-width="0.09375" opacity="1.00" d=" M 513.2 55.0 C 520.6 55.1 528.0 54.9 535.5 55.1 C 532.0 61.3 526.5 66.0 522.0 71.5 C 522.0 72.5 522.0 73.6 522.0 74.6 C 522.5 75.1 523.6 76.0 524.2 76.4 C 522.4 88.4 518.1 99.8 515.7 111.7 C 515.4 112.0 515.0 112.6 514.7 112.9 C 495.8 113.2 476.9 112.9 458.0 113.0 C 455.4 113.2 453.3 111.6 451.1 110.7 C 449.8 107.9 449.5 104.6 450.6 101.6 C 452.6 95.9 453.5 90.0 455.3 84.3 C 461.4 79.8 468.3 76.2 474.6 72.1 C 482.6 71.9 490.5 72.1 498.5 72.0 C 499.8 70.7 501.0 69.5 502.4 68.5 C 507.4 65.3 509.7 59.6 513.2 55.0 M 488.4 78.3 C 485.1 80.4 481.4 82.0 478.3 84.2 C 475.8 91.2 474.4 98.5 472.8 105.7 C 479.6 108.4 486.7 104.9 493.8 106.0 C 495.9 98.4 498.0 90.8 500.2 83.2 C 500.6 81.5 501.9 79.1 499.7 78.2 C 495.9 77.9 492.1 77.7 488.4 78.3 Z"/>
<path fill="#ffffff" stroke="#ffffff" stroke-width="0.09375" opacity="1.00" d=" M 760.1 76.4 C 764.4 74.8 767.5 71.0 772.1 70.1 C 775.8 69.8 779.5 70.0 783.2 70.0 C 781.6 82.3 776.1 93.9 774.8 106.2 C 780.2 105.9 785.2 102.6 788.7 98.7 C 791.0 91.3 792.2 83.4 795.3 76.3 C 798.7 73.9 802.2 71.6 806.1 70.1 C 810.1 69.8 814.2 70.0 818.2 70.0 C 816.7 79.3 813.6 88.2 811.4 97.4 C 810.7 100.5 808.3 102.9 807.6 106.0 C 814.0 107.3 818.8 102.6 823.8 99.6 C 826.1 91.9 827.1 83.7 830.3 76.3 C 833.7 73.9 837.2 71.6 841.1 70.1 C 845.1 69.8 849.2 70.0 853.2 70.0 C 851.4 80.1 847.9 89.8 845.8 99.9 C 842.2 102.2 838.6 104.7 834.8 106.8 C 831.1 109.0 827.6 112.5 823.0 112.0 C 799.0 111.9 774.9 112.0 750.8 112.0 C 753.5 100.0 756.2 88.0 760.1 76.4 Z"/>
<path fill="#ffffff" stroke="#ffffff" stroke-width="0.09375" opacity="1.00" d=" M 870.3 72.2 C 874.9 71.6 879.3 69.9 884.0 70.0 C 898.4 70.0 912.8 69.9 927.2 70.0 C 924.0 83.7 919.7 97.2 916.8 110.9 C 909.4 113.2 901.5 111.5 893.8 112.0 C 895.2 100.1 900.4 88.9 902.2 77.0 C 893.9 76.3 883.8 77.1 879.0 85.0 C 877.1 90.2 874.2 96.5 877.3 101.7 C 881.3 105.9 887.3 104.9 892.5 105.1 C 890.4 108.8 886.5 112.4 882.0 112.0 C 877.4 111.9 872.7 112.1 868.0 111.9 C 861.9 111.2 855.1 108.2 853.1 101.9 C 851.9 90.6 857.2 77.4 868.7 73.7 C 869.1 73.3 869.9 72.6 870.3 72.2 Z"/>
<path fill="#ffffff" stroke="#ffffff" stroke-width="0.09375" opacity="1.00" d=" M 935.2 70.1 C 952.5 69.9 969.8 70.1 987.0 70.0 C 993.3 70.1 1001.0 75.8 998.6 82.7 C 996.1 91.8 993.9 101.2 991.3 110.3 C 984.2 113.2 976.3 111.6 968.9 112.0 C 968.6 105.4 971.8 99.4 973.0 93.0 C 973.9 88.3 976.1 83.9 976.2 79.1 C 970.2 75.1 962.7 77.7 956.0 77.0 C 953.0 84.3 952.2 92.2 949.7 99.6 C 948.7 102.4 946.2 104.2 944.3 106.3 C 942.0 108.4 940.1 111.2 936.9 111.9 C 933.0 112.2 929.1 111.9 925.3 112.0 C 924.9 111.6 924.3 110.7 924.0 110.2 C 927.8 97.4 930.9 84.3 934.4 71.3 C 934.6 71.0 935.0 70.4 935.2 70.1 Z"/>
<path fill="#ffffff" stroke="#ffffff" stroke-width="0.09375" opacity="1.00" d=" M 383.2 72.1 C 390.3 69.2 397.7 72.5 405.0 72.0 C 415.7 72.0 426.4 72.0 437.0 72.0 C 441.5 72.0 445.0 75.4 448.0 78.4 C 448.6 87.2 444.5 95.3 442.8 103.8 C 441.6 106.8 441.6 110.3 439.8 112.9 C 432.4 113.2 425.1 112.9 417.8 113.0 C 418.4 107.6 420.6 102.7 421.5 97.4 C 422.6 92.1 425.3 87.0 425.1 81.4 C 424.2 80.7 423.4 79.9 422.6 79.1 C 416.5 78.7 410.2 77.9 404.2 79.1 C 402.9 87.1 400.1 94.7 398.8 102.7 C 395.0 106.3 391.7 110.8 386.8 112.9 C 382.1 113.2 377.5 112.9 372.8 113.0 C 375.9 99.3 380.5 85.9 383.2 72.1 Z"/>
<path fill="#ffffff" stroke="#ffffff" stroke-width="0.09375" opacity="1.00" d=" M 541.6 76.6 C 545.7 74.6 549.1 70.5 554.0 71.0 C 565.0 71.0 576.0 71.0 587.0 71.0 C 589.6 71.0 592.1 71.8 594.7 72.2 C 595.8 73.3 596.9 74.3 598.0 75.4 C 597.9 78.7 598.8 82.6 596.2 85.2 C 590.7 89.2 584.7 92.3 579.0 96.0 C 577.8 96.8 576.4 97.1 575.0 97.0 C 566.7 97.0 558.4 97.0 550.1 97.0 C 548.2 99.6 547.7 102.8 547.9 106.0 C 558.8 106.1 569.7 105.8 580.5 106.1 C 578.7 109.4 574.9 111.0 571.8 112.9 C 559.2 113.2 546.6 112.9 534.0 113.0 C 529.6 113.3 524.6 110.9 524.1 106.1 C 526.0 98.5 527.9 90.9 530.1 83.4 C 534.2 81.6 537.4 78.4 541.6 76.6 M 552.2 85.2 C 551.9 86.9 551.6 88.6 551.2 90.2 C 552.8 91.2 554.6 91.0 556.2 90.0 C 556.6 90.2 557.4 90.7 557.8 91.0 C 561.2 89.2 565.1 90.6 568.6 89.7 C 573.5 87.4 579.7 84.4 579.2 78.0 C 575.1 78.0 571.1 78.0 567.0 78.0 C 561.1 77.3 556.3 81.5 552.2 85.2 Z"/>
<path fill="#ffffff" stroke="#ffffff" stroke-width="0.09375" opacity="1.00" d=" M 607.7 80.7 C 613.2 77.6 618.2 73.5 624.1 71.1 C 634.7 70.8 645.4 71.1 656.0 71.0 C 658.9 70.8 661.7 71.7 664.6 72.2 C 668.8 74.5 672.8 79.9 669.9 84.6 C 666.6 85.8 664.0 88.4 660.8 89.9 C 655.9 89.9 650.8 90.7 646.1 89.2 C 647.0 85.9 648.8 82.4 646.9 79.1 C 643.5 77.7 639.7 77.8 636.1 78.1 C 632.5 79.3 629.6 81.9 626.1 83.4 C 623.4 92.9 621.0 102.4 618.8 112.0 C 611.8 113.6 604.5 113.0 597.3 112.8 C 597.0 112.6 596.3 112.0 596.0 111.7 C 597.6 102.8 600.7 94.2 602.2 85.2 C 603.9 83.6 605.5 81.8 607.7 80.7 Z"/>
<path fill="#ffffff" stroke="#ffffff" stroke-width="0.09375" opacity="1.00" d=" M 319.7 75.7 C 322.4 74.3 324.7 71.7 328.0 72.0 C 340.7 72.0 353.3 72.0 366.0 72.0 C 368.5 71.8 370.7 73.4 372.9 74.3 C 374.0 76.9 374.4 79.9 373.6 82.7 C 372.0 88.7 370.8 94.8 368.6 100.7 C 367.0 103.1 363.9 103.9 361.6 105.6 C 357.2 107.8 353.6 111.3 348.9 112.9 C 334.6 113.1 320.3 113.0 306.0 113.0 C 301.6 113.0 298.9 108.1 300.2 104.2 C 302.3 98.0 303.4 91.5 305.3 85.3 C 309.4 81.2 314.9 78.8 319.7 75.7 M 328.2 85.1 C 326.8 91.9 324.9 98.6 323.0 105.2 C 323.3 105.7 323.9 106.6 324.3 107.0 C 327.8 107.0 331.4 107.2 334.9 106.9 C 339.0 105.6 342.2 102.6 345.9 100.6 C 348.0 93.5 349.9 86.3 351.2 79.0 C 346.8 79.1 342.4 78.8 338.1 79.1 C 334.6 80.6 331.3 82.8 328.2 85.1 Z"/>
</svg>